<svg width="1484" height="742" viewBox="0 0 1484 742" fill="none" xmlns="http://www.w3.org/2000/svg">
<rect x="1144" y="216" width="289" height="456" fill="#C4C4C4"/>
<rect width="1484" height="742" fill="#C4C4C4"/>
<g filter="url(#filter0_i)">
<path d="M122 153L268.121 581H443.466L574 153H122Z" fill="#C4C4C4" stroke="black"/>
<g filter="url(#filter1_i)">
<path d="M247.135 269.102C247.135 268.61 247.141 268.172 247.153 267.788C247.165 267.392 247.171 266.942 247.171 266.438H247.135C246.871 266.438 246.493 266.444 246.001 266.456C245.509 266.468 245.131 266.474 244.867 266.474H241.141C241.057 266.042 241.003 265.622 240.979 265.214C240.955 264.794 240.943 264.422 240.943 264.098C240.943 263.762 240.955 263.384 240.979 262.964C241.003 262.544 241.057 262.118 241.141 261.686H258.961C259.045 261.986 259.111 262.34 259.159 262.748C259.219 263.144 259.249 263.528 259.249 263.9C259.249 264.836 259.003 265.502 258.511 265.898C258.031 266.282 257.275 266.474 256.243 266.474H255.181C254.917 266.474 254.539 266.468 254.047 266.456C253.555 266.444 253.177 266.438 252.913 266.438H252.877C252.877 266.942 252.883 267.392 252.895 267.788C252.907 268.172 252.913 268.61 252.913 269.102V286.274C252.421 286.358 251.917 286.412 251.401 286.436C250.885 286.472 250.429 286.49 250.033 286.49C249.625 286.49 249.163 286.472 248.647 286.436C248.131 286.412 247.627 286.358 247.135 286.274V269.102ZM266.819 286.274C266.027 286.418 265.097 286.49 264.029 286.49C263.069 286.49 262.163 286.418 261.311 286.274V260.03L261.563 259.778H263.759C264.863 259.778 265.649 260.03 266.117 260.534C266.585 261.038 266.819 261.914 266.819 263.162V269.966C267.491 269.414 268.217 268.946 268.997 268.562C269.789 268.178 270.665 267.986 271.625 267.986C273.269 267.986 274.517 268.586 275.369 269.786C276.233 270.974 276.665 272.51 276.665 274.394V281.774C276.665 282.482 276.731 283.142 276.863 283.754C276.995 284.354 277.223 284.888 277.547 285.356C277.139 285.704 276.629 285.992 276.017 286.22C275.405 286.448 274.745 286.562 274.037 286.562C272.909 286.562 272.123 286.262 271.679 285.662C271.247 285.062 271.031 284.198 271.031 283.07V275.42C271.031 274.604 270.923 274.004 270.707 273.62C270.491 273.224 270.083 273.026 269.483 273.026C269.123 273.026 268.703 273.122 268.223 273.314C267.743 273.506 267.275 273.818 266.819 274.25V286.274ZM287.337 286.274C286.941 286.346 286.491 286.4 285.987 286.436C285.495 286.472 285.009 286.49 284.529 286.49C284.061 286.49 283.575 286.472 283.071 286.436C282.579 286.4 282.123 286.346 281.703 286.274V274.358C281.703 273.758 281.577 273.26 281.325 272.864C281.085 272.468 280.647 272.27 280.011 272.27H279.471C279.315 271.682 279.237 271.046 279.237 270.362C279.237 270.05 279.255 269.72 279.291 269.372C279.327 269.012 279.387 268.67 279.471 268.346C280.023 268.286 280.587 268.244 281.163 268.22C281.751 268.184 282.243 268.166 282.639 268.166H283.413C284.613 268.166 285.567 268.556 286.275 269.336C286.983 270.104 287.337 271.148 287.337 272.468V286.274ZM280.623 263.252C280.623 262.508 280.761 261.806 281.037 261.146C281.349 260.99 281.751 260.858 282.243 260.75C282.747 260.642 283.239 260.588 283.719 260.588C284.199 260.588 284.697 260.642 285.213 260.75C285.729 260.858 286.125 260.99 286.401 261.146C286.533 261.482 286.635 261.836 286.707 262.208C286.779 262.58 286.815 262.928 286.815 263.252C286.815 263.984 286.677 264.68 286.401 265.34C286.125 265.496 285.729 265.628 285.213 265.736C284.697 265.844 284.199 265.898 283.719 265.898C283.239 265.898 282.741 265.85 282.225 265.754C281.721 265.646 281.325 265.508 281.037 265.34C280.761 264.68 280.623 263.984 280.623 263.252ZM307.06 281.774C307.06 282.482 307.126 283.142 307.258 283.754C307.39 284.354 307.624 284.888 307.96 285.356C307.54 285.704 307.024 285.992 306.412 286.22C305.8 286.448 305.146 286.562 304.45 286.562C303.322 286.562 302.536 286.262 302.092 285.662C301.648 285.062 301.426 284.198 301.426 283.07V275.42C301.426 274.604 301.318 274.004 301.102 273.62C300.898 273.224 300.496 273.026 299.896 273.026C299.536 273.026 299.116 273.122 298.636 273.314C298.156 273.506 297.682 273.818 297.214 274.25V286.274C296.818 286.346 296.368 286.4 295.864 286.436C295.372 286.472 294.886 286.49 294.406 286.49C293.938 286.49 293.452 286.472 292.948 286.436C292.444 286.4 291.988 286.346 291.58 286.274V268.31L291.832 268.058H293.956C294.724 268.058 295.354 268.25 295.846 268.634C296.35 269.006 296.716 269.528 296.944 270.2C297.652 269.588 298.42 269.066 299.248 268.634C300.076 268.202 301 267.986 302.02 267.986C303.664 267.986 304.912 268.586 305.764 269.786C306.628 270.974 307.06 272.51 307.06 274.394V281.774ZM310.278 277.328C310.278 275.264 310.602 273.524 311.25 272.108C311.91 270.68 312.786 269.6 313.878 268.868C314.982 268.136 316.188 267.77 317.496 267.77C318.552 267.77 319.464 267.932 320.232 268.256C321.012 268.58 321.672 268.976 322.212 269.444C322.608 269.012 323.088 268.67 323.652 268.418C324.228 268.166 324.888 268.034 325.632 268.022C325.98 268.298 326.334 268.724 326.694 269.3C327.054 269.864 327.27 270.398 327.342 270.902C327.042 271.118 326.796 271.466 326.604 271.946C326.424 272.414 326.334 272.93 326.334 273.494V282.998C326.334 284.678 326.256 286.064 326.1 287.156C325.956 288.248 325.746 289.142 325.47 289.838C325.194 290.534 324.864 291.122 324.48 291.602C323.772 292.502 322.83 293.162 321.654 293.582C320.478 294.014 319.17 294.23 317.73 294.23C316.602 294.23 315.426 294.116 314.202 293.888C312.978 293.672 311.898 293.39 310.962 293.042C310.962 292.382 311.094 291.656 311.358 290.864C311.622 290.072 311.952 289.442 312.348 288.974C313.968 289.694 315.588 290.054 317.208 290.054C318.528 290.054 319.464 289.718 320.016 289.046C320.568 288.386 320.844 287.504 320.844 286.4V285.248C320.268 285.668 319.626 286.004 318.918 286.256C318.222 286.508 317.502 286.634 316.758 286.634C315.294 286.634 314.082 286.238 313.122 285.446C312.162 284.654 311.448 283.562 310.98 282.17C310.512 280.766 310.278 279.152 310.278 277.328ZM316.038 277.364C316.038 279.032 316.236 280.244 316.632 281C317.04 281.744 317.55 282.116 318.162 282.116C319.146 282.116 320.04 281.702 320.844 280.874V273.422C320.844 273.338 320.85 273.254 320.862 273.17C320.01 272.354 319.218 271.946 318.486 271.946C317.61 271.946 316.98 272.432 316.596 273.404C316.224 274.364 316.038 275.684 316.038 277.364ZM329.128 285.032C329.152 284.432 329.314 283.76 329.614 283.016C329.926 282.272 330.286 281.684 330.694 281.252C331.486 281.66 332.302 282.014 333.142 282.314C333.994 282.602 334.84 282.746 335.68 282.746C336.376 282.746 336.898 282.626 337.246 282.386C337.606 282.146 337.786 281.846 337.786 281.486C337.786 280.79 337.24 280.244 336.148 279.848L334.15 279.128C332.878 278.66 331.81 278.006 330.946 277.166C330.082 276.314 329.65 275.168 329.65 273.728C329.65 271.904 330.28 270.458 331.54 269.39C332.812 268.31 334.504 267.77 336.616 267.77C337.744 267.77 338.932 267.926 340.18 268.238C341.44 268.55 342.46 268.898 343.24 269.282C343.264 269.726 343.204 270.212 343.06 270.74C342.928 271.256 342.742 271.736 342.502 272.18C342.262 272.624 341.992 272.96 341.692 273.188C340.948 272.852 340.138 272.546 339.262 272.27C338.386 271.982 337.522 271.838 336.67 271.838C336.178 271.838 335.806 271.952 335.554 272.18C335.314 272.408 335.194 272.678 335.194 272.99C335.194 273.566 335.65 274.022 336.562 274.358L338.794 275.15C340.162 275.642 341.302 276.35 342.214 277.274C343.126 278.186 343.582 279.41 343.582 280.946C343.582 282.734 342.892 284.162 341.512 285.23C340.144 286.286 338.242 286.814 335.806 286.814C334.522 286.814 333.298 286.64 332.134 286.292C330.982 285.944 329.98 285.524 329.128 285.032ZM365.563 285.788C365.131 287.432 364.585 288.878 363.925 290.126C363.265 291.386 362.365 292.37 361.225 293.078C360.085 293.798 358.585 294.158 356.725 294.158C356.005 294.158 355.219 294.08 354.367 293.924C353.515 293.768 352.843 293.6 352.351 293.42C352.279 292.784 352.357 292.064 352.585 291.26C352.813 290.456 353.113 289.838 353.485 289.406C353.869 289.526 354.355 289.646 354.943 289.766C355.531 289.898 356.125 289.964 356.725 289.964C357.637 289.964 358.381 289.706 358.957 289.19C359.545 288.674 359.977 287.96 360.253 287.048L360.397 286.526C359.425 286.514 358.615 286.346 357.967 286.022C357.319 285.698 356.881 285.11 356.653 284.258L352.459 268.742C353.035 268.49 353.641 268.304 354.277 268.184C354.913 268.052 355.465 267.986 355.933 267.986C356.617 267.986 357.181 268.154 357.625 268.49C358.081 268.826 358.423 269.462 358.651 270.398L360.343 277.328C360.451 277.724 360.553 278.222 360.649 278.822C360.757 279.41 360.853 279.998 360.937 280.586C361.021 281.162 361.087 281.648 361.135 282.044C361.171 282.212 361.273 282.296 361.441 282.296L364.573 268.328C364.885 268.244 365.245 268.184 365.653 268.148C366.061 268.112 366.439 268.094 366.787 268.094C367.267 268.094 367.759 268.124 368.263 268.184C368.779 268.232 369.289 268.34 369.793 268.508L370.009 268.886L365.563 285.788ZM387.482 277.292C387.482 280.172 386.774 282.482 385.358 284.222C383.942 285.95 381.878 286.814 379.166 286.814C376.418 286.814 374.342 285.944 372.938 284.204C371.546 282.464 370.85 280.16 370.85 277.292C370.85 274.4 371.558 272.09 372.974 270.362C374.39 268.634 376.454 267.77 379.166 267.77C381.902 267.77 383.972 268.64 385.376 270.38C386.78 272.12 387.482 274.424 387.482 277.292ZM376.628 277.292C376.628 278.276 376.682 279.17 376.79 279.974C376.91 280.778 377.15 281.42 377.51 281.9C377.87 282.368 378.422 282.602 379.166 282.602C379.898 282.602 380.444 282.368 380.804 281.9C381.176 281.42 381.416 280.778 381.524 279.974C381.644 279.17 381.704 278.276 381.704 277.292C381.704 276.296 381.644 275.396 381.524 274.592C381.416 273.788 381.176 273.152 380.804 272.684C380.444 272.204 379.898 271.964 379.166 271.964C378.422 271.964 377.87 272.204 377.51 272.684C377.15 273.152 376.91 273.788 376.79 274.592C376.682 275.396 376.628 276.296 376.628 277.292ZM390.649 272.81C390.649 272.102 390.577 271.442 390.433 270.83C390.301 270.218 390.073 269.684 389.749 269.228C390.157 268.88 390.667 268.592 391.279 268.364C391.891 268.136 392.551 268.022 393.259 268.022C394.387 268.022 395.167 268.322 395.599 268.922C396.043 269.522 396.265 270.38 396.265 271.496V279.164C396.265 279.98 396.373 280.58 396.589 280.964C396.805 281.348 397.213 281.54 397.813 281.54C398.173 281.54 398.593 281.45 399.073 281.27C399.553 281.078 400.027 280.766 400.495 280.334V268.31C400.879 268.238 401.323 268.184 401.827 268.148C402.331 268.112 402.823 268.094 403.303 268.094C403.771 268.094 404.251 268.112 404.743 268.148C405.247 268.184 405.703 268.238 406.111 268.31V281.144C406.111 281.72 406.201 282.242 406.381 282.71C406.573 283.178 406.819 283.52 407.119 283.736C407.023 284.24 406.801 284.768 406.453 285.32C406.105 285.872 405.757 286.286 405.409 286.562C404.389 286.538 403.519 286.298 402.799 285.842C402.091 285.374 401.545 284.768 401.161 284.024C400.393 284.72 399.565 285.326 398.677 285.842C397.789 286.346 396.793 286.598 395.689 286.598C394.045 286.598 392.791 285.998 391.927 284.798C391.075 283.598 390.649 282.062 390.649 280.19V272.81ZM417.399 277.508C417.399 275.444 417.723 273.704 418.371 272.288C419.031 270.86 419.907 269.78 420.999 269.048C422.091 268.316 423.297 267.95 424.617 267.95C425.241 267.95 425.823 268.022 426.363 268.166C426.915 268.31 427.437 268.496 427.929 268.724V260.03L428.181 259.778H430.377C431.481 259.778 432.261 260.03 432.717 260.534C433.185 261.038 433.419 261.914 433.419 263.162V281.072C433.419 281.648 433.509 282.17 433.689 282.638C433.881 283.106 434.127 283.454 434.427 283.682C434.319 284.174 434.091 284.708 433.743 285.284C433.407 285.86 433.065 286.286 432.717 286.562C431.817 286.538 431.043 286.352 430.395 286.004C429.759 285.644 429.243 285.164 428.847 284.564C428.223 285.224 427.485 285.764 426.633 286.184C425.781 286.604 424.857 286.814 423.861 286.814C422.397 286.814 421.185 286.418 420.225 285.626C419.277 284.834 418.569 283.742 418.101 282.35C417.633 280.946 417.399 279.332 417.399 277.508ZM423.159 277.544C423.159 279.212 423.363 280.424 423.771 281.18C424.179 281.924 424.695 282.296 425.319 282.296C425.679 282.296 426.093 282.2 426.561 282.008C427.029 281.816 427.485 281.444 427.929 280.892V272.972C427.509 272.72 427.101 272.516 426.705 272.36C426.309 272.204 425.937 272.126 425.589 272.126C424.725 272.126 424.101 272.612 423.717 273.584C423.345 274.556 423.159 275.876 423.159 277.544ZM453.33 277.292C453.33 280.172 452.622 282.482 451.206 284.222C449.79 285.95 447.726 286.814 445.014 286.814C442.266 286.814 440.19 285.944 438.786 284.204C437.394 282.464 436.698 280.16 436.698 277.292C436.698 274.4 437.406 272.09 438.822 270.362C440.238 268.634 442.302 267.77 445.014 267.77C447.75 267.77 449.82 268.64 451.224 270.38C452.628 272.12 453.33 274.424 453.33 277.292ZM442.476 277.292C442.476 278.276 442.53 279.17 442.638 279.974C442.758 280.778 442.998 281.42 443.358 281.9C443.718 282.368 444.27 282.602 445.014 282.602C445.746 282.602 446.292 282.368 446.652 281.9C447.024 281.42 447.264 280.778 447.372 279.974C447.492 279.17 447.552 278.276 447.552 277.292C447.552 276.296 447.492 275.396 447.372 274.592C447.264 273.788 447.024 273.152 446.652 272.684C446.292 272.204 445.746 271.964 445.014 271.964C444.27 271.964 443.718 272.204 443.358 272.684C442.998 273.152 442.758 273.788 442.638 274.592C442.53 275.396 442.476 276.296 442.476 277.292ZM261.093 325.774C261.093 326.482 261.159 327.142 261.291 327.754C261.423 328.354 261.657 328.888 261.993 329.356C261.573 329.704 261.057 329.992 260.445 330.22C259.833 330.448 259.179 330.562 258.483 330.562C257.355 330.562 256.569 330.262 256.125 329.662C255.681 329.062 255.459 328.198 255.459 327.07V319.42C255.459 318.604 255.351 318.004 255.135 317.62C254.931 317.224 254.529 317.026 253.929 317.026C253.569 317.026 253.149 317.122 252.669 317.314C252.189 317.506 251.715 317.818 251.247 318.25V330.274C250.851 330.346 250.401 330.4 249.897 330.436C249.405 330.472 248.919 330.49 248.439 330.49C247.971 330.49 247.485 330.472 246.981 330.436C246.477 330.4 246.021 330.346 245.613 330.274V312.31L245.865 312.058H247.989C248.757 312.058 249.387 312.25 249.879 312.634C250.383 313.006 250.749 313.528 250.977 314.2C251.685 313.588 252.453 313.066 253.281 312.634C254.109 312.202 255.033 311.986 256.053 311.986C257.697 311.986 258.945 312.586 259.797 313.786C260.661 314.974 261.093 316.51 261.093 318.394V325.774ZM280.871 321.292C280.871 324.172 280.163 326.482 278.747 328.222C277.331 329.95 275.267 330.814 272.555 330.814C269.807 330.814 267.731 329.944 266.327 328.204C264.935 326.464 264.239 324.16 264.239 321.292C264.239 318.4 264.947 316.09 266.363 314.362C267.779 312.634 269.843 311.77 272.555 311.77C275.291 311.77 277.361 312.64 278.765 314.38C280.169 316.12 280.871 318.424 280.871 321.292ZM270.017 321.292C270.017 322.276 270.071 323.17 270.179 323.974C270.299 324.778 270.539 325.42 270.899 325.9C271.259 326.368 271.811 326.602 272.555 326.602C273.287 326.602 273.833 326.368 274.193 325.9C274.565 325.42 274.805 324.778 274.913 323.974C275.033 323.17 275.093 322.276 275.093 321.292C275.093 320.296 275.033 319.396 274.913 318.592C274.805 317.788 274.565 317.152 274.193 316.684C273.833 316.204 273.287 315.964 272.555 315.964C271.811 315.964 271.259 316.204 270.899 316.684C270.539 317.152 270.299 317.788 270.179 318.592C270.071 319.396 270.017 320.296 270.017 321.292ZM284.83 310.276C284.83 309.016 285.058 308.14 285.514 307.648C285.982 307.144 286.768 306.892 287.872 306.892H290.068L290.32 307.144V312.328L294.586 312.274C294.754 312.91 294.838 313.564 294.838 314.236C294.838 314.98 294.754 315.658 294.586 316.27L290.32 316.198V324.478C290.32 325.606 290.854 326.17 291.922 326.17H293.938C294.238 327.034 294.388 327.922 294.388 328.834C294.388 329.038 294.376 329.254 294.352 329.482C294.328 329.71 294.292 329.914 294.244 330.094C293.584 330.19 292.822 330.274 291.958 330.346C291.094 330.418 290.302 330.454 289.582 330.454C287.95 330.454 286.75 330.052 285.982 329.248C285.214 328.432 284.83 327.166 284.83 325.45V316.216L282.004 316.27C281.848 315.658 281.77 314.98 281.77 314.236C281.77 313.564 281.848 312.91 282.004 312.274L284.83 312.31V310.276ZM310.957 330.274C310.561 330.346 310.117 330.4 309.625 330.436C309.133 330.472 308.647 330.49 308.167 330.49C307.183 330.49 306.277 330.418 305.449 330.274V304.03L305.701 303.778H307.897C309.001 303.778 309.787 304.03 310.255 304.534C310.723 305.038 310.957 305.914 310.957 307.162V318.466H311.515C311.767 318.466 311.965 318.424 312.109 318.34C312.253 318.256 312.397 318.088 312.541 317.836L314.413 314.218C314.749 313.534 315.163 313.024 315.655 312.688C316.159 312.34 316.789 312.166 317.545 312.166C318.145 312.166 318.691 312.172 319.183 312.184C319.675 312.196 320.179 312.214 320.695 312.238L320.911 312.526L318.139 317.89C317.683 318.778 317.065 319.48 316.285 319.996C316.981 320.248 317.581 320.632 318.085 321.148C318.601 321.652 318.991 322.306 319.255 323.11L320.137 325.738C320.437 326.674 320.707 327.352 320.947 327.772C321.187 328.192 321.493 328.534 321.865 328.798C321.421 329.302 320.863 329.722 320.191 330.058C319.519 330.394 318.817 330.562 318.085 330.562C317.281 330.562 316.675 330.37 316.267 329.986C315.871 329.602 315.523 328.96 315.223 328.06L314.161 324.946C313.909 324.178 313.621 323.674 313.297 323.434C312.973 323.194 312.565 323.074 312.073 323.074C311.689 323.074 311.317 323.086 310.957 323.11V330.274ZM339.773 325.774C339.773 326.482 339.839 327.142 339.971 327.754C340.103 328.354 340.337 328.888 340.673 329.356C340.253 329.704 339.737 329.992 339.125 330.22C338.513 330.448 337.859 330.562 337.163 330.562C336.035 330.562 335.249 330.262 334.805 329.662C334.361 329.062 334.139 328.198 334.139 327.07V319.42C334.139 318.604 334.031 318.004 333.815 317.62C333.611 317.224 333.209 317.026 332.609 317.026C332.249 317.026 331.829 317.122 331.349 317.314C330.869 317.506 330.395 317.818 329.927 318.25V330.274C329.531 330.346 329.081 330.4 328.577 330.436C328.085 330.472 327.599 330.49 327.119 330.49C326.651 330.49 326.165 330.472 325.661 330.436C325.157 330.4 324.701 330.346 324.293 330.274V312.31L324.545 312.058H326.669C327.437 312.058 328.067 312.25 328.559 312.634C329.063 313.006 329.429 313.528 329.657 314.2C330.365 313.588 331.133 313.066 331.961 312.634C332.789 312.202 333.713 311.986 334.733 311.986C336.377 311.986 337.625 312.586 338.477 313.786C339.341 314.974 339.773 316.51 339.773 318.394V325.774ZM359.55 321.292C359.55 324.172 358.842 326.482 357.426 328.222C356.01 329.95 353.946 330.814 351.234 330.814C348.486 330.814 346.41 329.944 345.006 328.204C343.614 326.464 342.918 324.16 342.918 321.292C342.918 318.4 343.626 316.09 345.042 314.362C346.458 312.634 348.522 311.77 351.234 311.77C353.97 311.77 356.04 312.64 357.444 314.38C358.848 316.12 359.55 318.424 359.55 321.292ZM348.696 321.292C348.696 322.276 348.75 323.17 348.858 323.974C348.978 324.778 349.218 325.42 349.578 325.9C349.938 326.368 350.49 326.602 351.234 326.602C351.966 326.602 352.512 326.368 352.872 325.9C353.244 325.42 353.484 324.778 353.592 323.974C353.712 323.17 353.772 322.276 353.772 321.292C353.772 320.296 353.712 319.396 353.592 318.592C353.484 317.788 353.244 317.152 352.872 316.684C352.512 316.204 351.966 315.964 351.234 315.964C350.49 315.964 349.938 316.204 349.578 316.684C349.218 317.152 348.978 317.788 348.858 318.592C348.75 319.396 348.696 320.296 348.696 321.292ZM360.774 312.652C361.902 312.208 362.946 311.986 363.906 311.986C364.806 311.986 365.436 312.196 365.796 312.616C366.168 313.036 366.432 313.624 366.588 314.38L367.704 320.194C368.196 322.606 368.508 324.484 368.64 325.828C368.676 326.02 368.772 326.116 368.928 326.116L370.908 312.508C371.352 312.4 371.916 312.328 372.6 312.292C373.284 312.244 373.8 312.22 374.148 312.22C374.52 312.22 375.06 312.244 375.768 312.292C376.488 312.328 377.058 312.4 377.478 312.508L379.512 325.828C379.548 326.02 379.644 326.116 379.8 326.116C379.92 325.288 380.058 324.376 380.214 323.38C380.382 322.372 380.574 321.31 380.79 320.194L382.392 312.328C382.704 312.244 383.058 312.184 383.454 312.148C383.85 312.112 384.21 312.094 384.534 312.094C384.918 312.094 385.41 312.124 386.01 312.184C386.622 312.244 387.126 312.37 387.522 312.562L387.684 312.904L383.49 330.274C382.926 330.358 382.26 330.412 381.492 330.436C380.724 330.472 380.01 330.49 379.35 330.49C378.27 330.49 377.448 330.34 376.884 330.04C376.332 329.74 375.978 329.038 375.822 327.934L375.21 324.064C375.078 323.176 374.922 322.138 374.742 320.95C374.574 319.75 374.424 318.526 374.292 317.278H374.076C373.932 318.502 373.77 319.708 373.59 320.896C373.422 322.072 373.272 323.104 373.14 323.992L372.132 330.274C371.544 330.346 370.854 330.4 370.062 330.436C369.282 330.472 368.556 330.49 367.884 330.49C366.828 330.49 366.024 330.322 365.472 329.986C364.92 329.638 364.518 328.93 364.266 327.862L360.774 312.652ZM408.999 329.788C408.567 331.432 408.021 332.878 407.361 334.126C406.701 335.386 405.801 336.37 404.661 337.078C403.521 337.798 402.021 338.158 400.161 338.158C399.441 338.158 398.655 338.08 397.803 337.924C396.951 337.768 396.279 337.6 395.787 337.42C395.715 336.784 395.793 336.064 396.021 335.26C396.249 334.456 396.549 333.838 396.921 333.406C397.305 333.526 397.791 333.646 398.379 333.766C398.967 333.898 399.561 333.964 400.161 333.964C401.073 333.964 401.817 333.706 402.393 333.19C402.981 332.674 403.413 331.96 403.689 331.048L403.833 330.526C402.861 330.514 402.051 330.346 401.403 330.022C400.755 329.698 400.317 329.11 400.089 328.258L395.895 312.742C396.471 312.49 397.077 312.304 397.713 312.184C398.349 312.052 398.901 311.986 399.369 311.986C400.053 311.986 400.617 312.154 401.061 312.49C401.517 312.826 401.859 313.462 402.087 314.398L403.779 321.328C403.887 321.724 403.989 322.222 404.085 322.822C404.193 323.41 404.289 323.998 404.373 324.586C404.457 325.162 404.523 325.648 404.571 326.044C404.607 326.212 404.709 326.296 404.877 326.296L408.009 312.328C408.321 312.244 408.681 312.184 409.089 312.148C409.497 312.112 409.875 312.094 410.223 312.094C410.703 312.094 411.195 312.124 411.699 312.184C412.215 312.232 412.725 312.34 413.229 312.508L413.445 312.886L408.999 329.788ZM430.918 321.292C430.918 324.172 430.21 326.482 428.794 328.222C427.378 329.95 425.314 330.814 422.602 330.814C419.854 330.814 417.778 329.944 416.374 328.204C414.982 326.464 414.286 324.16 414.286 321.292C414.286 318.4 414.994 316.09 416.41 314.362C417.826 312.634 419.89 311.77 422.602 311.77C425.338 311.77 427.408 312.64 428.812 314.38C430.216 316.12 430.918 318.424 430.918 321.292ZM420.064 321.292C420.064 322.276 420.118 323.17 420.226 323.974C420.346 324.778 420.586 325.42 420.946 325.9C421.306 326.368 421.858 326.602 422.602 326.602C423.334 326.602 423.88 326.368 424.24 325.9C424.612 325.42 424.852 324.778 424.96 323.974C425.08 323.17 425.14 322.276 425.14 321.292C425.14 320.296 425.08 319.396 424.96 318.592C424.852 317.788 424.612 317.152 424.24 316.684C423.88 316.204 423.334 315.964 422.602 315.964C421.858 315.964 421.306 316.204 420.946 316.684C420.586 317.152 420.346 317.788 420.226 318.592C420.118 319.396 420.064 320.296 420.064 321.292ZM434.084 316.81C434.084 316.102 434.012 315.442 433.868 314.83C433.736 314.218 433.508 313.684 433.184 313.228C433.592 312.88 434.102 312.592 434.714 312.364C435.326 312.136 435.986 312.022 436.694 312.022C437.822 312.022 438.602 312.322 439.034 312.922C439.478 313.522 439.7 314.38 439.7 315.496V323.164C439.7 323.98 439.808 324.58 440.024 324.964C440.24 325.348 440.648 325.54 441.248 325.54C441.608 325.54 442.028 325.45 442.508 325.27C442.988 325.078 443.462 324.766 443.93 324.334V312.31C444.314 312.238 444.758 312.184 445.262 312.148C445.766 312.112 446.258 312.094 446.738 312.094C447.206 312.094 447.686 312.112 448.178 312.148C448.682 312.184 449.138 312.238 449.546 312.31V325.144C449.546 325.72 449.636 326.242 449.816 326.71C450.008 327.178 450.254 327.52 450.554 327.736C450.458 328.24 450.236 328.768 449.888 329.32C449.54 329.872 449.192 330.286 448.844 330.562C447.824 330.538 446.954 330.298 446.234 329.842C445.526 329.374 444.98 328.768 444.596 328.024C443.828 328.72 443 329.326 442.112 329.842C441.224 330.346 440.228 330.598 439.124 330.598C437.48 330.598 436.226 329.998 435.362 328.798C434.51 327.598 434.084 326.062 434.084 324.19V316.81ZM253.553 365.508C253.553 363.444 253.877 361.704 254.525 360.288C255.185 358.86 256.061 357.78 257.153 357.048C258.245 356.316 259.451 355.95 260.771 355.95C261.395 355.95 261.977 356.022 262.517 356.166C263.069 356.31 263.591 356.496 264.083 356.724V348.03L264.335 347.778H266.531C267.635 347.778 268.415 348.03 268.871 348.534C269.339 349.038 269.573 349.914 269.573 351.162V369.072C269.573 369.648 269.663 370.17 269.843 370.638C270.035 371.106 270.281 371.454 270.581 371.682C270.473 372.174 270.245 372.708 269.897 373.284C269.561 373.86 269.219 374.286 268.871 374.562C267.971 374.538 267.197 374.352 266.549 374.004C265.913 373.644 265.397 373.164 265.001 372.564C264.377 373.224 263.639 373.764 262.787 374.184C261.935 374.604 261.011 374.814 260.015 374.814C258.551 374.814 257.339 374.418 256.379 373.626C255.431 372.834 254.723 371.742 254.255 370.35C253.787 368.946 253.553 367.332 253.553 365.508ZM259.313 365.544C259.313 367.212 259.517 368.424 259.925 369.18C260.333 369.924 260.849 370.296 261.473 370.296C261.833 370.296 262.247 370.2 262.715 370.008C263.183 369.816 263.639 369.444 264.083 368.892V360.972C263.663 360.72 263.255 360.516 262.859 360.36C262.463 360.204 262.091 360.126 261.743 360.126C260.879 360.126 260.255 360.612 259.871 361.584C259.499 362.556 259.313 363.876 259.313 365.544ZM289.484 365.292C289.484 368.172 288.776 370.482 287.36 372.222C285.944 373.95 283.88 374.814 281.168 374.814C278.42 374.814 276.344 373.944 274.94 372.204C273.548 370.464 272.852 368.16 272.852 365.292C272.852 362.4 273.56 360.09 274.976 358.362C276.392 356.634 278.456 355.77 281.168 355.77C283.904 355.77 285.974 356.64 287.378 358.38C288.782 360.12 289.484 362.424 289.484 365.292ZM278.63 365.292C278.63 366.276 278.684 367.17 278.792 367.974C278.912 368.778 279.152 369.42 279.512 369.9C279.872 370.368 280.424 370.602 281.168 370.602C281.9 370.602 282.446 370.368 282.806 369.9C283.178 369.42 283.418 368.778 283.526 367.974C283.646 367.17 283.706 366.276 283.706 365.292C283.706 364.296 283.646 363.396 283.526 362.592C283.418 361.788 283.178 361.152 282.806 360.684C282.446 360.204 281.9 359.964 281.168 359.964C280.424 359.964 279.872 360.204 279.512 360.684C279.152 361.152 278.912 361.788 278.792 362.592C278.684 363.396 278.63 364.296 278.63 365.292ZM316.113 369.774C316.113 370.482 316.179 371.142 316.311 371.754C316.443 372.354 316.677 372.888 317.013 373.356C316.593 373.704 316.077 373.992 315.465 374.22C314.853 374.448 314.199 374.562 313.503 374.562C312.375 374.562 311.589 374.262 311.145 373.662C310.701 373.062 310.479 372.198 310.479 371.07V363.42C310.479 362.604 310.371 362.004 310.155 361.62C309.951 361.224 309.549 361.026 308.949 361.026C308.589 361.026 308.169 361.122 307.689 361.314C307.209 361.506 306.735 361.818 306.267 362.25V374.274C305.871 374.346 305.421 374.4 304.917 374.436C304.425 374.472 303.939 374.49 303.459 374.49C302.991 374.49 302.505 374.472 302.001 374.436C301.497 374.4 301.041 374.346 300.633 374.274V356.31L300.885 356.058H303.009C303.777 356.058 304.407 356.25 304.899 356.634C305.403 357.006 305.769 357.528 305.997 358.2C306.705 357.588 307.473 357.066 308.301 356.634C309.129 356.202 310.053 355.986 311.073 355.986C312.717 355.986 313.965 356.586 314.817 357.786C315.681 358.974 316.113 360.51 316.113 362.394V369.774ZM335.89 365.292C335.89 368.172 335.182 370.482 333.766 372.222C332.35 373.95 330.286 374.814 327.574 374.814C324.826 374.814 322.75 373.944 321.346 372.204C319.954 370.464 319.258 368.16 319.258 365.292C319.258 362.4 319.966 360.09 321.382 358.362C322.798 356.634 324.862 355.77 327.574 355.77C330.31 355.77 332.38 356.64 333.784 358.38C335.188 360.12 335.89 362.424 335.89 365.292ZM325.036 365.292C325.036 366.276 325.09 367.17 325.198 367.974C325.318 368.778 325.558 369.42 325.918 369.9C326.278 370.368 326.83 370.602 327.574 370.602C328.306 370.602 328.852 370.368 329.212 369.9C329.584 369.42 329.824 368.778 329.932 367.974C330.052 367.17 330.112 366.276 330.112 365.292C330.112 364.296 330.052 363.396 329.932 362.592C329.824 361.788 329.584 361.152 329.212 360.684C328.852 360.204 328.306 359.964 327.574 359.964C326.83 359.964 326.278 360.204 325.918 360.684C325.558 361.152 325.318 361.788 325.198 362.592C325.09 363.396 325.036 364.296 325.036 365.292ZM339.85 354.276C339.85 353.016 340.078 352.14 340.534 351.648C341.002 351.144 341.788 350.892 342.892 350.892H345.088L345.34 351.144V356.328L349.606 356.274C349.774 356.91 349.858 357.564 349.858 358.236C349.858 358.98 349.774 359.658 349.606 360.27L345.34 360.198V368.478C345.34 369.606 345.874 370.17 346.942 370.17H348.958C349.258 371.034 349.408 371.922 349.408 372.834C349.408 373.038 349.396 373.254 349.372 373.482C349.348 373.71 349.312 373.914 349.264 374.094C348.604 374.19 347.842 374.274 346.978 374.346C346.114 374.418 345.322 374.454 344.602 374.454C342.97 374.454 341.77 374.052 341.002 373.248C340.234 372.432 339.85 371.166 339.85 369.45V360.216L337.024 360.27C336.868 359.658 336.79 358.98 336.79 358.236C336.79 357.564 336.868 356.91 337.024 356.274L339.85 356.31V354.276ZM365.977 374.274C365.581 374.346 365.137 374.4 364.645 374.436C364.153 374.472 363.667 374.49 363.187 374.49C362.203 374.49 361.297 374.418 360.469 374.274V348.03L360.721 347.778H362.917C364.021 347.778 364.807 348.03 365.275 348.534C365.743 349.038 365.977 349.914 365.977 351.162V362.466H366.535C366.787 362.466 366.985 362.424 367.129 362.34C367.273 362.256 367.417 362.088 367.561 361.836L369.433 358.218C369.769 357.534 370.183 357.024 370.675 356.688C371.179 356.34 371.809 356.166 372.565 356.166C373.165 356.166 373.711 356.172 374.203 356.184C374.695 356.196 375.199 356.214 375.715 356.238L375.931 356.526L373.159 361.89C372.703 362.778 372.085 363.48 371.305 363.996C372.001 364.248 372.601 364.632 373.105 365.148C373.621 365.652 374.011 366.306 374.275 367.11L375.157 369.738C375.457 370.674 375.727 371.352 375.967 371.772C376.207 372.192 376.513 372.534 376.885 372.798C376.441 373.302 375.883 373.722 375.211 374.058C374.539 374.394 373.837 374.562 373.105 374.562C372.301 374.562 371.695 374.37 371.287 373.986C370.891 373.602 370.543 372.96 370.243 372.06L369.181 368.946C368.929 368.178 368.641 367.674 368.317 367.434C367.993 367.194 367.585 367.074 367.093 367.074C366.709 367.074 366.337 367.086 365.977 367.11V374.274ZM394.793 369.774C394.793 370.482 394.859 371.142 394.991 371.754C395.123 372.354 395.357 372.888 395.693 373.356C395.273 373.704 394.757 373.992 394.145 374.22C393.533 374.448 392.879 374.562 392.183 374.562C391.055 374.562 390.269 374.262 389.825 373.662C389.381 373.062 389.159 372.198 389.159 371.07V363.42C389.159 362.604 389.051 362.004 388.835 361.62C388.631 361.224 388.229 361.026 387.629 361.026C387.269 361.026 386.849 361.122 386.369 361.314C385.889 361.506 385.415 361.818 384.947 362.25V374.274C384.551 374.346 384.101 374.4 383.597 374.436C383.105 374.472 382.619 374.49 382.139 374.49C381.671 374.49 381.185 374.472 380.681 374.436C380.177 374.4 379.721 374.346 379.313 374.274V356.31L379.565 356.058H381.689C382.457 356.058 383.087 356.25 383.579 356.634C384.083 357.006 384.449 357.528 384.677 358.2C385.385 357.588 386.153 357.066 386.981 356.634C387.809 356.202 388.733 355.986 389.753 355.986C391.397 355.986 392.645 356.586 393.497 357.786C394.361 358.974 394.793 360.51 394.793 362.394V369.774ZM414.57 365.292C414.57 368.172 413.862 370.482 412.446 372.222C411.03 373.95 408.966 374.814 406.254 374.814C403.506 374.814 401.43 373.944 400.026 372.204C398.634 370.464 397.938 368.16 397.938 365.292C397.938 362.4 398.646 360.09 400.062 358.362C401.478 356.634 403.542 355.77 406.254 355.77C408.99 355.77 411.06 356.64 412.464 358.38C413.868 360.12 414.57 362.424 414.57 365.292ZM403.716 365.292C403.716 366.276 403.77 367.17 403.878 367.974C403.998 368.778 404.238 369.42 404.598 369.9C404.958 370.368 405.51 370.602 406.254 370.602C406.986 370.602 407.532 370.368 407.892 369.9C408.264 369.42 408.504 368.778 408.612 367.974C408.732 367.17 408.792 366.276 408.792 365.292C408.792 364.296 408.732 363.396 408.612 362.592C408.504 361.788 408.264 361.152 407.892 360.684C407.532 360.204 406.986 359.964 406.254 359.964C405.51 359.964 404.958 360.204 404.598 360.684C404.238 361.152 403.998 361.788 403.878 362.592C403.77 363.396 403.716 364.296 403.716 365.292ZM415.793 356.652C416.921 356.208 417.965 355.986 418.925 355.986C419.825 355.986 420.455 356.196 420.815 356.616C421.187 357.036 421.451 357.624 421.607 358.38L422.723 364.194C423.215 366.606 423.527 368.484 423.659 369.828C423.695 370.02 423.791 370.116 423.947 370.116L425.927 356.508C426.371 356.4 426.935 356.328 427.619 356.292C428.303 356.244 428.819 356.22 429.167 356.22C429.539 356.22 430.079 356.244 430.787 356.292C431.507 356.328 432.077 356.4 432.497 356.508L434.531 369.828C434.567 370.02 434.663 370.116 434.819 370.116C434.939 369.288 435.077 368.376 435.233 367.38C435.401 366.372 435.593 365.31 435.809 364.194L437.411 356.328C437.723 356.244 438.077 356.184 438.473 356.148C438.869 356.112 439.229 356.094 439.553 356.094C439.937 356.094 440.429 356.124 441.029 356.184C441.641 356.244 442.145 356.37 442.541 356.562L442.703 356.904L438.509 374.274C437.945 374.358 437.279 374.412 436.511 374.436C435.743 374.472 435.029 374.49 434.369 374.49C433.289 374.49 432.467 374.34 431.903 374.04C431.351 373.74 430.997 373.038 430.841 371.934L430.229 368.064C430.097 367.176 429.941 366.138 429.761 364.95C429.593 363.75 429.443 362.526 429.311 361.278H429.095C428.951 362.502 428.789 363.708 428.609 364.896C428.441 366.072 428.291 367.104 428.159 367.992L427.151 374.274C426.563 374.346 425.873 374.4 425.081 374.436C424.301 374.472 423.575 374.49 422.903 374.49C421.847 374.49 421.043 374.322 420.491 373.986C419.939 373.638 419.537 372.93 419.285 371.862L415.793 356.652Z" fill="black"/>
</g>
</g>
<g filter="url(#filter2_i)">
<path d="M606 196L776.69 612H981.517L1134 196H606Z" fill="#C4C4C4" fill-opacity="0.5" stroke="black"/>
<g filter="url(#filter3_i)">
<path d="M768.895 315.025C768.895 314.369 768.903 313.785 768.919 313.273C768.935 312.745 768.943 312.145 768.943 311.473H768.895C768.543 311.473 768.039 311.481 767.383 311.497C766.727 311.513 766.223 311.521 765.871 311.521H760.903C760.791 310.945 760.719 310.385 760.687 309.841C760.655 309.281 760.639 308.785 760.639 308.353C760.639 307.905 760.655 307.401 760.687 306.841C760.719 306.281 760.791 305.713 760.903 305.137H784.663C784.775 305.537 784.863 306.009 784.927 306.553C785.007 307.081 785.047 307.593 785.047 308.089C785.047 309.337 784.719 310.225 784.063 310.753C783.423 311.265 782.415 311.521 781.039 311.521H779.623C779.271 311.521 778.767 311.513 778.111 311.497C777.455 311.481 776.951 311.473 776.599 311.473H776.551C776.551 312.145 776.559 312.745 776.575 313.273C776.591 313.785 776.599 314.369 776.599 315.025V337.921C775.943 338.033 775.271 338.105 774.583 338.137C773.895 338.185 773.287 338.209 772.759 338.209C772.215 338.209 771.599 338.185 770.911 338.137C770.223 338.105 769.551 338.033 768.895 337.921V315.025ZM795.14 337.921C794.084 338.113 792.844 338.209 791.42 338.209C790.14 338.209 788.932 338.113 787.796 337.921V302.929L788.132 302.593H791.06C792.532 302.593 793.58 302.929 794.204 303.601C794.828 304.273 795.14 305.441 795.14 307.105V316.177C796.036 315.441 797.004 314.817 798.044 314.305C799.1 313.793 800.268 313.537 801.548 313.537C803.74 313.537 805.404 314.337 806.54 315.937C807.692 317.521 808.268 319.569 808.268 322.081V331.921C808.268 332.865 808.356 333.745 808.532 334.561C808.708 335.361 809.012 336.073 809.444 336.697C808.9 337.161 808.22 337.545 807.404 337.849C806.588 338.153 805.708 338.305 804.764 338.305C803.26 338.305 802.212 337.905 801.62 337.105C801.044 336.305 800.756 335.153 800.756 333.649V323.449C800.756 322.361 800.612 321.561 800.324 321.049C800.036 320.521 799.492 320.257 798.692 320.257C798.212 320.257 797.652 320.385 797.012 320.641C796.372 320.897 795.748 321.313 795.14 321.889V337.921ZM822.498 337.921C821.97 338.017 821.37 338.089 820.698 338.137C820.042 338.185 819.394 338.209 818.754 338.209C818.13 338.209 817.482 338.185 816.81 338.137C816.154 338.089 815.546 338.017 814.986 337.921V322.033C814.986 321.233 814.818 320.569 814.482 320.041C814.162 319.513 813.578 319.249 812.73 319.249H812.01C811.802 318.465 811.698 317.617 811.698 316.705C811.698 316.289 811.722 315.849 811.77 315.385C811.818 314.905 811.898 314.449 812.01 314.017C812.746 313.937 813.498 313.881 814.266 313.849C815.05 313.801 815.706 313.777 816.234 313.777H817.266C818.866 313.777 820.138 314.297 821.082 315.337C822.026 316.361 822.498 317.753 822.498 319.513V337.921ZM813.546 307.225C813.546 306.233 813.73 305.297 814.098 304.417C814.514 304.209 815.05 304.033 815.706 303.889C816.378 303.745 817.034 303.673 817.674 303.673C818.314 303.673 818.978 303.745 819.666 303.889C820.354 304.033 820.882 304.209 821.25 304.417C821.426 304.865 821.562 305.337 821.658 305.833C821.754 306.329 821.802 306.793 821.802 307.225C821.802 308.201 821.618 309.129 821.25 310.009C820.882 310.217 820.354 310.393 819.666 310.537C818.978 310.681 818.314 310.753 817.674 310.753C817.034 310.753 816.37 310.689 815.682 310.561C815.01 310.417 814.482 310.233 814.098 310.009C813.73 309.129 813.546 308.201 813.546 307.225ZM848.795 331.921C848.795 332.865 848.883 333.745 849.059 334.561C849.235 335.361 849.547 336.073 849.995 336.697C849.435 337.161 848.747 337.545 847.931 337.849C847.115 338.153 846.243 338.305 845.315 338.305C843.811 338.305 842.763 337.905 842.171 337.105C841.579 336.305 841.283 335.153 841.283 333.649V323.449C841.283 322.361 841.139 321.561 840.851 321.049C840.579 320.521 840.043 320.257 839.243 320.257C838.763 320.257 838.203 320.385 837.563 320.641C836.923 320.897 836.291 321.313 835.667 321.889V337.921C835.139 338.017 834.539 338.089 833.867 338.137C833.211 338.185 832.563 338.209 831.923 338.209C831.299 338.209 830.651 338.185 829.979 338.137C829.307 338.089 828.699 338.017 828.155 337.921V313.969L828.491 313.633H831.323C832.347 313.633 833.187 313.889 833.843 314.401C834.515 314.897 835.003 315.593 835.307 316.489C836.251 315.673 837.275 314.977 838.379 314.401C839.483 313.825 840.715 313.537 842.075 313.537C844.267 313.537 845.931 314.337 847.067 315.937C848.219 317.521 848.795 319.569 848.795 322.081V331.921ZM853.085 325.993C853.085 323.241 853.517 320.921 854.381 319.033C855.261 317.129 856.429 315.689 857.885 314.713C859.357 313.737 860.965 313.249 862.709 313.249C864.117 313.249 865.333 313.465 866.357 313.897C867.397 314.329 868.277 314.857 868.997 315.481C869.525 314.905 870.165 314.449 870.917 314.113C871.685 313.777 872.565 313.601 873.557 313.585C874.021 313.953 874.493 314.521 874.973 315.289C875.453 316.041 875.741 316.753 875.837 317.425C875.437 317.713 875.109 318.177 874.853 318.817C874.613 319.441 874.493 320.129 874.493 320.881V333.553C874.493 335.793 874.389 337.641 874.181 339.097C873.989 340.553 873.709 341.745 873.341 342.673C872.973 343.601 872.533 344.385 872.021 345.025C871.077 346.225 869.821 347.105 868.253 347.665C866.685 348.241 864.941 348.529 863.021 348.529C861.517 348.529 859.949 348.377 858.317 348.073C856.685 347.785 855.245 347.409 853.997 346.945C853.997 346.065 854.173 345.097 854.525 344.041C854.877 342.985 855.317 342.145 855.845 341.521C858.005 342.481 860.165 342.961 862.325 342.961C864.085 342.961 865.333 342.513 866.069 341.617C866.805 340.737 867.173 339.561 867.173 338.089V336.553C866.405 337.113 865.549 337.561 864.605 337.897C863.677 338.233 862.717 338.401 861.725 338.401C859.773 338.401 858.157 337.873 856.877 336.817C855.597 335.761 854.645 334.305 854.021 332.449C853.397 330.577 853.085 328.425 853.085 325.993ZM860.765 326.041C860.765 328.265 861.029 329.881 861.557 330.889C862.101 331.881 862.781 332.377 863.597 332.377C864.909 332.377 866.101 331.825 867.173 330.721V320.785C867.173 320.673 867.181 320.561 867.197 320.449C866.061 319.361 865.005 318.817 864.029 318.817C862.861 318.817 862.021 319.465 861.509 320.761C861.013 322.041 860.765 323.801 860.765 326.041ZM878.22 336.265C878.252 335.465 878.468 334.569 878.868 333.577C879.284 332.585 879.764 331.801 880.308 331.225C881.364 331.769 882.452 332.241 883.572 332.641C884.708 333.025 885.836 333.217 886.956 333.217C887.884 333.217 888.58 333.057 889.044 332.737C889.524 332.417 889.764 332.017 889.764 331.537C889.764 330.609 889.036 329.881 887.58 329.353L884.916 328.393C883.22 327.769 881.796 326.897 880.644 325.777C879.492 324.641 878.916 323.113 878.916 321.193C878.916 318.761 879.756 316.833 881.436 315.409C883.132 313.969 885.388 313.249 888.204 313.249C889.708 313.249 891.292 313.457 892.956 313.873C894.636 314.289 895.996 314.753 897.036 315.265C897.068 315.857 896.988 316.505 896.796 317.209C896.62 317.897 896.372 318.537 896.052 319.129C895.732 319.721 895.372 320.169 894.972 320.473C893.98 320.025 892.9 319.617 891.732 319.249C890.564 318.865 889.412 318.673 888.276 318.673C887.62 318.673 887.124 318.825 886.788 319.129C886.468 319.433 886.308 319.793 886.308 320.209C886.308 320.977 886.916 321.585 888.132 322.033L891.108 323.089C892.932 323.745 894.452 324.689 895.668 325.921C896.884 327.137 897.492 328.769 897.492 330.817C897.492 333.201 896.572 335.105 894.732 336.529C892.908 337.937 890.372 338.641 887.124 338.641C885.412 338.641 883.78 338.409 882.228 337.945C880.692 337.481 879.356 336.921 878.22 336.265ZM926.8 337.273C926.224 339.465 925.496 341.393 924.616 343.057C923.736 344.737 922.536 346.049 921.016 346.993C919.496 347.953 917.496 348.433 915.016 348.433C914.056 348.433 913.008 348.329 911.872 348.121C910.736 347.913 909.84 347.689 909.184 347.449C909.088 346.601 909.192 345.641 909.496 344.569C909.8 343.497 910.2 342.673 910.696 342.097C911.208 342.257 911.856 342.417 912.64 342.577C913.424 342.753 914.216 342.841 915.016 342.841C916.232 342.841 917.224 342.497 917.992 341.809C918.776 341.121 919.352 340.169 919.72 338.953L919.912 338.257C918.616 338.241 917.536 338.017 916.672 337.585C915.808 337.153 915.224 336.369 914.92 335.233L909.328 314.545C910.096 314.209 910.904 313.961 911.752 313.801C912.6 313.625 913.336 313.537 913.96 313.537C914.872 313.537 915.624 313.761 916.216 314.209C916.824 314.657 917.28 315.505 917.584 316.753L919.84 325.993C919.984 326.521 920.12 327.185 920.248 327.985C920.392 328.769 920.52 329.553 920.632 330.337C920.744 331.105 920.832 331.753 920.896 332.281C920.944 332.505 921.08 332.617 921.304 332.617L925.48 313.993C925.896 313.881 926.376 313.801 926.92 313.753C927.464 313.705 927.968 313.681 928.432 313.681C929.072 313.681 929.728 313.721 930.4 313.801C931.088 313.865 931.768 314.009 932.44 314.233L932.728 314.737L926.8 337.273ZM956.025 325.945C956.025 329.785 955.081 332.865 953.193 335.185C951.305 337.489 948.553 338.641 944.937 338.641C941.273 338.641 938.505 337.481 936.633 335.161C934.777 332.841 933.849 329.769 933.849 325.945C933.849 322.089 934.793 319.009 936.681 316.705C938.569 314.401 941.321 313.249 944.937 313.249C948.585 313.249 951.345 314.409 953.217 316.729C955.089 319.049 956.025 322.121 956.025 325.945ZM941.553 325.945C941.553 327.257 941.625 328.449 941.769 329.521C941.929 330.593 942.249 331.449 942.729 332.089C943.209 332.713 943.945 333.025 944.937 333.025C945.913 333.025 946.641 332.713 947.121 332.089C947.617 331.449 947.937 330.593 948.081 329.521C948.241 328.449 948.321 327.257 948.321 325.945C948.321 324.617 948.241 323.417 948.081 322.345C947.937 321.273 947.617 320.425 947.121 319.801C946.641 319.161 945.913 318.841 944.937 318.841C943.945 318.841 943.209 319.161 942.729 319.801C942.249 320.425 941.929 321.273 941.769 322.345C941.625 323.417 941.553 324.617 941.553 325.945ZM960.247 319.969C960.247 319.025 960.151 318.145 959.959 317.329C959.783 316.513 959.479 315.801 959.047 315.193C959.591 314.729 960.271 314.345 961.087 314.041C961.903 313.737 962.783 313.585 963.727 313.585C965.231 313.585 966.271 313.985 966.847 314.785C967.439 315.585 967.735 316.729 967.735 318.217V328.441C967.735 329.529 967.879 330.329 968.167 330.841C968.455 331.353 968.999 331.609 969.799 331.609C970.279 331.609 970.839 331.489 971.479 331.249C972.119 330.993 972.751 330.577 973.375 330.001V313.969C973.887 313.873 974.479 313.801 975.151 313.753C975.823 313.705 976.479 313.681 977.119 313.681C977.743 313.681 978.383 313.705 979.039 313.753C979.711 313.801 980.319 313.873 980.863 313.969V331.081C980.863 331.849 980.983 332.545 981.223 333.169C981.479 333.793 981.807 334.249 982.207 334.537C982.079 335.209 981.783 335.913 981.319 336.649C980.855 337.385 980.391 337.937 979.927 338.305C978.567 338.273 977.407 337.953 976.447 337.345C975.503 336.721 974.775 335.913 974.263 334.921C973.239 335.849 972.135 336.657 970.951 337.345C969.767 338.017 968.439 338.353 966.967 338.353C964.775 338.353 963.103 337.553 961.951 335.953C960.815 334.353 960.247 332.305 960.247 329.809V319.969ZM747.374 396.921C746.846 397.017 746.254 397.089 745.598 397.137C744.942 397.185 744.294 397.209 743.654 397.209C742.342 397.209 741.134 397.113 740.03 396.921V361.929L740.366 361.593H743.294C744.766 361.593 745.814 361.929 746.438 362.601C747.062 363.273 747.374 364.441 747.374 366.105V381.177H748.118C748.454 381.177 748.718 381.121 748.91 381.009C749.102 380.897 749.294 380.673 749.486 380.337L751.982 375.513C752.43 374.601 752.982 373.921 753.638 373.473C754.31 373.009 755.15 372.777 756.158 372.777C756.958 372.777 757.686 372.785 758.342 372.801C758.998 372.817 759.67 372.841 760.358 372.873L760.646 373.257L756.95 380.409C756.342 381.593 755.518 382.529 754.478 383.217C755.406 383.553 756.206 384.065 756.878 384.753C757.566 385.425 758.086 386.297 758.438 387.369L759.614 390.873C760.014 392.121 760.374 393.025 760.694 393.585C761.014 394.145 761.422 394.601 761.918 394.953C761.326 395.625 760.582 396.185 759.686 396.633C758.79 397.081 757.854 397.305 756.878 397.305C755.806 397.305 754.998 397.049 754.454 396.537C753.926 396.025 753.462 395.169 753.062 393.969L751.646 389.817C751.31 388.793 750.926 388.121 750.494 387.801C750.062 387.481 749.518 387.321 748.862 387.321C748.35 387.321 747.854 387.337 747.374 387.369V396.921ZM785.795 390.921C785.795 391.865 785.883 392.745 786.059 393.561C786.235 394.361 786.547 395.073 786.995 395.697C786.435 396.161 785.747 396.545 784.931 396.849C784.115 397.153 783.243 397.305 782.315 397.305C780.811 397.305 779.763 396.905 779.171 396.105C778.579 395.305 778.283 394.153 778.283 392.649V382.449C778.283 381.361 778.139 380.561 777.851 380.049C777.579 379.521 777.043 379.257 776.243 379.257C775.763 379.257 775.203 379.385 774.563 379.641C773.923 379.897 773.291 380.313 772.667 380.889V396.921C772.139 397.017 771.539 397.089 770.867 397.137C770.211 397.185 769.563 397.209 768.923 397.209C768.299 397.209 767.651 397.185 766.979 397.137C766.307 397.089 765.699 397.017 765.155 396.921V372.969L765.491 372.633H768.323C769.347 372.633 770.187 372.889 770.843 373.401C771.515 373.897 772.003 374.593 772.307 375.489C773.251 374.673 774.275 373.977 775.379 373.401C776.483 372.825 777.715 372.537 779.075 372.537C781.267 372.537 782.931 373.337 784.067 374.937C785.219 376.521 785.795 378.569 785.795 381.081V390.921ZM812.165 384.945C812.165 388.785 811.221 391.865 809.333 394.185C807.445 396.489 804.693 397.641 801.077 397.641C797.413 397.641 794.645 396.481 792.773 394.161C790.917 391.841 789.989 388.769 789.989 384.945C789.989 381.089 790.933 378.009 792.821 375.705C794.709 373.401 797.461 372.249 801.077 372.249C804.725 372.249 807.485 373.409 809.357 375.729C811.229 378.049 812.165 381.121 812.165 384.945ZM797.693 384.945C797.693 386.257 797.765 387.449 797.909 388.521C798.069 389.593 798.389 390.449 798.869 391.089C799.349 391.713 800.085 392.025 801.077 392.025C802.053 392.025 802.781 391.713 803.261 391.089C803.757 390.449 804.077 389.593 804.221 388.521C804.381 387.449 804.461 386.257 804.461 384.945C804.461 383.617 804.381 382.417 804.221 381.345C804.077 380.273 803.757 379.425 803.261 378.801C802.781 378.161 802.053 377.841 801.077 377.841C800.085 377.841 799.349 378.161 798.869 378.801C798.389 379.425 798.069 380.273 797.909 381.345C797.765 382.417 797.693 383.617 797.693 384.945ZM813.796 373.425C815.3 372.833 816.692 372.537 817.972 372.537C819.172 372.537 820.012 372.817 820.492 373.377C820.988 373.937 821.34 374.721 821.548 375.729L823.036 383.481C823.692 386.697 824.108 389.201 824.284 390.993C824.332 391.249 824.46 391.377 824.668 391.377L827.308 373.233C827.9 373.089 828.652 372.993 829.564 372.945C830.476 372.881 831.164 372.849 831.628 372.849C832.124 372.849 832.844 372.881 833.788 372.945C834.748 372.993 835.508 373.089 836.068 373.233L838.78 390.993C838.828 391.249 838.956 391.377 839.164 391.377C839.324 390.273 839.508 389.057 839.716 387.729C839.94 386.385 840.196 384.969 840.484 383.481L842.62 372.993C843.036 372.881 843.508 372.801 844.036 372.753C844.564 372.705 845.044 372.681 845.476 372.681C845.988 372.681 846.644 372.721 847.444 372.801C848.26 372.881 848.932 373.049 849.46 373.305L849.676 373.761L844.084 396.921C843.332 397.033 842.444 397.105 841.42 397.137C840.396 397.185 839.444 397.209 838.564 397.209C837.124 397.209 836.028 397.009 835.276 396.609C834.54 396.209 834.068 395.273 833.86 393.801L833.044 388.641C832.868 387.457 832.66 386.073 832.42 384.489C832.196 382.889 831.996 381.257 831.82 379.593H831.532C831.34 381.225 831.124 382.833 830.884 384.417C830.66 385.985 830.46 387.361 830.284 388.545L828.94 396.921C828.156 397.017 827.236 397.089 826.18 397.137C825.14 397.185 824.172 397.209 823.276 397.209C821.868 397.209 820.796 396.985 820.06 396.537C819.324 396.073 818.788 395.129 818.452 393.705L813.796 373.425ZM878.097 396.273C877.521 398.465 876.793 400.393 875.913 402.057C875.033 403.737 873.833 405.049 872.313 405.993C870.793 406.953 868.793 407.433 866.313 407.433C865.353 407.433 864.305 407.329 863.169 407.121C862.033 406.913 861.137 406.689 860.481 406.449C860.385 405.601 860.489 404.641 860.793 403.569C861.097 402.497 861.497 401.673 861.993 401.097C862.505 401.257 863.153 401.417 863.937 401.577C864.721 401.753 865.513 401.841 866.313 401.841C867.529 401.841 868.521 401.497 869.289 400.809C870.073 400.121 870.649 399.169 871.017 397.953L871.209 397.257C869.913 397.241 868.833 397.017 867.969 396.585C867.105 396.153 866.521 395.369 866.217 394.233L860.625 373.545C861.393 373.209 862.201 372.961 863.049 372.801C863.897 372.625 864.633 372.537 865.257 372.537C866.169 372.537 866.921 372.761 867.513 373.209C868.121 373.657 868.577 374.505 868.881 375.753L871.137 384.993C871.281 385.521 871.417 386.185 871.545 386.985C871.689 387.769 871.817 388.553 871.929 389.337C872.041 390.105 872.129 390.753 872.193 391.281C872.241 391.505 872.377 391.617 872.601 391.617L876.777 372.993C877.193 372.881 877.673 372.801 878.217 372.753C878.761 372.705 879.265 372.681 879.729 372.681C880.369 372.681 881.025 372.721 881.697 372.801C882.385 372.865 883.065 373.009 883.737 373.233L884.025 373.737L878.097 396.273ZM907.321 384.945C907.321 388.785 906.377 391.865 904.489 394.185C902.601 396.489 899.849 397.641 896.233 397.641C892.569 397.641 889.801 396.481 887.929 394.161C886.073 391.841 885.145 388.769 885.145 384.945C885.145 381.089 886.089 378.009 887.977 375.705C889.865 373.401 892.617 372.249 896.233 372.249C899.881 372.249 902.641 373.409 904.513 375.729C906.385 378.049 907.321 381.121 907.321 384.945ZM892.849 384.945C892.849 386.257 892.921 387.449 893.065 388.521C893.225 389.593 893.545 390.449 894.025 391.089C894.505 391.713 895.241 392.025 896.233 392.025C897.209 392.025 897.937 391.713 898.417 391.089C898.913 390.449 899.233 389.593 899.377 388.521C899.537 387.449 899.617 386.257 899.617 384.945C899.617 383.617 899.537 382.417 899.377 381.345C899.233 380.273 898.913 379.425 898.417 378.801C897.937 378.161 897.209 377.841 896.233 377.841C895.241 377.841 894.505 378.161 894.025 378.801C893.545 379.425 893.225 380.273 893.065 381.345C892.921 382.417 892.849 383.617 892.849 384.945ZM911.544 378.969C911.544 378.025 911.448 377.145 911.256 376.329C911.08 375.513 910.776 374.801 910.344 374.193C910.888 373.729 911.568 373.345 912.384 373.041C913.2 372.737 914.08 372.585 915.024 372.585C916.528 372.585 917.568 372.985 918.144 373.785C918.736 374.585 919.032 375.729 919.032 377.217V387.441C919.032 388.529 919.176 389.329 919.464 389.841C919.752 390.353 920.296 390.609 921.096 390.609C921.576 390.609 922.136 390.489 922.776 390.249C923.416 389.993 924.048 389.577 924.672 389.001V372.969C925.184 372.873 925.776 372.801 926.448 372.753C927.12 372.705 927.776 372.681 928.416 372.681C929.04 372.681 929.68 372.705 930.336 372.753C931.008 372.801 931.616 372.873 932.16 372.969V390.081C932.16 390.849 932.28 391.545 932.52 392.169C932.776 392.793 933.104 393.249 933.504 393.537C933.376 394.209 933.08 394.913 932.616 395.649C932.152 396.385 931.688 396.937 931.224 397.305C929.864 397.273 928.704 396.953 927.744 396.345C926.8 395.721 926.072 394.913 925.56 393.921C924.536 394.849 923.432 395.657 922.248 396.345C921.064 397.017 919.736 397.353 918.264 397.353C916.072 397.353 914.4 396.553 913.248 394.953C912.112 393.353 911.544 391.305 911.544 388.809V378.969ZM957.757 385.233C957.757 382.481 958.189 380.161 959.053 378.273C959.933 376.369 961.101 374.929 962.557 373.953C964.013 372.977 965.621 372.489 967.381 372.489C968.213 372.489 968.989 372.585 969.709 372.777C970.445 372.969 971.141 373.217 971.797 373.521V361.929L972.133 361.593H975.061C976.533 361.593 977.573 361.929 978.181 362.601C978.805 363.273 979.117 364.441 979.117 366.105V389.985C979.117 390.753 979.237 391.449 979.477 392.073C979.733 392.697 980.061 393.161 980.461 393.465C980.317 394.121 980.013 394.833 979.549 395.601C979.101 396.369 978.645 396.937 978.181 397.305C976.981 397.273 975.949 397.025 975.085 396.561C974.237 396.081 973.549 395.441 973.021 394.641C972.189 395.521 971.205 396.241 970.069 396.801C968.933 397.361 967.701 397.641 966.373 397.641C964.421 397.641 962.805 397.113 961.525 396.057C960.261 395.001 959.317 393.545 958.693 391.689C958.069 389.817 957.757 387.665 957.757 385.233ZM965.437 385.281C965.437 387.505 965.709 389.121 966.253 390.129C966.797 391.121 967.485 391.617 968.317 391.617C968.797 391.617 969.349 391.489 969.973 391.233C970.597 390.977 971.205 390.481 971.797 389.745V379.185C971.237 378.849 970.693 378.577 970.165 378.369C969.637 378.161 969.141 378.057 968.677 378.057C967.525 378.057 966.693 378.705 966.181 380.001C965.685 381.297 965.437 383.057 965.437 385.281ZM1005.67 384.945C1005.67 388.785 1004.72 391.865 1002.83 394.185C1000.95 396.489 998.193 397.641 994.577 397.641C990.913 397.641 988.145 396.481 986.273 394.161C984.417 391.841 983.489 388.769 983.489 384.945C983.489 381.089 984.433 378.009 986.321 375.705C988.209 373.401 990.961 372.249 994.577 372.249C998.225 372.249 1000.99 373.409 1002.86 375.729C1004.73 378.049 1005.67 381.121 1005.67 384.945ZM991.193 384.945C991.193 386.257 991.265 387.449 991.409 388.521C991.569 389.593 991.889 390.449 992.369 391.089C992.849 391.713 993.585 392.025 994.577 392.025C995.553 392.025 996.281 391.713 996.761 391.089C997.257 390.449 997.577 389.593 997.721 388.521C997.881 387.449 997.961 386.257 997.961 384.945C997.961 383.617 997.881 382.417 997.721 381.345C997.577 380.273 997.257 379.425 996.761 378.801C996.281 378.161 995.553 377.841 994.577 377.841C993.585 377.841 992.849 378.161 992.369 378.801C991.889 379.425 991.569 380.273 991.409 381.345C991.265 382.417 991.193 383.617 991.193 384.945ZM799.412 449.921C799.412 450.865 799.5 451.745 799.676 452.561C799.852 453.361 800.164 454.073 800.612 454.697C800.052 455.161 799.364 455.545 798.548 455.849C797.732 456.153 796.86 456.305 795.932 456.305C794.428 456.305 793.38 455.905 792.788 455.105C792.196 454.305 791.9 453.153 791.9 451.649V441.449C791.9 440.361 791.756 439.561 791.468 439.049C791.196 438.521 790.66 438.257 789.86 438.257C789.38 438.257 788.82 438.385 788.18 438.641C787.54 438.897 786.908 439.313 786.284 439.889V455.921C785.756 456.017 785.156 456.089 784.484 456.137C783.828 456.185 783.18 456.209 782.54 456.209C781.916 456.209 781.268 456.185 780.596 456.137C779.924 456.089 779.316 456.017 778.772 455.921V431.969L779.108 431.633H781.94C782.964 431.633 783.804 431.889 784.46 432.401C785.132 432.897 785.62 433.593 785.924 434.489C786.868 433.673 787.892 432.977 788.996 432.401C790.1 431.825 791.332 431.537 792.692 431.537C794.884 431.537 796.548 432.337 797.684 433.937C798.836 435.521 799.412 437.569 799.412 440.081V449.921ZM825.782 443.945C825.782 447.785 824.838 450.865 822.95 453.185C821.062 455.489 818.31 456.641 814.694 456.641C811.03 456.641 808.262 455.481 806.39 453.161C804.534 450.841 803.606 447.769 803.606 443.945C803.606 440.089 804.55 437.009 806.438 434.705C808.326 432.401 811.078 431.249 814.694 431.249C818.342 431.249 821.102 432.409 822.974 434.729C824.846 437.049 825.782 440.121 825.782 443.945ZM811.31 443.945C811.31 445.257 811.382 446.449 811.526 447.521C811.686 448.593 812.006 449.449 812.486 450.089C812.966 450.713 813.702 451.025 814.694 451.025C815.67 451.025 816.398 450.713 816.878 450.089C817.374 449.449 817.694 448.593 817.838 447.521C817.998 446.449 818.078 445.257 818.078 443.945C818.078 442.617 817.998 441.417 817.838 440.345C817.694 439.273 817.374 438.425 816.878 437.801C816.398 437.161 815.67 436.841 814.694 436.841C813.702 436.841 812.966 437.161 812.486 437.801C812.006 438.425 811.686 439.273 811.526 440.345C811.382 441.417 811.31 442.617 811.31 443.945ZM831.062 429.257C831.062 427.577 831.366 426.409 831.974 425.753C832.598 425.081 833.646 424.745 835.118 424.745H838.046L838.382 425.081V431.993L844.07 431.921C844.294 432.769 844.406 433.641 844.406 434.537C844.406 435.529 844.294 436.433 844.07 437.249L838.382 437.153V448.193C838.382 449.697 839.094 450.449 840.518 450.449H843.206C843.606 451.601 843.806 452.785 843.806 454.001C843.806 454.273 843.79 454.561 843.758 454.865C843.726 455.169 843.678 455.441 843.614 455.681C842.734 455.809 841.718 455.921 840.566 456.017C839.414 456.113 838.358 456.161 837.398 456.161C835.222 456.161 833.622 455.625 832.598 454.553C831.574 453.465 831.062 451.777 831.062 449.489V437.177L827.294 437.249C827.086 436.433 826.982 435.529 826.982 434.537C826.982 433.641 827.086 432.769 827.294 431.921L831.062 431.969V429.257ZM865.898 455.921C865.37 456.017 864.778 456.089 864.122 456.137C863.466 456.185 862.818 456.209 862.178 456.209C860.866 456.209 859.658 456.113 858.554 455.921V420.929L858.89 420.593H861.818C863.29 420.593 864.338 420.929 864.962 421.601C865.586 422.273 865.898 423.441 865.898 425.105V440.177H866.642C866.978 440.177 867.242 440.121 867.434 440.009C867.626 439.897 867.818 439.673 868.01 439.337L870.506 434.513C870.954 433.601 871.506 432.921 872.162 432.473C872.834 432.009 873.674 431.777 874.682 431.777C875.482 431.777 876.21 431.785 876.866 431.801C877.522 431.817 878.194 431.841 878.882 431.873L879.17 432.257L875.474 439.409C874.866 440.593 874.042 441.529 873.002 442.217C873.93 442.553 874.73 443.065 875.402 443.753C876.09 444.425 876.61 445.297 876.962 446.369L878.138 449.873C878.538 451.121 878.898 452.025 879.218 452.585C879.538 453.145 879.946 453.601 880.442 453.953C879.85 454.625 879.106 455.185 878.21 455.633C877.314 456.081 876.378 456.305 875.402 456.305C874.33 456.305 873.522 456.049 872.978 455.537C872.45 455.025 871.986 454.169 871.586 452.969L870.17 448.817C869.834 447.793 869.45 447.121 869.018 446.801C868.586 446.481 868.042 446.321 867.386 446.321C866.874 446.321 866.378 446.337 865.898 446.369V455.921ZM904.319 449.921C904.319 450.865 904.407 451.745 904.583 452.561C904.759 453.361 905.071 454.073 905.519 454.697C904.959 455.161 904.271 455.545 903.455 455.849C902.639 456.153 901.767 456.305 900.839 456.305C899.335 456.305 898.287 455.905 897.695 455.105C897.103 454.305 896.807 453.153 896.807 451.649V441.449C896.807 440.361 896.663 439.561 896.375 439.049C896.103 438.521 895.567 438.257 894.767 438.257C894.287 438.257 893.727 438.385 893.087 438.641C892.447 438.897 891.815 439.313 891.191 439.889V455.921C890.663 456.017 890.063 456.089 889.391 456.137C888.735 456.185 888.087 456.209 887.447 456.209C886.823 456.209 886.175 456.185 885.503 456.137C884.831 456.089 884.223 456.017 883.679 455.921V431.969L884.015 431.633H886.847C887.871 431.633 888.711 431.889 889.367 432.401C890.039 432.897 890.527 433.593 890.831 434.489C891.775 433.673 892.799 432.977 893.903 432.401C895.007 431.825 896.239 431.537 897.599 431.537C899.791 431.537 901.455 432.337 902.591 433.937C903.743 435.521 904.319 437.569 904.319 440.081V449.921ZM930.689 443.945C930.689 447.785 929.745 450.865 927.857 453.185C925.969 455.489 923.217 456.641 919.601 456.641C915.937 456.641 913.169 455.481 911.297 453.161C909.441 450.841 908.513 447.769 908.513 443.945C908.513 440.089 909.457 437.009 911.345 434.705C913.233 432.401 915.985 431.249 919.601 431.249C923.249 431.249 926.009 432.409 927.881 434.729C929.753 437.049 930.689 440.121 930.689 443.945ZM916.217 443.945C916.217 445.257 916.289 446.449 916.433 447.521C916.593 448.593 916.913 449.449 917.393 450.089C917.873 450.713 918.609 451.025 919.601 451.025C920.577 451.025 921.305 450.713 921.785 450.089C922.281 449.449 922.601 448.593 922.745 447.521C922.905 446.449 922.985 445.257 922.985 443.945C922.985 442.617 922.905 441.417 922.745 440.345C922.601 439.273 922.281 438.425 921.785 437.801C921.305 437.161 920.577 436.841 919.601 436.841C918.609 436.841 917.873 437.161 917.393 437.801C916.913 438.425 916.593 439.273 916.433 440.345C916.289 441.417 916.217 442.617 916.217 443.945ZM932.32 432.425C933.824 431.833 935.216 431.537 936.496 431.537C937.696 431.537 938.536 431.817 939.016 432.377C939.512 432.937 939.864 433.721 940.072 434.729L941.56 442.481C942.216 445.697 942.632 448.201 942.808 449.993C942.856 450.249 942.984 450.377 943.192 450.377L945.832 432.233C946.424 432.089 947.176 431.993 948.088 431.945C949 431.881 949.688 431.849 950.152 431.849C950.648 431.849 951.368 431.881 952.312 431.945C953.272 431.993 954.032 432.089 954.592 432.233L957.304 449.993C957.352 450.249 957.48 450.377 957.688 450.377C957.848 449.273 958.032 448.057 958.24 446.729C958.464 445.385 958.72 443.969 959.008 442.481L961.144 431.993C961.56 431.881 962.032 431.801 962.56 431.753C963.088 431.705 963.568 431.681 964 431.681C964.512 431.681 965.168 431.721 965.968 431.801C966.784 431.881 967.456 432.049 967.984 432.305L968.2 432.761L962.608 455.921C961.856 456.033 960.968 456.105 959.944 456.137C958.92 456.185 957.968 456.209 957.088 456.209C955.648 456.209 954.552 456.009 953.8 455.609C953.064 455.209 952.592 454.273 952.384 452.801L951.568 447.641C951.392 446.457 951.184 445.073 950.944 443.489C950.72 441.889 950.52 440.257 950.344 438.593H950.056C949.864 440.225 949.648 441.833 949.408 443.417C949.184 444.985 948.984 446.361 948.808 447.545L947.464 455.921C946.68 456.017 945.76 456.089 944.704 456.137C943.664 456.185 942.696 456.209 941.8 456.209C940.392 456.209 939.32 455.985 938.584 455.537C937.848 455.073 937.312 454.129 936.976 452.705L932.32 432.425Z" fill="black"/>
</g>
</g>
<g filter="url(#filter4_i)">
<path d="M1156 407L1240.86 627H1342.69L1418.5 407H1156Z" fill="#C4C4C4" fill-opacity="0.1" stroke="black"/>
<g filter="url(#filter5_i)">
<path d="M1271.79 464.858C1271.79 464.708 1271.79 464.574 1271.8 464.457C1271.8 464.336 1271.8 464.198 1271.8 464.044H1271.79C1271.71 464.044 1271.6 464.046 1271.45 464.05C1271.3 464.053 1271.18 464.055 1271.1 464.055H1269.96C1269.94 463.923 1269.92 463.795 1269.91 463.67C1269.9 463.542 1269.9 463.428 1269.9 463.329C1269.9 463.227 1269.9 463.111 1269.91 462.983C1269.92 462.854 1269.94 462.724 1269.96 462.592H1275.41C1275.43 462.684 1275.45 462.792 1275.47 462.917C1275.49 463.038 1275.49 463.155 1275.49 463.269C1275.49 463.555 1275.42 463.758 1275.27 463.879C1275.12 463.997 1274.89 464.055 1274.58 464.055H1274.25C1274.17 464.055 1274.06 464.053 1273.91 464.05C1273.75 464.046 1273.64 464.044 1273.56 464.044H1273.55C1273.55 464.198 1273.55 464.336 1273.55 464.457C1273.56 464.574 1273.56 464.708 1273.56 464.858V470.105C1273.41 470.131 1273.25 470.147 1273.1 470.155C1272.94 470.166 1272.8 470.171 1272.68 470.171C1272.55 470.171 1272.41 470.166 1272.26 470.155C1272.1 470.147 1271.94 470.131 1271.79 470.105V464.858ZM1277.81 470.105C1277.57 470.149 1277.28 470.171 1276.95 470.171C1276.66 470.171 1276.38 470.149 1276.12 470.105V462.086L1276.2 462.009H1276.87C1277.21 462.009 1277.45 462.086 1277.59 462.24C1277.74 462.394 1277.81 462.662 1277.81 463.043V465.122C1278.01 464.954 1278.23 464.811 1278.47 464.693C1278.71 464.576 1278.98 464.517 1279.28 464.517C1279.78 464.517 1280.16 464.701 1280.42 465.067C1280.68 465.43 1280.82 465.9 1280.82 466.475V468.73C1280.82 468.947 1280.84 469.148 1280.88 469.335C1280.92 469.519 1280.99 469.682 1281.09 469.825C1280.96 469.931 1280.8 470.019 1280.62 470.089C1280.43 470.158 1280.23 470.193 1280.01 470.193C1279.67 470.193 1279.43 470.102 1279.29 469.918C1279.16 469.735 1279.09 469.471 1279.09 469.126V466.789C1279.09 466.539 1279.06 466.356 1279 466.239C1278.93 466.118 1278.8 466.057 1278.62 466.057C1278.51 466.057 1278.38 466.087 1278.24 466.145C1278.09 466.204 1277.95 466.299 1277.81 466.431V470.105ZM1284.08 470.105C1283.96 470.127 1283.82 470.144 1283.66 470.155C1283.51 470.166 1283.37 470.171 1283.22 470.171C1283.08 470.171 1282.93 470.166 1282.77 470.155C1282.62 470.144 1282.48 470.127 1282.36 470.105V466.464C1282.36 466.281 1282.32 466.129 1282.24 466.008C1282.17 465.887 1282.03 465.826 1281.84 465.826H1281.67C1281.63 465.647 1281.6 465.452 1281.6 465.243C1281.6 465.148 1281.61 465.047 1281.62 464.941C1281.63 464.831 1281.65 464.726 1281.67 464.627C1281.84 464.609 1282.01 464.596 1282.19 464.589C1282.37 464.578 1282.52 464.572 1282.64 464.572H1282.88C1283.24 464.572 1283.54 464.691 1283.75 464.93C1283.97 465.164 1284.08 465.483 1284.08 465.887V470.105ZM1282.03 463.071C1282.03 462.843 1282.07 462.629 1282.15 462.427C1282.25 462.38 1282.37 462.339 1282.52 462.306C1282.67 462.273 1282.82 462.257 1282.97 462.257C1283.12 462.257 1283.27 462.273 1283.43 462.306C1283.59 462.339 1283.71 462.38 1283.79 462.427C1283.83 462.53 1283.86 462.638 1283.88 462.752C1283.91 462.865 1283.92 462.972 1283.92 463.071C1283.92 463.294 1283.88 463.507 1283.79 463.709C1283.71 463.756 1283.59 463.797 1283.43 463.83C1283.27 463.863 1283.12 463.879 1282.97 463.879C1282.82 463.879 1282.67 463.865 1282.52 463.835C1282.36 463.802 1282.24 463.76 1282.15 463.709C1282.07 463.507 1282.03 463.294 1282.03 463.071ZM1290.1 468.73C1290.1 468.947 1290.12 469.148 1290.16 469.335C1290.2 469.519 1290.28 469.682 1290.38 469.825C1290.25 469.931 1290.09 470.019 1289.91 470.089C1289.72 470.158 1289.52 470.193 1289.31 470.193C1288.96 470.193 1288.72 470.102 1288.59 469.918C1288.45 469.735 1288.38 469.471 1288.38 469.126V466.789C1288.38 466.539 1288.35 466.356 1288.28 466.239C1288.22 466.118 1288.1 466.057 1287.91 466.057C1287.8 466.057 1287.68 466.087 1287.53 466.145C1287.38 466.204 1287.24 466.299 1287.1 466.431V470.105C1286.97 470.127 1286.84 470.144 1286.68 470.155C1286.53 470.166 1286.38 470.171 1286.24 470.171C1286.09 470.171 1285.95 470.166 1285.79 470.155C1285.64 470.144 1285.5 470.127 1285.37 470.105V464.616L1285.45 464.539H1286.1C1286.33 464.539 1286.53 464.598 1286.68 464.715C1286.83 464.829 1286.94 464.988 1287.01 465.194C1287.23 465.007 1287.46 464.847 1287.72 464.715C1287.97 464.583 1288.25 464.517 1288.56 464.517C1289.07 464.517 1289.45 464.701 1289.71 465.067C1289.97 465.43 1290.1 465.9 1290.1 466.475V468.73ZM1291.09 467.372C1291.09 466.741 1291.19 466.209 1291.38 465.777C1291.59 465.34 1291.85 465.01 1292.19 464.787C1292.52 464.563 1292.89 464.451 1293.29 464.451C1293.61 464.451 1293.89 464.501 1294.13 464.6C1294.37 464.699 1294.57 464.82 1294.73 464.963C1294.85 464.831 1295 464.726 1295.17 464.649C1295.35 464.572 1295.55 464.532 1295.78 464.528C1295.88 464.613 1295.99 464.743 1296.1 464.919C1296.21 465.091 1296.28 465.254 1296.3 465.408C1296.21 465.474 1296.13 465.581 1296.08 465.727C1296.02 465.87 1295.99 466.028 1295.99 466.2V469.104C1295.99 469.618 1295.97 470.041 1295.92 470.375C1295.88 470.708 1295.81 470.982 1295.73 471.194C1295.64 471.407 1295.54 471.587 1295.43 471.733C1295.21 472.008 1294.92 472.21 1294.56 472.338C1294.2 472.47 1293.8 472.536 1293.36 472.536C1293.02 472.536 1292.66 472.501 1292.29 472.432C1291.91 472.366 1291.58 472.28 1291.3 472.173C1291.3 471.972 1291.34 471.75 1291.42 471.508C1291.5 471.266 1291.6 471.073 1291.72 470.93C1292.21 471.15 1292.71 471.26 1293.2 471.26C1293.61 471.26 1293.89 471.158 1294.06 470.952C1294.23 470.751 1294.32 470.481 1294.32 470.144V469.792C1294.14 469.92 1293.94 470.023 1293.73 470.1C1293.51 470.177 1293.29 470.215 1293.07 470.215C1292.62 470.215 1292.25 470.094 1291.96 469.852C1291.66 469.61 1291.44 469.277 1291.3 468.851C1291.16 468.422 1291.09 467.929 1291.09 467.372ZM1292.85 467.383C1292.85 467.892 1292.91 468.263 1293.03 468.494C1293.15 468.721 1293.31 468.835 1293.5 468.835C1293.8 468.835 1294.07 468.708 1294.32 468.455V466.178C1294.32 466.153 1294.32 466.127 1294.32 466.101C1294.06 465.852 1293.82 465.727 1293.59 465.727C1293.33 465.727 1293.13 465.876 1293.02 466.173C1292.9 466.466 1292.85 466.869 1292.85 467.383ZM1296.85 469.726C1296.85 469.542 1296.9 469.337 1297 469.11C1297.09 468.882 1297.2 468.703 1297.33 468.571C1297.57 468.695 1297.82 468.804 1298.07 468.895C1298.33 468.983 1298.59 469.027 1298.85 469.027C1299.06 469.027 1299.22 468.991 1299.33 468.917C1299.44 468.844 1299.49 468.752 1299.49 468.642C1299.49 468.43 1299.33 468.263 1298.99 468.142L1298.38 467.922C1297.99 467.779 1297.67 467.579 1297.4 467.322C1297.14 467.062 1297.01 466.712 1297.01 466.272C1297.01 465.714 1297.2 465.273 1297.58 464.946C1297.97 464.616 1298.49 464.451 1299.13 464.451C1299.48 464.451 1299.84 464.499 1300.22 464.594C1300.61 464.69 1300.92 464.796 1301.16 464.913C1301.17 465.049 1301.15 465.197 1301.1 465.359C1301.06 465.516 1301.01 465.663 1300.93 465.799C1300.86 465.934 1300.78 466.037 1300.69 466.107C1300.46 466.004 1300.21 465.911 1299.94 465.826C1299.68 465.738 1299.41 465.694 1299.15 465.694C1299 465.694 1298.89 465.729 1298.81 465.799C1298.74 465.868 1298.7 465.951 1298.7 466.046C1298.7 466.222 1298.84 466.362 1299.12 466.464L1299.8 466.706C1300.22 466.857 1300.57 467.073 1300.85 467.355C1301.12 467.634 1301.26 468.008 1301.26 468.477C1301.26 469.024 1301.05 469.46 1300.63 469.786C1300.21 470.109 1299.63 470.27 1298.89 470.27C1298.49 470.27 1298.12 470.217 1297.77 470.111C1297.41 470.004 1297.11 469.876 1296.85 469.726ZM1282.39 483.957C1282.25 484.459 1282.09 484.901 1281.89 485.282C1281.68 485.667 1281.41 485.968 1281.06 486.184C1280.71 486.404 1280.25 486.514 1279.69 486.514C1279.47 486.514 1279.23 486.49 1278.97 486.443C1278.7 486.395 1278.5 486.344 1278.35 486.289C1278.33 486.094 1278.35 485.874 1278.42 485.629C1278.49 485.383 1278.58 485.194 1278.7 485.062C1278.81 485.099 1278.96 485.136 1279.14 485.172C1279.32 485.213 1279.5 485.233 1279.69 485.233C1279.96 485.233 1280.19 485.154 1280.37 484.996C1280.55 484.839 1280.68 484.62 1280.76 484.342L1280.81 484.182C1280.51 484.179 1280.26 484.127 1280.07 484.028C1279.87 483.929 1279.73 483.75 1279.66 483.489L1278.38 478.748C1278.56 478.671 1278.74 478.614 1278.94 478.578C1279.13 478.537 1279.3 478.517 1279.44 478.517C1279.65 478.517 1279.83 478.569 1279.96 478.671C1280.1 478.774 1280.2 478.968 1280.27 479.254L1280.79 481.372C1280.82 481.493 1280.86 481.645 1280.88 481.828C1280.92 482.008 1280.95 482.188 1280.97 482.367C1281 482.543 1281.02 482.692 1281.03 482.813C1281.04 482.864 1281.08 482.89 1281.13 482.89L1282.08 478.622C1282.18 478.596 1282.29 478.578 1282.41 478.567C1282.54 478.556 1282.65 478.55 1282.76 478.55C1282.91 478.55 1283.06 478.559 1283.21 478.578C1283.37 478.592 1283.52 478.625 1283.68 478.677L1283.74 478.792L1282.39 483.957ZM1289.08 481.361C1289.08 482.241 1288.87 482.947 1288.43 483.478C1288 484.006 1287.37 484.27 1286.54 484.27C1285.7 484.27 1285.07 484.004 1284.64 483.473C1284.21 482.941 1284 482.237 1284 481.361C1284 480.477 1284.22 479.771 1284.65 479.243C1285.08 478.715 1285.71 478.451 1286.54 478.451C1287.38 478.451 1288.01 478.717 1288.44 479.249C1288.87 479.78 1289.08 480.484 1289.08 481.361ZM1285.77 481.361C1285.77 481.661 1285.78 481.935 1285.82 482.18C1285.85 482.426 1285.93 482.622 1286.04 482.769C1286.15 482.912 1286.32 482.983 1286.54 482.983C1286.77 482.983 1286.93 482.912 1287.04 482.769C1287.16 482.622 1287.23 482.426 1287.26 482.18C1287.3 481.935 1287.32 481.661 1287.32 481.361C1287.32 481.056 1287.3 480.781 1287.26 480.536C1287.23 480.29 1287.16 480.096 1287.04 479.953C1286.93 479.806 1286.77 479.733 1286.54 479.733C1286.32 479.733 1286.15 479.806 1286.04 479.953C1285.93 480.096 1285.85 480.29 1285.82 480.536C1285.78 480.781 1285.77 481.056 1285.77 481.361ZM1290.05 479.991C1290.05 479.775 1290.03 479.573 1289.99 479.386C1289.94 479.199 1289.88 479.036 1289.78 478.897C1289.9 478.79 1290.06 478.702 1290.24 478.633C1290.43 478.563 1290.63 478.528 1290.85 478.528C1291.19 478.528 1291.43 478.62 1291.56 478.803C1291.7 478.987 1291.77 479.249 1291.77 479.59V481.933C1291.77 482.182 1291.8 482.365 1291.87 482.483C1291.93 482.6 1292.06 482.659 1292.24 482.659C1292.35 482.659 1292.48 482.631 1292.63 482.576C1292.77 482.518 1292.92 482.422 1293.06 482.29V478.616C1293.18 478.594 1293.31 478.578 1293.47 478.567C1293.62 478.556 1293.77 478.55 1293.92 478.55C1294.06 478.55 1294.21 478.556 1294.36 478.567C1294.51 478.578 1294.65 478.594 1294.78 478.616V482.538C1294.78 482.714 1294.8 482.873 1294.86 483.016C1294.92 483.159 1294.99 483.264 1295.08 483.33C1295.05 483.484 1294.99 483.645 1294.88 483.814C1294.77 483.982 1294.67 484.109 1294.56 484.193C1294.25 484.186 1293.98 484.113 1293.76 483.973C1293.55 483.83 1293.38 483.645 1293.26 483.418C1293.03 483.63 1292.78 483.816 1292.5 483.973C1292.23 484.127 1291.93 484.204 1291.59 484.204C1291.09 484.204 1290.71 484.021 1290.44 483.654C1290.18 483.288 1290.05 482.818 1290.05 482.246V479.991ZM1277.53 498.105C1277.41 498.127 1277.27 498.144 1277.12 498.155C1276.97 498.166 1276.82 498.171 1276.68 498.171C1276.38 498.171 1276.1 498.149 1275.85 498.105V490.086L1275.92 490.009H1276.59C1276.93 490.009 1277.17 490.086 1277.31 490.24C1277.46 490.394 1277.53 490.662 1277.53 491.043V494.497H1277.7C1277.78 494.497 1277.84 494.484 1277.88 494.459C1277.92 494.433 1277.97 494.382 1278.01 494.305L1278.58 493.199C1278.69 492.99 1278.81 492.834 1278.96 492.732C1279.12 492.625 1279.31 492.572 1279.54 492.572C1279.72 492.572 1279.89 492.574 1280.04 492.578C1280.19 492.581 1280.35 492.587 1280.5 492.594L1280.57 492.682L1279.72 494.321C1279.58 494.593 1279.39 494.807 1279.16 494.965C1279.37 495.042 1279.55 495.159 1279.71 495.317C1279.86 495.471 1279.98 495.671 1280.06 495.916L1280.33 496.719C1280.42 497.005 1280.51 497.212 1280.58 497.341C1280.65 497.469 1280.75 497.574 1280.86 497.654C1280.73 497.808 1280.56 497.937 1280.35 498.039C1280.14 498.142 1279.93 498.193 1279.71 498.193C1279.46 498.193 1279.28 498.135 1279.15 498.017C1279.03 497.9 1278.92 497.704 1278.83 497.429L1278.51 496.477C1278.43 496.243 1278.34 496.089 1278.24 496.015C1278.14 495.942 1278.02 495.905 1277.87 495.905C1277.75 495.905 1277.64 495.909 1277.53 495.916V498.105ZM1286.33 496.73C1286.33 496.947 1286.35 497.148 1286.39 497.335C1286.43 497.519 1286.51 497.682 1286.61 497.825C1286.48 497.931 1286.32 498.019 1286.14 498.089C1285.95 498.158 1285.75 498.193 1285.54 498.193C1285.19 498.193 1284.95 498.102 1284.82 497.918C1284.68 497.735 1284.61 497.471 1284.61 497.126V494.789C1284.61 494.539 1284.58 494.356 1284.51 494.239C1284.45 494.118 1284.33 494.057 1284.14 494.057C1284.03 494.057 1283.91 494.087 1283.76 494.145C1283.61 494.204 1283.47 494.299 1283.32 494.431V498.105C1283.2 498.127 1283.07 498.144 1282.91 498.155C1282.76 498.166 1282.61 498.171 1282.47 498.171C1282.32 498.171 1282.18 498.166 1282.02 498.155C1281.87 498.144 1281.73 498.127 1281.6 498.105V492.616L1281.68 492.539H1282.33C1282.56 492.539 1282.76 492.598 1282.91 492.715C1283.06 492.829 1283.17 492.988 1283.24 493.194C1283.46 493.007 1283.69 492.847 1283.95 492.715C1284.2 492.583 1284.48 492.517 1284.79 492.517C1285.3 492.517 1285.68 492.701 1285.94 493.067C1286.2 493.43 1286.33 493.9 1286.33 494.475V496.73ZM1292.38 495.361C1292.38 496.241 1292.16 496.947 1291.73 497.478C1291.29 498.006 1290.66 498.27 1289.84 498.27C1289 498.27 1288.36 498.004 1287.93 497.473C1287.51 496.941 1287.29 496.237 1287.29 495.361C1287.29 494.477 1287.51 493.771 1287.94 493.243C1288.38 492.715 1289.01 492.451 1289.84 492.451C1290.67 492.451 1291.3 492.717 1291.73 493.249C1292.16 493.78 1292.38 494.484 1292.38 495.361ZM1289.06 495.361C1289.06 495.661 1289.08 495.935 1289.11 496.18C1289.15 496.426 1289.22 496.622 1289.33 496.769C1289.44 496.912 1289.61 496.983 1289.84 496.983C1290.06 496.983 1290.23 496.912 1290.34 496.769C1290.45 496.622 1290.52 496.426 1290.56 496.18C1290.59 495.935 1290.61 495.661 1290.61 495.361C1290.61 495.056 1290.59 494.781 1290.56 494.536C1290.52 494.29 1290.45 494.096 1290.34 493.953C1290.23 493.806 1290.06 493.733 1289.84 493.733C1289.61 493.733 1289.44 493.806 1289.33 493.953C1289.22 494.096 1289.15 494.29 1289.11 494.536C1289.08 494.781 1289.06 495.056 1289.06 495.361ZM1292.75 492.721C1293.09 492.585 1293.41 492.517 1293.71 492.517C1293.98 492.517 1294.17 492.581 1294.28 492.71C1294.4 492.838 1294.48 493.018 1294.53 493.249L1294.87 495.025C1295.02 495.762 1295.11 496.336 1295.15 496.747C1295.16 496.805 1295.19 496.835 1295.24 496.835L1295.85 492.677C1295.98 492.644 1296.15 492.622 1296.36 492.611C1296.57 492.596 1296.73 492.589 1296.84 492.589C1296.95 492.589 1297.12 492.596 1297.33 492.611C1297.55 492.622 1297.73 492.644 1297.85 492.677L1298.48 496.747C1298.49 496.805 1298.52 496.835 1298.56 496.835C1298.6 496.582 1298.64 496.303 1298.69 495.999C1298.74 495.691 1298.8 495.366 1298.87 495.025L1299.36 492.622C1299.45 492.596 1299.56 492.578 1299.68 492.567C1299.8 492.556 1299.91 492.55 1300.01 492.55C1300.13 492.55 1300.28 492.559 1300.46 492.578C1300.65 492.596 1300.8 492.635 1300.92 492.693L1300.97 492.798L1299.69 498.105C1299.52 498.131 1299.32 498.147 1299.08 498.155C1298.85 498.166 1298.63 498.171 1298.43 498.171C1298.1 498.171 1297.84 498.125 1297.67 498.034C1297.5 497.942 1297.4 497.728 1297.35 497.39L1297.16 496.208C1297.12 495.936 1297.07 495.619 1297.02 495.256C1296.97 494.89 1296.92 494.516 1296.88 494.134H1296.81C1296.77 494.508 1296.72 494.877 1296.67 495.24C1296.61 495.599 1296.57 495.914 1296.53 496.186L1296.22 498.105C1296.04 498.127 1295.83 498.144 1295.59 498.155C1295.35 498.166 1295.13 498.171 1294.92 498.171C1294.6 498.171 1294.35 498.12 1294.19 498.017C1294.02 497.911 1293.89 497.695 1293.82 497.368L1292.75 492.721Z" fill="black"/>
</g>
</g>
<defs>
<filter id="filter0_i" x="121.301" y="152.5" width="456.374" height="433" filterUnits="userSpaceOnUse" color-interpolation-filters="sRGB">
<feFlood flood-opacity="0" result="BackgroundImageFix"/>
<feBlend mode="normal" in="SourceGraphic" in2="BackgroundImageFix" result="shape"/>
<feColorMatrix in="SourceAlpha" type="matrix" values="0 0 0 0 0 0 0 0 0 0 0 0 0 0 0 0 0 0 127 0" result="hardAlpha"/>
<feOffset dx="3" dy="4"/>
<feGaussianBlur stdDeviation="5"/>
<feComposite in2="hardAlpha" operator="arithmetic" k2="-1" k3="1"/>
<feColorMatrix type="matrix" values="0 0 0 0 0 0 0 0 0 0 0 0 0 0 0 0 0 0 0.5 0"/>
<feBlend mode="normal" in2="shape" result="effect1_innerShadow"/>
</filter>
<filter id="filter1_i" x="240.943" y="259.778" width="212.387" height="119.036" filterUnits="userSpaceOnUse" color-interpolation-filters="sRGB">
<feFlood flood-opacity="0" result="BackgroundImageFix"/>
<feBlend mode="normal" in="SourceGraphic" in2="BackgroundImageFix" result="shape"/>
<feColorMatrix in="SourceAlpha" type="matrix" values="0 0 0 0 0 0 0 0 0 0 0 0 0 0 0 0 0 0 127 0" result="hardAlpha"/>
<feOffset dy="4"/>
<feGaussianBlur stdDeviation="2"/>
<feComposite in2="hardAlpha" operator="arithmetic" k2="-1" k3="1"/>
<feColorMatrix type="matrix" values="0 0 0 0 0 0 0 0 0 0 0 0 0 0 0 0 0 0 0.25 0"/>
<feBlend mode="normal" in2="shape" result="effect1_innerShadow"/>
</filter>
<filter id="filter2_i" x="605.254" y="195.5" width="531.461" height="421" filterUnits="userSpaceOnUse" color-interpolation-filters="sRGB">
<feFlood flood-opacity="0" result="BackgroundImageFix"/>
<feBlend mode="normal" in="SourceGraphic" in2="BackgroundImageFix" result="shape"/>
<feColorMatrix in="SourceAlpha" type="matrix" values="0 0 0 0 0 0 0 0 0 0 0 0 0 0 0 0 0 0 127 0" result="hardAlpha"/>
<feOffset dx="2" dy="4"/>
<feGaussianBlur stdDeviation="5"/>
<feComposite in2="hardAlpha" operator="arithmetic" k2="-1" k3="1"/>
<feColorMatrix type="matrix" values="0 0 0 0 0 0 0 0 0 0 0 0 0 0 0 0 0 0 0.5 0"/>
<feBlend mode="normal" in2="shape" result="effect1_innerShadow"/>
</filter>
<filter id="filter3_i" x="740.03" y="302.593" width="265.635" height="158.048" filterUnits="userSpaceOnUse" color-interpolation-filters="sRGB">
<feFlood flood-opacity="0" result="BackgroundImageFix"/>
<feBlend mode="normal" in="SourceGraphic" in2="BackgroundImageFix" result="shape"/>
<feColorMatrix in="SourceAlpha" type="matrix" values="0 0 0 0 0 0 0 0 0 0 0 0 0 0 0 0 0 0 127 0" result="hardAlpha"/>
<feOffset dy="4"/>
<feGaussianBlur stdDeviation="2"/>
<feComposite in2="hardAlpha" operator="arithmetic" k2="-1" k3="1"/>
<feColorMatrix type="matrix" values="0 0 0 0 0 0 0 0 0 0 0 0 0 0 0 0 0 0 0.25 0"/>
<feBlend mode="normal" in2="shape" result="effect1_innerShadow"/>
</filter>
<filter id="filter4_i" x="1155.27" y="406.5" width="263.93" height="225" filterUnits="userSpaceOnUse" color-interpolation-filters="sRGB">
<feFlood flood-opacity="0" result="BackgroundImageFix"/>
<feBlend mode="normal" in="SourceGraphic" in2="BackgroundImageFix" result="shape"/>
<feColorMatrix in="SourceAlpha" type="matrix" values="0 0 0 0 0 0 0 0 0 0 0 0 0 0 0 0 0 0 127 0" result="hardAlpha"/>
<feOffset dy="4"/>
<feGaussianBlur stdDeviation="2"/>
<feComposite in2="hardAlpha" operator="arithmetic" k2="-1" k3="1"/>
<feColorMatrix type="matrix" values="0 0 0 0 0 0 0 0 0 0 0 0 0 0 0 0 0 0 0.25 0"/>
<feBlend mode="normal" in2="shape" result="effect1_innerShadow"/>
</filter>
<filter id="filter5_i" x="1269.9" y="462.009" width="31.362" height="40.261" filterUnits="userSpaceOnUse" color-interpolation-filters="sRGB">
<feFlood flood-opacity="0" result="BackgroundImageFix"/>
<feBlend mode="normal" in="SourceGraphic" in2="BackgroundImageFix" result="shape"/>
<feColorMatrix in="SourceAlpha" type="matrix" values="0 0 0 0 0 0 0 0 0 0 0 0 0 0 0 0 0 0 127 0" result="hardAlpha"/>
<feOffset dy="4"/>
<feGaussianBlur stdDeviation="2"/>
<feComposite in2="hardAlpha" operator="arithmetic" k2="-1" k3="1"/>
<feColorMatrix type="matrix" values="0 0 0 0 0 0 0 0 0 0 0 0 0 0 0 0 0 0 0.25 0"/>
<feBlend mode="normal" in2="shape" result="effect1_innerShadow"/>
</filter>
</defs>
</svg>
