<svg width="1484" height="742" viewBox="0 0 1484 742" fill="none" xmlns="http://www.w3.org/2000/svg">
<rect width="1484" height="742" fill="#C4C4C4"/>
<g filter="url(#filter0_i)">
<path d="M120 134L280.345 581H472.759L616 134H120Z" fill="#C4C4C4" stroke="black"/>
<g filter="url(#filter1_i)">
<path d="M237.18 254.509C237.18 254.017 237.186 253.579 237.198 253.195C237.21 252.799 237.216 252.349 237.216 251.845H237.18C236.916 251.845 236.538 251.851 236.046 251.863C235.554 251.875 235.176 251.881 234.912 251.881H231.186C231.102 251.449 231.048 251.029 231.024 250.621C231 250.201 230.988 249.829 230.988 249.505C230.988 249.169 231 248.791 231.024 248.371C231.048 247.951 231.102 247.525 231.186 247.093H249.006C249.09 247.393 249.156 247.747 249.204 248.155C249.264 248.551 249.294 248.935 249.294 249.307C249.294 250.243 249.048 250.909 248.556 251.305C248.076 251.689 247.32 251.881 246.288 251.881H245.226C244.962 251.881 244.584 251.875 244.092 251.863C243.6 251.851 243.222 251.845 242.958 251.845H242.922C242.922 252.349 242.928 252.799 242.94 253.195C242.952 253.579 242.958 254.017 242.958 254.509V271.681C242.466 271.765 241.962 271.819 241.446 271.843C240.93 271.879 240.474 271.897 240.078 271.897C239.67 271.897 239.208 271.879 238.692 271.843C238.176 271.819 237.672 271.765 237.18 271.681V254.509ZM256.864 271.681C256.072 271.825 255.142 271.897 254.074 271.897C253.114 271.897 252.208 271.825 251.356 271.681V245.437L251.608 245.185H253.804C254.908 245.185 255.694 245.437 256.162 245.941C256.63 246.445 256.864 247.321 256.864 248.569V255.373C257.536 254.821 258.262 254.353 259.042 253.969C259.834 253.585 260.71 253.393 261.67 253.393C263.314 253.393 264.562 253.993 265.414 255.193C266.278 256.381 266.71 257.917 266.71 259.801V267.181C266.71 267.889 266.776 268.549 266.908 269.161C267.04 269.761 267.268 270.295 267.592 270.763C267.184 271.111 266.674 271.399 266.062 271.627C265.45 271.855 264.79 271.969 264.082 271.969C262.954 271.969 262.168 271.669 261.724 271.069C261.292 270.469 261.076 269.605 261.076 268.477V260.827C261.076 260.011 260.968 259.411 260.752 259.027C260.536 258.631 260.128 258.433 259.528 258.433C259.168 258.433 258.748 258.529 258.268 258.721C257.788 258.913 257.32 259.225 256.864 259.657V271.681ZM277.383 271.681C276.987 271.753 276.537 271.807 276.033 271.843C275.541 271.879 275.055 271.897 274.575 271.897C274.107 271.897 273.621 271.879 273.117 271.843C272.625 271.807 272.169 271.753 271.749 271.681V259.765C271.749 259.165 271.623 258.667 271.371 258.271C271.131 257.875 270.693 257.677 270.057 257.677H269.517C269.361 257.089 269.283 256.453 269.283 255.769C269.283 255.457 269.301 255.127 269.337 254.779C269.373 254.419 269.433 254.077 269.517 253.753C270.069 253.693 270.633 253.651 271.209 253.627C271.797 253.591 272.289 253.573 272.685 253.573H273.459C274.659 253.573 275.613 253.963 276.321 254.743C277.029 255.511 277.383 256.555 277.383 257.875V271.681ZM270.669 248.659C270.669 247.915 270.807 247.213 271.083 246.553C271.395 246.397 271.797 246.265 272.289 246.157C272.793 246.049 273.285 245.995 273.765 245.995C274.245 245.995 274.743 246.049 275.259 246.157C275.775 246.265 276.171 246.397 276.447 246.553C276.579 246.889 276.681 247.243 276.753 247.615C276.825 247.987 276.861 248.335 276.861 248.659C276.861 249.391 276.723 250.087 276.447 250.747C276.171 250.903 275.775 251.035 275.259 251.143C274.743 251.251 274.245 251.305 273.765 251.305C273.285 251.305 272.787 251.257 272.271 251.161C271.767 251.053 271.371 250.915 271.083 250.747C270.807 250.087 270.669 249.391 270.669 248.659ZM297.105 267.181C297.105 267.889 297.171 268.549 297.303 269.161C297.435 269.761 297.669 270.295 298.005 270.763C297.585 271.111 297.069 271.399 296.457 271.627C295.845 271.855 295.191 271.969 294.495 271.969C293.367 271.969 292.581 271.669 292.137 271.069C291.693 270.469 291.471 269.605 291.471 268.477V260.827C291.471 260.011 291.363 259.411 291.147 259.027C290.943 258.631 290.541 258.433 289.941 258.433C289.581 258.433 289.161 258.529 288.681 258.721C288.201 258.913 287.727 259.225 287.259 259.657V271.681C286.863 271.753 286.413 271.807 285.909 271.843C285.417 271.879 284.931 271.897 284.451 271.897C283.983 271.897 283.497 271.879 282.993 271.843C282.489 271.807 282.033 271.753 281.625 271.681V253.717L281.877 253.465H284.001C284.769 253.465 285.399 253.657 285.891 254.041C286.395 254.413 286.761 254.935 286.989 255.607C287.697 254.995 288.465 254.473 289.293 254.041C290.121 253.609 291.045 253.393 292.065 253.393C293.709 253.393 294.957 253.993 295.809 255.193C296.673 256.381 297.105 257.917 297.105 259.801V267.181ZM300.323 262.735C300.323 260.671 300.647 258.931 301.295 257.515C301.955 256.087 302.831 255.007 303.923 254.275C305.027 253.543 306.233 253.177 307.541 253.177C308.597 253.177 309.509 253.339 310.277 253.663C311.057 253.987 311.717 254.383 312.257 254.851C312.653 254.419 313.133 254.077 313.697 253.825C314.273 253.573 314.933 253.441 315.677 253.429C316.025 253.705 316.379 254.131 316.739 254.707C317.099 255.271 317.315 255.805 317.387 256.309C317.087 256.525 316.841 256.873 316.649 257.353C316.469 257.821 316.379 258.337 316.379 258.901V268.405C316.379 270.085 316.301 271.471 316.145 272.563C316.001 273.655 315.791 274.549 315.515 275.245C315.239 275.941 314.909 276.529 314.525 277.009C313.817 277.909 312.875 278.569 311.699 278.989C310.523 279.421 309.215 279.637 307.775 279.637C306.647 279.637 305.471 279.523 304.247 279.295C303.023 279.079 301.943 278.797 301.007 278.449C301.007 277.789 301.139 277.063 301.403 276.271C301.667 275.479 301.997 274.849 302.393 274.381C304.013 275.101 305.633 275.461 307.253 275.461C308.573 275.461 309.509 275.125 310.061 274.453C310.613 273.793 310.889 272.911 310.889 271.807V270.655C310.313 271.075 309.671 271.411 308.963 271.663C308.267 271.915 307.547 272.041 306.803 272.041C305.339 272.041 304.127 271.645 303.167 270.853C302.207 270.061 301.493 268.969 301.025 267.577C300.557 266.173 300.323 264.559 300.323 262.735ZM306.083 262.771C306.083 264.439 306.281 265.651 306.677 266.407C307.085 267.151 307.595 267.523 308.207 267.523C309.191 267.523 310.085 267.109 310.889 266.281V258.829C310.889 258.745 310.895 258.661 310.907 258.577C310.055 257.761 309.263 257.353 308.531 257.353C307.655 257.353 307.025 257.839 306.641 258.811C306.269 259.771 306.083 261.091 306.083 262.771ZM319.174 270.439C319.198 269.839 319.36 269.167 319.66 268.423C319.972 267.679 320.332 267.091 320.74 266.659C321.532 267.067 322.348 267.421 323.188 267.721C324.04 268.009 324.886 268.153 325.726 268.153C326.422 268.153 326.944 268.033 327.292 267.793C327.652 267.553 327.832 267.253 327.832 266.893C327.832 266.197 327.286 265.651 326.194 265.255L324.196 264.535C322.924 264.067 321.856 263.413 320.992 262.573C320.128 261.721 319.696 260.575 319.696 259.135C319.696 257.311 320.326 255.865 321.586 254.797C322.858 253.717 324.55 253.177 326.662 253.177C327.79 253.177 328.978 253.333 330.226 253.645C331.486 253.957 332.506 254.305 333.286 254.689C333.31 255.133 333.25 255.619 333.106 256.147C332.974 256.663 332.788 257.143 332.548 257.587C332.308 258.031 332.038 258.367 331.738 258.595C330.994 258.259 330.184 257.953 329.308 257.677C328.432 257.389 327.568 257.245 326.716 257.245C326.224 257.245 325.852 257.359 325.6 257.587C325.36 257.815 325.24 258.085 325.24 258.397C325.24 258.973 325.696 259.429 326.608 259.765L328.84 260.557C330.208 261.049 331.348 261.757 332.26 262.681C333.172 263.593 333.628 264.817 333.628 266.353C333.628 268.141 332.938 269.569 331.558 270.637C330.19 271.693 328.288 272.221 325.852 272.221C324.568 272.221 323.344 272.047 322.18 271.699C321.028 271.351 320.026 270.931 319.174 270.439ZM355.609 271.195C355.177 272.839 354.631 274.285 353.971 275.533C353.311 276.793 352.411 277.777 351.271 278.485C350.131 279.205 348.631 279.565 346.771 279.565C346.051 279.565 345.265 279.487 344.413 279.331C343.561 279.175 342.889 279.007 342.397 278.827C342.325 278.191 342.403 277.471 342.631 276.667C342.859 275.863 343.159 275.245 343.531 274.813C343.915 274.933 344.401 275.053 344.989 275.173C345.577 275.305 346.171 275.371 346.771 275.371C347.683 275.371 348.427 275.113 349.003 274.597C349.591 274.081 350.023 273.367 350.299 272.455L350.443 271.933C349.471 271.921 348.661 271.753 348.013 271.429C347.365 271.105 346.927 270.517 346.699 269.665L342.505 254.149C343.081 253.897 343.687 253.711 344.323 253.591C344.959 253.459 345.511 253.393 345.979 253.393C346.663 253.393 347.227 253.561 347.671 253.897C348.127 254.233 348.469 254.869 348.697 255.805L350.389 262.735C350.497 263.131 350.599 263.629 350.695 264.229C350.803 264.817 350.899 265.405 350.983 265.993C351.067 266.569 351.133 267.055 351.181 267.451C351.217 267.619 351.319 267.703 351.487 267.703L354.619 253.735C354.931 253.651 355.291 253.591 355.699 253.555C356.107 253.519 356.485 253.501 356.833 253.501C357.313 253.501 357.805 253.531 358.309 253.591C358.825 253.639 359.335 253.747 359.839 253.915L360.055 254.293L355.609 271.195ZM377.527 262.699C377.527 265.579 376.819 267.889 375.403 269.629C373.987 271.357 371.923 272.221 369.211 272.221C366.463 272.221 364.387 271.351 362.983 269.611C361.591 267.871 360.895 265.567 360.895 262.699C360.895 259.807 361.603 257.497 363.019 255.769C364.435 254.041 366.499 253.177 369.211 253.177C371.947 253.177 374.017 254.047 375.421 255.787C376.825 257.527 377.527 259.831 377.527 262.699ZM366.673 262.699C366.673 263.683 366.727 264.577 366.835 265.381C366.955 266.185 367.195 266.827 367.555 267.307C367.915 267.775 368.467 268.009 369.211 268.009C369.943 268.009 370.489 267.775 370.849 267.307C371.221 266.827 371.461 266.185 371.569 265.381C371.689 264.577 371.749 263.683 371.749 262.699C371.749 261.703 371.689 260.803 371.569 259.999C371.461 259.195 371.221 258.559 370.849 258.091C370.489 257.611 369.943 257.371 369.211 257.371C368.467 257.371 367.915 257.611 367.555 258.091C367.195 258.559 366.955 259.195 366.835 259.999C366.727 260.803 366.673 261.703 366.673 262.699ZM380.694 258.217C380.694 257.509 380.622 256.849 380.478 256.237C380.346 255.625 380.118 255.091 379.794 254.635C380.202 254.287 380.712 253.999 381.324 253.771C381.936 253.543 382.596 253.429 383.304 253.429C384.432 253.429 385.212 253.729 385.644 254.329C386.088 254.929 386.31 255.787 386.31 256.903V264.571C386.31 265.387 386.418 265.987 386.634 266.371C386.85 266.755 387.258 266.947 387.858 266.947C388.218 266.947 388.638 266.857 389.118 266.677C389.598 266.485 390.072 266.173 390.54 265.741V253.717C390.924 253.645 391.368 253.591 391.872 253.555C392.376 253.519 392.868 253.501 393.348 253.501C393.816 253.501 394.296 253.519 394.788 253.555C395.292 253.591 395.748 253.645 396.156 253.717V266.551C396.156 267.127 396.246 267.649 396.426 268.117C396.618 268.585 396.864 268.927 397.164 269.143C397.068 269.647 396.846 270.175 396.498 270.727C396.15 271.279 395.802 271.693 395.454 271.969C394.434 271.945 393.564 271.705 392.844 271.249C392.136 270.781 391.59 270.175 391.206 269.431C390.438 270.127 389.61 270.733 388.722 271.249C387.834 271.753 386.838 272.005 385.734 272.005C384.09 272.005 382.836 271.405 381.972 270.205C381.12 269.005 380.694 267.469 380.694 265.597V258.217ZM407.444 262.915C407.444 260.851 407.768 259.111 408.416 257.695C409.076 256.267 409.952 255.187 411.044 254.455C412.136 253.723 413.342 253.357 414.662 253.357C415.286 253.357 415.868 253.429 416.408 253.573C416.96 253.717 417.482 253.903 417.974 254.131V245.437L418.226 245.185H420.422C421.526 245.185 422.306 245.437 422.762 245.941C423.23 246.445 423.464 247.321 423.464 248.569V266.479C423.464 267.055 423.554 267.577 423.734 268.045C423.926 268.513 424.172 268.861 424.472 269.089C424.364 269.581 424.136 270.115 423.788 270.691C423.452 271.267 423.11 271.693 422.762 271.969C421.862 271.945 421.088 271.759 420.44 271.411C419.804 271.051 419.288 270.571 418.892 269.971C418.268 270.631 417.53 271.171 416.678 271.591C415.826 272.011 414.902 272.221 413.906 272.221C412.442 272.221 411.23 271.825 410.27 271.033C409.322 270.241 408.614 269.149 408.146 267.757C407.678 266.353 407.444 264.739 407.444 262.915ZM413.204 262.951C413.204 264.619 413.408 265.831 413.816 266.587C414.224 267.331 414.74 267.703 415.364 267.703C415.724 267.703 416.138 267.607 416.606 267.415C417.074 267.223 417.53 266.851 417.974 266.299V258.379C417.554 258.127 417.146 257.923 416.75 257.767C416.354 257.611 415.982 257.533 415.634 257.533C414.77 257.533 414.146 258.019 413.762 258.991C413.39 259.963 413.204 261.283 413.204 262.951ZM443.375 262.699C443.375 265.579 442.667 267.889 441.251 269.629C439.835 271.357 437.771 272.221 435.059 272.221C432.311 272.221 430.235 271.351 428.831 269.611C427.439 267.871 426.743 265.567 426.743 262.699C426.743 259.807 427.451 257.497 428.867 255.769C430.283 254.041 432.347 253.177 435.059 253.177C437.795 253.177 439.865 254.047 441.269 255.787C442.673 257.527 443.375 259.831 443.375 262.699ZM432.521 262.699C432.521 263.683 432.575 264.577 432.683 265.381C432.803 266.185 433.043 266.827 433.403 267.307C433.763 267.775 434.315 268.009 435.059 268.009C435.791 268.009 436.337 267.775 436.697 267.307C437.069 266.827 437.309 266.185 437.417 265.381C437.537 264.577 437.597 263.683 437.597 262.699C437.597 261.703 437.537 260.803 437.417 259.999C437.309 259.195 437.069 258.559 436.697 258.091C436.337 257.611 435.791 257.371 435.059 257.371C434.315 257.371 433.763 257.611 433.403 258.091C433.043 258.559 432.803 259.195 432.683 259.999C432.575 260.803 432.521 261.703 432.521 262.699ZM470.004 267.181C470.004 267.889 470.07 268.549 470.202 269.161C470.334 269.761 470.568 270.295 470.904 270.763C470.484 271.111 469.968 271.399 469.356 271.627C468.744 271.855 468.09 271.969 467.394 271.969C466.266 271.969 465.48 271.669 465.036 271.069C464.592 270.469 464.37 269.605 464.37 268.477V260.827C464.37 260.011 464.262 259.411 464.046 259.027C463.842 258.631 463.44 258.433 462.84 258.433C462.48 258.433 462.06 258.529 461.58 258.721C461.1 258.913 460.626 259.225 460.158 259.657V271.681C459.762 271.753 459.312 271.807 458.808 271.843C458.316 271.879 457.83 271.897 457.35 271.897C456.882 271.897 456.396 271.879 455.892 271.843C455.388 271.807 454.932 271.753 454.524 271.681V253.717L454.776 253.465H456.9C457.668 253.465 458.298 253.657 458.79 254.041C459.294 254.413 459.66 254.935 459.888 255.607C460.596 254.995 461.364 254.473 462.192 254.041C463.02 253.609 463.944 253.393 464.964 253.393C466.608 253.393 467.856 253.993 468.708 255.193C469.572 256.381 470.004 257.917 470.004 259.801V267.181ZM489.781 262.699C489.781 265.579 489.073 267.889 487.657 269.629C486.241 271.357 484.177 272.221 481.465 272.221C478.717 272.221 476.641 271.351 475.237 269.611C473.845 267.871 473.149 265.567 473.149 262.699C473.149 259.807 473.857 257.497 475.273 255.769C476.689 254.041 478.753 253.177 481.465 253.177C484.201 253.177 486.271 254.047 487.675 255.787C489.079 257.527 489.781 259.831 489.781 262.699ZM478.927 262.699C478.927 263.683 478.981 264.577 479.089 265.381C479.209 266.185 479.449 266.827 479.809 267.307C480.169 267.775 480.721 268.009 481.465 268.009C482.197 268.009 482.743 267.775 483.103 267.307C483.475 266.827 483.715 266.185 483.823 265.381C483.943 264.577 484.003 263.683 484.003 262.699C484.003 261.703 483.943 260.803 483.823 259.999C483.715 259.195 483.475 258.559 483.103 258.091C482.743 257.611 482.197 257.371 481.465 257.371C480.721 257.371 480.169 257.611 479.809 258.091C479.449 258.559 479.209 259.195 479.089 259.999C478.981 260.803 478.927 261.703 478.927 262.699ZM493.741 251.683C493.741 250.423 493.969 249.547 494.425 249.055C494.893 248.551 495.679 248.299 496.783 248.299H498.979L499.231 248.551V253.735L503.497 253.681C503.665 254.317 503.749 254.971 503.749 255.643C503.749 256.387 503.665 257.065 503.497 257.677L499.231 257.605V265.885C499.231 267.013 499.765 267.577 500.833 267.577H502.849C503.149 268.441 503.299 269.329 503.299 270.241C503.299 270.445 503.287 270.661 503.263 270.889C503.239 271.117 503.203 271.321 503.155 271.501C502.495 271.597 501.733 271.681 500.869 271.753C500.005 271.825 499.213 271.861 498.493 271.861C496.861 271.861 495.661 271.459 494.893 270.655C494.125 269.839 493.741 268.573 493.741 266.857V257.623L490.915 257.677C490.759 257.065 490.681 256.387 490.681 255.643C490.681 254.971 490.759 254.317 490.915 253.681L493.741 253.717V251.683ZM244.084 315.681C243.688 315.753 243.244 315.807 242.752 315.843C242.26 315.879 241.774 315.897 241.294 315.897C240.31 315.897 239.404 315.825 238.576 315.681V289.437L238.828 289.185H241.024C242.128 289.185 242.914 289.437 243.382 289.941C243.85 290.445 244.084 291.321 244.084 292.569V303.873H244.642C244.894 303.873 245.092 303.831 245.236 303.747C245.38 303.663 245.524 303.495 245.668 303.243L247.54 299.625C247.876 298.941 248.29 298.431 248.782 298.095C249.286 297.747 249.916 297.573 250.672 297.573C251.272 297.573 251.818 297.579 252.31 297.591C252.802 297.603 253.306 297.621 253.822 297.645L254.038 297.933L251.266 303.297C250.81 304.185 250.192 304.887 249.412 305.403C250.108 305.655 250.708 306.039 251.212 306.555C251.728 307.059 252.118 307.713 252.382 308.517L253.264 311.145C253.564 312.081 253.834 312.759 254.074 313.179C254.314 313.599 254.62 313.941 254.992 314.205C254.548 314.709 253.99 315.129 253.318 315.465C252.646 315.801 251.944 315.969 251.212 315.969C250.408 315.969 249.802 315.777 249.394 315.393C248.998 315.009 248.65 314.367 248.35 313.467L247.288 310.353C247.036 309.585 246.748 309.081 246.424 308.841C246.1 308.601 245.692 308.481 245.2 308.481C244.816 308.481 244.444 308.493 244.084 308.517V315.681ZM272.9 311.181C272.9 311.889 272.966 312.549 273.098 313.161C273.23 313.761 273.464 314.295 273.8 314.763C273.38 315.111 272.864 315.399 272.252 315.627C271.64 315.855 270.986 315.969 270.29 315.969C269.162 315.969 268.376 315.669 267.932 315.069C267.488 314.469 267.266 313.605 267.266 312.477V304.827C267.266 304.011 267.158 303.411 266.942 303.027C266.738 302.631 266.336 302.433 265.736 302.433C265.376 302.433 264.956 302.529 264.476 302.721C263.996 302.913 263.522 303.225 263.054 303.657V315.681C262.658 315.753 262.208 315.807 261.704 315.843C261.212 315.879 260.726 315.897 260.246 315.897C259.778 315.897 259.292 315.879 258.788 315.843C258.284 315.807 257.828 315.753 257.42 315.681V297.717L257.672 297.465H259.796C260.564 297.465 261.194 297.657 261.686 298.041C262.19 298.413 262.556 298.935 262.784 299.607C263.492 298.995 264.26 298.473 265.088 298.041C265.916 297.609 266.84 297.393 267.86 297.393C269.504 297.393 270.752 297.993 271.604 299.193C272.468 300.381 272.9 301.917 272.9 303.801V311.181ZM292.678 306.699C292.678 309.579 291.97 311.889 290.554 313.629C289.138 315.357 287.074 316.221 284.362 316.221C281.614 316.221 279.538 315.351 278.134 313.611C276.742 311.871 276.046 309.567 276.046 306.699C276.046 303.807 276.754 301.497 278.17 299.769C279.586 298.041 281.65 297.177 284.362 297.177C287.098 297.177 289.168 298.047 290.572 299.787C291.976 301.527 292.678 303.831 292.678 306.699ZM281.824 306.699C281.824 307.683 281.878 308.577 281.986 309.381C282.106 310.185 282.346 310.827 282.706 311.307C283.066 311.775 283.618 312.009 284.362 312.009C285.094 312.009 285.64 311.775 286 311.307C286.372 310.827 286.612 310.185 286.72 309.381C286.84 308.577 286.9 307.683 286.9 306.699C286.9 305.703 286.84 304.803 286.72 303.999C286.612 303.195 286.372 302.559 286 302.091C285.64 301.611 285.094 301.371 284.362 301.371C283.618 301.371 283.066 301.611 282.706 302.091C282.346 302.559 282.106 303.195 281.986 303.999C281.878 304.803 281.824 305.703 281.824 306.699ZM293.901 298.059C295.029 297.615 296.073 297.393 297.033 297.393C297.933 297.393 298.563 297.603 298.923 298.023C299.295 298.443 299.559 299.031 299.715 299.787L300.831 305.601C301.323 308.013 301.635 309.891 301.767 311.235C301.803 311.427 301.899 311.523 302.055 311.523L304.035 297.915C304.479 297.807 305.043 297.735 305.727 297.699C306.411 297.651 306.927 297.627 307.275 297.627C307.647 297.627 308.187 297.651 308.895 297.699C309.615 297.735 310.185 297.807 310.605 297.915L312.639 311.235C312.675 311.427 312.771 311.523 312.927 311.523C313.047 310.695 313.185 309.783 313.341 308.787C313.509 307.779 313.701 306.717 313.917 305.601L315.519 297.735C315.831 297.651 316.185 297.591 316.581 297.555C316.977 297.519 317.337 297.501 317.661 297.501C318.045 297.501 318.537 297.531 319.137 297.591C319.749 297.651 320.253 297.777 320.649 297.969L320.811 298.311L316.617 315.681C316.053 315.765 315.387 315.819 314.619 315.843C313.851 315.879 313.137 315.897 312.477 315.897C311.397 315.897 310.575 315.747 310.011 315.447C309.459 315.147 309.105 314.445 308.949 313.341L308.337 309.471C308.205 308.583 308.049 307.545 307.869 306.357C307.701 305.157 307.551 303.933 307.419 302.685H307.203C307.059 303.909 306.897 305.115 306.717 306.303C306.549 307.479 306.399 308.511 306.267 309.399L305.259 315.681C304.671 315.753 303.981 315.807 303.189 315.843C302.409 315.879 301.683 315.897 301.011 315.897C299.955 315.897 299.151 315.729 298.599 315.393C298.047 315.045 297.645 314.337 297.393 313.269L293.901 298.059ZM342.126 315.195C341.694 316.839 341.148 318.285 340.488 319.533C339.828 320.793 338.928 321.777 337.788 322.485C336.648 323.205 335.148 323.565 333.288 323.565C332.568 323.565 331.782 323.487 330.93 323.331C330.078 323.175 329.406 323.007 328.914 322.827C328.842 322.191 328.92 321.471 329.148 320.667C329.376 319.863 329.676 319.245 330.048 318.813C330.432 318.933 330.918 319.053 331.506 319.173C332.094 319.305 332.688 319.371 333.288 319.371C334.2 319.371 334.944 319.113 335.52 318.597C336.108 318.081 336.54 317.367 336.816 316.455L336.96 315.933C335.988 315.921 335.178 315.753 334.53 315.429C333.882 315.105 333.444 314.517 333.216 313.665L329.022 298.149C329.598 297.897 330.204 297.711 330.84 297.591C331.476 297.459 332.028 297.393 332.496 297.393C333.18 297.393 333.744 297.561 334.188 297.897C334.644 298.233 334.986 298.869 335.214 299.805L336.906 306.735C337.014 307.131 337.116 307.629 337.212 308.229C337.32 308.817 337.416 309.405 337.5 309.993C337.584 310.569 337.65 311.055 337.698 311.451C337.734 311.619 337.836 311.703 338.004 311.703L341.136 297.735C341.448 297.651 341.808 297.591 342.216 297.555C342.624 297.519 343.002 297.501 343.35 297.501C343.83 297.501 344.322 297.531 344.826 297.591C345.342 297.639 345.852 297.747 346.356 297.915L346.572 298.293L342.126 315.195ZM364.045 306.699C364.045 309.579 363.337 311.889 361.921 313.629C360.505 315.357 358.441 316.221 355.729 316.221C352.981 316.221 350.905 315.351 349.501 313.611C348.109 311.871 347.413 309.567 347.413 306.699C347.413 303.807 348.121 301.497 349.537 299.769C350.953 298.041 353.017 297.177 355.729 297.177C358.465 297.177 360.535 298.047 361.939 299.787C363.343 301.527 364.045 303.831 364.045 306.699ZM353.191 306.699C353.191 307.683 353.245 308.577 353.353 309.381C353.473 310.185 353.713 310.827 354.073 311.307C354.433 311.775 354.985 312.009 355.729 312.009C356.461 312.009 357.007 311.775 357.367 311.307C357.739 310.827 357.979 310.185 358.087 309.381C358.207 308.577 358.267 307.683 358.267 306.699C358.267 305.703 358.207 304.803 358.087 303.999C357.979 303.195 357.739 302.559 357.367 302.091C357.007 301.611 356.461 301.371 355.729 301.371C354.985 301.371 354.433 301.611 354.073 302.091C353.713 302.559 353.473 303.195 353.353 303.999C353.245 304.803 353.191 305.703 353.191 306.699ZM367.211 302.217C367.211 301.509 367.139 300.849 366.995 300.237C366.863 299.625 366.635 299.091 366.311 298.635C366.719 298.287 367.229 297.999 367.841 297.771C368.453 297.543 369.113 297.429 369.821 297.429C370.949 297.429 371.729 297.729 372.161 298.329C372.605 298.929 372.827 299.787 372.827 300.903V308.571C372.827 309.387 372.935 309.987 373.151 310.371C373.367 310.755 373.775 310.947 374.375 310.947C374.735 310.947 375.155 310.857 375.635 310.677C376.115 310.485 376.589 310.173 377.057 309.741V297.717C377.441 297.645 377.885 297.591 378.389 297.555C378.893 297.519 379.385 297.501 379.865 297.501C380.333 297.501 380.813 297.519 381.305 297.555C381.809 297.591 382.265 297.645 382.673 297.717V310.551C382.673 311.127 382.763 311.649 382.943 312.117C383.135 312.585 383.381 312.927 383.681 313.143C383.585 313.647 383.363 314.175 383.015 314.727C382.667 315.279 382.319 315.693 381.971 315.969C380.951 315.945 380.081 315.705 379.361 315.249C378.653 314.781 378.107 314.175 377.723 313.431C376.955 314.127 376.127 314.733 375.239 315.249C374.351 315.753 373.355 316.005 372.251 316.005C370.607 316.005 369.353 315.405 368.489 314.205C367.637 313.005 367.211 311.469 367.211 309.597V302.217ZM401.872 306.915C401.872 304.851 402.196 303.111 402.844 301.695C403.504 300.267 404.38 299.187 405.472 298.455C406.564 297.723 407.77 297.357 409.09 297.357C409.714 297.357 410.296 297.429 410.836 297.573C411.388 297.717 411.91 297.903 412.402 298.131V289.437L412.654 289.185H414.85C415.954 289.185 416.734 289.437 417.19 289.941C417.658 290.445 417.892 291.321 417.892 292.569V310.479C417.892 311.055 417.982 311.577 418.162 312.045C418.354 312.513 418.6 312.861 418.9 313.089C418.792 313.581 418.564 314.115 418.216 314.691C417.88 315.267 417.538 315.693 417.19 315.969C416.29 315.945 415.516 315.759 414.868 315.411C414.232 315.051 413.716 314.571 413.32 313.971C412.696 314.631 411.958 315.171 411.106 315.591C410.254 316.011 409.33 316.221 408.334 316.221C406.87 316.221 405.658 315.825 404.698 315.033C403.75 314.241 403.042 313.149 402.574 311.757C402.106 310.353 401.872 308.739 401.872 306.915ZM407.632 306.951C407.632 308.619 407.836 309.831 408.244 310.587C408.652 311.331 409.168 311.703 409.792 311.703C410.152 311.703 410.566 311.607 411.034 311.415C411.502 311.223 411.958 310.851 412.402 310.299V302.379C411.982 302.127 411.574 301.923 411.178 301.767C410.782 301.611 410.41 301.533 410.062 301.533C409.198 301.533 408.574 302.019 408.19 302.991C407.818 303.963 407.632 305.283 407.632 306.951ZM437.803 306.699C437.803 309.579 437.095 311.889 435.679 313.629C434.263 315.357 432.199 316.221 429.487 316.221C426.739 316.221 424.663 315.351 423.259 313.611C421.867 311.871 421.171 309.567 421.171 306.699C421.171 303.807 421.879 301.497 423.295 299.769C424.711 298.041 426.775 297.177 429.487 297.177C432.223 297.177 434.293 298.047 435.697 299.787C437.101 301.527 437.803 303.831 437.803 306.699ZM426.949 306.699C426.949 307.683 427.003 308.577 427.111 309.381C427.231 310.185 427.471 310.827 427.831 311.307C428.191 311.775 428.743 312.009 429.487 312.009C430.219 312.009 430.765 311.775 431.125 311.307C431.497 310.827 431.737 310.185 431.845 309.381C431.965 308.577 432.025 307.683 432.025 306.699C432.025 305.703 431.965 304.803 431.845 303.999C431.737 303.195 431.497 302.559 431.125 302.091C430.765 301.611 430.219 301.371 429.487 301.371C428.743 301.371 428.191 301.611 427.831 302.091C427.471 302.559 427.231 303.195 427.111 303.999C427.003 304.803 426.949 305.703 426.949 306.699ZM464.431 311.181C464.431 311.889 464.497 312.549 464.629 313.161C464.761 313.761 464.995 314.295 465.331 314.763C464.911 315.111 464.395 315.399 463.783 315.627C463.171 315.855 462.517 315.969 461.821 315.969C460.693 315.969 459.907 315.669 459.463 315.069C459.019 314.469 458.797 313.605 458.797 312.477V304.827C458.797 304.011 458.689 303.411 458.473 303.027C458.269 302.631 457.867 302.433 457.267 302.433C456.907 302.433 456.487 302.529 456.007 302.721C455.527 302.913 455.053 303.225 454.585 303.657V315.681C454.189 315.753 453.739 315.807 453.235 315.843C452.743 315.879 452.257 315.897 451.777 315.897C451.309 315.897 450.823 315.879 450.319 315.843C449.815 315.807 449.359 315.753 448.951 315.681V297.717L449.203 297.465H451.327C452.095 297.465 452.725 297.657 453.217 298.041C453.721 298.413 454.087 298.935 454.315 299.607C455.023 298.995 455.791 298.473 456.619 298.041C457.447 297.609 458.371 297.393 459.391 297.393C461.035 297.393 462.283 297.993 463.135 299.193C463.999 300.381 464.431 301.917 464.431 303.801V311.181ZM484.209 306.699C484.209 309.579 483.501 311.889 482.085 313.629C480.669 315.357 478.605 316.221 475.893 316.221C473.145 316.221 471.069 315.351 469.665 313.611C468.273 311.871 467.577 309.567 467.577 306.699C467.577 303.807 468.285 301.497 469.701 299.769C471.117 298.041 473.181 297.177 475.893 297.177C478.629 297.177 480.699 298.047 482.103 299.787C483.507 301.527 484.209 303.831 484.209 306.699ZM473.355 306.699C473.355 307.683 473.409 308.577 473.517 309.381C473.637 310.185 473.877 310.827 474.237 311.307C474.597 311.775 475.149 312.009 475.893 312.009C476.625 312.009 477.171 311.775 477.531 311.307C477.903 310.827 478.143 310.185 478.251 309.381C478.371 308.577 478.431 307.683 478.431 306.699C478.431 305.703 478.371 304.803 478.251 303.999C478.143 303.195 477.903 302.559 477.531 302.091C477.171 301.611 476.625 301.371 475.893 301.371C475.149 301.371 474.597 301.611 474.237 302.091C473.877 302.559 473.637 303.195 473.517 303.999C473.409 304.803 473.355 305.703 473.355 306.699ZM488.168 295.683C488.168 294.423 488.396 293.547 488.852 293.055C489.32 292.551 490.106 292.299 491.21 292.299H493.406L493.658 292.551V297.735L497.924 297.681C498.092 298.317 498.176 298.971 498.176 299.643C498.176 300.387 498.092 301.065 497.924 301.677L493.658 301.605V309.885C493.658 311.013 494.192 311.577 495.26 311.577H497.276C497.576 312.441 497.726 313.329 497.726 314.241C497.726 314.445 497.714 314.661 497.69 314.889C497.666 315.117 497.63 315.321 497.582 315.501C496.922 315.597 496.16 315.681 495.296 315.753C494.432 315.825 493.64 315.861 492.92 315.861C491.288 315.861 490.088 315.459 489.32 314.655C488.552 313.839 488.168 312.573 488.168 310.857V301.623L485.342 301.677C485.186 301.065 485.108 300.387 485.108 299.643C485.108 298.971 485.186 298.317 485.342 297.681L488.168 297.717V295.683ZM332.977 359.681C332.581 359.753 332.137 359.807 331.645 359.843C331.153 359.879 330.667 359.897 330.187 359.897C329.203 359.897 328.297 359.825 327.469 359.681V333.437L327.721 333.185H329.917C331.021 333.185 331.807 333.437 332.275 333.941C332.743 334.445 332.977 335.321 332.977 336.569V347.873H333.535C333.787 347.873 333.985 347.831 334.129 347.747C334.273 347.663 334.417 347.495 334.561 347.243L336.433 343.625C336.769 342.941 337.183 342.431 337.675 342.095C338.179 341.747 338.809 341.573 339.565 341.573C340.165 341.573 340.711 341.579 341.203 341.591C341.695 341.603 342.199 341.621 342.715 341.645L342.931 341.933L340.159 347.297C339.703 348.185 339.085 348.887 338.305 349.403C339.001 349.655 339.601 350.039 340.105 350.555C340.621 351.059 341.011 351.713 341.275 352.517L342.157 355.145C342.457 356.081 342.727 356.759 342.967 357.179C343.207 357.599 343.513 357.941 343.885 358.205C343.441 358.709 342.883 359.129 342.211 359.465C341.539 359.801 340.837 359.969 340.105 359.969C339.301 359.969 338.695 359.777 338.287 359.393C337.891 359.009 337.543 358.367 337.243 357.467L336.181 354.353C335.929 353.585 335.641 353.081 335.317 352.841C334.993 352.601 334.585 352.481 334.093 352.481C333.709 352.481 333.337 352.493 332.977 352.517V359.681ZM361.793 355.181C361.793 355.889 361.859 356.549 361.991 357.161C362.123 357.761 362.357 358.295 362.693 358.763C362.273 359.111 361.757 359.399 361.145 359.627C360.533 359.855 359.879 359.969 359.183 359.969C358.055 359.969 357.269 359.669 356.825 359.069C356.381 358.469 356.159 357.605 356.159 356.477V348.827C356.159 348.011 356.051 347.411 355.835 347.027C355.631 346.631 355.229 346.433 354.629 346.433C354.269 346.433 353.849 346.529 353.369 346.721C352.889 346.913 352.415 347.225 351.947 347.657V359.681C351.551 359.753 351.101 359.807 350.597 359.843C350.105 359.879 349.619 359.897 349.139 359.897C348.671 359.897 348.185 359.879 347.681 359.843C347.177 359.807 346.721 359.753 346.313 359.681V341.717L346.565 341.465H348.689C349.457 341.465 350.087 341.657 350.579 342.041C351.083 342.413 351.449 342.935 351.677 343.607C352.385 342.995 353.153 342.473 353.981 342.041C354.809 341.609 355.733 341.393 356.753 341.393C358.397 341.393 359.645 341.993 360.497 343.193C361.361 344.381 361.793 345.917 361.793 347.801V355.181ZM381.57 350.699C381.57 353.579 380.862 355.889 379.446 357.629C378.03 359.357 375.966 360.221 373.254 360.221C370.506 360.221 368.43 359.351 367.026 357.611C365.634 355.871 364.938 353.567 364.938 350.699C364.938 347.807 365.646 345.497 367.062 343.769C368.478 342.041 370.542 341.177 373.254 341.177C375.99 341.177 378.06 342.047 379.464 343.787C380.868 345.527 381.57 347.831 381.57 350.699ZM370.716 350.699C370.716 351.683 370.77 352.577 370.878 353.381C370.998 354.185 371.238 354.827 371.598 355.307C371.958 355.775 372.51 356.009 373.254 356.009C373.986 356.009 374.532 355.775 374.892 355.307C375.264 354.827 375.504 354.185 375.612 353.381C375.732 352.577 375.792 351.683 375.792 350.699C375.792 349.703 375.732 348.803 375.612 347.999C375.504 347.195 375.264 346.559 374.892 346.091C374.532 345.611 373.986 345.371 373.254 345.371C372.51 345.371 371.958 345.611 371.598 346.091C371.238 346.559 370.998 347.195 370.878 347.999C370.77 348.803 370.716 349.703 370.716 350.699ZM382.794 342.059C383.922 341.615 384.966 341.393 385.926 341.393C386.826 341.393 387.456 341.603 387.816 342.023C388.188 342.443 388.452 343.031 388.608 343.787L389.724 349.601C390.216 352.013 390.528 353.891 390.66 355.235C390.696 355.427 390.792 355.523 390.948 355.523L392.928 341.915C393.372 341.807 393.936 341.735 394.62 341.699C395.304 341.651 395.82 341.627 396.168 341.627C396.54 341.627 397.08 341.651 397.788 341.699C398.508 341.735 399.078 341.807 399.498 341.915L401.532 355.235C401.568 355.427 401.664 355.523 401.82 355.523C401.94 354.695 402.078 353.783 402.234 352.787C402.402 351.779 402.594 350.717 402.81 349.601L404.412 341.735C404.724 341.651 405.078 341.591 405.474 341.555C405.87 341.519 406.23 341.501 406.554 341.501C406.938 341.501 407.43 341.531 408.03 341.591C408.642 341.651 409.146 341.777 409.542 341.969L409.704 342.311L405.51 359.681C404.946 359.765 404.28 359.819 403.512 359.843C402.744 359.879 402.03 359.897 401.37 359.897C400.29 359.897 399.468 359.747 398.904 359.447C398.352 359.147 397.998 358.445 397.842 357.341L397.23 353.471C397.098 352.583 396.942 351.545 396.762 350.357C396.594 349.157 396.444 347.933 396.312 346.685H396.096C395.952 347.909 395.79 349.115 395.61 350.303C395.442 351.479 395.292 352.511 395.16 353.399L394.152 359.681C393.564 359.753 392.874 359.807 392.082 359.843C391.302 359.879 390.576 359.897 389.904 359.897C388.848 359.897 388.044 359.729 387.492 359.393C386.94 359.045 386.538 358.337 386.286 357.269L382.794 342.059Z" fill="black"/>
</g>
</g>
<g filter="url(#filter2_i)">
<path d="M636 230L794.728 612H985.203L1127 230H636Z" fill="#C4C4C4" fill-opacity="0.5" stroke="black"/>
<g filter="url(#filter3_i)">
<path d="M780.244 341.104C780.244 340.448 780.252 339.864 780.268 339.352C780.284 338.824 780.292 338.224 780.292 337.552H780.244C779.892 337.552 779.388 337.56 778.732 337.576C778.076 337.592 777.572 337.6 777.22 337.6H772.252C772.14 337.024 772.068 336.464 772.036 335.92C772.004 335.36 771.988 334.864 771.988 334.432C771.988 333.984 772.004 333.48 772.036 332.92C772.068 332.36 772.14 331.792 772.252 331.216H796.012C796.124 331.616 796.212 332.088 796.276 332.632C796.356 333.16 796.396 333.672 796.396 334.168C796.396 335.416 796.068 336.304 795.412 336.832C794.772 337.344 793.764 337.6 792.388 337.6H790.972C790.62 337.6 790.116 337.592 789.46 337.576C788.804 337.56 788.3 337.552 787.948 337.552H787.9C787.9 338.224 787.908 338.824 787.924 339.352C787.94 339.864 787.948 340.448 787.948 341.104V364C787.292 364.112 786.62 364.184 785.932 364.216C785.244 364.264 784.636 364.288 784.108 364.288C783.564 364.288 782.948 364.264 782.26 364.216C781.572 364.184 780.9 364.112 780.244 364V341.104ZM806.489 364C805.433 364.192 804.193 364.288 802.769 364.288C801.489 364.288 800.281 364.192 799.145 364V329.008L799.481 328.672H802.409C803.881 328.672 804.929 329.008 805.553 329.68C806.177 330.352 806.489 331.52 806.489 333.184V342.256C807.385 341.52 808.353 340.896 809.393 340.384C810.449 339.872 811.617 339.616 812.897 339.616C815.089 339.616 816.753 340.416 817.889 342.016C819.041 343.6 819.617 345.648 819.617 348.16V358C819.617 358.944 819.705 359.824 819.881 360.64C820.057 361.44 820.361 362.152 820.793 362.776C820.249 363.24 819.569 363.624 818.753 363.928C817.937 364.232 817.057 364.384 816.113 364.384C814.609 364.384 813.561 363.984 812.969 363.184C812.393 362.384 812.105 361.232 812.105 359.728V349.528C812.105 348.44 811.961 347.64 811.673 347.128C811.385 346.6 810.841 346.336 810.041 346.336C809.561 346.336 809.001 346.464 808.361 346.72C807.721 346.976 807.097 347.392 806.489 347.968V364ZM833.848 364C833.32 364.096 832.72 364.168 832.048 364.216C831.392 364.264 830.744 364.288 830.104 364.288C829.48 364.288 828.832 364.264 828.16 364.216C827.504 364.168 826.896 364.096 826.336 364V348.112C826.336 347.312 826.168 346.648 825.832 346.12C825.512 345.592 824.928 345.328 824.08 345.328H823.36C823.152 344.544 823.048 343.696 823.048 342.784C823.048 342.368 823.072 341.928 823.12 341.464C823.168 340.984 823.248 340.528 823.36 340.096C824.096 340.016 824.848 339.96 825.616 339.928C826.4 339.88 827.056 339.856 827.584 339.856H828.616C830.216 339.856 831.488 340.376 832.432 341.416C833.376 342.44 833.848 343.832 833.848 345.592V364ZM824.896 333.304C824.896 332.312 825.08 331.376 825.448 330.496C825.864 330.288 826.4 330.112 827.056 329.968C827.728 329.824 828.384 329.752 829.024 329.752C829.664 329.752 830.328 329.824 831.016 329.968C831.704 330.112 832.232 330.288 832.6 330.496C832.776 330.944 832.912 331.416 833.008 331.912C833.104 332.408 833.152 332.872 833.152 333.304C833.152 334.28 832.968 335.208 832.6 336.088C832.232 336.296 831.704 336.472 831.016 336.616C830.328 336.76 829.664 336.832 829.024 336.832C828.384 336.832 827.72 336.768 827.032 336.64C826.36 336.496 825.832 336.312 825.448 336.088C825.08 335.208 824.896 334.28 824.896 333.304ZM860.144 358C860.144 358.944 860.232 359.824 860.408 360.64C860.584 361.44 860.896 362.152 861.344 362.776C860.784 363.24 860.096 363.624 859.28 363.928C858.464 364.232 857.592 364.384 856.664 364.384C855.16 364.384 854.112 363.984 853.52 363.184C852.928 362.384 852.632 361.232 852.632 359.728V349.528C852.632 348.44 852.488 347.64 852.2 347.128C851.928 346.6 851.392 346.336 850.592 346.336C850.112 346.336 849.552 346.464 848.912 346.72C848.272 346.976 847.64 347.392 847.016 347.968V364C846.488 364.096 845.888 364.168 845.216 364.216C844.56 364.264 843.912 364.288 843.272 364.288C842.648 364.288 842 364.264 841.328 364.216C840.656 364.168 840.048 364.096 839.504 364V340.048L839.84 339.712H842.672C843.696 339.712 844.536 339.968 845.192 340.48C845.864 340.976 846.352 341.672 846.656 342.568C847.6 341.752 848.624 341.056 849.728 340.48C850.832 339.904 852.064 339.616 853.424 339.616C855.616 339.616 857.28 340.416 858.416 342.016C859.568 343.6 860.144 345.648 860.144 348.16V358ZM864.434 352.072C864.434 349.32 864.866 347 865.73 345.112C866.61 343.208 867.778 341.768 869.234 340.792C870.706 339.816 872.314 339.328 874.058 339.328C875.466 339.328 876.682 339.544 877.706 339.976C878.746 340.408 879.626 340.936 880.346 341.56C880.874 340.984 881.514 340.528 882.266 340.192C883.034 339.856 883.914 339.68 884.906 339.664C885.37 340.032 885.842 340.6 886.322 341.368C886.802 342.12 887.09 342.832 887.186 343.504C886.786 343.792 886.458 344.256 886.202 344.896C885.962 345.52 885.842 346.208 885.842 346.96V359.632C885.842 361.872 885.738 363.72 885.53 365.176C885.338 366.632 885.058 367.824 884.69 368.752C884.322 369.68 883.882 370.464 883.37 371.104C882.426 372.304 881.17 373.184 879.602 373.744C878.034 374.32 876.29 374.608 874.37 374.608C872.866 374.608 871.298 374.456 869.666 374.152C868.034 373.864 866.594 373.488 865.346 373.024C865.346 372.144 865.522 371.176 865.874 370.12C866.226 369.064 866.666 368.224 867.194 367.6C869.354 368.56 871.514 369.04 873.674 369.04C875.434 369.04 876.682 368.592 877.418 367.696C878.154 366.816 878.522 365.64 878.522 364.168V362.632C877.754 363.192 876.898 363.64 875.954 363.976C875.026 364.312 874.066 364.48 873.074 364.48C871.122 364.48 869.506 363.952 868.226 362.896C866.946 361.84 865.994 360.384 865.37 358.528C864.746 356.656 864.434 354.504 864.434 352.072ZM872.114 352.12C872.114 354.344 872.378 355.96 872.906 356.968C873.45 357.96 874.13 358.456 874.946 358.456C876.258 358.456 877.45 357.904 878.522 356.8V346.864C878.522 346.752 878.53 346.64 878.546 346.528C877.41 345.44 876.354 344.896 875.378 344.896C874.21 344.896 873.37 345.544 872.858 346.84C872.362 348.12 872.114 349.88 872.114 352.12ZM889.569 362.344C889.601 361.544 889.817 360.648 890.217 359.656C890.633 358.664 891.113 357.88 891.657 357.304C892.713 357.848 893.801 358.32 894.921 358.72C896.057 359.104 897.185 359.296 898.305 359.296C899.233 359.296 899.929 359.136 900.393 358.816C900.873 358.496 901.113 358.096 901.113 357.616C901.113 356.688 900.385 355.96 898.929 355.432L896.265 354.472C894.569 353.848 893.145 352.976 891.993 351.856C890.841 350.72 890.265 349.192 890.265 347.272C890.265 344.84 891.105 342.912 892.785 341.488C894.481 340.048 896.737 339.328 899.553 339.328C901.057 339.328 902.641 339.536 904.305 339.952C905.985 340.368 907.345 340.832 908.385 341.344C908.417 341.936 908.337 342.584 908.145 343.288C907.969 343.976 907.721 344.616 907.401 345.208C907.081 345.8 906.721 346.248 906.321 346.552C905.329 346.104 904.249 345.696 903.081 345.328C901.913 344.944 900.761 344.752 899.625 344.752C898.969 344.752 898.473 344.904 898.137 345.208C897.817 345.512 897.657 345.872 897.657 346.288C897.657 347.056 898.265 347.664 899.481 348.112L902.457 349.168C904.281 349.824 905.801 350.768 907.017 352C908.233 353.216 908.841 354.848 908.841 356.896C908.841 359.28 907.921 361.184 906.081 362.608C904.257 364.016 901.721 364.72 898.473 364.72C896.761 364.72 895.129 364.488 893.577 364.024C892.041 363.56 890.705 363 889.569 362.344ZM938.149 363.352C937.573 365.544 936.845 367.472 935.965 369.136C935.085 370.816 933.885 372.128 932.365 373.072C930.845 374.032 928.845 374.512 926.365 374.512C925.405 374.512 924.357 374.408 923.221 374.2C922.085 373.992 921.189 373.768 920.533 373.528C920.437 372.68 920.541 371.72 920.845 370.648C921.149 369.576 921.549 368.752 922.045 368.176C922.557 368.336 923.205 368.496 923.989 368.656C924.773 368.832 925.565 368.92 926.365 368.92C927.581 368.92 928.573 368.576 929.341 367.888C930.125 367.2 930.701 366.248 931.069 365.032L931.261 364.336C929.965 364.32 928.885 364.096 928.021 363.664C927.157 363.232 926.573 362.448 926.269 361.312L920.677 340.624C921.445 340.288 922.253 340.04 923.101 339.88C923.949 339.704 924.685 339.616 925.309 339.616C926.221 339.616 926.973 339.84 927.565 340.288C928.173 340.736 928.629 341.584 928.933 342.832L931.189 352.072C931.333 352.6 931.469 353.264 931.597 354.064C931.741 354.848 931.869 355.632 931.981 356.416C932.093 357.184 932.181 357.832 932.245 358.36C932.293 358.584 932.429 358.696 932.653 358.696L936.829 340.072C937.245 339.96 937.725 339.88 938.269 339.832C938.813 339.784 939.317 339.76 939.781 339.76C940.421 339.76 941.077 339.8 941.749 339.88C942.437 339.944 943.117 340.088 943.789 340.312L944.077 340.816L938.149 363.352ZM967.374 352.024C967.374 355.864 966.43 358.944 964.542 361.264C962.654 363.568 959.902 364.72 956.286 364.72C952.622 364.72 949.854 363.56 947.982 361.24C946.126 358.92 945.198 355.848 945.198 352.024C945.198 348.168 946.142 345.088 948.03 342.784C949.918 340.48 952.67 339.328 956.286 339.328C959.934 339.328 962.694 340.488 964.566 342.808C966.438 345.128 967.374 348.2 967.374 352.024ZM952.902 352.024C952.902 353.336 952.974 354.528 953.118 355.6C953.278 356.672 953.598 357.528 954.078 358.168C954.558 358.792 955.294 359.104 956.286 359.104C957.262 359.104 957.99 358.792 958.47 358.168C958.966 357.528 959.286 356.672 959.43 355.6C959.59 354.528 959.67 353.336 959.67 352.024C959.67 350.696 959.59 349.496 959.43 348.424C959.286 347.352 958.966 346.504 958.47 345.88C957.99 345.24 957.262 344.92 956.286 344.92C955.294 344.92 954.558 345.24 954.078 345.88C953.598 346.504 953.278 347.352 953.118 348.424C952.974 349.496 952.902 350.696 952.902 352.024ZM971.596 346.048C971.596 345.104 971.5 344.224 971.308 343.408C971.132 342.592 970.828 341.88 970.396 341.272C970.94 340.808 971.62 340.424 972.436 340.12C973.252 339.816 974.132 339.664 975.076 339.664C976.58 339.664 977.62 340.064 978.196 340.864C978.788 341.664 979.084 342.808 979.084 344.296V354.52C979.084 355.608 979.228 356.408 979.516 356.92C979.804 357.432 980.348 357.688 981.148 357.688C981.628 357.688 982.188 357.568 982.828 357.328C983.468 357.072 984.1 356.656 984.724 356.08V340.048C985.236 339.952 985.828 339.88 986.5 339.832C987.172 339.784 987.828 339.76 988.468 339.76C989.092 339.76 989.732 339.784 990.388 339.832C991.06 339.88 991.668 339.952 992.212 340.048V357.16C992.212 357.928 992.332 358.624 992.572 359.248C992.828 359.872 993.156 360.328 993.556 360.616C993.428 361.288 993.132 361.992 992.668 362.728C992.204 363.464 991.74 364.016 991.276 364.384C989.916 364.352 988.756 364.032 987.796 363.424C986.852 362.8 986.124 361.992 985.612 361C984.588 361.928 983.484 362.736 982.3 363.424C981.116 364.096 979.788 364.432 978.316 364.432C976.124 364.432 974.452 363.632 973.3 362.032C972.164 360.432 971.596 358.384 971.596 355.888V346.048ZM758.723 423C758.195 423.096 757.603 423.168 756.947 423.216C756.291 423.264 755.643 423.288 755.003 423.288C753.691 423.288 752.483 423.192 751.379 423V388.008L751.715 387.672H754.643C756.115 387.672 757.163 388.008 757.787 388.68C758.411 389.352 758.723 390.52 758.723 392.184V407.256H759.467C759.803 407.256 760.067 407.2 760.259 407.088C760.451 406.976 760.643 406.752 760.835 406.416L763.331 401.592C763.779 400.68 764.331 400 764.987 399.552C765.659 399.088 766.499 398.856 767.507 398.856C768.307 398.856 769.035 398.864 769.691 398.88C770.347 398.896 771.019 398.92 771.707 398.952L771.995 399.336L768.299 406.488C767.691 407.672 766.867 408.608 765.827 409.296C766.755 409.632 767.555 410.144 768.227 410.832C768.915 411.504 769.435 412.376 769.787 413.448L770.963 416.952C771.363 418.2 771.723 419.104 772.043 419.664C772.363 420.224 772.771 420.68 773.267 421.032C772.675 421.704 771.931 422.264 771.035 422.712C770.139 423.16 769.203 423.384 768.227 423.384C767.155 423.384 766.347 423.128 765.803 422.616C765.275 422.104 764.811 421.248 764.411 420.048L762.995 415.896C762.659 414.872 762.275 414.2 761.843 413.88C761.411 413.56 760.867 413.4 760.211 413.4C759.699 413.4 759.203 413.416 758.723 413.448V423ZM797.144 417C797.144 417.944 797.232 418.824 797.408 419.64C797.584 420.44 797.896 421.152 798.344 421.776C797.784 422.24 797.096 422.624 796.28 422.928C795.464 423.232 794.592 423.384 793.664 423.384C792.16 423.384 791.112 422.984 790.52 422.184C789.928 421.384 789.632 420.232 789.632 418.728V408.528C789.632 407.44 789.488 406.64 789.2 406.128C788.928 405.6 788.392 405.336 787.592 405.336C787.112 405.336 786.552 405.464 785.912 405.72C785.272 405.976 784.64 406.392 784.016 406.968V423C783.488 423.096 782.888 423.168 782.216 423.216C781.56 423.264 780.912 423.288 780.272 423.288C779.648 423.288 779 423.264 778.328 423.216C777.656 423.168 777.048 423.096 776.504 423V399.048L776.84 398.712H779.672C780.696 398.712 781.536 398.968 782.192 399.48C782.864 399.976 783.352 400.672 783.656 401.568C784.6 400.752 785.624 400.056 786.728 399.48C787.832 398.904 789.064 398.616 790.424 398.616C792.616 398.616 794.28 399.416 795.416 401.016C796.568 402.6 797.144 404.648 797.144 407.16V417ZM823.514 411.024C823.514 414.864 822.57 417.944 820.682 420.264C818.794 422.568 816.042 423.72 812.426 423.72C808.762 423.72 805.994 422.56 804.122 420.24C802.266 417.92 801.338 414.848 801.338 411.024C801.338 407.168 802.282 404.088 804.17 401.784C806.058 399.48 808.81 398.328 812.426 398.328C816.074 398.328 818.834 399.488 820.706 401.808C822.578 404.128 823.514 407.2 823.514 411.024ZM809.042 411.024C809.042 412.336 809.114 413.528 809.258 414.6C809.418 415.672 809.738 416.528 810.218 417.168C810.698 417.792 811.434 418.104 812.426 418.104C813.402 418.104 814.13 417.792 814.61 417.168C815.106 416.528 815.426 415.672 815.57 414.6C815.73 413.528 815.81 412.336 815.81 411.024C815.81 409.696 815.73 408.496 815.57 407.424C815.426 406.352 815.106 405.504 814.61 404.88C814.13 404.24 813.402 403.92 812.426 403.92C811.434 403.92 810.698 404.24 810.218 404.88C809.738 405.504 809.418 406.352 809.258 407.424C809.114 408.496 809.042 409.696 809.042 411.024ZM825.146 399.504C826.65 398.912 828.042 398.616 829.322 398.616C830.522 398.616 831.362 398.896 831.842 399.456C832.338 400.016 832.69 400.8 832.898 401.808L834.386 409.56C835.042 412.776 835.458 415.28 835.634 417.072C835.682 417.328 835.81 417.456 836.018 417.456L838.658 399.312C839.25 399.168 840.002 399.072 840.914 399.024C841.826 398.96 842.514 398.928 842.978 398.928C843.474 398.928 844.194 398.96 845.138 399.024C846.098 399.072 846.858 399.168 847.418 399.312L850.13 417.072C850.178 417.328 850.306 417.456 850.514 417.456C850.674 416.352 850.858 415.136 851.066 413.808C851.29 412.464 851.546 411.048 851.834 409.56L853.97 399.072C854.386 398.96 854.858 398.88 855.386 398.832C855.914 398.784 856.394 398.76 856.826 398.76C857.338 398.76 857.994 398.8 858.794 398.88C859.61 398.96 860.282 399.128 860.81 399.384L861.026 399.84L855.434 423C854.682 423.112 853.794 423.184 852.77 423.216C851.746 423.264 850.794 423.288 849.914 423.288C848.474 423.288 847.378 423.088 846.626 422.688C845.89 422.288 845.418 421.352 845.21 419.88L844.394 414.72C844.218 413.536 844.01 412.152 843.77 410.568C843.546 408.968 843.346 407.336 843.17 405.672H842.882C842.69 407.304 842.474 408.912 842.234 410.496C842.01 412.064 841.81 413.44 841.634 414.624L840.29 423C839.506 423.096 838.586 423.168 837.53 423.216C836.49 423.264 835.522 423.288 834.626 423.288C833.218 423.288 832.146 423.064 831.41 422.616C830.674 422.152 830.138 421.208 829.802 419.784L825.146 399.504ZM889.446 422.352C888.87 424.544 888.142 426.472 887.262 428.136C886.382 429.816 885.182 431.128 883.662 432.072C882.142 433.032 880.142 433.512 877.662 433.512C876.702 433.512 875.654 433.408 874.518 433.2C873.382 432.992 872.486 432.768 871.83 432.528C871.734 431.68 871.838 430.72 872.142 429.648C872.446 428.576 872.846 427.752 873.342 427.176C873.854 427.336 874.502 427.496 875.286 427.656C876.07 427.832 876.862 427.92 877.662 427.92C878.878 427.92 879.87 427.576 880.638 426.888C881.422 426.2 881.998 425.248 882.366 424.032L882.558 423.336C881.262 423.32 880.182 423.096 879.318 422.664C878.454 422.232 877.87 421.448 877.566 420.312L871.974 399.624C872.742 399.288 873.55 399.04 874.398 398.88C875.246 398.704 875.982 398.616 876.606 398.616C877.518 398.616 878.27 398.84 878.862 399.288C879.47 399.736 879.926 400.584 880.23 401.832L882.486 411.072C882.63 411.6 882.766 412.264 882.894 413.064C883.038 413.848 883.166 414.632 883.278 415.416C883.39 416.184 883.478 416.832 883.542 417.36C883.59 417.584 883.726 417.696 883.95 417.696L888.126 399.072C888.542 398.96 889.022 398.88 889.566 398.832C890.11 398.784 890.614 398.76 891.078 398.76C891.718 398.76 892.374 398.8 893.046 398.88C893.734 398.944 894.414 399.088 895.086 399.312L895.374 399.816L889.446 422.352ZM918.671 411.024C918.671 414.864 917.727 417.944 915.839 420.264C913.951 422.568 911.199 423.72 907.583 423.72C903.919 423.72 901.151 422.56 899.279 420.24C897.423 417.92 896.495 414.848 896.495 411.024C896.495 407.168 897.439 404.088 899.327 401.784C901.215 399.48 903.967 398.328 907.583 398.328C911.231 398.328 913.991 399.488 915.863 401.808C917.735 404.128 918.671 407.2 918.671 411.024ZM904.199 411.024C904.199 412.336 904.271 413.528 904.415 414.6C904.575 415.672 904.895 416.528 905.375 417.168C905.855 417.792 906.591 418.104 907.583 418.104C908.559 418.104 909.287 417.792 909.767 417.168C910.263 416.528 910.583 415.672 910.727 414.6C910.887 413.528 910.967 412.336 910.967 411.024C910.967 409.696 910.887 408.496 910.727 407.424C910.583 406.352 910.263 405.504 909.767 404.88C909.287 404.24 908.559 403.92 907.583 403.92C906.591 403.92 905.855 404.24 905.375 404.88C904.895 405.504 904.575 406.352 904.415 407.424C904.271 408.496 904.199 409.696 904.199 411.024ZM922.893 405.048C922.893 404.104 922.797 403.224 922.605 402.408C922.429 401.592 922.125 400.88 921.693 400.272C922.237 399.808 922.917 399.424 923.733 399.12C924.549 398.816 925.429 398.664 926.373 398.664C927.877 398.664 928.917 399.064 929.493 399.864C930.085 400.664 930.381 401.808 930.381 403.296V413.52C930.381 414.608 930.525 415.408 930.813 415.92C931.101 416.432 931.645 416.688 932.445 416.688C932.925 416.688 933.485 416.568 934.125 416.328C934.765 416.072 935.397 415.656 936.021 415.08V399.048C936.533 398.952 937.125 398.88 937.797 398.832C938.469 398.784 939.125 398.76 939.765 398.76C940.389 398.76 941.029 398.784 941.685 398.832C942.357 398.88 942.965 398.952 943.509 399.048V416.16C943.509 416.928 943.629 417.624 943.869 418.248C944.125 418.872 944.453 419.328 944.853 419.616C944.725 420.288 944.429 420.992 943.965 421.728C943.501 422.464 943.037 423.016 942.573 423.384C941.213 423.352 940.053 423.032 939.093 422.424C938.149 421.8 937.421 420.992 936.909 420C935.885 420.928 934.781 421.736 933.597 422.424C932.413 423.096 931.085 423.432 929.613 423.432C927.421 423.432 925.749 422.632 924.597 421.032C923.461 419.432 922.893 417.384 922.893 414.888V405.048ZM969.106 411.312C969.106 408.56 969.538 406.24 970.402 404.352C971.282 402.448 972.45 401.008 973.906 400.032C975.362 399.056 976.97 398.568 978.73 398.568C979.562 398.568 980.338 398.664 981.058 398.856C981.794 399.048 982.49 399.296 983.146 399.6V388.008L983.482 387.672H986.41C987.882 387.672 988.922 388.008 989.53 388.68C990.154 389.352 990.466 390.52 990.466 392.184V416.064C990.466 416.832 990.586 417.528 990.826 418.152C991.082 418.776 991.41 419.24 991.81 419.544C991.666 420.2 991.362 420.912 990.898 421.68C990.45 422.448 989.994 423.016 989.53 423.384C988.33 423.352 987.298 423.104 986.434 422.64C985.586 422.16 984.898 421.52 984.37 420.72C983.538 421.6 982.554 422.32 981.418 422.88C980.282 423.44 979.05 423.72 977.722 423.72C975.77 423.72 974.154 423.192 972.874 422.136C971.61 421.08 970.666 419.624 970.042 417.768C969.418 415.896 969.106 413.744 969.106 411.312ZM976.786 411.36C976.786 413.584 977.058 415.2 977.602 416.208C978.146 417.2 978.834 417.696 979.666 417.696C980.146 417.696 980.698 417.568 981.322 417.312C981.946 417.056 982.554 416.56 983.146 415.824V405.264C982.586 404.928 982.042 404.656 981.514 404.448C980.986 404.24 980.49 404.136 980.026 404.136C978.874 404.136 978.042 404.784 977.53 406.08C977.034 407.376 976.786 409.136 976.786 411.36ZM1017.01 411.024C1017.01 414.864 1016.07 417.944 1014.18 420.264C1012.29 422.568 1009.54 423.72 1005.93 423.72C1002.26 423.72 999.494 422.56 997.622 420.24C995.766 417.92 994.838 414.848 994.838 411.024C994.838 407.168 995.782 404.088 997.67 401.784C999.558 399.48 1002.31 398.328 1005.93 398.328C1009.57 398.328 1012.33 399.488 1014.21 401.808C1016.08 404.128 1017.01 407.2 1017.01 411.024ZM1002.54 411.024C1002.54 412.336 1002.61 413.528 1002.76 414.6C1002.92 415.672 1003.24 416.528 1003.72 417.168C1004.2 417.792 1004.93 418.104 1005.93 418.104C1006.9 418.104 1007.63 417.792 1008.11 417.168C1008.61 416.528 1008.93 415.672 1009.07 414.6C1009.23 413.528 1009.31 412.336 1009.31 411.024C1009.31 409.696 1009.23 408.496 1009.07 407.424C1008.93 406.352 1008.61 405.504 1008.11 404.88C1007.63 404.24 1006.9 403.92 1005.93 403.92C1004.93 403.92 1004.2 404.24 1003.72 404.88C1003.24 405.504 1002.92 406.352 1002.76 407.424C1002.61 408.496 1002.54 409.696 1002.54 411.024ZM810.762 476C810.762 476.944 810.85 477.824 811.026 478.64C811.202 479.44 811.514 480.152 811.962 480.776C811.402 481.24 810.714 481.624 809.898 481.928C809.082 482.232 808.21 482.384 807.282 482.384C805.778 482.384 804.73 481.984 804.138 481.184C803.546 480.384 803.25 479.232 803.25 477.728V467.528C803.25 466.44 803.106 465.64 802.818 465.128C802.546 464.6 802.01 464.336 801.21 464.336C800.73 464.336 800.17 464.464 799.53 464.72C798.89 464.976 798.258 465.392 797.634 465.968V482C797.106 482.096 796.506 482.168 795.834 482.216C795.178 482.264 794.53 482.288 793.89 482.288C793.266 482.288 792.618 482.264 791.946 482.216C791.274 482.168 790.666 482.096 790.122 482V458.048L790.458 457.712H793.29C794.314 457.712 795.154 457.968 795.81 458.48C796.482 458.976 796.97 459.672 797.274 460.568C798.218 459.752 799.242 459.056 800.346 458.48C801.45 457.904 802.682 457.616 804.042 457.616C806.234 457.616 807.898 458.416 809.034 460.016C810.186 461.6 810.762 463.648 810.762 466.16V476ZM837.132 470.024C837.132 473.864 836.188 476.944 834.3 479.264C832.412 481.568 829.66 482.72 826.044 482.72C822.38 482.72 819.612 481.56 817.74 479.24C815.884 476.92 814.956 473.848 814.956 470.024C814.956 466.168 815.9 463.088 817.788 460.784C819.676 458.48 822.428 457.328 826.044 457.328C829.692 457.328 832.452 458.488 834.324 460.808C836.196 463.128 837.132 466.2 837.132 470.024ZM822.66 470.024C822.66 471.336 822.732 472.528 822.876 473.6C823.036 474.672 823.356 475.528 823.836 476.168C824.316 476.792 825.052 477.104 826.044 477.104C827.02 477.104 827.748 476.792 828.228 476.168C828.724 475.528 829.044 474.672 829.188 473.6C829.348 472.528 829.428 471.336 829.428 470.024C829.428 468.696 829.348 467.496 829.188 466.424C829.044 465.352 828.724 464.504 828.228 463.88C827.748 463.24 827.02 462.92 826.044 462.92C825.052 462.92 824.316 463.24 823.836 463.88C823.356 464.504 823.036 465.352 822.876 466.424C822.732 467.496 822.66 468.696 822.66 470.024ZM842.411 455.336C842.411 453.656 842.715 452.488 843.323 451.832C843.947 451.16 844.995 450.824 846.467 450.824H849.395L849.731 451.16V458.072L855.419 458C855.643 458.848 855.755 459.72 855.755 460.616C855.755 461.608 855.643 462.512 855.419 463.328L849.731 463.232V474.272C849.731 475.776 850.443 476.528 851.867 476.528H854.555C854.955 477.68 855.155 478.864 855.155 480.08C855.155 480.352 855.139 480.64 855.107 480.944C855.075 481.248 855.027 481.52 854.963 481.76C854.083 481.888 853.067 482 851.915 482.096C850.763 482.192 849.707 482.24 848.747 482.24C846.571 482.24 844.971 481.704 843.947 480.632C842.923 479.544 842.411 477.856 842.411 475.568V463.256L838.643 463.328C838.435 462.512 838.331 461.608 838.331 460.616C838.331 459.72 838.435 458.848 838.643 458L842.411 458.048V455.336ZM877.247 482C876.719 482.096 876.127 482.168 875.471 482.216C874.815 482.264 874.167 482.288 873.527 482.288C872.215 482.288 871.007 482.192 869.903 482V447.008L870.239 446.672H873.167C874.639 446.672 875.687 447.008 876.311 447.68C876.935 448.352 877.247 449.52 877.247 451.184V466.256H877.991C878.327 466.256 878.591 466.2 878.783 466.088C878.975 465.976 879.167 465.752 879.359 465.416L881.855 460.592C882.303 459.68 882.855 459 883.511 458.552C884.183 458.088 885.023 457.856 886.031 457.856C886.831 457.856 887.559 457.864 888.215 457.88C888.871 457.896 889.543 457.92 890.231 457.952L890.519 458.336L886.823 465.488C886.215 466.672 885.391 467.608 884.351 468.296C885.279 468.632 886.079 469.144 886.751 469.832C887.439 470.504 887.959 471.376 888.311 472.448L889.487 475.952C889.887 477.2 890.247 478.104 890.567 478.664C890.887 479.224 891.295 479.68 891.791 480.032C891.199 480.704 890.455 481.264 889.559 481.712C888.663 482.16 887.727 482.384 886.751 482.384C885.679 482.384 884.871 482.128 884.327 481.616C883.799 481.104 883.335 480.248 882.935 479.048L881.519 474.896C881.183 473.872 880.799 473.2 880.367 472.88C879.935 472.56 879.391 472.4 878.735 472.4C878.223 472.4 877.727 472.416 877.247 472.448V482ZM915.668 476C915.668 476.944 915.756 477.824 915.932 478.64C916.108 479.44 916.42 480.152 916.868 480.776C916.308 481.24 915.62 481.624 914.804 481.928C913.988 482.232 913.116 482.384 912.188 482.384C910.684 482.384 909.636 481.984 909.044 481.184C908.452 480.384 908.156 479.232 908.156 477.728V467.528C908.156 466.44 908.012 465.64 907.724 465.128C907.452 464.6 906.916 464.336 906.116 464.336C905.636 464.336 905.076 464.464 904.436 464.72C903.796 464.976 903.164 465.392 902.54 465.968V482C902.012 482.096 901.412 482.168 900.74 482.216C900.084 482.264 899.436 482.288 898.796 482.288C898.172 482.288 897.524 482.264 896.852 482.216C896.18 482.168 895.572 482.096 895.028 482V458.048L895.364 457.712H898.196C899.22 457.712 900.06 457.968 900.716 458.48C901.388 458.976 901.876 459.672 902.18 460.568C903.124 459.752 904.148 459.056 905.252 458.48C906.356 457.904 907.588 457.616 908.948 457.616C911.14 457.616 912.804 458.416 913.94 460.016C915.092 461.6 915.668 463.648 915.668 466.16V476ZM942.038 470.024C942.038 473.864 941.094 476.944 939.206 479.264C937.318 481.568 934.566 482.72 930.95 482.72C927.286 482.72 924.518 481.56 922.646 479.24C920.79 476.92 919.862 473.848 919.862 470.024C919.862 466.168 920.806 463.088 922.694 460.784C924.582 458.48 927.334 457.328 930.95 457.328C934.598 457.328 937.358 458.488 939.23 460.808C941.102 463.128 942.038 466.2 942.038 470.024ZM927.566 470.024C927.566 471.336 927.638 472.528 927.782 473.6C927.942 474.672 928.262 475.528 928.742 476.168C929.222 476.792 929.958 477.104 930.95 477.104C931.926 477.104 932.654 476.792 933.134 476.168C933.63 475.528 933.95 474.672 934.094 473.6C934.254 472.528 934.334 471.336 934.334 470.024C934.334 468.696 934.254 467.496 934.094 466.424C933.95 465.352 933.63 464.504 933.134 463.88C932.654 463.24 931.926 462.92 930.95 462.92C929.958 462.92 929.222 463.24 928.742 463.88C928.262 464.504 927.942 465.352 927.782 466.424C927.638 467.496 927.566 468.696 927.566 470.024ZM943.669 458.504C945.173 457.912 946.565 457.616 947.845 457.616C949.045 457.616 949.885 457.896 950.365 458.456C950.861 459.016 951.213 459.8 951.421 460.808L952.909 468.56C953.565 471.776 953.981 474.28 954.157 476.072C954.205 476.328 954.333 476.456 954.541 476.456L957.181 458.312C957.773 458.168 958.525 458.072 959.437 458.024C960.349 457.96 961.037 457.928 961.501 457.928C961.997 457.928 962.717 457.96 963.661 458.024C964.621 458.072 965.381 458.168 965.941 458.312L968.653 476.072C968.701 476.328 968.829 476.456 969.037 476.456C969.197 475.352 969.381 474.136 969.589 472.808C969.813 471.464 970.069 470.048 970.357 468.56L972.493 458.072C972.909 457.96 973.381 457.88 973.909 457.832C974.437 457.784 974.917 457.76 975.349 457.76C975.861 457.76 976.517 457.8 977.317 457.88C978.133 457.96 978.805 458.128 979.333 458.384L979.549 458.84L973.957 482C973.205 482.112 972.317 482.184 971.293 482.216C970.269 482.264 969.317 482.288 968.437 482.288C966.997 482.288 965.901 482.088 965.149 481.688C964.413 481.288 963.941 480.352 963.733 478.88L962.917 473.72C962.741 472.536 962.533 471.152 962.293 469.568C962.069 467.968 961.869 466.336 961.693 464.672H961.405C961.213 466.304 960.997 467.912 960.757 469.496C960.533 471.064 960.333 472.44 960.157 473.624L958.813 482C958.029 482.096 957.109 482.168 956.053 482.216C955.013 482.264 954.045 482.288 953.149 482.288C951.741 482.288 950.669 482.064 949.933 481.616C949.197 481.152 948.661 480.208 948.325 478.784L943.669 458.504Z" fill="black"/>
</g>
</g>
<g filter="url(#filter4_i)">
<path d="M1198 444L1269.28 627H1354.82L1418.5 444H1198Z" fill="#C4C4C4" fill-opacity="0.1" stroke="black"/>
<g filter="url(#filter5_i)">
<path d="M1292.85 493.095C1292.85 492.945 1292.85 492.811 1292.86 492.694C1292.86 492.573 1292.86 492.435 1292.86 492.281H1292.85C1292.77 492.281 1292.65 492.283 1292.5 492.287C1292.35 492.29 1292.24 492.292 1292.16 492.292H1291.02C1290.99 492.16 1290.98 492.032 1290.97 491.907C1290.96 491.779 1290.96 491.665 1290.96 491.566C1290.96 491.463 1290.96 491.348 1290.97 491.22C1290.98 491.091 1290.99 490.961 1291.02 490.829H1296.46C1296.49 490.921 1296.51 491.029 1296.52 491.154C1296.54 491.275 1296.55 491.392 1296.55 491.506C1296.55 491.792 1296.48 491.995 1296.33 492.116C1296.18 492.233 1295.95 492.292 1295.63 492.292H1295.31C1295.23 492.292 1295.11 492.29 1294.96 492.287C1294.81 492.283 1294.7 492.281 1294.62 492.281H1294.6C1294.6 492.435 1294.61 492.573 1294.61 492.694C1294.61 492.811 1294.62 492.945 1294.62 493.095V498.342C1294.47 498.368 1294.31 498.384 1294.15 498.392C1294 498.403 1293.86 498.408 1293.74 498.408C1293.61 498.408 1293.47 498.403 1293.31 498.392C1293.15 498.384 1293 498.368 1292.85 498.342V493.095ZM1298.86 498.342C1298.62 498.386 1298.34 498.408 1298.01 498.408C1297.72 498.408 1297.44 498.386 1297.18 498.342V490.323L1297.26 490.246H1297.93C1298.27 490.246 1298.51 490.323 1298.65 490.477C1298.79 490.631 1298.86 490.899 1298.86 491.28V493.359C1299.07 493.19 1299.29 493.047 1299.53 492.93C1299.77 492.813 1300.04 492.754 1300.33 492.754C1300.84 492.754 1301.22 492.937 1301.48 493.304C1301.74 493.667 1301.87 494.136 1301.87 494.712V496.967C1301.87 497.183 1301.89 497.385 1301.93 497.572C1301.97 497.755 1302.04 497.919 1302.14 498.062C1302.02 498.168 1301.86 498.256 1301.67 498.326C1301.49 498.395 1301.29 498.43 1301.07 498.43C1300.73 498.43 1300.49 498.338 1300.35 498.155C1300.22 497.972 1300.15 497.708 1300.15 497.363V495.026C1300.15 494.776 1300.12 494.593 1300.05 494.476C1299.99 494.355 1299.86 494.294 1299.68 494.294C1299.57 494.294 1299.44 494.323 1299.29 494.382C1299.15 494.441 1299 494.536 1298.86 494.668V498.342ZM1305.13 498.342C1305.01 498.364 1304.88 498.381 1304.72 498.392C1304.57 498.403 1304.42 498.408 1304.28 498.408C1304.13 498.408 1303.98 498.403 1303.83 498.392C1303.68 498.381 1303.54 498.364 1303.41 498.342V494.701C1303.41 494.518 1303.37 494.366 1303.3 494.245C1303.22 494.124 1303.09 494.063 1302.9 494.063H1302.73C1302.68 493.883 1302.66 493.689 1302.66 493.48C1302.66 493.385 1302.66 493.284 1302.68 493.178C1302.69 493.068 1302.7 492.963 1302.73 492.864C1302.9 492.846 1303.07 492.833 1303.25 492.826C1303.43 492.815 1303.58 492.809 1303.7 492.809H1303.94C1304.3 492.809 1304.59 492.928 1304.81 493.167C1305.03 493.401 1305.13 493.72 1305.13 494.124V498.342ZM1303.08 491.308C1303.08 491.08 1303.12 490.866 1303.21 490.664C1303.3 490.616 1303.43 490.576 1303.58 490.543C1303.73 490.51 1303.88 490.494 1304.03 490.494C1304.18 490.494 1304.33 490.51 1304.49 490.543C1304.64 490.576 1304.76 490.616 1304.85 490.664C1304.89 490.767 1304.92 490.875 1304.94 490.989C1304.96 491.102 1304.97 491.209 1304.97 491.308C1304.97 491.531 1304.93 491.744 1304.85 491.946C1304.76 491.993 1304.64 492.034 1304.49 492.067C1304.33 492.1 1304.18 492.116 1304.03 492.116C1303.88 492.116 1303.73 492.101 1303.57 492.072C1303.42 492.039 1303.3 491.997 1303.21 491.946C1303.12 491.744 1303.08 491.531 1303.08 491.308ZM1311.16 496.967C1311.16 497.183 1311.18 497.385 1311.22 497.572C1311.26 497.755 1311.33 497.919 1311.44 498.062C1311.31 498.168 1311.15 498.256 1310.96 498.326C1310.78 498.395 1310.58 498.43 1310.36 498.43C1310.02 498.43 1309.78 498.338 1309.64 498.155C1309.51 497.972 1309.44 497.708 1309.44 497.363V495.026C1309.44 494.776 1309.41 494.593 1309.34 494.476C1309.28 494.355 1309.15 494.294 1308.97 494.294C1308.86 494.294 1308.73 494.323 1308.59 494.382C1308.44 494.441 1308.29 494.536 1308.15 494.668V498.342C1308.03 498.364 1307.89 498.381 1307.74 498.392C1307.59 498.403 1307.44 498.408 1307.29 498.408C1307.15 498.408 1307 498.403 1306.85 498.392C1306.69 498.381 1306.56 498.364 1306.43 498.342V492.853L1306.51 492.776H1307.16C1307.39 492.776 1307.58 492.835 1307.73 492.952C1307.89 493.066 1308 493.225 1308.07 493.431C1308.29 493.244 1308.52 493.084 1308.77 492.952C1309.03 492.82 1309.31 492.754 1309.62 492.754C1310.12 492.754 1310.5 492.937 1310.76 493.304C1311.03 493.667 1311.16 494.136 1311.16 494.712V496.967ZM1312.14 495.609C1312.14 494.978 1312.24 494.446 1312.44 494.014C1312.64 493.577 1312.91 493.247 1313.24 493.024C1313.58 492.8 1313.95 492.688 1314.35 492.688C1314.67 492.688 1314.95 492.738 1315.19 492.837C1315.42 492.936 1315.63 493.057 1315.79 493.2C1315.91 493.068 1316.06 492.963 1316.23 492.886C1316.41 492.809 1316.61 492.769 1316.84 492.765C1316.94 492.849 1317.05 492.98 1317.16 493.156C1317.27 493.328 1317.34 493.491 1317.36 493.645C1317.27 493.711 1317.19 493.817 1317.13 493.964C1317.08 494.107 1317.05 494.265 1317.05 494.437V497.341C1317.05 497.854 1317.03 498.278 1316.98 498.612C1316.93 498.945 1316.87 499.218 1316.79 499.431C1316.7 499.644 1316.6 499.823 1316.48 499.97C1316.27 500.245 1315.98 500.447 1315.62 500.575C1315.26 500.707 1314.86 500.773 1314.42 500.773C1314.08 500.773 1313.72 500.738 1313.34 500.669C1312.97 500.603 1312.64 500.516 1312.35 500.41C1312.35 500.208 1312.39 499.987 1312.47 499.745C1312.55 499.503 1312.66 499.31 1312.78 499.167C1313.27 499.387 1313.77 499.497 1314.26 499.497C1314.66 499.497 1314.95 499.394 1315.12 499.189C1315.29 498.987 1315.37 498.718 1315.37 498.381V498.029C1315.2 498.157 1315 498.26 1314.78 498.337C1314.57 498.414 1314.35 498.452 1314.12 498.452C1313.68 498.452 1313.31 498.331 1313.01 498.089C1312.72 497.847 1312.5 497.513 1312.36 497.088C1312.22 496.659 1312.14 496.166 1312.14 495.609ZM1313.9 495.62C1313.9 496.129 1313.96 496.5 1314.09 496.731C1314.21 496.958 1314.37 497.072 1314.55 497.072C1314.85 497.072 1315.13 496.945 1315.37 496.692V494.415C1315.37 494.389 1315.37 494.364 1315.38 494.338C1315.12 494.089 1314.88 493.964 1314.65 493.964C1314.38 493.964 1314.19 494.113 1314.07 494.41C1313.96 494.703 1313.9 495.106 1313.9 495.62ZM1317.9 497.963C1317.91 497.779 1317.96 497.574 1318.05 497.347C1318.15 497.119 1318.26 496.94 1318.38 496.808C1318.62 496.932 1318.87 497.04 1319.13 497.132C1319.39 497.22 1319.65 497.264 1319.91 497.264C1320.12 497.264 1320.28 497.227 1320.38 497.154C1320.49 497.081 1320.55 496.989 1320.55 496.879C1320.55 496.666 1320.38 496.5 1320.05 496.379L1319.44 496.159C1319.05 496.016 1318.72 495.816 1318.46 495.559C1318.2 495.299 1318.06 494.949 1318.06 494.509C1318.06 493.951 1318.26 493.509 1318.64 493.183C1319.03 492.853 1319.55 492.688 1320.19 492.688C1320.54 492.688 1320.9 492.736 1321.28 492.831C1321.67 492.926 1321.98 493.033 1322.22 493.15C1322.22 493.286 1322.2 493.434 1322.16 493.596C1322.12 493.753 1322.06 493.9 1321.99 494.036C1321.92 494.171 1321.83 494.274 1321.74 494.344C1321.52 494.241 1321.27 494.147 1321 494.063C1320.73 493.975 1320.47 493.931 1320.21 493.931C1320.06 493.931 1319.94 493.966 1319.87 494.036C1319.79 494.105 1319.76 494.188 1319.76 494.283C1319.76 494.459 1319.9 494.598 1320.18 494.701L1320.86 494.943C1321.28 495.093 1321.62 495.31 1321.9 495.592C1322.18 495.871 1322.32 496.245 1322.32 496.714C1322.32 497.26 1322.11 497.697 1321.69 498.023C1321.27 498.346 1320.69 498.507 1319.94 498.507C1319.55 498.507 1319.18 498.454 1318.82 498.348C1318.47 498.241 1318.16 498.113 1317.9 497.963ZM1303.44 512.194C1303.31 512.696 1303.14 513.138 1302.94 513.519C1302.74 513.904 1302.47 514.205 1302.12 514.421C1301.77 514.641 1301.31 514.751 1300.74 514.751C1300.52 514.751 1300.28 514.727 1300.02 514.68C1299.76 514.632 1299.56 514.581 1299.41 514.526C1299.38 514.331 1299.41 514.111 1299.48 513.866C1299.55 513.62 1299.64 513.431 1299.75 513.299C1299.87 513.336 1300.02 513.372 1300.2 513.409C1300.38 513.449 1300.56 513.47 1300.74 513.47C1301.02 513.47 1301.25 513.391 1301.42 513.233C1301.6 513.075 1301.74 512.857 1301.82 512.579L1301.86 512.419C1301.57 512.415 1301.32 512.364 1301.12 512.265C1300.92 512.166 1300.79 511.986 1300.72 511.726L1299.44 506.985C1299.62 506.908 1299.8 506.851 1299.99 506.815C1300.19 506.774 1300.36 506.754 1300.5 506.754C1300.71 506.754 1300.88 506.805 1301.02 506.908C1301.16 507.011 1301.26 507.205 1301.33 507.491L1301.85 509.609C1301.88 509.73 1301.91 509.882 1301.94 510.065C1301.97 510.245 1302 510.424 1302.03 510.604C1302.06 510.78 1302.08 510.929 1302.09 511.05C1302.1 511.101 1302.13 511.127 1302.18 511.127L1303.14 506.859C1303.24 506.833 1303.35 506.815 1303.47 506.804C1303.6 506.793 1303.71 506.787 1303.82 506.787C1303.96 506.787 1304.11 506.796 1304.27 506.815C1304.43 506.829 1304.58 506.862 1304.74 506.914L1304.8 507.029L1303.44 512.194ZM1310.14 509.598C1310.14 510.478 1309.92 511.183 1309.49 511.715C1309.06 512.243 1308.43 512.507 1307.6 512.507C1306.76 512.507 1306.13 512.241 1305.7 511.71C1305.27 511.178 1305.06 510.474 1305.06 509.598C1305.06 508.714 1305.27 508.008 1305.71 507.48C1306.14 506.952 1306.77 506.688 1307.6 506.688C1308.44 506.688 1309.07 506.954 1309.5 507.486C1309.93 508.017 1310.14 508.721 1310.14 509.598ZM1306.82 509.598C1306.82 509.898 1306.84 510.171 1306.87 510.417C1306.91 510.663 1306.98 510.859 1307.09 511.006C1307.2 511.149 1307.37 511.22 1307.6 511.22C1307.82 511.22 1307.99 511.149 1308.1 511.006C1308.21 510.859 1308.29 510.663 1308.32 510.417C1308.36 510.171 1308.38 509.898 1308.38 509.598C1308.38 509.293 1308.36 509.018 1308.32 508.773C1308.29 508.527 1308.21 508.333 1308.1 508.19C1307.99 508.043 1307.82 507.97 1307.6 507.97C1307.37 507.97 1307.2 508.043 1307.09 508.19C1306.98 508.333 1306.91 508.527 1306.87 508.773C1306.84 509.018 1306.82 509.293 1306.82 509.598ZM1311.11 508.228C1311.11 508.012 1311.09 507.81 1311.04 507.623C1311 507.436 1310.93 507.273 1310.83 507.134C1310.96 507.027 1311.11 506.939 1311.3 506.87C1311.49 506.8 1311.69 506.765 1311.91 506.765C1312.25 506.765 1312.49 506.857 1312.62 507.04C1312.76 507.223 1312.82 507.486 1312.82 507.827V510.17C1312.82 510.419 1312.86 510.602 1312.92 510.72C1312.99 510.837 1313.11 510.896 1313.3 510.896C1313.41 510.896 1313.54 510.868 1313.68 510.813C1313.83 510.754 1313.97 510.659 1314.12 510.527V506.853C1314.23 506.831 1314.37 506.815 1314.52 506.804C1314.68 506.793 1314.83 506.787 1314.97 506.787C1315.12 506.787 1315.26 506.793 1315.41 506.804C1315.57 506.815 1315.71 506.831 1315.83 506.853V510.775C1315.83 510.951 1315.86 511.11 1315.92 511.253C1315.97 511.396 1316.05 511.501 1316.14 511.567C1316.11 511.721 1316.04 511.882 1315.94 512.051C1315.83 512.219 1315.72 512.346 1315.62 512.43C1315.31 512.423 1315.04 512.349 1314.82 512.21C1314.6 512.067 1314.44 511.882 1314.32 511.655C1314.09 511.867 1313.83 512.052 1313.56 512.21C1313.29 512.364 1312.99 512.441 1312.65 512.441C1312.15 512.441 1311.76 512.258 1311.5 511.891C1311.24 511.524 1311.11 511.055 1311.11 510.483V508.228ZM1298.59 526.342C1298.46 526.364 1298.33 526.381 1298.18 526.392C1298.03 526.403 1297.88 526.408 1297.73 526.408C1297.43 526.408 1297.16 526.386 1296.9 526.342V518.323L1296.98 518.246H1297.65C1297.99 518.246 1298.23 518.323 1298.37 518.477C1298.51 518.631 1298.59 518.899 1298.59 519.28V522.734H1298.76C1298.83 522.734 1298.89 522.721 1298.94 522.696C1298.98 522.67 1299.03 522.619 1299.07 522.542L1299.64 521.436C1299.74 521.227 1299.87 521.071 1300.02 520.969C1300.17 520.862 1300.37 520.809 1300.6 520.809C1300.78 520.809 1300.95 520.811 1301.1 520.815C1301.25 520.818 1301.4 520.824 1301.56 520.831L1301.63 520.919L1300.78 522.558C1300.64 522.829 1300.45 523.044 1300.21 523.202C1300.43 523.279 1300.61 523.396 1300.76 523.554C1300.92 523.708 1301.04 523.907 1301.12 524.153L1301.39 524.956C1301.48 525.242 1301.56 525.449 1301.64 525.578C1301.71 525.706 1301.8 525.81 1301.92 525.891C1301.78 526.045 1301.61 526.173 1301.41 526.276C1301.2 526.379 1300.99 526.43 1300.76 526.43C1300.52 526.43 1300.33 526.371 1300.21 526.254C1300.09 526.137 1299.98 525.941 1299.89 525.666L1299.56 524.714C1299.49 524.479 1299.4 524.325 1299.3 524.252C1299.2 524.179 1299.08 524.142 1298.93 524.142C1298.81 524.142 1298.7 524.146 1298.59 524.153V526.342ZM1307.39 524.967C1307.39 525.183 1307.41 525.385 1307.45 525.572C1307.49 525.755 1307.56 525.919 1307.66 526.062C1307.54 526.168 1307.38 526.256 1307.19 526.326C1307 526.395 1306.81 526.43 1306.59 526.43C1306.25 526.43 1306.01 526.338 1305.87 526.155C1305.74 525.972 1305.67 525.708 1305.67 525.363V523.026C1305.67 522.776 1305.64 522.593 1305.57 522.476C1305.51 522.355 1305.38 522.294 1305.2 522.294C1305.09 522.294 1304.96 522.323 1304.82 522.382C1304.67 522.441 1304.52 522.536 1304.38 522.668V526.342C1304.26 526.364 1304.12 526.381 1303.97 526.392C1303.82 526.403 1303.67 526.408 1303.52 526.408C1303.38 526.408 1303.23 526.403 1303.08 526.392C1302.92 526.381 1302.78 526.364 1302.66 526.342V520.853L1302.74 520.776H1303.39C1303.62 520.776 1303.81 520.835 1303.96 520.952C1304.12 521.066 1304.23 521.225 1304.3 521.431C1304.52 521.244 1304.75 521.084 1305 520.952C1305.26 520.82 1305.54 520.754 1305.85 520.754C1306.35 520.754 1306.73 520.937 1306.99 521.304C1307.26 521.667 1307.39 522.136 1307.39 522.712V524.967ZM1313.43 523.598C1313.43 524.478 1313.22 525.183 1312.78 525.715C1312.35 526.243 1311.72 526.507 1310.89 526.507C1310.05 526.507 1309.42 526.241 1308.99 525.71C1308.56 525.178 1308.35 524.474 1308.35 523.598C1308.35 522.714 1308.57 522.008 1309 521.48C1309.43 520.952 1310.06 520.688 1310.89 520.688C1311.73 520.688 1312.36 520.954 1312.79 521.486C1313.22 522.017 1313.43 522.721 1313.43 523.598ZM1310.12 523.598C1310.12 523.898 1310.13 524.171 1310.17 524.417C1310.2 524.663 1310.28 524.859 1310.39 525.006C1310.5 525.149 1310.66 525.22 1310.89 525.22C1311.12 525.22 1311.28 525.149 1311.39 525.006C1311.51 524.859 1311.58 524.663 1311.61 524.417C1311.65 524.171 1311.67 523.898 1311.67 523.598C1311.67 523.293 1311.65 523.018 1311.61 522.773C1311.58 522.527 1311.51 522.333 1311.39 522.19C1311.28 522.043 1311.12 521.97 1310.89 521.97C1310.66 521.97 1310.5 522.043 1310.39 522.19C1310.28 522.333 1310.2 522.527 1310.17 522.773C1310.13 523.018 1310.12 523.293 1310.12 523.598ZM1313.81 520.958C1314.15 520.822 1314.47 520.754 1314.76 520.754C1315.04 520.754 1315.23 520.818 1315.34 520.947C1315.46 521.075 1315.54 521.255 1315.58 521.486L1315.92 523.262C1316.07 523.999 1316.17 524.573 1316.21 524.984C1316.22 525.042 1316.25 525.072 1316.3 525.072L1316.9 520.914C1317.04 520.881 1317.21 520.859 1317.42 520.848C1317.63 520.833 1317.79 520.826 1317.89 520.826C1318.01 520.826 1318.17 520.833 1318.39 520.848C1318.61 520.859 1318.78 520.881 1318.91 520.914L1319.53 524.984C1319.54 525.042 1319.57 525.072 1319.62 525.072C1319.66 524.819 1319.7 524.54 1319.75 524.236C1319.8 523.928 1319.86 523.603 1319.92 523.262L1320.41 520.859C1320.51 520.833 1320.62 520.815 1320.74 520.804C1320.86 520.793 1320.97 520.787 1321.07 520.787C1321.18 520.787 1321.33 520.796 1321.52 520.815C1321.7 520.833 1321.86 520.871 1321.98 520.93L1322.03 521.035L1320.75 526.342C1320.58 526.368 1320.37 526.384 1320.14 526.392C1319.9 526.403 1319.68 526.408 1319.48 526.408C1319.15 526.408 1318.9 526.362 1318.73 526.271C1318.56 526.179 1318.45 525.964 1318.4 525.627L1318.22 524.445C1318.18 524.173 1318.13 523.856 1318.07 523.493C1318.02 523.126 1317.98 522.752 1317.94 522.371H1317.87C1317.83 522.745 1317.78 523.114 1317.72 523.477C1317.67 523.836 1317.63 524.151 1317.59 524.423L1317.28 526.342C1317.1 526.364 1316.89 526.381 1316.64 526.392C1316.41 526.403 1316.18 526.408 1315.98 526.408C1315.66 526.408 1315.41 526.357 1315.24 526.254C1315.07 526.148 1314.95 525.931 1314.87 525.605L1313.81 520.958Z" fill="black"/>
</g>
</g>
<rect x="1144" y="216" width="289" height="456" fill="#C4C4C4"/>
<defs>
<filter id="filter0_i" x="119.289" y="133.5" width="500.396" height="452" filterUnits="userSpaceOnUse" color-interpolation-filters="sRGB">
<feFlood flood-opacity="0" result="BackgroundImageFix"/>
<feBlend mode="normal" in="SourceGraphic" in2="BackgroundImageFix" result="shape"/>
<feColorMatrix in="SourceAlpha" type="matrix" values="0 0 0 0 0 0 0 0 0 0 0 0 0 0 0 0 0 0 127 0" result="hardAlpha"/>
<feOffset dx="3" dy="4"/>
<feGaussianBlur stdDeviation="5"/>
<feComposite in2="hardAlpha" operator="arithmetic" k2="-1" k3="1"/>
<feColorMatrix type="matrix" values="0 0 0 0 0 0 0 0 0 0 0 0 0 0 0 0 0 0 0.5 0"/>
<feBlend mode="normal" in2="shape" result="effect1_innerShadow"/>
</filter>
<filter id="filter1_i" x="230.988" y="245.185" width="272.76" height="119.036" filterUnits="userSpaceOnUse" color-interpolation-filters="sRGB">
<feFlood flood-opacity="0" result="BackgroundImageFix"/>
<feBlend mode="normal" in="SourceGraphic" in2="BackgroundImageFix" result="shape"/>
<feColorMatrix in="SourceAlpha" type="matrix" values="0 0 0 0 0 0 0 0 0 0 0 0 0 0 0 0 0 0 127 0" result="hardAlpha"/>
<feOffset dy="4"/>
<feGaussianBlur stdDeviation="2"/>
<feComposite in2="hardAlpha" operator="arithmetic" k2="-1" k3="1"/>
<feColorMatrix type="matrix" values="0 0 0 0 0 0 0 0 0 0 0 0 0 0 0 0 0 0 0.25 0"/>
<feBlend mode="normal" in2="shape" result="effect1_innerShadow"/>
</filter>
<filter id="filter2_i" x="635.251" y="229.5" width="494.468" height="387" filterUnits="userSpaceOnUse" color-interpolation-filters="sRGB">
<feFlood flood-opacity="0" result="BackgroundImageFix"/>
<feBlend mode="normal" in="SourceGraphic" in2="BackgroundImageFix" result="shape"/>
<feColorMatrix in="SourceAlpha" type="matrix" values="0 0 0 0 0 0 0 0 0 0 0 0 0 0 0 0 0 0 127 0" result="hardAlpha"/>
<feOffset dx="2" dy="4"/>
<feGaussianBlur stdDeviation="5"/>
<feComposite in2="hardAlpha" operator="arithmetic" k2="-1" k3="1"/>
<feColorMatrix type="matrix" values="0 0 0 0 0 0 0 0 0 0 0 0 0 0 0 0 0 0 0.5 0"/>
<feBlend mode="normal" in2="shape" result="effect1_innerShadow"/>
</filter>
<filter id="filter3_i" x="751.379" y="328.672" width="265.635" height="158.048" filterUnits="userSpaceOnUse" color-interpolation-filters="sRGB">
<feFlood flood-opacity="0" result="BackgroundImageFix"/>
<feBlend mode="normal" in="SourceGraphic" in2="BackgroundImageFix" result="shape"/>
<feColorMatrix in="SourceAlpha" type="matrix" values="0 0 0 0 0 0 0 0 0 0 0 0 0 0 0 0 0 0 127 0" result="hardAlpha"/>
<feOffset dy="4"/>
<feGaussianBlur stdDeviation="2"/>
<feComposite in2="hardAlpha" operator="arithmetic" k2="-1" k3="1"/>
<feColorMatrix type="matrix" values="0 0 0 0 0 0 0 0 0 0 0 0 0 0 0 0 0 0 0.25 0"/>
<feBlend mode="normal" in2="shape" result="effect1_innerShadow"/>
</filter>
<filter id="filter4_i" x="1197.27" y="443.5" width="221.935" height="188" filterUnits="userSpaceOnUse" color-interpolation-filters="sRGB">
<feFlood flood-opacity="0" result="BackgroundImageFix"/>
<feBlend mode="normal" in="SourceGraphic" in2="BackgroundImageFix" result="shape"/>
<feColorMatrix in="SourceAlpha" type="matrix" values="0 0 0 0 0 0 0 0 0 0 0 0 0 0 0 0 0 0 127 0" result="hardAlpha"/>
<feOffset dy="4"/>
<feGaussianBlur stdDeviation="2"/>
<feComposite in2="hardAlpha" operator="arithmetic" k2="-1" k3="1"/>
<feColorMatrix type="matrix" values="0 0 0 0 0 0 0 0 0 0 0 0 0 0 0 0 0 0 0.25 0"/>
<feBlend mode="normal" in2="shape" result="effect1_innerShadow"/>
</filter>
<filter id="filter5_i" x="1290.96" y="490.246" width="31.362" height="40.261" filterUnits="userSpaceOnUse" color-interpolation-filters="sRGB">
<feFlood flood-opacity="0" result="BackgroundImageFix"/>
<feBlend mode="normal" in="SourceGraphic" in2="BackgroundImageFix" result="shape"/>
<feColorMatrix in="SourceAlpha" type="matrix" values="0 0 0 0 0 0 0 0 0 0 0 0 0 0 0 0 0 0 127 0" result="hardAlpha"/>
<feOffset dy="4"/>
<feGaussianBlur stdDeviation="2"/>
<feComposite in2="hardAlpha" operator="arithmetic" k2="-1" k3="1"/>
<feColorMatrix type="matrix" values="0 0 0 0 0 0 0 0 0 0 0 0 0 0 0 0 0 0 0.25 0"/>
<feBlend mode="normal" in2="shape" result="effect1_innerShadow"/>
</filter>
</defs>
</svg>
