<svg width="1484" height="742" viewBox="0 0 1484 742" fill="none" xmlns="http://www.w3.org/2000/svg">
<rect width="1484" height="742" fill="#C4C4C4"/>
<g filter="url(#filter0_i)">
<path d="M120 134L280.345 581H472.759L616 134H120Z" fill="#C4C4C4" stroke="black"/>
<g filter="url(#filter1_i)">
<path d="M237.18 254.509C237.18 254.017 237.186 253.579 237.198 253.195C237.21 252.799 237.216 252.349 237.216 251.845H237.18C236.916 251.845 236.538 251.851 236.046 251.863C235.554 251.875 235.176 251.881 234.912 251.881H231.186C231.102 251.449 231.048 251.029 231.024 250.621C231 250.201 230.988 249.829 230.988 249.505C230.988 249.169 231 248.791 231.024 248.371C231.048 247.951 231.102 247.525 231.186 247.093H249.006C249.09 247.393 249.156 247.747 249.204 248.155C249.264 248.551 249.294 248.935 249.294 249.307C249.294 250.243 249.048 250.909 248.556 251.305C248.076 251.689 247.32 251.881 246.288 251.881H245.226C244.962 251.881 244.584 251.875 244.092 251.863C243.6 251.851 243.222 251.845 242.958 251.845H242.922C242.922 252.349 242.928 252.799 242.94 253.195C242.952 253.579 242.958 254.017 242.958 254.509V271.681C242.466 271.765 241.962 271.819 241.446 271.843C240.93 271.879 240.474 271.897 240.078 271.897C239.67 271.897 239.208 271.879 238.692 271.843C238.176 271.819 237.672 271.765 237.18 271.681V254.509ZM256.864 271.681C256.072 271.825 255.142 271.897 254.074 271.897C253.114 271.897 252.208 271.825 251.356 271.681V245.437L251.608 245.185H253.804C254.908 245.185 255.694 245.437 256.162 245.941C256.63 246.445 256.864 247.321 256.864 248.569V255.373C257.536 254.821 258.262 254.353 259.042 253.969C259.834 253.585 260.71 253.393 261.67 253.393C263.314 253.393 264.562 253.993 265.414 255.193C266.278 256.381 266.71 257.917 266.71 259.801V267.181C266.71 267.889 266.776 268.549 266.908 269.161C267.04 269.761 267.268 270.295 267.592 270.763C267.184 271.111 266.674 271.399 266.062 271.627C265.45 271.855 264.79 271.969 264.082 271.969C262.954 271.969 262.168 271.669 261.724 271.069C261.292 270.469 261.076 269.605 261.076 268.477V260.827C261.076 260.011 260.968 259.411 260.752 259.027C260.536 258.631 260.128 258.433 259.528 258.433C259.168 258.433 258.748 258.529 258.268 258.721C257.788 258.913 257.32 259.225 256.864 259.657V271.681ZM277.383 271.681C276.987 271.753 276.537 271.807 276.033 271.843C275.541 271.879 275.055 271.897 274.575 271.897C274.107 271.897 273.621 271.879 273.117 271.843C272.625 271.807 272.169 271.753 271.749 271.681V259.765C271.749 259.165 271.623 258.667 271.371 258.271C271.131 257.875 270.693 257.677 270.057 257.677H269.517C269.361 257.089 269.283 256.453 269.283 255.769C269.283 255.457 269.301 255.127 269.337 254.779C269.373 254.419 269.433 254.077 269.517 253.753C270.069 253.693 270.633 253.651 271.209 253.627C271.797 253.591 272.289 253.573 272.685 253.573H273.459C274.659 253.573 275.613 253.963 276.321 254.743C277.029 255.511 277.383 256.555 277.383 257.875V271.681ZM270.669 248.659C270.669 247.915 270.807 247.213 271.083 246.553C271.395 246.397 271.797 246.265 272.289 246.157C272.793 246.049 273.285 245.995 273.765 245.995C274.245 245.995 274.743 246.049 275.259 246.157C275.775 246.265 276.171 246.397 276.447 246.553C276.579 246.889 276.681 247.243 276.753 247.615C276.825 247.987 276.861 248.335 276.861 248.659C276.861 249.391 276.723 250.087 276.447 250.747C276.171 250.903 275.775 251.035 275.259 251.143C274.743 251.251 274.245 251.305 273.765 251.305C273.285 251.305 272.787 251.257 272.271 251.161C271.767 251.053 271.371 250.915 271.083 250.747C270.807 250.087 270.669 249.391 270.669 248.659ZM297.105 267.181C297.105 267.889 297.171 268.549 297.303 269.161C297.435 269.761 297.669 270.295 298.005 270.763C297.585 271.111 297.069 271.399 296.457 271.627C295.845 271.855 295.191 271.969 294.495 271.969C293.367 271.969 292.581 271.669 292.137 271.069C291.693 270.469 291.471 269.605 291.471 268.477V260.827C291.471 260.011 291.363 259.411 291.147 259.027C290.943 258.631 290.541 258.433 289.941 258.433C289.581 258.433 289.161 258.529 288.681 258.721C288.201 258.913 287.727 259.225 287.259 259.657V271.681C286.863 271.753 286.413 271.807 285.909 271.843C285.417 271.879 284.931 271.897 284.451 271.897C283.983 271.897 283.497 271.879 282.993 271.843C282.489 271.807 282.033 271.753 281.625 271.681V253.717L281.877 253.465H284.001C284.769 253.465 285.399 253.657 285.891 254.041C286.395 254.413 286.761 254.935 286.989 255.607C287.697 254.995 288.465 254.473 289.293 254.041C290.121 253.609 291.045 253.393 292.065 253.393C293.709 253.393 294.957 253.993 295.809 255.193C296.673 256.381 297.105 257.917 297.105 259.801V267.181ZM300.323 262.735C300.323 260.671 300.647 258.931 301.295 257.515C301.955 256.087 302.831 255.007 303.923 254.275C305.027 253.543 306.233 253.177 307.541 253.177C308.597 253.177 309.509 253.339 310.277 253.663C311.057 253.987 311.717 254.383 312.257 254.851C312.653 254.419 313.133 254.077 313.697 253.825C314.273 253.573 314.933 253.441 315.677 253.429C316.025 253.705 316.379 254.131 316.739 254.707C317.099 255.271 317.315 255.805 317.387 256.309C317.087 256.525 316.841 256.873 316.649 257.353C316.469 257.821 316.379 258.337 316.379 258.901V268.405C316.379 270.085 316.301 271.471 316.145 272.563C316.001 273.655 315.791 274.549 315.515 275.245C315.239 275.941 314.909 276.529 314.525 277.009C313.817 277.909 312.875 278.569 311.699 278.989C310.523 279.421 309.215 279.637 307.775 279.637C306.647 279.637 305.471 279.523 304.247 279.295C303.023 279.079 301.943 278.797 301.007 278.449C301.007 277.789 301.139 277.063 301.403 276.271C301.667 275.479 301.997 274.849 302.393 274.381C304.013 275.101 305.633 275.461 307.253 275.461C308.573 275.461 309.509 275.125 310.061 274.453C310.613 273.793 310.889 272.911 310.889 271.807V270.655C310.313 271.075 309.671 271.411 308.963 271.663C308.267 271.915 307.547 272.041 306.803 272.041C305.339 272.041 304.127 271.645 303.167 270.853C302.207 270.061 301.493 268.969 301.025 267.577C300.557 266.173 300.323 264.559 300.323 262.735ZM306.083 262.771C306.083 264.439 306.281 265.651 306.677 266.407C307.085 267.151 307.595 267.523 308.207 267.523C309.191 267.523 310.085 267.109 310.889 266.281V258.829C310.889 258.745 310.895 258.661 310.907 258.577C310.055 257.761 309.263 257.353 308.531 257.353C307.655 257.353 307.025 257.839 306.641 258.811C306.269 259.771 306.083 261.091 306.083 262.771ZM319.174 270.439C319.198 269.839 319.36 269.167 319.66 268.423C319.972 267.679 320.332 267.091 320.74 266.659C321.532 267.067 322.348 267.421 323.188 267.721C324.04 268.009 324.886 268.153 325.726 268.153C326.422 268.153 326.944 268.033 327.292 267.793C327.652 267.553 327.832 267.253 327.832 266.893C327.832 266.197 327.286 265.651 326.194 265.255L324.196 264.535C322.924 264.067 321.856 263.413 320.992 262.573C320.128 261.721 319.696 260.575 319.696 259.135C319.696 257.311 320.326 255.865 321.586 254.797C322.858 253.717 324.55 253.177 326.662 253.177C327.79 253.177 328.978 253.333 330.226 253.645C331.486 253.957 332.506 254.305 333.286 254.689C333.31 255.133 333.25 255.619 333.106 256.147C332.974 256.663 332.788 257.143 332.548 257.587C332.308 258.031 332.038 258.367 331.738 258.595C330.994 258.259 330.184 257.953 329.308 257.677C328.432 257.389 327.568 257.245 326.716 257.245C326.224 257.245 325.852 257.359 325.6 257.587C325.36 257.815 325.24 258.085 325.24 258.397C325.24 258.973 325.696 259.429 326.608 259.765L328.84 260.557C330.208 261.049 331.348 261.757 332.26 262.681C333.172 263.593 333.628 264.817 333.628 266.353C333.628 268.141 332.938 269.569 331.558 270.637C330.19 271.693 328.288 272.221 325.852 272.221C324.568 272.221 323.344 272.047 322.18 271.699C321.028 271.351 320.026 270.931 319.174 270.439ZM355.609 271.195C355.177 272.839 354.631 274.285 353.971 275.533C353.311 276.793 352.411 277.777 351.271 278.485C350.131 279.205 348.631 279.565 346.771 279.565C346.051 279.565 345.265 279.487 344.413 279.331C343.561 279.175 342.889 279.007 342.397 278.827C342.325 278.191 342.403 277.471 342.631 276.667C342.859 275.863 343.159 275.245 343.531 274.813C343.915 274.933 344.401 275.053 344.989 275.173C345.577 275.305 346.171 275.371 346.771 275.371C347.683 275.371 348.427 275.113 349.003 274.597C349.591 274.081 350.023 273.367 350.299 272.455L350.443 271.933C349.471 271.921 348.661 271.753 348.013 271.429C347.365 271.105 346.927 270.517 346.699 269.665L342.505 254.149C343.081 253.897 343.687 253.711 344.323 253.591C344.959 253.459 345.511 253.393 345.979 253.393C346.663 253.393 347.227 253.561 347.671 253.897C348.127 254.233 348.469 254.869 348.697 255.805L350.389 262.735C350.497 263.131 350.599 263.629 350.695 264.229C350.803 264.817 350.899 265.405 350.983 265.993C351.067 266.569 351.133 267.055 351.181 267.451C351.217 267.619 351.319 267.703 351.487 267.703L354.619 253.735C354.931 253.651 355.291 253.591 355.699 253.555C356.107 253.519 356.485 253.501 356.833 253.501C357.313 253.501 357.805 253.531 358.309 253.591C358.825 253.639 359.335 253.747 359.839 253.915L360.055 254.293L355.609 271.195ZM377.527 262.699C377.527 265.579 376.819 267.889 375.403 269.629C373.987 271.357 371.923 272.221 369.211 272.221C366.463 272.221 364.387 271.351 362.983 269.611C361.591 267.871 360.895 265.567 360.895 262.699C360.895 259.807 361.603 257.497 363.019 255.769C364.435 254.041 366.499 253.177 369.211 253.177C371.947 253.177 374.017 254.047 375.421 255.787C376.825 257.527 377.527 259.831 377.527 262.699ZM366.673 262.699C366.673 263.683 366.727 264.577 366.835 265.381C366.955 266.185 367.195 266.827 367.555 267.307C367.915 267.775 368.467 268.009 369.211 268.009C369.943 268.009 370.489 267.775 370.849 267.307C371.221 266.827 371.461 266.185 371.569 265.381C371.689 264.577 371.749 263.683 371.749 262.699C371.749 261.703 371.689 260.803 371.569 259.999C371.461 259.195 371.221 258.559 370.849 258.091C370.489 257.611 369.943 257.371 369.211 257.371C368.467 257.371 367.915 257.611 367.555 258.091C367.195 258.559 366.955 259.195 366.835 259.999C366.727 260.803 366.673 261.703 366.673 262.699ZM380.694 258.217C380.694 257.509 380.622 256.849 380.478 256.237C380.346 255.625 380.118 255.091 379.794 254.635C380.202 254.287 380.712 253.999 381.324 253.771C381.936 253.543 382.596 253.429 383.304 253.429C384.432 253.429 385.212 253.729 385.644 254.329C386.088 254.929 386.31 255.787 386.31 256.903V264.571C386.31 265.387 386.418 265.987 386.634 266.371C386.85 266.755 387.258 266.947 387.858 266.947C388.218 266.947 388.638 266.857 389.118 266.677C389.598 266.485 390.072 266.173 390.54 265.741V253.717C390.924 253.645 391.368 253.591 391.872 253.555C392.376 253.519 392.868 253.501 393.348 253.501C393.816 253.501 394.296 253.519 394.788 253.555C395.292 253.591 395.748 253.645 396.156 253.717V266.551C396.156 267.127 396.246 267.649 396.426 268.117C396.618 268.585 396.864 268.927 397.164 269.143C397.068 269.647 396.846 270.175 396.498 270.727C396.15 271.279 395.802 271.693 395.454 271.969C394.434 271.945 393.564 271.705 392.844 271.249C392.136 270.781 391.59 270.175 391.206 269.431C390.438 270.127 389.61 270.733 388.722 271.249C387.834 271.753 386.838 272.005 385.734 272.005C384.09 272.005 382.836 271.405 381.972 270.205C381.12 269.005 380.694 267.469 380.694 265.597V258.217ZM407.444 262.915C407.444 260.851 407.768 259.111 408.416 257.695C409.076 256.267 409.952 255.187 411.044 254.455C412.136 253.723 413.342 253.357 414.662 253.357C415.286 253.357 415.868 253.429 416.408 253.573C416.96 253.717 417.482 253.903 417.974 254.131V245.437L418.226 245.185H420.422C421.526 245.185 422.306 245.437 422.762 245.941C423.23 246.445 423.464 247.321 423.464 248.569V266.479C423.464 267.055 423.554 267.577 423.734 268.045C423.926 268.513 424.172 268.861 424.472 269.089C424.364 269.581 424.136 270.115 423.788 270.691C423.452 271.267 423.11 271.693 422.762 271.969C421.862 271.945 421.088 271.759 420.44 271.411C419.804 271.051 419.288 270.571 418.892 269.971C418.268 270.631 417.53 271.171 416.678 271.591C415.826 272.011 414.902 272.221 413.906 272.221C412.442 272.221 411.23 271.825 410.27 271.033C409.322 270.241 408.614 269.149 408.146 267.757C407.678 266.353 407.444 264.739 407.444 262.915ZM413.204 262.951C413.204 264.619 413.408 265.831 413.816 266.587C414.224 267.331 414.74 267.703 415.364 267.703C415.724 267.703 416.138 267.607 416.606 267.415C417.074 267.223 417.53 266.851 417.974 266.299V258.379C417.554 258.127 417.146 257.923 416.75 257.767C416.354 257.611 415.982 257.533 415.634 257.533C414.77 257.533 414.146 258.019 413.762 258.991C413.39 259.963 413.204 261.283 413.204 262.951ZM443.375 262.699C443.375 265.579 442.667 267.889 441.251 269.629C439.835 271.357 437.771 272.221 435.059 272.221C432.311 272.221 430.235 271.351 428.831 269.611C427.439 267.871 426.743 265.567 426.743 262.699C426.743 259.807 427.451 257.497 428.867 255.769C430.283 254.041 432.347 253.177 435.059 253.177C437.795 253.177 439.865 254.047 441.269 255.787C442.673 257.527 443.375 259.831 443.375 262.699ZM432.521 262.699C432.521 263.683 432.575 264.577 432.683 265.381C432.803 266.185 433.043 266.827 433.403 267.307C433.763 267.775 434.315 268.009 435.059 268.009C435.791 268.009 436.337 267.775 436.697 267.307C437.069 266.827 437.309 266.185 437.417 265.381C437.537 264.577 437.597 263.683 437.597 262.699C437.597 261.703 437.537 260.803 437.417 259.999C437.309 259.195 437.069 258.559 436.697 258.091C436.337 257.611 435.791 257.371 435.059 257.371C434.315 257.371 433.763 257.611 433.403 258.091C433.043 258.559 432.803 259.195 432.683 259.999C432.575 260.803 432.521 261.703 432.521 262.699ZM470.004 267.181C470.004 267.889 470.07 268.549 470.202 269.161C470.334 269.761 470.568 270.295 470.904 270.763C470.484 271.111 469.968 271.399 469.356 271.627C468.744 271.855 468.09 271.969 467.394 271.969C466.266 271.969 465.48 271.669 465.036 271.069C464.592 270.469 464.37 269.605 464.37 268.477V260.827C464.37 260.011 464.262 259.411 464.046 259.027C463.842 258.631 463.44 258.433 462.84 258.433C462.48 258.433 462.06 258.529 461.58 258.721C461.1 258.913 460.626 259.225 460.158 259.657V271.681C459.762 271.753 459.312 271.807 458.808 271.843C458.316 271.879 457.83 271.897 457.35 271.897C456.882 271.897 456.396 271.879 455.892 271.843C455.388 271.807 454.932 271.753 454.524 271.681V253.717L454.776 253.465H456.9C457.668 253.465 458.298 253.657 458.79 254.041C459.294 254.413 459.66 254.935 459.888 255.607C460.596 254.995 461.364 254.473 462.192 254.041C463.02 253.609 463.944 253.393 464.964 253.393C466.608 253.393 467.856 253.993 468.708 255.193C469.572 256.381 470.004 257.917 470.004 259.801V267.181ZM489.781 262.699C489.781 265.579 489.073 267.889 487.657 269.629C486.241 271.357 484.177 272.221 481.465 272.221C478.717 272.221 476.641 271.351 475.237 269.611C473.845 267.871 473.149 265.567 473.149 262.699C473.149 259.807 473.857 257.497 475.273 255.769C476.689 254.041 478.753 253.177 481.465 253.177C484.201 253.177 486.271 254.047 487.675 255.787C489.079 257.527 489.781 259.831 489.781 262.699ZM478.927 262.699C478.927 263.683 478.981 264.577 479.089 265.381C479.209 266.185 479.449 266.827 479.809 267.307C480.169 267.775 480.721 268.009 481.465 268.009C482.197 268.009 482.743 267.775 483.103 267.307C483.475 266.827 483.715 266.185 483.823 265.381C483.943 264.577 484.003 263.683 484.003 262.699C484.003 261.703 483.943 260.803 483.823 259.999C483.715 259.195 483.475 258.559 483.103 258.091C482.743 257.611 482.197 257.371 481.465 257.371C480.721 257.371 480.169 257.611 479.809 258.091C479.449 258.559 479.209 259.195 479.089 259.999C478.981 260.803 478.927 261.703 478.927 262.699ZM493.741 251.683C493.741 250.423 493.969 249.547 494.425 249.055C494.893 248.551 495.679 248.299 496.783 248.299H498.979L499.231 248.551V253.735L503.497 253.681C503.665 254.317 503.749 254.971 503.749 255.643C503.749 256.387 503.665 257.065 503.497 257.677L499.231 257.605V265.885C499.231 267.013 499.765 267.577 500.833 267.577H502.849C503.149 268.441 503.299 269.329 503.299 270.241C503.299 270.445 503.287 270.661 503.263 270.889C503.239 271.117 503.203 271.321 503.155 271.501C502.495 271.597 501.733 271.681 500.869 271.753C500.005 271.825 499.213 271.861 498.493 271.861C496.861 271.861 495.661 271.459 494.893 270.655C494.125 269.839 493.741 268.573 493.741 266.857V257.623L490.915 257.677C490.759 257.065 490.681 256.387 490.681 255.643C490.681 254.971 490.759 254.317 490.915 253.681L493.741 253.717V251.683ZM244.084 315.681C243.688 315.753 243.244 315.807 242.752 315.843C242.26 315.879 241.774 315.897 241.294 315.897C240.31 315.897 239.404 315.825 238.576 315.681V289.437L238.828 289.185H241.024C242.128 289.185 242.914 289.437 243.382 289.941C243.85 290.445 244.084 291.321 244.084 292.569V303.873H244.642C244.894 303.873 245.092 303.831 245.236 303.747C245.38 303.663 245.524 303.495 245.668 303.243L247.54 299.625C247.876 298.941 248.29 298.431 248.782 298.095C249.286 297.747 249.916 297.573 250.672 297.573C251.272 297.573 251.818 297.579 252.31 297.591C252.802 297.603 253.306 297.621 253.822 297.645L254.038 297.933L251.266 303.297C250.81 304.185 250.192 304.887 249.412 305.403C250.108 305.655 250.708 306.039 251.212 306.555C251.728 307.059 252.118 307.713 252.382 308.517L253.264 311.145C253.564 312.081 253.834 312.759 254.074 313.179C254.314 313.599 254.62 313.941 254.992 314.205C254.548 314.709 253.99 315.129 253.318 315.465C252.646 315.801 251.944 315.969 251.212 315.969C250.408 315.969 249.802 315.777 249.394 315.393C248.998 315.009 248.65 314.367 248.35 313.467L247.288 310.353C247.036 309.585 246.748 309.081 246.424 308.841C246.1 308.601 245.692 308.481 245.2 308.481C244.816 308.481 244.444 308.493 244.084 308.517V315.681ZM272.9 311.181C272.9 311.889 272.966 312.549 273.098 313.161C273.23 313.761 273.464 314.295 273.8 314.763C273.38 315.111 272.864 315.399 272.252 315.627C271.64 315.855 270.986 315.969 270.29 315.969C269.162 315.969 268.376 315.669 267.932 315.069C267.488 314.469 267.266 313.605 267.266 312.477V304.827C267.266 304.011 267.158 303.411 266.942 303.027C266.738 302.631 266.336 302.433 265.736 302.433C265.376 302.433 264.956 302.529 264.476 302.721C263.996 302.913 263.522 303.225 263.054 303.657V315.681C262.658 315.753 262.208 315.807 261.704 315.843C261.212 315.879 260.726 315.897 260.246 315.897C259.778 315.897 259.292 315.879 258.788 315.843C258.284 315.807 257.828 315.753 257.42 315.681V297.717L257.672 297.465H259.796C260.564 297.465 261.194 297.657 261.686 298.041C262.19 298.413 262.556 298.935 262.784 299.607C263.492 298.995 264.26 298.473 265.088 298.041C265.916 297.609 266.84 297.393 267.86 297.393C269.504 297.393 270.752 297.993 271.604 299.193C272.468 300.381 272.9 301.917 272.9 303.801V311.181ZM292.678 306.699C292.678 309.579 291.97 311.889 290.554 313.629C289.138 315.357 287.074 316.221 284.362 316.221C281.614 316.221 279.538 315.351 278.134 313.611C276.742 311.871 276.046 309.567 276.046 306.699C276.046 303.807 276.754 301.497 278.17 299.769C279.586 298.041 281.65 297.177 284.362 297.177C287.098 297.177 289.168 298.047 290.572 299.787C291.976 301.527 292.678 303.831 292.678 306.699ZM281.824 306.699C281.824 307.683 281.878 308.577 281.986 309.381C282.106 310.185 282.346 310.827 282.706 311.307C283.066 311.775 283.618 312.009 284.362 312.009C285.094 312.009 285.64 311.775 286 311.307C286.372 310.827 286.612 310.185 286.72 309.381C286.84 308.577 286.9 307.683 286.9 306.699C286.9 305.703 286.84 304.803 286.72 303.999C286.612 303.195 286.372 302.559 286 302.091C285.64 301.611 285.094 301.371 284.362 301.371C283.618 301.371 283.066 301.611 282.706 302.091C282.346 302.559 282.106 303.195 281.986 303.999C281.878 304.803 281.824 305.703 281.824 306.699ZM293.901 298.059C295.029 297.615 296.073 297.393 297.033 297.393C297.933 297.393 298.563 297.603 298.923 298.023C299.295 298.443 299.559 299.031 299.715 299.787L300.831 305.601C301.323 308.013 301.635 309.891 301.767 311.235C301.803 311.427 301.899 311.523 302.055 311.523L304.035 297.915C304.479 297.807 305.043 297.735 305.727 297.699C306.411 297.651 306.927 297.627 307.275 297.627C307.647 297.627 308.187 297.651 308.895 297.699C309.615 297.735 310.185 297.807 310.605 297.915L312.639 311.235C312.675 311.427 312.771 311.523 312.927 311.523C313.047 310.695 313.185 309.783 313.341 308.787C313.509 307.779 313.701 306.717 313.917 305.601L315.519 297.735C315.831 297.651 316.185 297.591 316.581 297.555C316.977 297.519 317.337 297.501 317.661 297.501C318.045 297.501 318.537 297.531 319.137 297.591C319.749 297.651 320.253 297.777 320.649 297.969L320.811 298.311L316.617 315.681C316.053 315.765 315.387 315.819 314.619 315.843C313.851 315.879 313.137 315.897 312.477 315.897C311.397 315.897 310.575 315.747 310.011 315.447C309.459 315.147 309.105 314.445 308.949 313.341L308.337 309.471C308.205 308.583 308.049 307.545 307.869 306.357C307.701 305.157 307.551 303.933 307.419 302.685H307.203C307.059 303.909 306.897 305.115 306.717 306.303C306.549 307.479 306.399 308.511 306.267 309.399L305.259 315.681C304.671 315.753 303.981 315.807 303.189 315.843C302.409 315.879 301.683 315.897 301.011 315.897C299.955 315.897 299.151 315.729 298.599 315.393C298.047 315.045 297.645 314.337 297.393 313.269L293.901 298.059ZM342.126 315.195C341.694 316.839 341.148 318.285 340.488 319.533C339.828 320.793 338.928 321.777 337.788 322.485C336.648 323.205 335.148 323.565 333.288 323.565C332.568 323.565 331.782 323.487 330.93 323.331C330.078 323.175 329.406 323.007 328.914 322.827C328.842 322.191 328.92 321.471 329.148 320.667C329.376 319.863 329.676 319.245 330.048 318.813C330.432 318.933 330.918 319.053 331.506 319.173C332.094 319.305 332.688 319.371 333.288 319.371C334.2 319.371 334.944 319.113 335.52 318.597C336.108 318.081 336.54 317.367 336.816 316.455L336.96 315.933C335.988 315.921 335.178 315.753 334.53 315.429C333.882 315.105 333.444 314.517 333.216 313.665L329.022 298.149C329.598 297.897 330.204 297.711 330.84 297.591C331.476 297.459 332.028 297.393 332.496 297.393C333.18 297.393 333.744 297.561 334.188 297.897C334.644 298.233 334.986 298.869 335.214 299.805L336.906 306.735C337.014 307.131 337.116 307.629 337.212 308.229C337.32 308.817 337.416 309.405 337.5 309.993C337.584 310.569 337.65 311.055 337.698 311.451C337.734 311.619 337.836 311.703 338.004 311.703L341.136 297.735C341.448 297.651 341.808 297.591 342.216 297.555C342.624 297.519 343.002 297.501 343.35 297.501C343.83 297.501 344.322 297.531 344.826 297.591C345.342 297.639 345.852 297.747 346.356 297.915L346.572 298.293L342.126 315.195ZM364.045 306.699C364.045 309.579 363.337 311.889 361.921 313.629C360.505 315.357 358.441 316.221 355.729 316.221C352.981 316.221 350.905 315.351 349.501 313.611C348.109 311.871 347.413 309.567 347.413 306.699C347.413 303.807 348.121 301.497 349.537 299.769C350.953 298.041 353.017 297.177 355.729 297.177C358.465 297.177 360.535 298.047 361.939 299.787C363.343 301.527 364.045 303.831 364.045 306.699ZM353.191 306.699C353.191 307.683 353.245 308.577 353.353 309.381C353.473 310.185 353.713 310.827 354.073 311.307C354.433 311.775 354.985 312.009 355.729 312.009C356.461 312.009 357.007 311.775 357.367 311.307C357.739 310.827 357.979 310.185 358.087 309.381C358.207 308.577 358.267 307.683 358.267 306.699C358.267 305.703 358.207 304.803 358.087 303.999C357.979 303.195 357.739 302.559 357.367 302.091C357.007 301.611 356.461 301.371 355.729 301.371C354.985 301.371 354.433 301.611 354.073 302.091C353.713 302.559 353.473 303.195 353.353 303.999C353.245 304.803 353.191 305.703 353.191 306.699ZM367.211 302.217C367.211 301.509 367.139 300.849 366.995 300.237C366.863 299.625 366.635 299.091 366.311 298.635C366.719 298.287 367.229 297.999 367.841 297.771C368.453 297.543 369.113 297.429 369.821 297.429C370.949 297.429 371.729 297.729 372.161 298.329C372.605 298.929 372.827 299.787 372.827 300.903V308.571C372.827 309.387 372.935 309.987 373.151 310.371C373.367 310.755 373.775 310.947 374.375 310.947C374.735 310.947 375.155 310.857 375.635 310.677C376.115 310.485 376.589 310.173 377.057 309.741V297.717C377.441 297.645 377.885 297.591 378.389 297.555C378.893 297.519 379.385 297.501 379.865 297.501C380.333 297.501 380.813 297.519 381.305 297.555C381.809 297.591 382.265 297.645 382.673 297.717V310.551C382.673 311.127 382.763 311.649 382.943 312.117C383.135 312.585 383.381 312.927 383.681 313.143C383.585 313.647 383.363 314.175 383.015 314.727C382.667 315.279 382.319 315.693 381.971 315.969C380.951 315.945 380.081 315.705 379.361 315.249C378.653 314.781 378.107 314.175 377.723 313.431C376.955 314.127 376.127 314.733 375.239 315.249C374.351 315.753 373.355 316.005 372.251 316.005C370.607 316.005 369.353 315.405 368.489 314.205C367.637 313.005 367.211 311.469 367.211 309.597V302.217ZM401.872 306.915C401.872 304.851 402.196 303.111 402.844 301.695C403.504 300.267 404.38 299.187 405.472 298.455C406.564 297.723 407.77 297.357 409.09 297.357C409.714 297.357 410.296 297.429 410.836 297.573C411.388 297.717 411.91 297.903 412.402 298.131V289.437L412.654 289.185H414.85C415.954 289.185 416.734 289.437 417.19 289.941C417.658 290.445 417.892 291.321 417.892 292.569V310.479C417.892 311.055 417.982 311.577 418.162 312.045C418.354 312.513 418.6 312.861 418.9 313.089C418.792 313.581 418.564 314.115 418.216 314.691C417.88 315.267 417.538 315.693 417.19 315.969C416.29 315.945 415.516 315.759 414.868 315.411C414.232 315.051 413.716 314.571 413.32 313.971C412.696 314.631 411.958 315.171 411.106 315.591C410.254 316.011 409.33 316.221 408.334 316.221C406.87 316.221 405.658 315.825 404.698 315.033C403.75 314.241 403.042 313.149 402.574 311.757C402.106 310.353 401.872 308.739 401.872 306.915ZM407.632 306.951C407.632 308.619 407.836 309.831 408.244 310.587C408.652 311.331 409.168 311.703 409.792 311.703C410.152 311.703 410.566 311.607 411.034 311.415C411.502 311.223 411.958 310.851 412.402 310.299V302.379C411.982 302.127 411.574 301.923 411.178 301.767C410.782 301.611 410.41 301.533 410.062 301.533C409.198 301.533 408.574 302.019 408.19 302.991C407.818 303.963 407.632 305.283 407.632 306.951ZM437.803 306.699C437.803 309.579 437.095 311.889 435.679 313.629C434.263 315.357 432.199 316.221 429.487 316.221C426.739 316.221 424.663 315.351 423.259 313.611C421.867 311.871 421.171 309.567 421.171 306.699C421.171 303.807 421.879 301.497 423.295 299.769C424.711 298.041 426.775 297.177 429.487 297.177C432.223 297.177 434.293 298.047 435.697 299.787C437.101 301.527 437.803 303.831 437.803 306.699ZM426.949 306.699C426.949 307.683 427.003 308.577 427.111 309.381C427.231 310.185 427.471 310.827 427.831 311.307C428.191 311.775 428.743 312.009 429.487 312.009C430.219 312.009 430.765 311.775 431.125 311.307C431.497 310.827 431.737 310.185 431.845 309.381C431.965 308.577 432.025 307.683 432.025 306.699C432.025 305.703 431.965 304.803 431.845 303.999C431.737 303.195 431.497 302.559 431.125 302.091C430.765 301.611 430.219 301.371 429.487 301.371C428.743 301.371 428.191 301.611 427.831 302.091C427.471 302.559 427.231 303.195 427.111 303.999C427.003 304.803 426.949 305.703 426.949 306.699ZM464.431 311.181C464.431 311.889 464.497 312.549 464.629 313.161C464.761 313.761 464.995 314.295 465.331 314.763C464.911 315.111 464.395 315.399 463.783 315.627C463.171 315.855 462.517 315.969 461.821 315.969C460.693 315.969 459.907 315.669 459.463 315.069C459.019 314.469 458.797 313.605 458.797 312.477V304.827C458.797 304.011 458.689 303.411 458.473 303.027C458.269 302.631 457.867 302.433 457.267 302.433C456.907 302.433 456.487 302.529 456.007 302.721C455.527 302.913 455.053 303.225 454.585 303.657V315.681C454.189 315.753 453.739 315.807 453.235 315.843C452.743 315.879 452.257 315.897 451.777 315.897C451.309 315.897 450.823 315.879 450.319 315.843C449.815 315.807 449.359 315.753 448.951 315.681V297.717L449.203 297.465H451.327C452.095 297.465 452.725 297.657 453.217 298.041C453.721 298.413 454.087 298.935 454.315 299.607C455.023 298.995 455.791 298.473 456.619 298.041C457.447 297.609 458.371 297.393 459.391 297.393C461.035 297.393 462.283 297.993 463.135 299.193C463.999 300.381 464.431 301.917 464.431 303.801V311.181ZM484.209 306.699C484.209 309.579 483.501 311.889 482.085 313.629C480.669 315.357 478.605 316.221 475.893 316.221C473.145 316.221 471.069 315.351 469.665 313.611C468.273 311.871 467.577 309.567 467.577 306.699C467.577 303.807 468.285 301.497 469.701 299.769C471.117 298.041 473.181 297.177 475.893 297.177C478.629 297.177 480.699 298.047 482.103 299.787C483.507 301.527 484.209 303.831 484.209 306.699ZM473.355 306.699C473.355 307.683 473.409 308.577 473.517 309.381C473.637 310.185 473.877 310.827 474.237 311.307C474.597 311.775 475.149 312.009 475.893 312.009C476.625 312.009 477.171 311.775 477.531 311.307C477.903 310.827 478.143 310.185 478.251 309.381C478.371 308.577 478.431 307.683 478.431 306.699C478.431 305.703 478.371 304.803 478.251 303.999C478.143 303.195 477.903 302.559 477.531 302.091C477.171 301.611 476.625 301.371 475.893 301.371C475.149 301.371 474.597 301.611 474.237 302.091C473.877 302.559 473.637 303.195 473.517 303.999C473.409 304.803 473.355 305.703 473.355 306.699ZM488.168 295.683C488.168 294.423 488.396 293.547 488.852 293.055C489.32 292.551 490.106 292.299 491.21 292.299H493.406L493.658 292.551V297.735L497.924 297.681C498.092 298.317 498.176 298.971 498.176 299.643C498.176 300.387 498.092 301.065 497.924 301.677L493.658 301.605V309.885C493.658 311.013 494.192 311.577 495.26 311.577H497.276C497.576 312.441 497.726 313.329 497.726 314.241C497.726 314.445 497.714 314.661 497.69 314.889C497.666 315.117 497.63 315.321 497.582 315.501C496.922 315.597 496.16 315.681 495.296 315.753C494.432 315.825 493.64 315.861 492.92 315.861C491.288 315.861 490.088 315.459 489.32 314.655C488.552 313.839 488.168 312.573 488.168 310.857V301.623L485.342 301.677C485.186 301.065 485.108 300.387 485.108 299.643C485.108 298.971 485.186 298.317 485.342 297.681L488.168 297.717V295.683ZM332.977 359.681C332.581 359.753 332.137 359.807 331.645 359.843C331.153 359.879 330.667 359.897 330.187 359.897C329.203 359.897 328.297 359.825 327.469 359.681V333.437L327.721 333.185H329.917C331.021 333.185 331.807 333.437 332.275 333.941C332.743 334.445 332.977 335.321 332.977 336.569V347.873H333.535C333.787 347.873 333.985 347.831 334.129 347.747C334.273 347.663 334.417 347.495 334.561 347.243L336.433 343.625C336.769 342.941 337.183 342.431 337.675 342.095C338.179 341.747 338.809 341.573 339.565 341.573C340.165 341.573 340.711 341.579 341.203 341.591C341.695 341.603 342.199 341.621 342.715 341.645L342.931 341.933L340.159 347.297C339.703 348.185 339.085 348.887 338.305 349.403C339.001 349.655 339.601 350.039 340.105 350.555C340.621 351.059 341.011 351.713 341.275 352.517L342.157 355.145C342.457 356.081 342.727 356.759 342.967 357.179C343.207 357.599 343.513 357.941 343.885 358.205C343.441 358.709 342.883 359.129 342.211 359.465C341.539 359.801 340.837 359.969 340.105 359.969C339.301 359.969 338.695 359.777 338.287 359.393C337.891 359.009 337.543 358.367 337.243 357.467L336.181 354.353C335.929 353.585 335.641 353.081 335.317 352.841C334.993 352.601 334.585 352.481 334.093 352.481C333.709 352.481 333.337 352.493 332.977 352.517V359.681ZM361.793 355.181C361.793 355.889 361.859 356.549 361.991 357.161C362.123 357.761 362.357 358.295 362.693 358.763C362.273 359.111 361.757 359.399 361.145 359.627C360.533 359.855 359.879 359.969 359.183 359.969C358.055 359.969 357.269 359.669 356.825 359.069C356.381 358.469 356.159 357.605 356.159 356.477V348.827C356.159 348.011 356.051 347.411 355.835 347.027C355.631 346.631 355.229 346.433 354.629 346.433C354.269 346.433 353.849 346.529 353.369 346.721C352.889 346.913 352.415 347.225 351.947 347.657V359.681C351.551 359.753 351.101 359.807 350.597 359.843C350.105 359.879 349.619 359.897 349.139 359.897C348.671 359.897 348.185 359.879 347.681 359.843C347.177 359.807 346.721 359.753 346.313 359.681V341.717L346.565 341.465H348.689C349.457 341.465 350.087 341.657 350.579 342.041C351.083 342.413 351.449 342.935 351.677 343.607C352.385 342.995 353.153 342.473 353.981 342.041C354.809 341.609 355.733 341.393 356.753 341.393C358.397 341.393 359.645 341.993 360.497 343.193C361.361 344.381 361.793 345.917 361.793 347.801V355.181ZM381.57 350.699C381.57 353.579 380.862 355.889 379.446 357.629C378.03 359.357 375.966 360.221 373.254 360.221C370.506 360.221 368.43 359.351 367.026 357.611C365.634 355.871 364.938 353.567 364.938 350.699C364.938 347.807 365.646 345.497 367.062 343.769C368.478 342.041 370.542 341.177 373.254 341.177C375.99 341.177 378.06 342.047 379.464 343.787C380.868 345.527 381.57 347.831 381.57 350.699ZM370.716 350.699C370.716 351.683 370.77 352.577 370.878 353.381C370.998 354.185 371.238 354.827 371.598 355.307C371.958 355.775 372.51 356.009 373.254 356.009C373.986 356.009 374.532 355.775 374.892 355.307C375.264 354.827 375.504 354.185 375.612 353.381C375.732 352.577 375.792 351.683 375.792 350.699C375.792 349.703 375.732 348.803 375.612 347.999C375.504 347.195 375.264 346.559 374.892 346.091C374.532 345.611 373.986 345.371 373.254 345.371C372.51 345.371 371.958 345.611 371.598 346.091C371.238 346.559 370.998 347.195 370.878 347.999C370.77 348.803 370.716 349.703 370.716 350.699ZM382.794 342.059C383.922 341.615 384.966 341.393 385.926 341.393C386.826 341.393 387.456 341.603 387.816 342.023C388.188 342.443 388.452 343.031 388.608 343.787L389.724 349.601C390.216 352.013 390.528 353.891 390.66 355.235C390.696 355.427 390.792 355.523 390.948 355.523L392.928 341.915C393.372 341.807 393.936 341.735 394.62 341.699C395.304 341.651 395.82 341.627 396.168 341.627C396.54 341.627 397.08 341.651 397.788 341.699C398.508 341.735 399.078 341.807 399.498 341.915L401.532 355.235C401.568 355.427 401.664 355.523 401.82 355.523C401.94 354.695 402.078 353.783 402.234 352.787C402.402 351.779 402.594 350.717 402.81 349.601L404.412 341.735C404.724 341.651 405.078 341.591 405.474 341.555C405.87 341.519 406.23 341.501 406.554 341.501C406.938 341.501 407.43 341.531 408.03 341.591C408.642 341.651 409.146 341.777 409.542 341.969L409.704 342.311L405.51 359.681C404.946 359.765 404.28 359.819 403.512 359.843C402.744 359.879 402.03 359.897 401.37 359.897C400.29 359.897 399.468 359.747 398.904 359.447C398.352 359.147 397.998 358.445 397.842 357.341L397.23 353.471C397.098 352.583 396.942 351.545 396.762 350.357C396.594 349.157 396.444 347.933 396.312 346.685H396.096C395.952 347.909 395.79 349.115 395.61 350.303C395.442 351.479 395.292 352.511 395.16 353.399L394.152 359.681C393.564 359.753 392.874 359.807 392.082 359.843C391.302 359.879 390.576 359.897 389.904 359.897C388.848 359.897 388.044 359.729 387.492 359.393C386.94 359.045 386.538 358.337 386.286 357.269L382.794 342.059Z" fill="black"/>
</g>
</g>
<g filter="url(#filter2_i)">
<path d="M636 230L794.728 612H985.203L1127 230H636Z" fill="#C4C4C4" fill-opacity="0.5" stroke="black"/>
<g filter="url(#filter3_i)">
<path d="M777.833 340.708C777.833 340.052 777.841 339.468 777.857 338.956C777.873 338.428 777.881 337.828 777.881 337.156H777.833C777.481 337.156 776.977 337.164 776.321 337.18C775.665 337.196 775.161 337.204 774.809 337.204H769.841C769.729 336.628 769.657 336.068 769.625 335.524C769.593 334.964 769.577 334.468 769.577 334.036C769.577 333.588 769.593 333.084 769.625 332.524C769.657 331.964 769.729 331.396 769.841 330.82H793.601C793.713 331.22 793.801 331.692 793.865 332.236C793.945 332.764 793.985 333.276 793.985 333.772C793.985 335.02 793.657 335.908 793.001 336.436C792.361 336.948 791.353 337.204 789.977 337.204H788.561C788.209 337.204 787.705 337.196 787.049 337.18C786.393 337.164 785.889 337.156 785.537 337.156H785.489C785.489 337.828 785.497 338.428 785.513 338.956C785.529 339.468 785.537 340.052 785.537 340.708V363.604C784.881 363.716 784.209 363.788 783.521 363.82C782.833 363.868 782.225 363.892 781.697 363.892C781.153 363.892 780.537 363.868 779.849 363.82C779.161 363.788 778.489 363.716 777.833 363.604V340.708ZM804.078 363.604C803.022 363.796 801.782 363.892 800.358 363.892C799.078 363.892 797.87 363.796 796.734 363.604V328.612L797.07 328.276H799.998C801.47 328.276 802.518 328.612 803.142 329.284C803.766 329.956 804.078 331.124 804.078 332.788V341.86C804.974 341.124 805.942 340.5 806.982 339.988C808.038 339.476 809.206 339.22 810.486 339.22C812.678 339.22 814.342 340.02 815.478 341.62C816.63 343.204 817.206 345.252 817.206 347.764V357.604C817.206 358.548 817.294 359.428 817.47 360.244C817.646 361.044 817.95 361.756 818.382 362.38C817.838 362.844 817.158 363.228 816.342 363.532C815.526 363.836 814.646 363.988 813.702 363.988C812.198 363.988 811.15 363.588 810.558 362.788C809.982 361.988 809.694 360.836 809.694 359.332V349.132C809.694 348.044 809.55 347.244 809.262 346.732C808.974 346.204 808.43 345.94 807.63 345.94C807.15 345.94 806.59 346.068 805.95 346.324C805.31 346.58 804.686 346.996 804.078 347.572V363.604ZM831.437 363.604C830.909 363.7 830.309 363.772 829.637 363.82C828.981 363.868 828.333 363.892 827.693 363.892C827.069 363.892 826.421 363.868 825.749 363.82C825.093 363.772 824.485 363.7 823.925 363.604V347.716C823.925 346.916 823.757 346.252 823.421 345.724C823.101 345.196 822.517 344.932 821.669 344.932H820.949C820.741 344.148 820.637 343.3 820.637 342.388C820.637 341.972 820.661 341.532 820.709 341.068C820.757 340.588 820.837 340.132 820.949 339.7C821.685 339.62 822.437 339.564 823.205 339.532C823.989 339.484 824.645 339.46 825.173 339.46H826.205C827.805 339.46 829.077 339.98 830.021 341.02C830.965 342.044 831.437 343.436 831.437 345.196V363.604ZM822.485 332.908C822.485 331.916 822.669 330.98 823.037 330.1C823.453 329.892 823.989 329.716 824.645 329.572C825.317 329.428 825.973 329.356 826.613 329.356C827.253 329.356 827.917 329.428 828.605 329.572C829.293 329.716 829.821 329.892 830.189 330.1C830.365 330.548 830.501 331.02 830.597 331.516C830.693 332.012 830.741 332.476 830.741 332.908C830.741 333.884 830.557 334.812 830.189 335.692C829.821 335.9 829.293 336.076 828.605 336.22C827.917 336.364 827.253 336.436 826.613 336.436C825.973 336.436 825.309 336.372 824.621 336.244C823.949 336.1 823.421 335.916 823.037 335.692C822.669 334.812 822.485 333.884 822.485 332.908ZM857.733 357.604C857.733 358.548 857.821 359.428 857.997 360.244C858.173 361.044 858.485 361.756 858.933 362.38C858.373 362.844 857.685 363.228 856.869 363.532C856.053 363.836 855.181 363.988 854.253 363.988C852.749 363.988 851.701 363.588 851.109 362.788C850.517 361.988 850.221 360.836 850.221 359.332V349.132C850.221 348.044 850.077 347.244 849.789 346.732C849.517 346.204 848.981 345.94 848.181 345.94C847.701 345.94 847.141 346.068 846.501 346.324C845.861 346.58 845.229 346.996 844.605 347.572V363.604C844.077 363.7 843.477 363.772 842.805 363.82C842.149 363.868 841.501 363.892 840.861 363.892C840.237 363.892 839.589 363.868 838.917 363.82C838.245 363.772 837.637 363.7 837.093 363.604V339.652L837.429 339.316H840.261C841.285 339.316 842.125 339.572 842.781 340.084C843.453 340.58 843.941 341.276 844.245 342.172C845.189 341.356 846.213 340.66 847.317 340.084C848.421 339.508 849.653 339.22 851.013 339.22C853.205 339.22 854.869 340.02 856.005 341.62C857.157 343.204 857.733 345.252 857.733 347.764V357.604ZM862.023 351.676C862.023 348.924 862.455 346.604 863.319 344.716C864.199 342.812 865.367 341.372 866.823 340.396C868.295 339.42 869.903 338.932 871.647 338.932C873.055 338.932 874.271 339.148 875.295 339.58C876.335 340.012 877.215 340.54 877.935 341.164C878.463 340.588 879.103 340.132 879.855 339.796C880.623 339.46 881.503 339.284 882.495 339.268C882.959 339.636 883.431 340.204 883.911 340.972C884.391 341.724 884.679 342.436 884.775 343.108C884.375 343.396 884.047 343.86 883.791 344.5C883.551 345.124 883.431 345.812 883.431 346.564V359.236C883.431 361.476 883.327 363.324 883.119 364.78C882.927 366.236 882.647 367.428 882.279 368.356C881.911 369.284 881.471 370.068 880.959 370.708C880.015 371.908 878.759 372.788 877.191 373.348C875.623 373.924 873.879 374.212 871.959 374.212C870.455 374.212 868.887 374.06 867.255 373.756C865.623 373.468 864.183 373.092 862.935 372.628C862.935 371.748 863.111 370.78 863.463 369.724C863.815 368.668 864.255 367.828 864.783 367.204C866.943 368.164 869.103 368.644 871.263 368.644C873.023 368.644 874.271 368.196 875.007 367.3C875.743 366.42 876.111 365.244 876.111 363.772V362.236C875.343 362.796 874.487 363.244 873.543 363.58C872.615 363.916 871.655 364.084 870.663 364.084C868.711 364.084 867.095 363.556 865.815 362.5C864.535 361.444 863.583 359.988 862.959 358.132C862.335 356.26 862.023 354.108 862.023 351.676ZM869.703 351.724C869.703 353.948 869.967 355.564 870.495 356.572C871.039 357.564 871.719 358.06 872.535 358.06C873.847 358.06 875.039 357.508 876.111 356.404V346.468C876.111 346.356 876.119 346.244 876.135 346.132C874.999 345.044 873.943 344.5 872.967 344.5C871.799 344.5 870.959 345.148 870.447 346.444C869.951 347.724 869.703 349.484 869.703 351.724ZM887.158 361.948C887.19 361.148 887.406 360.252 887.806 359.26C888.222 358.268 888.702 357.484 889.246 356.908C890.302 357.452 891.39 357.924 892.51 358.324C893.646 358.708 894.774 358.9 895.894 358.9C896.822 358.9 897.518 358.74 897.982 358.42C898.462 358.1 898.702 357.7 898.702 357.22C898.702 356.292 897.974 355.564 896.518 355.036L893.854 354.076C892.158 353.452 890.734 352.58 889.582 351.46C888.43 350.324 887.854 348.796 887.854 346.876C887.854 344.444 888.694 342.516 890.374 341.092C892.07 339.652 894.326 338.932 897.142 338.932C898.646 338.932 900.23 339.14 901.894 339.556C903.574 339.972 904.934 340.436 905.974 340.948C906.006 341.54 905.926 342.188 905.734 342.892C905.558 343.58 905.31 344.22 904.99 344.812C904.67 345.404 904.31 345.852 903.91 346.156C902.918 345.708 901.838 345.3 900.67 344.932C899.502 344.548 898.35 344.356 897.214 344.356C896.558 344.356 896.062 344.508 895.726 344.812C895.406 345.116 895.246 345.476 895.246 345.892C895.246 346.66 895.854 347.268 897.07 347.716L900.046 348.772C901.87 349.428 903.39 350.372 904.606 351.604C905.822 352.82 906.43 354.452 906.43 356.5C906.43 358.884 905.51 360.788 903.67 362.212C901.846 363.62 899.31 364.324 896.062 364.324C894.35 364.324 892.718 364.092 891.166 363.628C889.63 363.164 888.294 362.604 887.158 361.948ZM935.738 362.956C935.162 365.148 934.434 367.076 933.554 368.74C932.674 370.42 931.474 371.732 929.954 372.676C928.434 373.636 926.434 374.116 923.954 374.116C922.994 374.116 921.946 374.012 920.81 373.804C919.674 373.596 918.778 373.372 918.122 373.132C918.026 372.284 918.13 371.324 918.434 370.252C918.738 369.18 919.138 368.356 919.634 367.78C920.146 367.94 920.794 368.1 921.578 368.26C922.362 368.436 923.154 368.524 923.954 368.524C925.17 368.524 926.162 368.18 926.93 367.492C927.714 366.804 928.29 365.852 928.658 364.636L928.85 363.94C927.554 363.924 926.474 363.7 925.61 363.268C924.746 362.836 924.162 362.052 923.858 360.916L918.266 340.228C919.034 339.892 919.842 339.644 920.69 339.484C921.538 339.308 922.274 339.22 922.898 339.22C923.81 339.22 924.562 339.444 925.154 339.892C925.762 340.34 926.218 341.188 926.522 342.436L928.778 351.676C928.922 352.204 929.058 352.868 929.186 353.668C929.33 354.452 929.458 355.236 929.57 356.02C929.682 356.788 929.77 357.436 929.834 357.964C929.882 358.188 930.018 358.3 930.242 358.3L934.418 339.676C934.834 339.564 935.314 339.484 935.858 339.436C936.402 339.388 936.906 339.364 937.37 339.364C938.01 339.364 938.666 339.404 939.338 339.484C940.026 339.548 940.706 339.692 941.378 339.916L941.666 340.42L935.738 362.956ZM964.963 351.628C964.963 355.468 964.019 358.548 962.131 360.868C960.243 363.172 957.491 364.324 953.875 364.324C950.211 364.324 947.443 363.164 945.571 360.844C943.715 358.524 942.787 355.452 942.787 351.628C942.787 347.772 943.731 344.692 945.619 342.388C947.507 340.084 950.259 338.932 953.875 338.932C957.523 338.932 960.283 340.092 962.155 342.412C964.027 344.732 964.963 347.804 964.963 351.628ZM950.491 351.628C950.491 352.94 950.563 354.132 950.707 355.204C950.867 356.276 951.187 357.132 951.667 357.772C952.147 358.396 952.883 358.708 953.875 358.708C954.851 358.708 955.579 358.396 956.059 357.772C956.555 357.132 956.875 356.276 957.019 355.204C957.179 354.132 957.259 352.94 957.259 351.628C957.259 350.3 957.179 349.1 957.019 348.028C956.875 346.956 956.555 346.108 956.059 345.484C955.579 344.844 954.851 344.524 953.875 344.524C952.883 344.524 952.147 344.844 951.667 345.484C951.187 346.108 950.867 346.956 950.707 348.028C950.563 349.1 950.491 350.3 950.491 351.628ZM969.185 345.652C969.185 344.708 969.089 343.828 968.897 343.012C968.721 342.196 968.417 341.484 967.985 340.876C968.529 340.412 969.209 340.028 970.025 339.724C970.841 339.42 971.721 339.268 972.665 339.268C974.169 339.268 975.209 339.668 975.785 340.468C976.377 341.268 976.673 342.412 976.673 343.9V354.124C976.673 355.212 976.817 356.012 977.105 356.524C977.393 357.036 977.937 357.292 978.737 357.292C979.217 357.292 979.777 357.172 980.417 356.932C981.057 356.676 981.689 356.26 982.313 355.684V339.652C982.825 339.556 983.417 339.484 984.089 339.436C984.761 339.388 985.417 339.364 986.057 339.364C986.681 339.364 987.321 339.388 987.977 339.436C988.649 339.484 989.257 339.556 989.801 339.652V356.764C989.801 357.532 989.921 358.228 990.161 358.852C990.417 359.476 990.745 359.932 991.145 360.22C991.017 360.892 990.721 361.596 990.257 362.332C989.793 363.068 989.329 363.62 988.865 363.988C987.505 363.956 986.345 363.636 985.385 363.028C984.441 362.404 983.713 361.596 983.201 360.604C982.177 361.532 981.073 362.34 979.889 363.028C978.705 363.7 977.377 364.036 975.905 364.036C973.713 364.036 972.041 363.236 970.889 361.636C969.753 360.036 969.185 357.988 969.185 355.492V345.652ZM755.664 410.916C755.664 408.164 756.096 405.844 756.96 403.956C757.84 402.052 759.008 400.612 760.464 399.636C761.92 398.66 763.528 398.172 765.288 398.172C766.12 398.172 766.896 398.268 767.616 398.46C768.352 398.652 769.048 398.9 769.704 399.204V387.612L770.04 387.276H772.968C774.44 387.276 775.48 387.612 776.088 388.284C776.712 388.956 777.024 390.124 777.024 391.788V415.668C777.024 416.436 777.144 417.132 777.384 417.756C777.64 418.38 777.968 418.844 778.368 419.148C778.224 419.804 777.92 420.516 777.456 421.284C777.008 422.052 776.552 422.62 776.088 422.988C774.888 422.956 773.856 422.708 772.992 422.244C772.144 421.764 771.456 421.124 770.928 420.324C770.096 421.204 769.112 421.924 767.976 422.484C766.84 423.044 765.608 423.324 764.28 423.324C762.328 423.324 760.712 422.796 759.432 421.74C758.168 420.684 757.224 419.228 756.6 417.372C755.976 415.5 755.664 413.348 755.664 410.916ZM763.344 410.964C763.344 413.188 763.616 414.804 764.16 415.812C764.704 416.804 765.392 417.3 766.224 417.3C766.704 417.3 767.256 417.172 767.88 416.916C768.504 416.66 769.112 416.164 769.704 415.428V404.868C769.144 404.532 768.6 404.26 768.072 404.052C767.544 403.844 767.048 403.74 766.584 403.74C765.432 403.74 764.6 404.388 764.088 405.684C763.592 406.98 763.344 408.74 763.344 410.964ZM803.572 410.628C803.572 414.468 802.628 417.548 800.74 419.868C798.852 422.172 796.1 423.324 792.484 423.324C788.82 423.324 786.052 422.164 784.18 419.844C782.324 417.524 781.396 414.452 781.396 410.628C781.396 406.772 782.34 403.692 784.228 401.388C786.116 399.084 788.868 397.932 792.484 397.932C796.132 397.932 798.892 399.092 800.764 401.412C802.636 403.732 803.572 406.804 803.572 410.628ZM789.1 410.628C789.1 411.94 789.172 413.132 789.316 414.204C789.476 415.276 789.796 416.132 790.276 416.772C790.756 417.396 791.492 417.708 792.484 417.708C793.46 417.708 794.188 417.396 794.668 416.772C795.164 416.132 795.484 415.276 795.628 414.204C795.788 413.132 795.868 411.94 795.868 410.628C795.868 409.3 795.788 408.1 795.628 407.028C795.484 405.956 795.164 405.108 794.668 404.484C794.188 403.844 793.46 403.524 792.484 403.524C791.492 403.524 790.756 403.844 790.276 404.484C789.796 405.108 789.476 405.956 789.316 407.028C789.172 408.1 789.1 409.3 789.1 410.628ZM839.077 416.604C839.077 417.548 839.165 418.428 839.341 419.244C839.517 420.044 839.829 420.756 840.277 421.38C839.717 421.844 839.029 422.228 838.213 422.532C837.397 422.836 836.525 422.988 835.597 422.988C834.093 422.988 833.045 422.588 832.453 421.788C831.861 420.988 831.565 419.836 831.565 418.332V408.132C831.565 407.044 831.421 406.244 831.133 405.732C830.861 405.204 830.325 404.94 829.525 404.94C829.045 404.94 828.485 405.068 827.845 405.324C827.205 405.58 826.573 405.996 825.949 406.572V422.604C825.421 422.7 824.821 422.772 824.149 422.82C823.493 422.868 822.845 422.892 822.205 422.892C821.581 422.892 820.933 422.868 820.261 422.82C819.589 422.772 818.981 422.7 818.437 422.604V398.652L818.773 398.316H821.605C822.629 398.316 823.469 398.572 824.125 399.084C824.797 399.58 825.285 400.276 825.589 401.172C826.533 400.356 827.557 399.66 828.661 399.084C829.765 398.508 830.997 398.22 832.357 398.22C834.549 398.22 836.213 399.02 837.349 400.62C838.501 402.204 839.077 404.252 839.077 406.764V416.604ZM865.447 410.628C865.447 414.468 864.503 417.548 862.615 419.868C860.727 422.172 857.975 423.324 854.359 423.324C850.695 423.324 847.927 422.164 846.055 419.844C844.199 417.524 843.271 414.452 843.271 410.628C843.271 406.772 844.215 403.692 846.103 401.388C847.991 399.084 850.743 397.932 854.359 397.932C858.007 397.932 860.767 399.092 862.639 401.412C864.511 403.732 865.447 406.804 865.447 410.628ZM850.975 410.628C850.975 411.94 851.047 413.132 851.191 414.204C851.351 415.276 851.671 416.132 852.151 416.772C852.631 417.396 853.367 417.708 854.359 417.708C855.335 417.708 856.063 417.396 856.543 416.772C857.039 416.132 857.359 415.276 857.503 414.204C857.663 413.132 857.743 411.94 857.743 410.628C857.743 409.3 857.663 408.1 857.503 407.028C857.359 405.956 857.039 405.108 856.543 404.484C856.063 403.844 855.335 403.524 854.359 403.524C853.367 403.524 852.631 403.844 852.151 404.484C851.671 405.108 851.351 405.956 851.191 407.028C851.047 408.1 850.975 409.3 850.975 410.628ZM870.726 395.94C870.726 394.26 871.03 393.092 871.638 392.436C872.262 391.764 873.31 391.428 874.782 391.428H877.71L878.046 391.764V398.676L883.734 398.604C883.958 399.452 884.07 400.324 884.07 401.22C884.07 402.212 883.958 403.116 883.734 403.932L878.046 403.836V414.876C878.046 416.38 878.758 417.132 880.182 417.132H882.87C883.27 418.284 883.47 419.468 883.47 420.684C883.47 420.956 883.454 421.244 883.422 421.548C883.39 421.852 883.342 422.124 883.278 422.364C882.398 422.492 881.382 422.604 880.23 422.7C879.078 422.796 878.022 422.844 877.062 422.844C874.886 422.844 873.286 422.308 872.262 421.236C871.238 420.148 870.726 418.46 870.726 416.172V403.86L866.958 403.932C866.75 403.116 866.646 402.212 866.646 401.22C866.646 400.324 866.75 399.452 866.958 398.604L870.726 398.652V395.94ZM905.562 422.604C905.034 422.7 904.442 422.772 903.786 422.82C903.13 422.868 902.482 422.892 901.842 422.892C900.53 422.892 899.322 422.796 898.218 422.604V387.612L898.554 387.276H901.482C902.954 387.276 904.002 387.612 904.626 388.284C905.25 388.956 905.562 390.124 905.562 391.788V406.86H906.306C906.642 406.86 906.906 406.804 907.098 406.692C907.29 406.58 907.482 406.356 907.674 406.02L910.17 401.196C910.618 400.284 911.17 399.604 911.826 399.156C912.498 398.692 913.338 398.46 914.346 398.46C915.146 398.46 915.874 398.468 916.53 398.484C917.186 398.5 917.858 398.524 918.546 398.556L918.834 398.94L915.138 406.092C914.53 407.276 913.706 408.212 912.666 408.9C913.594 409.236 914.394 409.748 915.066 410.436C915.754 411.108 916.274 411.98 916.626 413.052L917.802 416.556C918.202 417.804 918.562 418.708 918.882 419.268C919.202 419.828 919.61 420.284 920.106 420.636C919.514 421.308 918.77 421.868 917.874 422.316C916.978 422.764 916.042 422.988 915.066 422.988C913.994 422.988 913.186 422.732 912.642 422.22C912.114 421.708 911.65 420.852 911.25 419.652L909.834 415.5C909.498 414.476 909.114 413.804 908.682 413.484C908.25 413.164 907.706 413.004 907.05 413.004C906.538 413.004 906.042 413.02 905.562 413.052V422.604ZM943.983 416.604C943.983 417.548 944.071 418.428 944.247 419.244C944.423 420.044 944.735 420.756 945.183 421.38C944.623 421.844 943.935 422.228 943.119 422.532C942.303 422.836 941.431 422.988 940.503 422.988C938.999 422.988 937.951 422.588 937.359 421.788C936.767 420.988 936.471 419.836 936.471 418.332V408.132C936.471 407.044 936.327 406.244 936.039 405.732C935.767 405.204 935.231 404.94 934.431 404.94C933.951 404.94 933.391 405.068 932.751 405.324C932.111 405.58 931.479 405.996 930.855 406.572V422.604C930.327 422.7 929.727 422.772 929.055 422.82C928.399 422.868 927.751 422.892 927.111 422.892C926.487 422.892 925.839 422.868 925.167 422.82C924.495 422.772 923.887 422.7 923.343 422.604V398.652L923.679 398.316H926.511C927.535 398.316 928.375 398.572 929.031 399.084C929.703 399.58 930.191 400.276 930.495 401.172C931.439 400.356 932.463 399.66 933.567 399.084C934.671 398.508 935.903 398.22 937.263 398.22C939.455 398.22 941.119 399.02 942.255 400.62C943.407 402.204 943.983 404.252 943.983 406.764V416.604ZM970.353 410.628C970.353 414.468 969.409 417.548 967.521 419.868C965.633 422.172 962.881 423.324 959.265 423.324C955.601 423.324 952.833 422.164 950.961 419.844C949.105 417.524 948.177 414.452 948.177 410.628C948.177 406.772 949.121 403.692 951.009 401.388C952.897 399.084 955.649 397.932 959.265 397.932C962.913 397.932 965.673 399.092 967.545 401.412C969.417 403.732 970.353 406.804 970.353 410.628ZM955.881 410.628C955.881 411.94 955.953 413.132 956.097 414.204C956.257 415.276 956.577 416.132 957.057 416.772C957.537 417.396 958.273 417.708 959.265 417.708C960.241 417.708 960.969 417.396 961.449 416.772C961.945 416.132 962.265 415.276 962.409 414.204C962.569 413.132 962.649 411.94 962.649 410.628C962.649 409.3 962.569 408.1 962.409 407.028C962.265 405.956 961.945 405.108 961.449 404.484C960.969 403.844 960.241 403.524 959.265 403.524C958.273 403.524 957.537 403.844 957.057 404.484C956.577 405.108 956.257 405.956 956.097 407.028C955.953 408.1 955.881 409.3 955.881 410.628ZM971.985 399.108C973.489 398.516 974.881 398.22 976.161 398.22C977.361 398.22 978.201 398.5 978.681 399.06C979.177 399.62 979.529 400.404 979.737 401.412L981.225 409.164C981.881 412.38 982.297 414.884 982.473 416.676C982.521 416.932 982.649 417.06 982.857 417.06L985.497 398.916C986.089 398.772 986.841 398.676 987.753 398.628C988.665 398.564 989.353 398.532 989.817 398.532C990.313 398.532 991.033 398.564 991.977 398.628C992.937 398.676 993.697 398.772 994.257 398.916L996.969 416.676C997.017 416.932 997.145 417.06 997.353 417.06C997.513 415.956 997.697 414.74 997.905 413.412C998.129 412.068 998.385 410.652 998.673 409.164L1000.81 398.676C1001.22 398.564 1001.7 398.484 1002.22 398.436C1002.75 398.388 1003.23 398.364 1003.66 398.364C1004.18 398.364 1004.83 398.404 1005.63 398.484C1006.45 398.564 1007.12 398.732 1007.65 398.988L1007.86 399.444L1002.27 422.604C1001.52 422.716 1000.63 422.788 999.609 422.82C998.585 422.868 997.633 422.892 996.753 422.892C995.313 422.892 994.217 422.692 993.465 422.292C992.729 421.892 992.257 420.956 992.049 419.484L991.233 414.324C991.057 413.14 990.849 411.756 990.609 410.172C990.385 408.572 990.185 406.94 990.009 405.276H989.721C989.529 406.908 989.313 408.516 989.073 410.1C988.849 411.668 988.649 413.044 988.473 414.228L987.129 422.604C986.345 422.7 985.425 422.772 984.369 422.82C983.329 422.868 982.361 422.892 981.465 422.892C980.057 422.892 978.985 422.668 978.249 422.22C977.513 421.756 976.977 420.812 976.641 419.388L971.985 399.108ZM785.527 480.956C784.951 483.148 784.223 485.076 783.343 486.74C782.463 488.42 781.263 489.732 779.743 490.676C778.223 491.636 776.223 492.116 773.743 492.116C772.783 492.116 771.735 492.012 770.599 491.804C769.463 491.596 768.567 491.372 767.911 491.132C767.815 490.284 767.919 489.324 768.223 488.252C768.527 487.18 768.927 486.356 769.423 485.78C769.935 485.94 770.583 486.1 771.367 486.26C772.151 486.436 772.943 486.524 773.743 486.524C774.959 486.524 775.951 486.18 776.719 485.492C777.503 484.804 778.079 483.852 778.447 482.636L778.639 481.94C777.343 481.924 776.263 481.7 775.399 481.268C774.535 480.836 773.951 480.052 773.647 478.916L768.055 458.228C768.823 457.892 769.631 457.644 770.479 457.484C771.327 457.308 772.063 457.22 772.687 457.22C773.599 457.22 774.351 457.444 774.943 457.892C775.551 458.34 776.007 459.188 776.311 460.436L778.567 469.676C778.711 470.204 778.847 470.868 778.975 471.668C779.119 472.452 779.247 473.236 779.359 474.02C779.471 474.788 779.559 475.436 779.623 475.964C779.671 476.188 779.807 476.3 780.031 476.3L784.207 457.676C784.623 457.564 785.103 457.484 785.647 457.436C786.191 457.388 786.695 457.364 787.159 457.364C787.799 457.364 788.455 457.404 789.127 457.484C789.815 457.548 790.495 457.692 791.167 457.916L791.455 458.42L785.527 480.956ZM814.752 469.628C814.752 473.468 813.808 476.548 811.92 478.868C810.032 481.172 807.28 482.324 803.664 482.324C800 482.324 797.232 481.164 795.36 478.844C793.504 476.524 792.576 473.452 792.576 469.628C792.576 465.772 793.52 462.692 795.408 460.388C797.296 458.084 800.048 456.932 803.664 456.932C807.312 456.932 810.072 458.092 811.944 460.412C813.816 462.732 814.752 465.804 814.752 469.628ZM800.28 469.628C800.28 470.94 800.352 472.132 800.496 473.204C800.656 474.276 800.976 475.132 801.456 475.772C801.936 476.396 802.672 476.708 803.664 476.708C804.64 476.708 805.368 476.396 805.848 475.772C806.344 475.132 806.664 474.276 806.808 473.204C806.968 472.132 807.048 470.94 807.048 469.628C807.048 468.3 806.968 467.1 806.808 466.028C806.664 464.956 806.344 464.108 805.848 463.484C805.368 462.844 804.64 462.524 803.664 462.524C802.672 462.524 801.936 462.844 801.456 463.484C800.976 464.108 800.656 464.956 800.496 466.028C800.352 467.1 800.28 468.3 800.28 469.628ZM818.974 463.652C818.974 462.708 818.878 461.828 818.686 461.012C818.51 460.196 818.206 459.484 817.774 458.876C818.318 458.412 818.998 458.028 819.814 457.724C820.63 457.42 821.51 457.268 822.454 457.268C823.958 457.268 824.998 457.668 825.574 458.468C826.166 459.268 826.462 460.412 826.462 461.9V472.124C826.462 473.212 826.606 474.012 826.894 474.524C827.182 475.036 827.726 475.292 828.526 475.292C829.006 475.292 829.566 475.172 830.206 474.932C830.846 474.676 831.478 474.26 832.102 473.684V457.652C832.614 457.556 833.206 457.484 833.878 457.436C834.55 457.388 835.206 457.364 835.846 457.364C836.47 457.364 837.11 457.388 837.766 457.436C838.438 457.484 839.046 457.556 839.59 457.652V474.764C839.59 475.532 839.71 476.228 839.95 476.852C840.206 477.476 840.534 477.932 840.934 478.22C840.806 478.892 840.51 479.596 840.046 480.332C839.582 481.068 839.118 481.62 838.654 481.988C837.294 481.956 836.134 481.636 835.174 481.028C834.23 480.404 833.502 479.596 832.99 478.604C831.966 479.532 830.862 480.34 829.678 481.028C828.494 481.7 827.166 482.036 825.694 482.036C823.502 482.036 821.83 481.236 820.678 479.636C819.542 478.036 818.974 475.988 818.974 473.492V463.652ZM865.188 469.916C865.188 467.164 865.62 464.844 866.484 462.956C867.364 461.052 868.532 459.612 869.988 458.636C871.444 457.66 873.052 457.172 874.812 457.172C875.644 457.172 876.42 457.268 877.14 457.46C877.876 457.652 878.572 457.9 879.228 458.204V446.612L879.564 446.276H882.492C883.964 446.276 885.004 446.612 885.612 447.284C886.236 447.956 886.548 449.124 886.548 450.788V474.668C886.548 475.436 886.668 476.132 886.908 476.756C887.164 477.38 887.492 477.844 887.892 478.148C887.748 478.804 887.444 479.516 886.98 480.284C886.532 481.052 886.076 481.62 885.612 481.988C884.412 481.956 883.38 481.708 882.516 481.244C881.668 480.764 880.98 480.124 880.452 479.324C879.62 480.204 878.636 480.924 877.5 481.484C876.364 482.044 875.132 482.324 873.804 482.324C871.852 482.324 870.236 481.796 868.956 480.74C867.692 479.684 866.748 478.228 866.124 476.372C865.5 474.5 865.188 472.348 865.188 469.916ZM872.868 469.964C872.868 472.188 873.14 473.804 873.684 474.812C874.228 475.804 874.916 476.3 875.748 476.3C876.228 476.3 876.78 476.172 877.404 475.916C878.028 475.66 878.636 475.164 879.228 474.428V463.868C878.668 463.532 878.124 463.26 877.596 463.052C877.068 462.844 876.572 462.74 876.108 462.74C874.956 462.74 874.124 463.388 873.612 464.684C873.116 465.98 872.868 467.74 872.868 469.964ZM913.096 469.628C913.096 473.468 912.152 476.548 910.264 478.868C908.376 481.172 905.624 482.324 902.008 482.324C898.344 482.324 895.576 481.164 893.704 478.844C891.848 476.524 890.92 473.452 890.92 469.628C890.92 465.772 891.864 462.692 893.752 460.388C895.64 458.084 898.392 456.932 902.008 456.932C905.656 456.932 908.416 458.092 910.288 460.412C912.16 462.732 913.096 465.804 913.096 469.628ZM898.624 469.628C898.624 470.94 898.696 472.132 898.84 473.204C899 474.276 899.32 475.132 899.8 475.772C900.28 476.396 901.016 476.708 902.008 476.708C902.984 476.708 903.712 476.396 904.192 475.772C904.688 475.132 905.008 474.276 905.152 473.204C905.312 472.132 905.392 470.94 905.392 469.628C905.392 468.3 905.312 467.1 905.152 466.028C905.008 464.956 904.688 464.108 904.192 463.484C903.712 462.844 902.984 462.524 902.008 462.524C901.016 462.524 900.28 462.844 899.8 463.484C899.32 464.108 899 464.956 898.84 466.028C898.696 467.1 898.624 468.3 898.624 469.628ZM948.601 475.604C948.601 476.548 948.689 477.428 948.865 478.244C949.041 479.044 949.353 479.756 949.801 480.38C949.241 480.844 948.553 481.228 947.737 481.532C946.921 481.836 946.049 481.988 945.121 481.988C943.617 481.988 942.569 481.588 941.977 480.788C941.385 479.988 941.089 478.836 941.089 477.332V467.132C941.089 466.044 940.945 465.244 940.657 464.732C940.385 464.204 939.849 463.94 939.049 463.94C938.569 463.94 938.009 464.068 937.369 464.324C936.729 464.58 936.097 464.996 935.473 465.572V481.604C934.945 481.7 934.345 481.772 933.673 481.82C933.017 481.868 932.369 481.892 931.729 481.892C931.105 481.892 930.457 481.868 929.785 481.82C929.113 481.772 928.505 481.7 927.961 481.604V457.652L928.297 457.316H931.129C932.153 457.316 932.993 457.572 933.649 458.084C934.321 458.58 934.809 459.276 935.113 460.172C936.057 459.356 937.081 458.66 938.185 458.084C939.289 457.508 940.521 457.22 941.881 457.22C944.073 457.22 945.737 458.02 946.873 459.62C948.025 461.204 948.601 463.252 948.601 465.764V475.604ZM974.971 469.628C974.971 473.468 974.027 476.548 972.139 478.868C970.251 481.172 967.499 482.324 963.883 482.324C960.219 482.324 957.451 481.164 955.579 478.844C953.723 476.524 952.795 473.452 952.795 469.628C952.795 465.772 953.739 462.692 955.627 460.388C957.515 458.084 960.267 456.932 963.883 456.932C967.531 456.932 970.291 458.092 972.163 460.412C974.035 462.732 974.971 465.804 974.971 469.628ZM960.499 469.628C960.499 470.94 960.571 472.132 960.715 473.204C960.875 474.276 961.195 475.132 961.675 475.772C962.155 476.396 962.891 476.708 963.883 476.708C964.859 476.708 965.587 476.396 966.067 475.772C966.563 475.132 966.883 474.276 967.027 473.204C967.187 472.132 967.267 470.94 967.267 469.628C967.267 468.3 967.187 467.1 967.027 466.028C966.883 464.956 966.563 464.108 966.067 463.484C965.587 462.844 964.859 462.524 963.883 462.524C962.891 462.524 962.155 462.844 961.675 463.484C961.195 464.108 960.875 464.956 960.715 466.028C960.571 467.1 960.499 468.3 960.499 469.628ZM980.25 454.94C980.25 453.26 980.554 452.092 981.162 451.436C981.786 450.764 982.834 450.428 984.306 450.428H987.234L987.57 450.764V457.676L993.258 457.604C993.482 458.452 993.594 459.324 993.594 460.22C993.594 461.212 993.482 462.116 993.258 462.932L987.57 462.836V473.876C987.57 475.38 988.282 476.132 989.706 476.132H992.394C992.794 477.284 992.994 478.468 992.994 479.684C992.994 479.956 992.978 480.244 992.946 480.548C992.914 480.852 992.866 481.124 992.802 481.364C991.922 481.492 990.906 481.604 989.754 481.7C988.602 481.796 987.546 481.844 986.586 481.844C984.41 481.844 982.81 481.308 981.786 480.236C980.762 479.148 980.25 477.46 980.25 475.172V462.86L976.482 462.932C976.274 462.116 976.17 461.212 976.17 460.22C976.17 459.324 976.274 458.452 976.482 457.604L980.25 457.652V454.94ZM834.945 540.604C834.417 540.7 833.825 540.772 833.169 540.82C832.513 540.868 831.865 540.892 831.225 540.892C829.913 540.892 828.705 540.796 827.601 540.604V505.612L827.937 505.276H830.865C832.337 505.276 833.385 505.612 834.009 506.284C834.633 506.956 834.945 508.124 834.945 509.788V524.86H835.689C836.025 524.86 836.289 524.804 836.481 524.692C836.673 524.58 836.865 524.356 837.057 524.02L839.553 519.196C840.001 518.284 840.553 517.604 841.209 517.156C841.881 516.692 842.721 516.46 843.729 516.46C844.529 516.46 845.257 516.468 845.913 516.484C846.569 516.5 847.241 516.524 847.929 516.556L848.217 516.94L844.521 524.092C843.913 525.276 843.089 526.212 842.049 526.9C842.977 527.236 843.777 527.748 844.449 528.436C845.137 529.108 845.657 529.98 846.009 531.052L847.185 534.556C847.585 535.804 847.945 536.708 848.265 537.268C848.585 537.828 848.993 538.284 849.489 538.636C848.897 539.308 848.153 539.868 847.257 540.316C846.361 540.764 845.425 540.988 844.449 540.988C843.377 540.988 842.569 540.732 842.025 540.22C841.497 539.708 841.033 538.852 840.633 537.652L839.217 533.5C838.881 532.476 838.497 531.804 838.065 531.484C837.633 531.164 837.089 531.004 836.433 531.004C835.921 531.004 835.425 531.02 834.945 531.052V540.604ZM873.366 534.604C873.366 535.548 873.454 536.428 873.63 537.244C873.806 538.044 874.118 538.756 874.566 539.38C874.006 539.844 873.318 540.228 872.502 540.532C871.686 540.836 870.814 540.988 869.886 540.988C868.382 540.988 867.334 540.588 866.742 539.788C866.15 538.988 865.854 537.836 865.854 536.332V526.132C865.854 525.044 865.71 524.244 865.422 523.732C865.15 523.204 864.614 522.94 863.814 522.94C863.334 522.94 862.774 523.068 862.134 523.324C861.494 523.58 860.862 523.996 860.238 524.572V540.604C859.71 540.7 859.11 540.772 858.438 540.82C857.782 540.868 857.134 540.892 856.494 540.892C855.87 540.892 855.222 540.868 854.55 540.82C853.878 540.772 853.27 540.7 852.726 540.604V516.652L853.062 516.316H855.894C856.918 516.316 857.758 516.572 858.414 517.084C859.086 517.58 859.574 518.276 859.878 519.172C860.822 518.356 861.846 517.66 862.95 517.084C864.054 516.508 865.286 516.22 866.646 516.22C868.838 516.22 870.502 517.02 871.638 518.62C872.79 520.204 873.366 522.252 873.366 524.764V534.604ZM899.736 528.628C899.736 532.468 898.792 535.548 896.904 537.868C895.016 540.172 892.264 541.324 888.648 541.324C884.984 541.324 882.216 540.164 880.344 537.844C878.488 535.524 877.56 532.452 877.56 528.628C877.56 524.772 878.504 521.692 880.392 519.388C882.28 517.084 885.032 515.932 888.648 515.932C892.296 515.932 895.056 517.092 896.928 519.412C898.8 521.732 899.736 524.804 899.736 528.628ZM885.264 528.628C885.264 529.94 885.336 531.132 885.48 532.204C885.64 533.276 885.96 534.132 886.44 534.772C886.92 535.396 887.656 535.708 888.648 535.708C889.624 535.708 890.352 535.396 890.832 534.772C891.328 534.132 891.648 533.276 891.792 532.204C891.952 531.132 892.032 529.94 892.032 528.628C892.032 527.3 891.952 526.1 891.792 525.028C891.648 523.956 891.328 523.108 890.832 522.484C890.352 521.844 889.624 521.524 888.648 521.524C887.656 521.524 886.92 521.844 886.44 522.484C885.96 523.108 885.64 523.956 885.48 525.028C885.336 526.1 885.264 527.3 885.264 528.628ZM901.368 517.108C902.872 516.516 904.264 516.22 905.544 516.22C906.744 516.22 907.584 516.5 908.064 517.06C908.56 517.62 908.912 518.404 909.12 519.412L910.608 527.164C911.264 530.38 911.68 532.884 911.856 534.676C911.904 534.932 912.032 535.06 912.24 535.06L914.88 516.916C915.472 516.772 916.224 516.676 917.136 516.628C918.048 516.564 918.736 516.532 919.2 516.532C919.696 516.532 920.416 516.564 921.36 516.628C922.32 516.676 923.08 516.772 923.64 516.916L926.352 534.676C926.4 534.932 926.528 535.06 926.736 535.06C926.896 533.956 927.08 532.74 927.288 531.412C927.512 530.068 927.768 528.652 928.056 527.164L930.192 516.676C930.608 516.564 931.08 516.484 931.608 516.436C932.136 516.388 932.616 516.364 933.048 516.364C933.56 516.364 934.216 516.404 935.016 516.484C935.832 516.564 936.504 516.732 937.032 516.988L937.248 517.444L931.656 540.604C930.904 540.716 930.016 540.788 928.992 540.82C927.968 540.868 927.016 540.892 926.136 540.892C924.696 540.892 923.6 540.692 922.848 540.292C922.112 539.892 921.64 538.956 921.432 537.484L920.616 532.324C920.44 531.14 920.232 529.756 919.992 528.172C919.768 526.572 919.568 524.94 919.392 523.276H919.104C918.912 524.908 918.696 526.516 918.456 528.1C918.232 529.668 918.032 531.044 917.856 532.228L916.512 540.604C915.728 540.7 914.808 540.772 913.752 540.82C912.712 540.868 911.744 540.892 910.848 540.892C909.44 540.892 908.368 540.668 907.632 540.22C906.896 539.756 906.36 538.812 906.024 537.388L901.368 517.108Z" fill="black"/>
</g>
</g>
<g filter="url(#filter4_i)">
<path d="M1198 444L1269.28 627H1354.82L1418.5 444H1198Z" fill="#C4C4C4" fill-opacity="0.1" stroke="black"/>
<g filter="url(#filter5_i)">
<path d="M1292.85 493.095C1292.85 492.945 1292.85 492.811 1292.86 492.694C1292.86 492.573 1292.86 492.435 1292.86 492.281H1292.85C1292.77 492.281 1292.65 492.283 1292.5 492.287C1292.35 492.29 1292.24 492.292 1292.16 492.292H1291.02C1290.99 492.16 1290.98 492.032 1290.97 491.907C1290.96 491.779 1290.96 491.665 1290.96 491.566C1290.96 491.463 1290.96 491.348 1290.97 491.22C1290.98 491.091 1290.99 490.961 1291.02 490.829H1296.46C1296.49 490.921 1296.51 491.029 1296.52 491.154C1296.54 491.275 1296.55 491.392 1296.55 491.506C1296.55 491.792 1296.48 491.995 1296.33 492.116C1296.18 492.233 1295.95 492.292 1295.63 492.292H1295.31C1295.23 492.292 1295.11 492.29 1294.96 492.287C1294.81 492.283 1294.7 492.281 1294.62 492.281H1294.6C1294.6 492.435 1294.61 492.573 1294.61 492.694C1294.61 492.811 1294.62 492.945 1294.62 493.095V498.342C1294.47 498.368 1294.31 498.384 1294.15 498.392C1294 498.403 1293.86 498.408 1293.74 498.408C1293.61 498.408 1293.47 498.403 1293.31 498.392C1293.15 498.384 1293 498.368 1292.85 498.342V493.095ZM1298.86 498.342C1298.62 498.386 1298.34 498.408 1298.01 498.408C1297.72 498.408 1297.44 498.386 1297.18 498.342V490.323L1297.26 490.246H1297.93C1298.27 490.246 1298.51 490.323 1298.65 490.477C1298.79 490.631 1298.86 490.899 1298.86 491.28V493.359C1299.07 493.19 1299.29 493.047 1299.53 492.93C1299.77 492.813 1300.04 492.754 1300.33 492.754C1300.84 492.754 1301.22 492.937 1301.48 493.304C1301.74 493.667 1301.87 494.136 1301.87 494.712V496.967C1301.87 497.183 1301.89 497.385 1301.93 497.572C1301.97 497.755 1302.04 497.919 1302.14 498.062C1302.02 498.168 1301.86 498.256 1301.67 498.326C1301.49 498.395 1301.29 498.43 1301.07 498.43C1300.73 498.43 1300.49 498.338 1300.35 498.155C1300.22 497.972 1300.15 497.708 1300.15 497.363V495.026C1300.15 494.776 1300.12 494.593 1300.05 494.476C1299.99 494.355 1299.86 494.294 1299.68 494.294C1299.57 494.294 1299.44 494.323 1299.29 494.382C1299.15 494.441 1299 494.536 1298.86 494.668V498.342ZM1305.13 498.342C1305.01 498.364 1304.88 498.381 1304.72 498.392C1304.57 498.403 1304.42 498.408 1304.28 498.408C1304.13 498.408 1303.98 498.403 1303.83 498.392C1303.68 498.381 1303.54 498.364 1303.41 498.342V494.701C1303.41 494.518 1303.37 494.366 1303.3 494.245C1303.22 494.124 1303.09 494.063 1302.9 494.063H1302.73C1302.68 493.883 1302.66 493.689 1302.66 493.48C1302.66 493.385 1302.66 493.284 1302.68 493.178C1302.69 493.068 1302.7 492.963 1302.73 492.864C1302.9 492.846 1303.07 492.833 1303.25 492.826C1303.43 492.815 1303.58 492.809 1303.7 492.809H1303.94C1304.3 492.809 1304.59 492.928 1304.81 493.167C1305.03 493.401 1305.13 493.72 1305.13 494.124V498.342ZM1303.08 491.308C1303.08 491.08 1303.12 490.866 1303.21 490.664C1303.3 490.616 1303.43 490.576 1303.58 490.543C1303.73 490.51 1303.88 490.494 1304.03 490.494C1304.18 490.494 1304.33 490.51 1304.49 490.543C1304.64 490.576 1304.76 490.616 1304.85 490.664C1304.89 490.767 1304.92 490.875 1304.94 490.989C1304.96 491.102 1304.97 491.209 1304.97 491.308C1304.97 491.531 1304.93 491.744 1304.85 491.946C1304.76 491.993 1304.64 492.034 1304.49 492.067C1304.33 492.1 1304.18 492.116 1304.03 492.116C1303.88 492.116 1303.73 492.101 1303.57 492.072C1303.42 492.039 1303.3 491.997 1303.21 491.946C1303.12 491.744 1303.08 491.531 1303.08 491.308ZM1311.16 496.967C1311.16 497.183 1311.18 497.385 1311.22 497.572C1311.26 497.755 1311.33 497.919 1311.44 498.062C1311.31 498.168 1311.15 498.256 1310.96 498.326C1310.78 498.395 1310.58 498.43 1310.36 498.43C1310.02 498.43 1309.78 498.338 1309.64 498.155C1309.51 497.972 1309.44 497.708 1309.44 497.363V495.026C1309.44 494.776 1309.41 494.593 1309.34 494.476C1309.28 494.355 1309.15 494.294 1308.97 494.294C1308.86 494.294 1308.73 494.323 1308.59 494.382C1308.44 494.441 1308.29 494.536 1308.15 494.668V498.342C1308.03 498.364 1307.89 498.381 1307.74 498.392C1307.59 498.403 1307.44 498.408 1307.29 498.408C1307.15 498.408 1307 498.403 1306.85 498.392C1306.69 498.381 1306.56 498.364 1306.43 498.342V492.853L1306.51 492.776H1307.16C1307.39 492.776 1307.58 492.835 1307.73 492.952C1307.89 493.066 1308 493.225 1308.07 493.431C1308.29 493.244 1308.52 493.084 1308.77 492.952C1309.03 492.82 1309.31 492.754 1309.62 492.754C1310.12 492.754 1310.5 492.937 1310.76 493.304C1311.03 493.667 1311.16 494.136 1311.16 494.712V496.967ZM1312.14 495.609C1312.14 494.978 1312.24 494.446 1312.44 494.014C1312.64 493.577 1312.91 493.247 1313.24 493.024C1313.58 492.8 1313.95 492.688 1314.35 492.688C1314.67 492.688 1314.95 492.738 1315.19 492.837C1315.42 492.936 1315.63 493.057 1315.79 493.2C1315.91 493.068 1316.06 492.963 1316.23 492.886C1316.41 492.809 1316.61 492.769 1316.84 492.765C1316.94 492.849 1317.05 492.98 1317.16 493.156C1317.27 493.328 1317.34 493.491 1317.36 493.645C1317.27 493.711 1317.19 493.817 1317.13 493.964C1317.08 494.107 1317.05 494.265 1317.05 494.437V497.341C1317.05 497.854 1317.03 498.278 1316.98 498.612C1316.93 498.945 1316.87 499.218 1316.79 499.431C1316.7 499.644 1316.6 499.823 1316.48 499.97C1316.27 500.245 1315.98 500.447 1315.62 500.575C1315.26 500.707 1314.86 500.773 1314.42 500.773C1314.08 500.773 1313.72 500.738 1313.34 500.669C1312.97 500.603 1312.64 500.516 1312.35 500.41C1312.35 500.208 1312.39 499.987 1312.47 499.745C1312.55 499.503 1312.66 499.31 1312.78 499.167C1313.27 499.387 1313.77 499.497 1314.26 499.497C1314.66 499.497 1314.95 499.394 1315.12 499.189C1315.29 498.987 1315.37 498.718 1315.37 498.381V498.029C1315.2 498.157 1315 498.26 1314.78 498.337C1314.57 498.414 1314.35 498.452 1314.12 498.452C1313.68 498.452 1313.31 498.331 1313.01 498.089C1312.72 497.847 1312.5 497.513 1312.36 497.088C1312.22 496.659 1312.14 496.166 1312.14 495.609ZM1313.9 495.62C1313.9 496.129 1313.96 496.5 1314.09 496.731C1314.21 496.958 1314.37 497.072 1314.55 497.072C1314.85 497.072 1315.13 496.945 1315.37 496.692V494.415C1315.37 494.389 1315.37 494.364 1315.38 494.338C1315.12 494.089 1314.88 493.964 1314.65 493.964C1314.38 493.964 1314.19 494.113 1314.07 494.41C1313.96 494.703 1313.9 495.106 1313.9 495.62ZM1317.9 497.963C1317.91 497.779 1317.96 497.574 1318.05 497.347C1318.15 497.119 1318.26 496.94 1318.38 496.808C1318.62 496.932 1318.87 497.04 1319.13 497.132C1319.39 497.22 1319.65 497.264 1319.91 497.264C1320.12 497.264 1320.28 497.227 1320.38 497.154C1320.49 497.081 1320.55 496.989 1320.55 496.879C1320.55 496.666 1320.38 496.5 1320.05 496.379L1319.44 496.159C1319.05 496.016 1318.72 495.816 1318.46 495.559C1318.2 495.299 1318.06 494.949 1318.06 494.509C1318.06 493.951 1318.26 493.509 1318.64 493.183C1319.03 492.853 1319.55 492.688 1320.19 492.688C1320.54 492.688 1320.9 492.736 1321.28 492.831C1321.67 492.926 1321.98 493.033 1322.22 493.15C1322.22 493.286 1322.2 493.434 1322.16 493.596C1322.12 493.753 1322.06 493.9 1321.99 494.036C1321.92 494.171 1321.83 494.274 1321.74 494.344C1321.52 494.241 1321.27 494.147 1321 494.063C1320.73 493.975 1320.47 493.931 1320.21 493.931C1320.06 493.931 1319.94 493.966 1319.87 494.036C1319.79 494.105 1319.76 494.188 1319.76 494.283C1319.76 494.459 1319.9 494.598 1320.18 494.701L1320.86 494.943C1321.28 495.093 1321.62 495.31 1321.9 495.592C1322.18 495.871 1322.32 496.245 1322.32 496.714C1322.32 497.26 1322.11 497.697 1321.69 498.023C1321.27 498.346 1320.69 498.507 1319.94 498.507C1319.55 498.507 1319.18 498.454 1318.82 498.348C1318.47 498.241 1318.16 498.113 1317.9 497.963ZM1303.44 512.194C1303.31 512.696 1303.14 513.138 1302.94 513.519C1302.74 513.904 1302.47 514.205 1302.12 514.421C1301.77 514.641 1301.31 514.751 1300.74 514.751C1300.52 514.751 1300.28 514.727 1300.02 514.68C1299.76 514.632 1299.56 514.581 1299.41 514.526C1299.38 514.331 1299.41 514.111 1299.48 513.866C1299.55 513.62 1299.64 513.431 1299.75 513.299C1299.87 513.336 1300.02 513.372 1300.2 513.409C1300.38 513.449 1300.56 513.47 1300.74 513.47C1301.02 513.47 1301.25 513.391 1301.42 513.233C1301.6 513.075 1301.74 512.857 1301.82 512.579L1301.86 512.419C1301.57 512.415 1301.32 512.364 1301.12 512.265C1300.92 512.166 1300.79 511.986 1300.72 511.726L1299.44 506.985C1299.62 506.908 1299.8 506.851 1299.99 506.815C1300.19 506.774 1300.36 506.754 1300.5 506.754C1300.71 506.754 1300.88 506.805 1301.02 506.908C1301.16 507.011 1301.26 507.205 1301.33 507.491L1301.85 509.609C1301.88 509.73 1301.91 509.882 1301.94 510.065C1301.97 510.245 1302 510.424 1302.03 510.604C1302.06 510.78 1302.08 510.929 1302.09 511.05C1302.1 511.101 1302.13 511.127 1302.18 511.127L1303.14 506.859C1303.24 506.833 1303.35 506.815 1303.47 506.804C1303.6 506.793 1303.71 506.787 1303.82 506.787C1303.96 506.787 1304.11 506.796 1304.27 506.815C1304.43 506.829 1304.58 506.862 1304.74 506.914L1304.8 507.029L1303.44 512.194ZM1310.14 509.598C1310.14 510.478 1309.92 511.183 1309.49 511.715C1309.06 512.243 1308.43 512.507 1307.6 512.507C1306.76 512.507 1306.13 512.241 1305.7 511.71C1305.27 511.178 1305.06 510.474 1305.06 509.598C1305.06 508.714 1305.27 508.008 1305.71 507.48C1306.14 506.952 1306.77 506.688 1307.6 506.688C1308.44 506.688 1309.07 506.954 1309.5 507.486C1309.93 508.017 1310.14 508.721 1310.14 509.598ZM1306.82 509.598C1306.82 509.898 1306.84 510.171 1306.87 510.417C1306.91 510.663 1306.98 510.859 1307.09 511.006C1307.2 511.149 1307.37 511.22 1307.6 511.22C1307.82 511.22 1307.99 511.149 1308.1 511.006C1308.21 510.859 1308.29 510.663 1308.32 510.417C1308.36 510.171 1308.38 509.898 1308.38 509.598C1308.38 509.293 1308.36 509.018 1308.32 508.773C1308.29 508.527 1308.21 508.333 1308.1 508.19C1307.99 508.043 1307.82 507.97 1307.6 507.97C1307.37 507.97 1307.2 508.043 1307.09 508.19C1306.98 508.333 1306.91 508.527 1306.87 508.773C1306.84 509.018 1306.82 509.293 1306.82 509.598ZM1311.11 508.228C1311.11 508.012 1311.09 507.81 1311.04 507.623C1311 507.436 1310.93 507.273 1310.83 507.134C1310.96 507.027 1311.11 506.939 1311.3 506.87C1311.49 506.8 1311.69 506.765 1311.91 506.765C1312.25 506.765 1312.49 506.857 1312.62 507.04C1312.76 507.223 1312.82 507.486 1312.82 507.827V510.17C1312.82 510.419 1312.86 510.602 1312.92 510.72C1312.99 510.837 1313.11 510.896 1313.3 510.896C1313.41 510.896 1313.54 510.868 1313.68 510.813C1313.83 510.754 1313.97 510.659 1314.12 510.527V506.853C1314.23 506.831 1314.37 506.815 1314.52 506.804C1314.68 506.793 1314.83 506.787 1314.97 506.787C1315.12 506.787 1315.26 506.793 1315.41 506.804C1315.57 506.815 1315.71 506.831 1315.83 506.853V510.775C1315.83 510.951 1315.86 511.11 1315.92 511.253C1315.97 511.396 1316.05 511.501 1316.14 511.567C1316.11 511.721 1316.04 511.882 1315.94 512.051C1315.83 512.219 1315.72 512.346 1315.62 512.43C1315.31 512.423 1315.04 512.349 1314.82 512.21C1314.6 512.067 1314.44 511.882 1314.32 511.655C1314.09 511.867 1313.83 512.052 1313.56 512.21C1313.29 512.364 1312.99 512.441 1312.65 512.441C1312.15 512.441 1311.76 512.258 1311.5 511.891C1311.24 511.524 1311.11 511.055 1311.11 510.483V508.228ZM1298.59 526.342C1298.46 526.364 1298.33 526.381 1298.18 526.392C1298.03 526.403 1297.88 526.408 1297.73 526.408C1297.43 526.408 1297.16 526.386 1296.9 526.342V518.323L1296.98 518.246H1297.65C1297.99 518.246 1298.23 518.323 1298.37 518.477C1298.51 518.631 1298.59 518.899 1298.59 519.28V522.734H1298.76C1298.83 522.734 1298.89 522.721 1298.94 522.696C1298.98 522.67 1299.03 522.619 1299.07 522.542L1299.64 521.436C1299.74 521.227 1299.87 521.071 1300.02 520.969C1300.17 520.862 1300.37 520.809 1300.6 520.809C1300.78 520.809 1300.95 520.811 1301.1 520.815C1301.25 520.818 1301.4 520.824 1301.56 520.831L1301.63 520.919L1300.78 522.558C1300.64 522.829 1300.45 523.044 1300.21 523.202C1300.43 523.279 1300.61 523.396 1300.76 523.554C1300.92 523.708 1301.04 523.907 1301.12 524.153L1301.39 524.956C1301.48 525.242 1301.56 525.449 1301.64 525.578C1301.71 525.706 1301.8 525.81 1301.92 525.891C1301.78 526.045 1301.61 526.173 1301.41 526.276C1301.2 526.379 1300.99 526.43 1300.76 526.43C1300.52 526.43 1300.33 526.371 1300.21 526.254C1300.09 526.137 1299.98 525.941 1299.89 525.666L1299.56 524.714C1299.49 524.479 1299.4 524.325 1299.3 524.252C1299.2 524.179 1299.08 524.142 1298.93 524.142C1298.81 524.142 1298.7 524.146 1298.59 524.153V526.342ZM1307.39 524.967C1307.39 525.183 1307.41 525.385 1307.45 525.572C1307.49 525.755 1307.56 525.919 1307.66 526.062C1307.54 526.168 1307.38 526.256 1307.19 526.326C1307 526.395 1306.81 526.43 1306.59 526.43C1306.25 526.43 1306.01 526.338 1305.87 526.155C1305.74 525.972 1305.67 525.708 1305.67 525.363V523.026C1305.67 522.776 1305.64 522.593 1305.57 522.476C1305.51 522.355 1305.38 522.294 1305.2 522.294C1305.09 522.294 1304.96 522.323 1304.82 522.382C1304.67 522.441 1304.52 522.536 1304.38 522.668V526.342C1304.26 526.364 1304.12 526.381 1303.97 526.392C1303.82 526.403 1303.67 526.408 1303.52 526.408C1303.38 526.408 1303.23 526.403 1303.08 526.392C1302.92 526.381 1302.78 526.364 1302.66 526.342V520.853L1302.74 520.776H1303.39C1303.62 520.776 1303.81 520.835 1303.96 520.952C1304.12 521.066 1304.23 521.225 1304.3 521.431C1304.52 521.244 1304.75 521.084 1305 520.952C1305.26 520.82 1305.54 520.754 1305.85 520.754C1306.35 520.754 1306.73 520.937 1306.99 521.304C1307.26 521.667 1307.39 522.136 1307.39 522.712V524.967ZM1313.43 523.598C1313.43 524.478 1313.22 525.183 1312.78 525.715C1312.35 526.243 1311.72 526.507 1310.89 526.507C1310.05 526.507 1309.42 526.241 1308.99 525.71C1308.56 525.178 1308.35 524.474 1308.35 523.598C1308.35 522.714 1308.57 522.008 1309 521.48C1309.43 520.952 1310.06 520.688 1310.89 520.688C1311.73 520.688 1312.36 520.954 1312.79 521.486C1313.22 522.017 1313.43 522.721 1313.43 523.598ZM1310.12 523.598C1310.12 523.898 1310.13 524.171 1310.17 524.417C1310.2 524.663 1310.28 524.859 1310.39 525.006C1310.5 525.149 1310.66 525.22 1310.89 525.22C1311.12 525.22 1311.28 525.149 1311.39 525.006C1311.51 524.859 1311.58 524.663 1311.61 524.417C1311.65 524.171 1311.67 523.898 1311.67 523.598C1311.67 523.293 1311.65 523.018 1311.61 522.773C1311.58 522.527 1311.51 522.333 1311.39 522.19C1311.28 522.043 1311.12 521.97 1310.89 521.97C1310.66 521.97 1310.5 522.043 1310.39 522.19C1310.28 522.333 1310.2 522.527 1310.17 522.773C1310.13 523.018 1310.12 523.293 1310.12 523.598ZM1313.81 520.958C1314.15 520.822 1314.47 520.754 1314.76 520.754C1315.04 520.754 1315.23 520.818 1315.34 520.947C1315.46 521.075 1315.54 521.255 1315.58 521.486L1315.92 523.262C1316.07 523.999 1316.17 524.573 1316.21 524.984C1316.22 525.042 1316.25 525.072 1316.3 525.072L1316.9 520.914C1317.04 520.881 1317.21 520.859 1317.42 520.848C1317.63 520.833 1317.79 520.826 1317.89 520.826C1318.01 520.826 1318.17 520.833 1318.39 520.848C1318.61 520.859 1318.78 520.881 1318.91 520.914L1319.53 524.984C1319.54 525.042 1319.57 525.072 1319.62 525.072C1319.66 524.819 1319.7 524.54 1319.75 524.236C1319.8 523.928 1319.86 523.603 1319.92 523.262L1320.41 520.859C1320.51 520.833 1320.62 520.815 1320.74 520.804C1320.86 520.793 1320.97 520.787 1321.07 520.787C1321.18 520.787 1321.33 520.796 1321.52 520.815C1321.7 520.833 1321.86 520.871 1321.98 520.93L1322.03 521.035L1320.75 526.342C1320.58 526.368 1320.37 526.384 1320.14 526.392C1319.9 526.403 1319.68 526.408 1319.48 526.408C1319.15 526.408 1318.9 526.362 1318.73 526.271C1318.56 526.179 1318.45 525.964 1318.4 525.627L1318.22 524.445C1318.18 524.173 1318.13 523.856 1318.07 523.493C1318.02 523.126 1317.98 522.752 1317.94 522.371H1317.87C1317.83 522.745 1317.78 523.114 1317.72 523.477C1317.67 523.836 1317.63 524.151 1317.59 524.423L1317.28 526.342C1317.1 526.364 1316.89 526.381 1316.64 526.392C1316.41 526.403 1316.18 526.408 1315.98 526.408C1315.66 526.408 1315.41 526.357 1315.24 526.254C1315.07 526.148 1314.95 525.931 1314.87 525.605L1313.81 520.958Z" fill="black"/>
</g>
</g>
<defs>
<filter id="filter0_i" x="119.289" y="133.5" width="500.396" height="452" filterUnits="userSpaceOnUse" color-interpolation-filters="sRGB">
<feFlood flood-opacity="0" result="BackgroundImageFix"/>
<feBlend mode="normal" in="SourceGraphic" in2="BackgroundImageFix" result="shape"/>
<feColorMatrix in="SourceAlpha" type="matrix" values="0 0 0 0 0 0 0 0 0 0 0 0 0 0 0 0 0 0 127 0" result="hardAlpha"/>
<feOffset dx="3" dy="4"/>
<feGaussianBlur stdDeviation="5"/>
<feComposite in2="hardAlpha" operator="arithmetic" k2="-1" k3="1"/>
<feColorMatrix type="matrix" values="0 0 0 0 0 0 0 0 0 0 0 0 0 0 0 0 0 0 0.5 0"/>
<feBlend mode="normal" in2="shape" result="effect1_innerShadow"/>
</filter>
<filter id="filter1_i" x="230.988" y="245.185" width="272.76" height="119.036" filterUnits="userSpaceOnUse" color-interpolation-filters="sRGB">
<feFlood flood-opacity="0" result="BackgroundImageFix"/>
<feBlend mode="normal" in="SourceGraphic" in2="BackgroundImageFix" result="shape"/>
<feColorMatrix in="SourceAlpha" type="matrix" values="0 0 0 0 0 0 0 0 0 0 0 0 0 0 0 0 0 0 127 0" result="hardAlpha"/>
<feOffset dy="4"/>
<feGaussianBlur stdDeviation="2"/>
<feComposite in2="hardAlpha" operator="arithmetic" k2="-1" k3="1"/>
<feColorMatrix type="matrix" values="0 0 0 0 0 0 0 0 0 0 0 0 0 0 0 0 0 0 0.25 0"/>
<feBlend mode="normal" in2="shape" result="effect1_innerShadow"/>
</filter>
<filter id="filter2_i" x="635.251" y="229.5" width="494.468" height="387" filterUnits="userSpaceOnUse" color-interpolation-filters="sRGB">
<feFlood flood-opacity="0" result="BackgroundImageFix"/>
<feBlend mode="normal" in="SourceGraphic" in2="BackgroundImageFix" result="shape"/>
<feColorMatrix in="SourceAlpha" type="matrix" values="0 0 0 0 0 0 0 0 0 0 0 0 0 0 0 0 0 0 127 0" result="hardAlpha"/>
<feOffset dx="2" dy="4"/>
<feGaussianBlur stdDeviation="5"/>
<feComposite in2="hardAlpha" operator="arithmetic" k2="-1" k3="1"/>
<feColorMatrix type="matrix" values="0 0 0 0 0 0 0 0 0 0 0 0 0 0 0 0 0 0 0.5 0"/>
<feBlend mode="normal" in2="shape" result="effect1_innerShadow"/>
</filter>
<filter id="filter3_i" x="755.664" y="328.276" width="252.201" height="217.048" filterUnits="userSpaceOnUse" color-interpolation-filters="sRGB">
<feFlood flood-opacity="0" result="BackgroundImageFix"/>
<feBlend mode="normal" in="SourceGraphic" in2="BackgroundImageFix" result="shape"/>
<feColorMatrix in="SourceAlpha" type="matrix" values="0 0 0 0 0 0 0 0 0 0 0 0 0 0 0 0 0 0 127 0" result="hardAlpha"/>
<feOffset dy="4"/>
<feGaussianBlur stdDeviation="2"/>
<feComposite in2="hardAlpha" operator="arithmetic" k2="-1" k3="1"/>
<feColorMatrix type="matrix" values="0 0 0 0 0 0 0 0 0 0 0 0 0 0 0 0 0 0 0.25 0"/>
<feBlend mode="normal" in2="shape" result="effect1_innerShadow"/>
</filter>
<filter id="filter4_i" x="1197.27" y="443.5" width="221.935" height="188" filterUnits="userSpaceOnUse" color-interpolation-filters="sRGB">
<feFlood flood-opacity="0" result="BackgroundImageFix"/>
<feBlend mode="normal" in="SourceGraphic" in2="BackgroundImageFix" result="shape"/>
<feColorMatrix in="SourceAlpha" type="matrix" values="0 0 0 0 0 0 0 0 0 0 0 0 0 0 0 0 0 0 127 0" result="hardAlpha"/>
<feOffset dy="4"/>
<feGaussianBlur stdDeviation="2"/>
<feComposite in2="hardAlpha" operator="arithmetic" k2="-1" k3="1"/>
<feColorMatrix type="matrix" values="0 0 0 0 0 0 0 0 0 0 0 0 0 0 0 0 0 0 0.25 0"/>
<feBlend mode="normal" in2="shape" result="effect1_innerShadow"/>
</filter>
<filter id="filter5_i" x="1290.96" y="490.246" width="31.362" height="40.261" filterUnits="userSpaceOnUse" color-interpolation-filters="sRGB">
<feFlood flood-opacity="0" result="BackgroundImageFix"/>
<feBlend mode="normal" in="SourceGraphic" in2="BackgroundImageFix" result="shape"/>
<feColorMatrix in="SourceAlpha" type="matrix" values="0 0 0 0 0 0 0 0 0 0 0 0 0 0 0 0 0 0 127 0" result="hardAlpha"/>
<feOffset dy="4"/>
<feGaussianBlur stdDeviation="2"/>
<feComposite in2="hardAlpha" operator="arithmetic" k2="-1" k3="1"/>
<feColorMatrix type="matrix" values="0 0 0 0 0 0 0 0 0 0 0 0 0 0 0 0 0 0 0.25 0"/>
<feBlend mode="normal" in2="shape" result="effect1_innerShadow"/>
</filter>
</defs>
</svg>