<svg width="1484" height="742" viewBox="0 0 1484 742" fill="none" xmlns="http://www.w3.org/2000/svg">
<rect width="1484" height="742" fill="#C4C4C4"/>
<g filter="url(#filter0_i)">
<path d="M101 124L267.487 581H467.272L616 124H101Z" fill="#C4C4C4" stroke="black"/>
<g filter="url(#filter1_i)">
<path d="M227.664 246.828C227.664 246.336 227.67 245.898 227.682 245.514C227.694 245.118 227.7 244.668 227.7 244.164H227.664C227.4 244.164 227.022 244.17 226.53 244.182C226.038 244.194 225.66 244.2 225.396 244.2H221.67C221.586 243.768 221.532 243.348 221.508 242.94C221.484 242.52 221.472 242.148 221.472 241.824C221.472 241.488 221.484 241.11 221.508 240.69C221.532 240.27 221.586 239.844 221.67 239.412H239.49C239.574 239.712 239.64 240.066 239.688 240.474C239.748 240.87 239.778 241.254 239.778 241.626C239.778 242.562 239.532 243.228 239.04 243.624C238.56 244.008 237.804 244.2 236.772 244.2H235.71C235.446 244.2 235.068 244.194 234.576 244.182C234.084 244.17 233.706 244.164 233.442 244.164H233.406C233.406 244.668 233.412 245.118 233.424 245.514C233.436 245.898 233.442 246.336 233.442 246.828V264C232.95 264.084 232.446 264.138 231.93 264.162C231.414 264.198 230.958 264.216 230.562 264.216C230.154 264.216 229.692 264.198 229.176 264.162C228.66 264.138 228.156 264.084 227.664 264V246.828ZM247.348 264C246.556 264.144 245.626 264.216 244.558 264.216C243.598 264.216 242.692 264.144 241.84 264V237.756L242.092 237.504H244.288C245.392 237.504 246.178 237.756 246.646 238.26C247.114 238.764 247.348 239.64 247.348 240.888V247.692C248.02 247.14 248.746 246.672 249.526 246.288C250.318 245.904 251.194 245.712 252.154 245.712C253.798 245.712 255.046 246.312 255.898 247.512C256.762 248.7 257.194 250.236 257.194 252.12V259.5C257.194 260.208 257.26 260.868 257.392 261.48C257.524 262.08 257.752 262.614 258.076 263.082C257.668 263.43 257.158 263.718 256.546 263.946C255.934 264.174 255.274 264.288 254.566 264.288C253.438 264.288 252.652 263.988 252.208 263.388C251.776 262.788 251.56 261.924 251.56 260.796V253.146C251.56 252.33 251.452 251.73 251.236 251.346C251.02 250.95 250.612 250.752 250.012 250.752C249.652 250.752 249.232 250.848 248.752 251.04C248.272 251.232 247.804 251.544 247.348 251.976V264ZM267.867 264C267.471 264.072 267.021 264.126 266.517 264.162C266.025 264.198 265.539 264.216 265.059 264.216C264.591 264.216 264.105 264.198 263.601 264.162C263.109 264.126 262.653 264.072 262.233 264V252.084C262.233 251.484 262.107 250.986 261.855 250.59C261.615 250.194 261.177 249.996 260.541 249.996H260.001C259.845 249.408 259.767 248.772 259.767 248.088C259.767 247.776 259.785 247.446 259.821 247.098C259.857 246.738 259.917 246.396 260.001 246.072C260.553 246.012 261.117 245.97 261.693 245.946C262.281 245.91 262.773 245.892 263.169 245.892H263.943C265.143 245.892 266.097 246.282 266.805 247.062C267.513 247.83 267.867 248.874 267.867 250.194V264ZM261.153 240.978C261.153 240.234 261.291 239.532 261.567 238.872C261.879 238.716 262.281 238.584 262.773 238.476C263.277 238.368 263.769 238.314 264.249 238.314C264.729 238.314 265.227 238.368 265.743 238.476C266.259 238.584 266.655 238.716 266.931 238.872C267.063 239.208 267.165 239.562 267.237 239.934C267.309 240.306 267.345 240.654 267.345 240.978C267.345 241.71 267.207 242.406 266.931 243.066C266.655 243.222 266.259 243.354 265.743 243.462C265.227 243.57 264.729 243.624 264.249 243.624C263.769 243.624 263.271 243.576 262.755 243.48C262.251 243.372 261.855 243.234 261.567 243.066C261.291 242.406 261.153 241.71 261.153 240.978ZM287.589 259.5C287.589 260.208 287.655 260.868 287.787 261.48C287.919 262.08 288.153 262.614 288.489 263.082C288.069 263.43 287.553 263.718 286.941 263.946C286.329 264.174 285.675 264.288 284.979 264.288C283.851 264.288 283.065 263.988 282.621 263.388C282.177 262.788 281.955 261.924 281.955 260.796V253.146C281.955 252.33 281.847 251.73 281.631 251.346C281.427 250.95 281.025 250.752 280.425 250.752C280.065 250.752 279.645 250.848 279.165 251.04C278.685 251.232 278.211 251.544 277.743 251.976V264C277.347 264.072 276.897 264.126 276.393 264.162C275.901 264.198 275.415 264.216 274.935 264.216C274.467 264.216 273.981 264.198 273.477 264.162C272.973 264.126 272.517 264.072 272.109 264V246.036L272.361 245.784H274.485C275.253 245.784 275.883 245.976 276.375 246.36C276.879 246.732 277.245 247.254 277.473 247.926C278.181 247.314 278.949 246.792 279.777 246.36C280.605 245.928 281.529 245.712 282.549 245.712C284.193 245.712 285.441 246.312 286.293 247.512C287.157 248.7 287.589 250.236 287.589 252.12V259.5ZM290.807 255.054C290.807 252.99 291.131 251.25 291.779 249.834C292.439 248.406 293.315 247.326 294.407 246.594C295.511 245.862 296.717 245.496 298.025 245.496C299.081 245.496 299.993 245.658 300.761 245.982C301.541 246.306 302.201 246.702 302.741 247.17C303.137 246.738 303.617 246.396 304.181 246.144C304.757 245.892 305.417 245.76 306.161 245.748C306.509 246.024 306.863 246.45 307.223 247.026C307.583 247.59 307.799 248.124 307.871 248.628C307.571 248.844 307.325 249.192 307.133 249.672C306.953 250.14 306.863 250.656 306.863 251.22V260.724C306.863 262.404 306.785 263.79 306.629 264.882C306.485 265.974 306.275 266.868 305.999 267.564C305.723 268.26 305.393 268.848 305.009 269.328C304.301 270.228 303.359 270.888 302.183 271.308C301.007 271.74 299.699 271.956 298.259 271.956C297.131 271.956 295.955 271.842 294.731 271.614C293.507 271.398 292.427 271.116 291.491 270.768C291.491 270.108 291.623 269.382 291.887 268.59C292.151 267.798 292.481 267.168 292.877 266.7C294.497 267.42 296.117 267.78 297.737 267.78C299.057 267.78 299.993 267.444 300.545 266.772C301.097 266.112 301.373 265.23 301.373 264.126V262.974C300.797 263.394 300.155 263.73 299.447 263.982C298.751 264.234 298.031 264.36 297.287 264.36C295.823 264.36 294.611 263.964 293.651 263.172C292.691 262.38 291.977 261.288 291.509 259.896C291.041 258.492 290.807 256.878 290.807 255.054ZM296.567 255.09C296.567 256.758 296.765 257.97 297.161 258.726C297.569 259.47 298.079 259.842 298.691 259.842C299.675 259.842 300.569 259.428 301.373 258.6V251.148C301.373 251.064 301.379 250.98 301.391 250.896C300.539 250.08 299.747 249.672 299.015 249.672C298.139 249.672 297.509 250.158 297.125 251.13C296.753 252.09 296.567 253.41 296.567 255.09ZM309.658 262.758C309.682 262.158 309.844 261.486 310.144 260.742C310.456 259.998 310.816 259.41 311.224 258.978C312.016 259.386 312.832 259.74 313.672 260.04C314.524 260.328 315.37 260.472 316.21 260.472C316.906 260.472 317.428 260.352 317.776 260.112C318.136 259.872 318.316 259.572 318.316 259.212C318.316 258.516 317.77 257.97 316.678 257.574L314.68 256.854C313.408 256.386 312.34 255.732 311.476 254.892C310.612 254.04 310.18 252.894 310.18 251.454C310.18 249.63 310.81 248.184 312.07 247.116C313.342 246.036 315.034 245.496 317.146 245.496C318.274 245.496 319.462 245.652 320.71 245.964C321.97 246.276 322.99 246.624 323.77 247.008C323.794 247.452 323.734 247.938 323.59 248.466C323.458 248.982 323.272 249.462 323.032 249.906C322.792 250.35 322.522 250.686 322.222 250.914C321.478 250.578 320.668 250.272 319.792 249.996C318.916 249.708 318.052 249.564 317.2 249.564C316.708 249.564 316.336 249.678 316.084 249.906C315.844 250.134 315.724 250.404 315.724 250.716C315.724 251.292 316.18 251.748 317.092 252.084L319.324 252.876C320.692 253.368 321.832 254.076 322.744 255C323.656 255.912 324.112 257.136 324.112 258.672C324.112 260.46 323.422 261.888 322.042 262.956C320.674 264.012 318.772 264.54 316.336 264.54C315.052 264.54 313.828 264.366 312.664 264.018C311.512 263.67 310.51 263.25 309.658 262.758ZM346.093 263.514C345.661 265.158 345.115 266.604 344.455 267.852C343.795 269.112 342.895 270.096 341.755 270.804C340.615 271.524 339.115 271.884 337.255 271.884C336.535 271.884 335.749 271.806 334.897 271.65C334.045 271.494 333.373 271.326 332.881 271.146C332.809 270.51 332.887 269.79 333.115 268.986C333.343 268.182 333.643 267.564 334.015 267.132C334.399 267.252 334.885 267.372 335.473 267.492C336.061 267.624 336.655 267.69 337.255 267.69C338.167 267.69 338.911 267.432 339.487 266.916C340.075 266.4 340.507 265.686 340.783 264.774L340.927 264.252C339.955 264.24 339.145 264.072 338.497 263.748C337.849 263.424 337.411 262.836 337.183 261.984L332.989 246.468C333.565 246.216 334.171 246.03 334.807 245.91C335.443 245.778 335.995 245.712 336.463 245.712C337.147 245.712 337.711 245.88 338.155 246.216C338.611 246.552 338.953 247.188 339.181 248.124L340.873 255.054C340.981 255.45 341.083 255.948 341.179 256.548C341.287 257.136 341.383 257.724 341.467 258.312C341.551 258.888 341.617 259.374 341.665 259.77C341.701 259.938 341.803 260.022 341.971 260.022L345.103 246.054C345.415 245.97 345.775 245.91 346.183 245.874C346.591 245.838 346.969 245.82 347.317 245.82C347.797 245.82 348.289 245.85 348.793 245.91C349.309 245.958 349.819 246.066 350.323 246.234L350.539 246.612L346.093 263.514ZM368.011 255.018C368.011 257.898 367.303 260.208 365.887 261.948C364.471 263.676 362.407 264.54 359.695 264.54C356.947 264.54 354.871 263.67 353.467 261.93C352.075 260.19 351.379 257.886 351.379 255.018C351.379 252.126 352.087 249.816 353.503 248.088C354.919 246.36 356.983 245.496 359.695 245.496C362.431 245.496 364.501 246.366 365.905 248.106C367.309 249.846 368.011 252.15 368.011 255.018ZM357.157 255.018C357.157 256.002 357.211 256.896 357.319 257.7C357.439 258.504 357.679 259.146 358.039 259.626C358.399 260.094 358.951 260.328 359.695 260.328C360.427 260.328 360.973 260.094 361.333 259.626C361.705 259.146 361.945 258.504 362.053 257.7C362.173 256.896 362.233 256.002 362.233 255.018C362.233 254.022 362.173 253.122 362.053 252.318C361.945 251.514 361.705 250.878 361.333 250.41C360.973 249.93 360.427 249.69 359.695 249.69C358.951 249.69 358.399 249.93 358.039 250.41C357.679 250.878 357.439 251.514 357.319 252.318C357.211 253.122 357.157 254.022 357.157 255.018ZM371.178 250.536C371.178 249.828 371.106 249.168 370.962 248.556C370.83 247.944 370.602 247.41 370.278 246.954C370.686 246.606 371.196 246.318 371.808 246.09C372.42 245.862 373.08 245.748 373.788 245.748C374.916 245.748 375.696 246.048 376.128 246.648C376.572 247.248 376.794 248.106 376.794 249.222V256.89C376.794 257.706 376.902 258.306 377.118 258.69C377.334 259.074 377.742 259.266 378.342 259.266C378.702 259.266 379.122 259.176 379.602 258.996C380.082 258.804 380.556 258.492 381.024 258.06V246.036C381.408 245.964 381.852 245.91 382.356 245.874C382.86 245.838 383.352 245.82 383.832 245.82C384.3 245.82 384.78 245.838 385.272 245.874C385.776 245.91 386.232 245.964 386.64 246.036V258.87C386.64 259.446 386.73 259.968 386.91 260.436C387.102 260.904 387.348 261.246 387.648 261.462C387.552 261.966 387.33 262.494 386.982 263.046C386.634 263.598 386.286 264.012 385.938 264.288C384.918 264.264 384.048 264.024 383.328 263.568C382.62 263.1 382.074 262.494 381.69 261.75C380.922 262.446 380.094 263.052 379.206 263.568C378.318 264.072 377.322 264.324 376.218 264.324C374.574 264.324 373.32 263.724 372.456 262.524C371.604 261.324 371.178 259.788 371.178 257.916V250.536ZM397.928 255.234C397.928 253.17 398.252 251.43 398.9 250.014C399.56 248.586 400.436 247.506 401.528 246.774C402.62 246.042 403.826 245.676 405.146 245.676C405.77 245.676 406.352 245.748 406.892 245.892C407.444 246.036 407.966 246.222 408.458 246.45V237.756L408.71 237.504H410.906C412.01 237.504 412.79 237.756 413.246 238.26C413.714 238.764 413.948 239.64 413.948 240.888V258.798C413.948 259.374 414.038 259.896 414.218 260.364C414.41 260.832 414.656 261.18 414.956 261.408C414.848 261.9 414.62 262.434 414.272 263.01C413.936 263.586 413.594 264.012 413.246 264.288C412.346 264.264 411.572 264.078 410.924 263.73C410.288 263.37 409.772 262.89 409.376 262.29C408.752 262.95 408.014 263.49 407.162 263.91C406.31 264.33 405.386 264.54 404.39 264.54C402.926 264.54 401.714 264.144 400.754 263.352C399.806 262.56 399.098 261.468 398.63 260.076C398.162 258.672 397.928 257.058 397.928 255.234ZM403.688 255.27C403.688 256.938 403.892 258.15 404.3 258.906C404.708 259.65 405.224 260.022 405.848 260.022C406.208 260.022 406.622 259.926 407.09 259.734C407.558 259.542 408.014 259.17 408.458 258.618V250.698C408.038 250.446 407.63 250.242 407.234 250.086C406.838 249.93 406.466 249.852 406.118 249.852C405.254 249.852 404.63 250.338 404.246 251.31C403.874 252.282 403.688 253.602 403.688 255.27ZM433.859 255.018C433.859 257.898 433.151 260.208 431.735 261.948C430.319 263.676 428.255 264.54 425.543 264.54C422.795 264.54 420.719 263.67 419.315 261.93C417.923 260.19 417.227 257.886 417.227 255.018C417.227 252.126 417.935 249.816 419.351 248.088C420.767 246.36 422.831 245.496 425.543 245.496C428.279 245.496 430.349 246.366 431.753 248.106C433.157 249.846 433.859 252.15 433.859 255.018ZM423.005 255.018C423.005 256.002 423.059 256.896 423.167 257.7C423.287 258.504 423.527 259.146 423.887 259.626C424.247 260.094 424.799 260.328 425.543 260.328C426.275 260.328 426.821 260.094 427.181 259.626C427.553 259.146 427.793 258.504 427.901 257.7C428.021 256.896 428.081 256.002 428.081 255.018C428.081 254.022 428.021 253.122 427.901 252.318C427.793 251.514 427.553 250.878 427.181 250.41C426.821 249.93 426.275 249.69 425.543 249.69C424.799 249.69 424.247 249.93 423.887 250.41C423.527 250.878 423.287 251.514 423.167 252.318C423.059 253.122 423.005 254.022 423.005 255.018ZM460.488 259.5C460.488 260.208 460.554 260.868 460.686 261.48C460.818 262.08 461.052 262.614 461.388 263.082C460.968 263.43 460.452 263.718 459.84 263.946C459.228 264.174 458.574 264.288 457.878 264.288C456.75 264.288 455.964 263.988 455.52 263.388C455.076 262.788 454.854 261.924 454.854 260.796V253.146C454.854 252.33 454.746 251.73 454.53 251.346C454.326 250.95 453.924 250.752 453.324 250.752C452.964 250.752 452.544 250.848 452.064 251.04C451.584 251.232 451.11 251.544 450.642 251.976V264C450.246 264.072 449.796 264.126 449.292 264.162C448.8 264.198 448.314 264.216 447.834 264.216C447.366 264.216 446.88 264.198 446.376 264.162C445.872 264.126 445.416 264.072 445.008 264V246.036L445.26 245.784H447.384C448.152 245.784 448.782 245.976 449.274 246.36C449.778 246.732 450.144 247.254 450.372 247.926C451.08 247.314 451.848 246.792 452.676 246.36C453.504 245.928 454.428 245.712 455.448 245.712C457.092 245.712 458.34 246.312 459.192 247.512C460.056 248.7 460.488 250.236 460.488 252.12V259.5ZM480.265 255.018C480.265 257.898 479.557 260.208 478.141 261.948C476.725 263.676 474.661 264.54 471.949 264.54C469.201 264.54 467.125 263.67 465.721 261.93C464.329 260.19 463.633 257.886 463.633 255.018C463.633 252.126 464.341 249.816 465.757 248.088C467.173 246.36 469.237 245.496 471.949 245.496C474.685 245.496 476.755 246.366 478.159 248.106C479.563 249.846 480.265 252.15 480.265 255.018ZM469.411 255.018C469.411 256.002 469.465 256.896 469.573 257.7C469.693 258.504 469.933 259.146 470.293 259.626C470.653 260.094 471.205 260.328 471.949 260.328C472.681 260.328 473.227 260.094 473.587 259.626C473.959 259.146 474.199 258.504 474.307 257.7C474.427 256.896 474.487 256.002 474.487 255.018C474.487 254.022 474.427 253.122 474.307 252.318C474.199 251.514 473.959 250.878 473.587 250.41C473.227 249.93 472.681 249.69 471.949 249.69C471.205 249.69 470.653 249.93 470.293 250.41C469.933 250.878 469.693 251.514 469.573 252.318C469.465 253.122 469.411 254.022 469.411 255.018ZM484.225 244.002C484.225 242.742 484.453 241.866 484.909 241.374C485.377 240.87 486.163 240.618 487.267 240.618H489.463L489.715 240.87V246.054L493.981 246C494.149 246.636 494.233 247.29 494.233 247.962C494.233 248.706 494.149 249.384 493.981 249.996L489.715 249.924V258.204C489.715 259.332 490.249 259.896 491.317 259.896H493.333C493.633 260.76 493.783 261.648 493.783 262.56C493.783 262.764 493.771 262.98 493.747 263.208C493.723 263.436 493.687 263.64 493.639 263.82C492.979 263.916 492.217 264 491.353 264.072C490.489 264.144 489.697 264.18 488.977 264.18C487.345 264.18 486.145 263.778 485.377 262.974C484.609 262.158 484.225 260.892 484.225 259.176V249.942L481.399 249.996C481.243 249.384 481.165 248.706 481.165 247.962C481.165 247.29 481.243 246.636 481.399 246L484.225 246.036V244.002ZM234.569 308C234.173 308.072 233.729 308.126 233.237 308.162C232.745 308.198 232.259 308.216 231.779 308.216C230.795 308.216 229.889 308.144 229.061 308V281.756L229.313 281.504H231.509C232.613 281.504 233.399 281.756 233.867 282.26C234.335 282.764 234.569 283.64 234.569 284.888V296.192H235.127C235.379 296.192 235.577 296.15 235.721 296.066C235.865 295.982 236.009 295.814 236.153 295.562L238.025 291.944C238.361 291.26 238.775 290.75 239.267 290.414C239.771 290.066 240.401 289.892 241.157 289.892C241.757 289.892 242.303 289.898 242.795 289.91C243.287 289.922 243.791 289.94 244.307 289.964L244.523 290.252L241.751 295.616C241.295 296.504 240.677 297.206 239.897 297.722C240.593 297.974 241.193 298.358 241.697 298.874C242.213 299.378 242.603 300.032 242.867 300.836L243.749 303.464C244.049 304.4 244.319 305.078 244.559 305.498C244.799 305.918 245.105 306.26 245.477 306.524C245.033 307.028 244.475 307.448 243.803 307.784C243.131 308.12 242.429 308.288 241.697 308.288C240.893 308.288 240.287 308.096 239.879 307.712C239.483 307.328 239.135 306.686 238.835 305.786L237.773 302.672C237.521 301.904 237.233 301.4 236.909 301.16C236.585 300.92 236.177 300.8 235.685 300.8C235.301 300.8 234.929 300.812 234.569 300.836V308ZM263.384 303.5C263.384 304.208 263.45 304.868 263.582 305.48C263.714 306.08 263.948 306.614 264.284 307.082C263.864 307.43 263.348 307.718 262.736 307.946C262.124 308.174 261.47 308.288 260.774 308.288C259.646 308.288 258.86 307.988 258.416 307.388C257.972 306.788 257.75 305.924 257.75 304.796V297.146C257.75 296.33 257.642 295.73 257.426 295.346C257.222 294.95 256.82 294.752 256.22 294.752C255.86 294.752 255.44 294.848 254.96 295.04C254.48 295.232 254.006 295.544 253.538 295.976V308C253.142 308.072 252.692 308.126 252.188 308.162C251.696 308.198 251.21 308.216 250.73 308.216C250.262 308.216 249.776 308.198 249.272 308.162C248.768 308.126 248.312 308.072 247.904 308V290.036L248.156 289.784H250.28C251.048 289.784 251.678 289.976 252.17 290.36C252.674 290.732 253.04 291.254 253.268 291.926C253.976 291.314 254.744 290.792 255.572 290.36C256.4 289.928 257.324 289.712 258.344 289.712C259.988 289.712 261.236 290.312 262.088 291.512C262.952 292.7 263.384 294.236 263.384 296.12V303.5ZM283.162 299.018C283.162 301.898 282.454 304.208 281.038 305.948C279.622 307.676 277.558 308.54 274.846 308.54C272.098 308.54 270.022 307.67 268.618 305.93C267.226 304.19 266.53 301.886 266.53 299.018C266.53 296.126 267.238 293.816 268.654 292.088C270.07 290.36 272.134 289.496 274.846 289.496C277.582 289.496 279.652 290.366 281.056 292.106C282.46 293.846 283.162 296.15 283.162 299.018ZM272.308 299.018C272.308 300.002 272.362 300.896 272.47 301.7C272.59 302.504 272.83 303.146 273.19 303.626C273.55 304.094 274.102 304.328 274.846 304.328C275.578 304.328 276.124 304.094 276.484 303.626C276.856 303.146 277.096 302.504 277.204 301.7C277.324 300.896 277.384 300.002 277.384 299.018C277.384 298.022 277.324 297.122 277.204 296.318C277.096 295.514 276.856 294.878 276.484 294.41C276.124 293.93 275.578 293.69 274.846 293.69C274.102 293.69 273.55 293.93 273.19 294.41C272.83 294.878 272.59 295.514 272.47 296.318C272.362 297.122 272.308 298.022 272.308 299.018ZM284.385 290.378C285.513 289.934 286.557 289.712 287.517 289.712C288.417 289.712 289.047 289.922 289.407 290.342C289.779 290.762 290.043 291.35 290.199 292.106L291.315 297.92C291.807 300.332 292.119 302.21 292.251 303.554C292.287 303.746 292.383 303.842 292.539 303.842L294.519 290.234C294.963 290.126 295.527 290.054 296.211 290.018C296.895 289.97 297.411 289.946 297.759 289.946C298.131 289.946 298.671 289.97 299.379 290.018C300.099 290.054 300.669 290.126 301.089 290.234L303.123 303.554C303.159 303.746 303.255 303.842 303.411 303.842C303.531 303.014 303.669 302.102 303.825 301.106C303.993 300.098 304.185 299.036 304.401 297.92L306.003 290.054C306.315 289.97 306.669 289.91 307.065 289.874C307.461 289.838 307.821 289.82 308.145 289.82C308.529 289.82 309.021 289.85 309.621 289.91C310.233 289.97 310.737 290.096 311.133 290.288L311.295 290.63L307.101 308C306.537 308.084 305.871 308.138 305.103 308.162C304.335 308.198 303.621 308.216 302.961 308.216C301.881 308.216 301.059 308.066 300.495 307.766C299.943 307.466 299.589 306.764 299.433 305.66L298.821 301.79C298.689 300.902 298.533 299.864 298.353 298.676C298.185 297.476 298.035 296.252 297.903 295.004H297.687C297.543 296.228 297.381 297.434 297.201 298.622C297.033 299.798 296.883 300.83 296.751 301.718L295.743 308C295.155 308.072 294.465 308.126 293.673 308.162C292.893 308.198 292.167 308.216 291.495 308.216C290.439 308.216 289.635 308.048 289.083 307.712C288.531 307.364 288.129 306.656 287.877 305.588L284.385 290.378ZM332.61 307.514C332.178 309.158 331.632 310.604 330.972 311.852C330.312 313.112 329.412 314.096 328.272 314.804C327.132 315.524 325.632 315.884 323.772 315.884C323.052 315.884 322.266 315.806 321.414 315.65C320.562 315.494 319.89 315.326 319.398 315.146C319.326 314.51 319.404 313.79 319.632 312.986C319.86 312.182 320.16 311.564 320.532 311.132C320.916 311.252 321.402 311.372 321.99 311.492C322.578 311.624 323.172 311.69 323.772 311.69C324.684 311.69 325.428 311.432 326.004 310.916C326.592 310.4 327.024 309.686 327.3 308.774L327.444 308.252C326.472 308.24 325.662 308.072 325.014 307.748C324.366 307.424 323.928 306.836 323.7 305.984L319.506 290.468C320.082 290.216 320.688 290.03 321.324 289.91C321.96 289.778 322.512 289.712 322.98 289.712C323.664 289.712 324.228 289.88 324.672 290.216C325.128 290.552 325.47 291.188 325.698 292.124L327.39 299.054C327.498 299.45 327.6 299.948 327.696 300.548C327.804 301.136 327.9 301.724 327.984 302.312C328.068 302.888 328.134 303.374 328.182 303.77C328.218 303.938 328.32 304.022 328.488 304.022L331.62 290.054C331.932 289.97 332.292 289.91 332.7 289.874C333.108 289.838 333.486 289.82 333.834 289.82C334.314 289.82 334.806 289.85 335.31 289.91C335.826 289.958 336.336 290.066 336.84 290.234L337.056 290.612L332.61 307.514ZM354.529 299.018C354.529 301.898 353.821 304.208 352.405 305.948C350.989 307.676 348.925 308.54 346.213 308.54C343.465 308.54 341.389 307.67 339.985 305.93C338.593 304.19 337.897 301.886 337.897 299.018C337.897 296.126 338.605 293.816 340.021 292.088C341.437 290.36 343.501 289.496 346.213 289.496C348.949 289.496 351.019 290.366 352.423 292.106C353.827 293.846 354.529 296.15 354.529 299.018ZM343.675 299.018C343.675 300.002 343.729 300.896 343.837 301.7C343.957 302.504 344.197 303.146 344.557 303.626C344.917 304.094 345.469 304.328 346.213 304.328C346.945 304.328 347.491 304.094 347.851 303.626C348.223 303.146 348.463 302.504 348.571 301.7C348.691 300.896 348.751 300.002 348.751 299.018C348.751 298.022 348.691 297.122 348.571 296.318C348.463 295.514 348.223 294.878 347.851 294.41C347.491 293.93 346.945 293.69 346.213 293.69C345.469 293.69 344.917 293.93 344.557 294.41C344.197 294.878 343.957 295.514 343.837 296.318C343.729 297.122 343.675 298.022 343.675 299.018ZM357.696 294.536C357.696 293.828 357.624 293.168 357.48 292.556C357.348 291.944 357.12 291.41 356.796 290.954C357.204 290.606 357.714 290.318 358.326 290.09C358.938 289.862 359.598 289.748 360.306 289.748C361.434 289.748 362.214 290.048 362.646 290.648C363.09 291.248 363.312 292.106 363.312 293.222V300.89C363.312 301.706 363.42 302.306 363.636 302.69C363.852 303.074 364.26 303.266 364.86 303.266C365.22 303.266 365.64 303.176 366.12 302.996C366.6 302.804 367.074 302.492 367.542 302.06V290.036C367.926 289.964 368.37 289.91 368.874 289.874C369.378 289.838 369.87 289.82 370.35 289.82C370.818 289.82 371.298 289.838 371.79 289.874C372.294 289.91 372.75 289.964 373.158 290.036V302.87C373.158 303.446 373.248 303.968 373.428 304.436C373.62 304.904 373.866 305.246 374.166 305.462C374.07 305.966 373.848 306.494 373.5 307.046C373.152 307.598 372.804 308.012 372.456 308.288C371.436 308.264 370.566 308.024 369.846 307.568C369.138 307.1 368.592 306.494 368.208 305.75C367.44 306.446 366.612 307.052 365.724 307.568C364.836 308.072 363.84 308.324 362.736 308.324C361.092 308.324 359.838 307.724 358.974 306.524C358.122 305.324 357.696 303.788 357.696 301.916V294.536ZM392.356 299.234C392.356 297.17 392.68 295.43 393.328 294.014C393.988 292.586 394.864 291.506 395.956 290.774C397.048 290.042 398.254 289.676 399.574 289.676C400.198 289.676 400.78 289.748 401.32 289.892C401.872 290.036 402.394 290.222 402.886 290.45V281.756L403.138 281.504H405.334C406.438 281.504 407.218 281.756 407.674 282.26C408.142 282.764 408.376 283.64 408.376 284.888V302.798C408.376 303.374 408.466 303.896 408.646 304.364C408.838 304.832 409.084 305.18 409.384 305.408C409.276 305.9 409.048 306.434 408.7 307.01C408.364 307.586 408.022 308.012 407.674 308.288C406.774 308.264 406 308.078 405.352 307.73C404.716 307.37 404.2 306.89 403.804 306.29C403.18 306.95 402.442 307.49 401.59 307.91C400.738 308.33 399.814 308.54 398.818 308.54C397.354 308.54 396.142 308.144 395.182 307.352C394.234 306.56 393.526 305.468 393.058 304.076C392.59 302.672 392.356 301.058 392.356 299.234ZM398.116 299.27C398.116 300.938 398.32 302.15 398.728 302.906C399.136 303.65 399.652 304.022 400.276 304.022C400.636 304.022 401.05 303.926 401.518 303.734C401.986 303.542 402.442 303.17 402.886 302.618V294.698C402.466 294.446 402.058 294.242 401.662 294.086C401.266 293.93 400.894 293.852 400.546 293.852C399.682 293.852 399.058 294.338 398.674 295.31C398.302 296.282 398.116 297.602 398.116 299.27ZM428.287 299.018C428.287 301.898 427.579 304.208 426.163 305.948C424.747 307.676 422.683 308.54 419.971 308.54C417.223 308.54 415.147 307.67 413.743 305.93C412.351 304.19 411.655 301.886 411.655 299.018C411.655 296.126 412.363 293.816 413.779 292.088C415.195 290.36 417.259 289.496 419.971 289.496C422.707 289.496 424.777 290.366 426.181 292.106C427.585 293.846 428.287 296.15 428.287 299.018ZM417.433 299.018C417.433 300.002 417.487 300.896 417.595 301.7C417.715 302.504 417.955 303.146 418.315 303.626C418.675 304.094 419.227 304.328 419.971 304.328C420.703 304.328 421.249 304.094 421.609 303.626C421.981 303.146 422.221 302.504 422.329 301.7C422.449 300.896 422.509 300.002 422.509 299.018C422.509 298.022 422.449 297.122 422.329 296.318C422.221 295.514 421.981 294.878 421.609 294.41C421.249 293.93 420.703 293.69 419.971 293.69C419.227 293.69 418.675 293.93 418.315 294.41C417.955 294.878 417.715 295.514 417.595 296.318C417.487 297.122 417.433 298.022 417.433 299.018ZM454.916 303.5C454.916 304.208 454.982 304.868 455.114 305.48C455.246 306.08 455.48 306.614 455.816 307.082C455.396 307.43 454.88 307.718 454.268 307.946C453.656 308.174 453.002 308.288 452.306 308.288C451.178 308.288 450.392 307.988 449.948 307.388C449.504 306.788 449.282 305.924 449.282 304.796V297.146C449.282 296.33 449.174 295.73 448.958 295.346C448.754 294.95 448.352 294.752 447.752 294.752C447.392 294.752 446.972 294.848 446.492 295.04C446.012 295.232 445.538 295.544 445.07 295.976V308C444.674 308.072 444.224 308.126 443.72 308.162C443.228 308.198 442.742 308.216 442.262 308.216C441.794 308.216 441.308 308.198 440.804 308.162C440.3 308.126 439.844 308.072 439.436 308V290.036L439.688 289.784H441.812C442.58 289.784 443.21 289.976 443.702 290.36C444.206 290.732 444.572 291.254 444.8 291.926C445.508 291.314 446.276 290.792 447.104 290.36C447.932 289.928 448.856 289.712 449.876 289.712C451.52 289.712 452.768 290.312 453.62 291.512C454.484 292.7 454.916 294.236 454.916 296.12V303.5ZM474.693 299.018C474.693 301.898 473.985 304.208 472.569 305.948C471.153 307.676 469.089 308.54 466.377 308.54C463.629 308.54 461.553 307.67 460.149 305.93C458.757 304.19 458.061 301.886 458.061 299.018C458.061 296.126 458.769 293.816 460.185 292.088C461.601 290.36 463.665 289.496 466.377 289.496C469.113 289.496 471.183 290.366 472.587 292.106C473.991 293.846 474.693 296.15 474.693 299.018ZM463.839 299.018C463.839 300.002 463.893 300.896 464.001 301.7C464.121 302.504 464.361 303.146 464.721 303.626C465.081 304.094 465.633 304.328 466.377 304.328C467.109 304.328 467.655 304.094 468.015 303.626C468.387 303.146 468.627 302.504 468.735 301.7C468.855 300.896 468.915 300.002 468.915 299.018C468.915 298.022 468.855 297.122 468.735 296.318C468.627 295.514 468.387 294.878 468.015 294.41C467.655 293.93 467.109 293.69 466.377 293.69C465.633 293.69 465.081 293.93 464.721 294.41C464.361 294.878 464.121 295.514 464.001 296.318C463.893 297.122 463.839 298.022 463.839 299.018ZM478.653 288.002C478.653 286.742 478.881 285.866 479.337 285.374C479.805 284.87 480.591 284.618 481.695 284.618H483.891L484.143 284.87V290.054L488.409 290C488.577 290.636 488.661 291.29 488.661 291.962C488.661 292.706 488.577 293.384 488.409 293.996L484.143 293.924V302.204C484.143 303.332 484.677 303.896 485.745 303.896H487.761C488.061 304.76 488.211 305.648 488.211 306.56C488.211 306.764 488.199 306.98 488.175 307.208C488.151 307.436 488.115 307.64 488.067 307.82C487.407 307.916 486.645 308 485.781 308.072C484.917 308.144 484.125 308.18 483.405 308.18C481.773 308.18 480.573 307.778 479.805 306.974C479.037 306.158 478.653 304.892 478.653 303.176V293.942L475.827 293.996C475.671 293.384 475.593 292.706 475.593 291.962C475.593 291.29 475.671 290.636 475.827 290L478.653 290.036V288.002ZM323.461 352C323.065 352.072 322.621 352.126 322.129 352.162C321.637 352.198 321.151 352.216 320.671 352.216C319.687 352.216 318.781 352.144 317.953 352V325.756L318.205 325.504H320.401C321.505 325.504 322.291 325.756 322.759 326.26C323.227 326.764 323.461 327.64 323.461 328.888V340.192H324.019C324.271 340.192 324.469 340.15 324.613 340.066C324.757 339.982 324.901 339.814 325.045 339.562L326.917 335.944C327.253 335.26 327.667 334.75 328.159 334.414C328.663 334.066 329.293 333.892 330.049 333.892C330.649 333.892 331.195 333.898 331.687 333.91C332.179 333.922 332.683 333.94 333.199 333.964L333.415 334.252L330.643 339.616C330.187 340.504 329.569 341.206 328.789 341.722C329.485 341.974 330.085 342.358 330.589 342.874C331.105 343.378 331.495 344.032 331.759 344.836L332.641 347.464C332.941 348.4 333.211 349.078 333.451 349.498C333.691 349.918 333.997 350.26 334.369 350.524C333.925 351.028 333.367 351.448 332.695 351.784C332.023 352.12 331.321 352.288 330.589 352.288C329.785 352.288 329.179 352.096 328.771 351.712C328.375 351.328 328.027 350.686 327.727 349.786L326.665 346.672C326.413 345.904 326.125 345.4 325.801 345.16C325.477 344.92 325.069 344.8 324.577 344.8C324.193 344.8 323.821 344.812 323.461 344.836V352ZM352.277 347.5C352.277 348.208 352.343 348.868 352.475 349.48C352.607 350.08 352.841 350.614 353.177 351.082C352.757 351.43 352.241 351.718 351.629 351.946C351.017 352.174 350.363 352.288 349.667 352.288C348.539 352.288 347.753 351.988 347.309 351.388C346.865 350.788 346.643 349.924 346.643 348.796V341.146C346.643 340.33 346.535 339.73 346.319 339.346C346.115 338.95 345.713 338.752 345.113 338.752C344.753 338.752 344.333 338.848 343.853 339.04C343.373 339.232 342.899 339.544 342.431 339.976V352C342.035 352.072 341.585 352.126 341.081 352.162C340.589 352.198 340.103 352.216 339.623 352.216C339.155 352.216 338.669 352.198 338.165 352.162C337.661 352.126 337.205 352.072 336.797 352V334.036L337.049 333.784H339.173C339.941 333.784 340.571 333.976 341.063 334.36C341.567 334.732 341.933 335.254 342.161 335.926C342.869 335.314 343.637 334.792 344.465 334.36C345.293 333.928 346.217 333.712 347.237 333.712C348.881 333.712 350.129 334.312 350.981 335.512C351.845 336.7 352.277 338.236 352.277 340.12V347.5ZM372.054 343.018C372.054 345.898 371.346 348.208 369.93 349.948C368.514 351.676 366.45 352.54 363.738 352.54C360.99 352.54 358.914 351.67 357.51 349.93C356.118 348.19 355.422 345.886 355.422 343.018C355.422 340.126 356.13 337.816 357.546 336.088C358.962 334.36 361.026 333.496 363.738 333.496C366.474 333.496 368.544 334.366 369.948 336.106C371.352 337.846 372.054 340.15 372.054 343.018ZM361.2 343.018C361.2 344.002 361.254 344.896 361.362 345.7C361.482 346.504 361.722 347.146 362.082 347.626C362.442 348.094 362.994 348.328 363.738 348.328C364.47 348.328 365.016 348.094 365.376 347.626C365.748 347.146 365.988 346.504 366.096 345.7C366.216 344.896 366.276 344.002 366.276 343.018C366.276 342.022 366.216 341.122 366.096 340.318C365.988 339.514 365.748 338.878 365.376 338.41C365.016 337.93 364.47 337.69 363.738 337.69C362.994 337.69 362.442 337.93 362.082 338.41C361.722 338.878 361.482 339.514 361.362 340.318C361.254 341.122 361.2 342.022 361.2 343.018ZM373.278 334.378C374.406 333.934 375.45 333.712 376.41 333.712C377.31 333.712 377.94 333.922 378.3 334.342C378.672 334.762 378.936 335.35 379.092 336.106L380.208 341.92C380.7 344.332 381.012 346.21 381.144 347.554C381.18 347.746 381.276 347.842 381.432 347.842L383.412 334.234C383.856 334.126 384.42 334.054 385.104 334.018C385.788 333.97 386.304 333.946 386.652 333.946C387.024 333.946 387.564 333.97 388.272 334.018C388.992 334.054 389.562 334.126 389.982 334.234L392.016 347.554C392.052 347.746 392.148 347.842 392.304 347.842C392.424 347.014 392.562 346.102 392.718 345.106C392.886 344.098 393.078 343.036 393.294 341.92L394.896 334.054C395.208 333.97 395.562 333.91 395.958 333.874C396.354 333.838 396.714 333.82 397.038 333.82C397.422 333.82 397.914 333.85 398.514 333.91C399.126 333.97 399.63 334.096 400.026 334.288L400.188 334.63L395.994 352C395.43 352.084 394.764 352.138 393.996 352.162C393.228 352.198 392.514 352.216 391.854 352.216C390.774 352.216 389.952 352.066 389.388 351.766C388.836 351.466 388.482 350.764 388.326 349.66L387.714 345.79C387.582 344.902 387.426 343.864 387.246 342.676C387.078 341.476 386.928 340.252 386.796 339.004H386.58C386.436 340.228 386.274 341.434 386.094 342.622C385.926 343.798 385.776 344.83 385.644 345.718L384.636 352C384.048 352.072 383.358 352.126 382.566 352.162C381.786 352.198 381.06 352.216 380.388 352.216C379.332 352.216 378.528 352.048 377.976 351.712C377.424 351.364 377.022 350.656 376.77 349.588L373.278 334.378Z" fill="black"/>
</g>
</g>
<g filter="url(#filter2_i)">
<path d="M677 276L822.474 612H997.043L1127 276H677Z" fill="#C4C4C4" fill-opacity="0.5" stroke="black"/>
<g filter="url(#filter3_i)">
<path d="M801.137 370.762C801.137 370.27 801.143 369.832 801.155 369.448C801.167 369.052 801.173 368.602 801.173 368.098H801.137C800.873 368.098 800.495 368.104 800.003 368.116C799.511 368.128 799.133 368.134 798.869 368.134H795.143C795.059 367.702 795.005 367.282 794.981 366.874C794.957 366.454 794.945 366.082 794.945 365.758C794.945 365.422 794.957 365.044 794.981 364.624C795.005 364.204 795.059 363.778 795.143 363.346H812.963C813.047 363.646 813.113 364 813.161 364.408C813.221 364.804 813.251 365.188 813.251 365.56C813.251 366.496 813.005 367.162 812.513 367.558C812.033 367.942 811.277 368.134 810.245 368.134H809.183C808.919 368.134 808.541 368.128 808.049 368.116C807.557 368.104 807.179 368.098 806.915 368.098H806.879C806.879 368.602 806.885 369.052 806.897 369.448C806.909 369.832 806.915 370.27 806.915 370.762V387.934C806.423 388.018 805.919 388.072 805.403 388.096C804.887 388.132 804.431 388.15 804.035 388.15C803.627 388.15 803.165 388.132 802.649 388.096C802.133 388.072 801.629 388.018 801.137 387.934V370.762ZM820.82 387.934C820.028 388.078 819.098 388.15 818.03 388.15C817.07 388.15 816.164 388.078 815.312 387.934V361.69L815.564 361.438H817.76C818.864 361.438 819.65 361.69 820.118 362.194C820.586 362.698 820.82 363.574 820.82 364.822V371.626C821.492 371.074 822.218 370.606 822.998 370.222C823.79 369.838 824.666 369.646 825.626 369.646C827.27 369.646 828.518 370.246 829.37 371.446C830.234 372.634 830.666 374.17 830.666 376.054V383.434C830.666 384.142 830.732 384.802 830.864 385.414C830.996 386.014 831.224 386.548 831.548 387.016C831.14 387.364 830.63 387.652 830.018 387.88C829.406 388.108 828.746 388.222 828.038 388.222C826.91 388.222 826.124 387.922 825.68 387.322C825.248 386.722 825.032 385.858 825.032 384.73V377.08C825.032 376.264 824.924 375.664 824.708 375.28C824.492 374.884 824.084 374.686 823.484 374.686C823.124 374.686 822.704 374.782 822.224 374.974C821.744 375.166 821.276 375.478 820.82 375.91V387.934ZM841.339 387.934C840.943 388.006 840.493 388.06 839.989 388.096C839.497 388.132 839.011 388.15 838.531 388.15C838.063 388.15 837.577 388.132 837.073 388.096C836.581 388.06 836.125 388.006 835.705 387.934V376.018C835.705 375.418 835.579 374.92 835.327 374.524C835.087 374.128 834.649 373.93 834.013 373.93H833.473C833.317 373.342 833.239 372.706 833.239 372.022C833.239 371.71 833.257 371.38 833.293 371.032C833.329 370.672 833.389 370.33 833.473 370.006C834.025 369.946 834.589 369.904 835.165 369.88C835.753 369.844 836.245 369.826 836.641 369.826H837.415C838.615 369.826 839.569 370.216 840.277 370.996C840.985 371.764 841.339 372.808 841.339 374.128V387.934ZM834.625 364.912C834.625 364.168 834.763 363.466 835.039 362.806C835.351 362.65 835.753 362.518 836.245 362.41C836.749 362.302 837.241 362.248 837.721 362.248C838.201 362.248 838.699 362.302 839.215 362.41C839.731 362.518 840.127 362.65 840.403 362.806C840.535 363.142 840.637 363.496 840.709 363.868C840.781 364.24 840.817 364.588 840.817 364.912C840.817 365.644 840.679 366.34 840.403 367C840.127 367.156 839.731 367.288 839.215 367.396C838.699 367.504 838.201 367.558 837.721 367.558C837.241 367.558 836.743 367.51 836.227 367.414C835.723 367.306 835.327 367.168 835.039 367C834.763 366.34 834.625 365.644 834.625 364.912ZM861.062 383.434C861.062 384.142 861.128 384.802 861.26 385.414C861.392 386.014 861.626 386.548 861.962 387.016C861.542 387.364 861.026 387.652 860.414 387.88C859.802 388.108 859.148 388.222 858.452 388.222C857.324 388.222 856.538 387.922 856.094 387.322C855.65 386.722 855.428 385.858 855.428 384.73V377.08C855.428 376.264 855.32 375.664 855.104 375.28C854.9 374.884 854.498 374.686 853.898 374.686C853.538 374.686 853.118 374.782 852.638 374.974C852.158 375.166 851.684 375.478 851.216 375.91V387.934C850.82 388.006 850.37 388.06 849.866 388.096C849.374 388.132 848.888 388.15 848.408 388.15C847.94 388.15 847.454 388.132 846.95 388.096C846.446 388.06 845.99 388.006 845.582 387.934V369.97L845.834 369.718H847.958C848.726 369.718 849.356 369.91 849.848 370.294C850.352 370.666 850.718 371.188 850.946 371.86C851.654 371.248 852.422 370.726 853.25 370.294C854.078 369.862 855.002 369.646 856.022 369.646C857.666 369.646 858.914 370.246 859.766 371.446C860.63 372.634 861.062 374.17 861.062 376.054V383.434ZM864.279 378.988C864.279 376.924 864.603 375.184 865.251 373.768C865.911 372.34 866.787 371.26 867.879 370.528C868.983 369.796 870.189 369.43 871.497 369.43C872.553 369.43 873.465 369.592 874.233 369.916C875.013 370.24 875.673 370.636 876.213 371.104C876.609 370.672 877.089 370.33 877.653 370.078C878.229 369.826 878.889 369.694 879.633 369.682C879.981 369.958 880.335 370.384 880.695 370.96C881.055 371.524 881.271 372.058 881.343 372.562C881.043 372.778 880.797 373.126 880.605 373.606C880.425 374.074 880.335 374.59 880.335 375.154V384.658C880.335 386.338 880.257 387.724 880.101 388.816C879.957 389.908 879.747 390.802 879.471 391.498C879.195 392.194 878.865 392.782 878.481 393.262C877.773 394.162 876.831 394.822 875.655 395.242C874.479 395.674 873.171 395.89 871.731 395.89C870.603 395.89 869.427 395.776 868.203 395.548C866.979 395.332 865.899 395.05 864.963 394.702C864.963 394.042 865.095 393.316 865.359 392.524C865.623 391.732 865.953 391.102 866.349 390.634C867.969 391.354 869.589 391.714 871.209 391.714C872.529 391.714 873.465 391.378 874.017 390.706C874.569 390.046 874.845 389.164 874.845 388.06V386.908C874.269 387.328 873.627 387.664 872.919 387.916C872.223 388.168 871.503 388.294 870.759 388.294C869.295 388.294 868.083 387.898 867.123 387.106C866.163 386.314 865.449 385.222 864.981 383.83C864.513 382.426 864.279 380.812 864.279 378.988ZM870.039 379.024C870.039 380.692 870.237 381.904 870.633 382.66C871.041 383.404 871.551 383.776 872.163 383.776C873.147 383.776 874.041 383.362 874.845 382.534V375.082C874.845 374.998 874.851 374.914 874.863 374.83C874.011 374.014 873.219 373.606 872.487 373.606C871.611 373.606 870.981 374.092 870.597 375.064C870.225 376.024 870.039 377.344 870.039 379.024ZM883.13 386.692C883.154 386.092 883.316 385.42 883.616 384.676C883.928 383.932 884.288 383.344 884.696 382.912C885.488 383.32 886.304 383.674 887.144 383.974C887.996 384.262 888.842 384.406 889.682 384.406C890.378 384.406 890.9 384.286 891.248 384.046C891.608 383.806 891.788 383.506 891.788 383.146C891.788 382.45 891.242 381.904 890.15 381.508L888.152 380.788C886.88 380.32 885.812 379.666 884.948 378.826C884.084 377.974 883.652 376.828 883.652 375.388C883.652 373.564 884.282 372.118 885.542 371.05C886.814 369.97 888.506 369.43 890.618 369.43C891.746 369.43 892.934 369.586 894.182 369.898C895.442 370.21 896.462 370.558 897.242 370.942C897.266 371.386 897.206 371.872 897.062 372.4C896.93 372.916 896.744 373.396 896.504 373.84C896.264 374.284 895.994 374.62 895.694 374.848C894.95 374.512 894.14 374.206 893.264 373.93C892.388 373.642 891.524 373.498 890.672 373.498C890.18 373.498 889.808 373.612 889.556 373.84C889.316 374.068 889.196 374.338 889.196 374.65C889.196 375.226 889.652 375.682 890.564 376.018L892.796 376.81C894.164 377.302 895.304 378.01 896.216 378.934C897.128 379.846 897.584 381.07 897.584 382.606C897.584 384.394 896.894 385.822 895.514 386.89C894.146 387.946 892.244 388.474 889.808 388.474C888.524 388.474 887.3 388.3 886.136 387.952C884.984 387.604 883.982 387.184 883.13 386.692ZM919.565 387.448C919.133 389.092 918.587 390.538 917.927 391.786C917.267 393.046 916.367 394.03 915.227 394.738C914.087 395.458 912.587 395.818 910.727 395.818C910.007 395.818 909.221 395.74 908.369 395.584C907.517 395.428 906.845 395.26 906.353 395.08C906.281 394.444 906.359 393.724 906.587 392.92C906.815 392.116 907.115 391.498 907.487 391.066C907.871 391.186 908.357 391.306 908.945 391.426C909.533 391.558 910.127 391.624 910.727 391.624C911.639 391.624 912.383 391.366 912.959 390.85C913.547 390.334 913.979 389.62 914.255 388.708L914.399 388.186C913.427 388.174 912.617 388.006 911.969 387.682C911.321 387.358 910.883 386.77 910.655 385.918L906.461 370.402C907.037 370.15 907.643 369.964 908.279 369.844C908.915 369.712 909.467 369.646 909.935 369.646C910.619 369.646 911.183 369.814 911.627 370.15C912.083 370.486 912.425 371.122 912.653 372.058L914.345 378.988C914.453 379.384 914.555 379.882 914.651 380.482C914.759 381.07 914.855 381.658 914.939 382.246C915.023 382.822 915.089 383.308 915.137 383.704C915.173 383.872 915.275 383.956 915.443 383.956L918.575 369.988C918.887 369.904 919.247 369.844 919.655 369.808C920.063 369.772 920.441 369.754 920.789 369.754C921.269 369.754 921.761 369.784 922.265 369.844C922.781 369.892 923.291 370 923.795 370.168L924.011 370.546L919.565 387.448ZM941.484 378.952C941.484 381.832 940.776 384.142 939.36 385.882C937.944 387.61 935.88 388.474 933.168 388.474C930.42 388.474 928.344 387.604 926.94 385.864C925.548 384.124 924.852 381.82 924.852 378.952C924.852 376.06 925.56 373.75 926.976 372.022C928.392 370.294 930.456 369.43 933.168 369.43C935.904 369.43 937.974 370.3 939.378 372.04C940.782 373.78 941.484 376.084 941.484 378.952ZM930.63 378.952C930.63 379.936 930.684 380.83 930.792 381.634C930.912 382.438 931.152 383.08 931.512 383.56C931.872 384.028 932.424 384.262 933.168 384.262C933.9 384.262 934.446 384.028 934.806 383.56C935.178 383.08 935.418 382.438 935.526 381.634C935.646 380.83 935.706 379.936 935.706 378.952C935.706 377.956 935.646 377.056 935.526 376.252C935.418 375.448 935.178 374.812 934.806 374.344C934.446 373.864 933.9 373.624 933.168 373.624C932.424 373.624 931.872 373.864 931.512 374.344C931.152 374.812 930.912 375.448 930.792 376.252C930.684 377.056 930.63 377.956 930.63 378.952ZM944.65 374.47C944.65 373.762 944.578 373.102 944.434 372.49C944.302 371.878 944.074 371.344 943.75 370.888C944.158 370.54 944.668 370.252 945.28 370.024C945.892 369.796 946.552 369.682 947.26 369.682C948.388 369.682 949.168 369.982 949.6 370.582C950.044 371.182 950.266 372.04 950.266 373.156V380.824C950.266 381.64 950.374 382.24 950.59 382.624C950.806 383.008 951.214 383.2 951.814 383.2C952.174 383.2 952.594 383.11 953.074 382.93C953.554 382.738 954.028 382.426 954.496 381.994V369.97C954.88 369.898 955.324 369.844 955.828 369.808C956.332 369.772 956.824 369.754 957.304 369.754C957.772 369.754 958.252 369.772 958.744 369.808C959.248 369.844 959.704 369.898 960.112 369.97V382.804C960.112 383.38 960.202 383.902 960.382 384.37C960.574 384.838 960.82 385.18 961.12 385.396C961.024 385.9 960.802 386.428 960.454 386.98C960.106 387.532 959.758 387.946 959.41 388.222C958.39 388.198 957.52 387.958 956.8 387.502C956.092 387.034 955.546 386.428 955.162 385.684C954.394 386.38 953.566 386.986 952.678 387.502C951.79 388.006 950.794 388.258 949.69 388.258C948.046 388.258 946.792 387.658 945.928 386.458C945.076 385.258 944.65 383.722 944.65 381.85V374.47ZM971.4 379.168C971.4 377.104 971.724 375.364 972.372 373.948C973.032 372.52 973.908 371.44 975 370.708C976.092 369.976 977.298 369.61 978.618 369.61C979.242 369.61 979.824 369.682 980.364 369.826C980.916 369.97 981.438 370.156 981.93 370.384V361.69L982.182 361.438H984.378C985.482 361.438 986.262 361.69 986.718 362.194C987.186 362.698 987.42 363.574 987.42 364.822V382.732C987.42 383.308 987.51 383.83 987.69 384.298C987.882 384.766 988.128 385.114 988.428 385.342C988.32 385.834 988.092 386.368 987.744 386.944C987.408 387.52 987.066 387.946 986.718 388.222C985.818 388.198 985.044 388.012 984.396 387.664C983.76 387.304 983.244 386.824 982.848 386.224C982.224 386.884 981.486 387.424 980.634 387.844C979.782 388.264 978.858 388.474 977.862 388.474C976.398 388.474 975.186 388.078 974.226 387.286C973.278 386.494 972.57 385.402 972.102 384.01C971.634 382.606 971.4 380.992 971.4 379.168ZM977.16 379.204C977.16 380.872 977.364 382.084 977.772 382.84C978.18 383.584 978.696 383.956 979.32 383.956C979.68 383.956 980.094 383.86 980.562 383.668C981.03 383.476 981.486 383.104 981.93 382.552V374.632C981.51 374.38 981.102 374.176 980.706 374.02C980.31 373.864 979.938 373.786 979.59 373.786C978.726 373.786 978.102 374.272 977.718 375.244C977.346 376.216 977.16 377.536 977.16 379.204ZM1007.33 378.952C1007.33 381.832 1006.62 384.142 1005.21 385.882C1003.79 387.61 1001.73 388.474 999.015 388.474C996.267 388.474 994.191 387.604 992.787 385.864C991.395 384.124 990.699 381.82 990.699 378.952C990.699 376.06 991.407 373.75 992.823 372.022C994.239 370.294 996.303 369.43 999.015 369.43C1001.75 369.43 1003.82 370.3 1005.23 372.04C1006.63 373.78 1007.33 376.084 1007.33 378.952ZM996.477 378.952C996.477 379.936 996.531 380.83 996.639 381.634C996.759 382.438 996.999 383.08 997.359 383.56C997.719 384.028 998.271 384.262 999.015 384.262C999.747 384.262 1000.29 384.028 1000.65 383.56C1001.03 383.08 1001.27 382.438 1001.37 381.634C1001.49 380.83 1001.55 379.936 1001.55 378.952C1001.55 377.956 1001.49 377.056 1001.37 376.252C1001.27 375.448 1001.03 374.812 1000.65 374.344C1000.29 373.864 999.747 373.624 999.015 373.624C998.271 373.624 997.719 373.864 997.359 374.344C996.999 374.812 996.759 375.448 996.639 376.252C996.531 377.056 996.477 377.956 996.477 378.952ZM815.095 427.434C815.095 428.142 815.161 428.802 815.293 429.414C815.425 430.014 815.659 430.548 815.995 431.016C815.575 431.364 815.059 431.652 814.447 431.88C813.835 432.108 813.181 432.222 812.485 432.222C811.357 432.222 810.571 431.922 810.127 431.322C809.683 430.722 809.461 429.858 809.461 428.73V421.08C809.461 420.264 809.353 419.664 809.137 419.28C808.933 418.884 808.531 418.686 807.931 418.686C807.571 418.686 807.151 418.782 806.671 418.974C806.191 419.166 805.717 419.478 805.249 419.91V431.934C804.853 432.006 804.403 432.06 803.899 432.096C803.407 432.132 802.921 432.15 802.441 432.15C801.973 432.15 801.487 432.132 800.983 432.096C800.479 432.06 800.023 432.006 799.615 431.934V413.97L799.867 413.718H801.991C802.759 413.718 803.389 413.91 803.881 414.294C804.385 414.666 804.751 415.188 804.979 415.86C805.687 415.248 806.455 414.726 807.283 414.294C808.111 413.862 809.035 413.646 810.055 413.646C811.699 413.646 812.947 414.246 813.799 415.446C814.663 416.634 815.095 418.17 815.095 420.054V427.434ZM834.872 422.952C834.872 425.832 834.164 428.142 832.748 429.882C831.332 431.61 829.268 432.474 826.556 432.474C823.808 432.474 821.732 431.604 820.328 429.864C818.936 428.124 818.24 425.82 818.24 422.952C818.24 420.06 818.948 417.75 820.364 416.022C821.78 414.294 823.844 413.43 826.556 413.43C829.292 413.43 831.362 414.3 832.766 416.04C834.17 417.78 834.872 420.084 834.872 422.952ZM824.018 422.952C824.018 423.936 824.072 424.83 824.18 425.634C824.3 426.438 824.54 427.08 824.9 427.56C825.26 428.028 825.812 428.262 826.556 428.262C827.288 428.262 827.834 428.028 828.194 427.56C828.566 427.08 828.806 426.438 828.914 425.634C829.034 424.83 829.094 423.936 829.094 422.952C829.094 421.956 829.034 421.056 828.914 420.252C828.806 419.448 828.566 418.812 828.194 418.344C827.834 417.864 827.288 417.624 826.556 417.624C825.812 417.624 825.26 417.864 824.9 418.344C824.54 418.812 824.3 419.448 824.18 420.252C824.072 421.056 824.018 421.956 824.018 422.952ZM838.832 411.936C838.832 410.676 839.06 409.8 839.516 409.308C839.984 408.804 840.77 408.552 841.874 408.552H844.07L844.322 408.804V413.988L848.588 413.934C848.756 414.57 848.84 415.224 848.84 415.896C848.84 416.64 848.756 417.318 848.588 417.93L844.322 417.858V426.138C844.322 427.266 844.856 427.83 845.924 427.83H847.94C848.24 428.694 848.39 429.582 848.39 430.494C848.39 430.698 848.378 430.914 848.354 431.142C848.33 431.37 848.294 431.574 848.246 431.754C847.586 431.85 846.824 431.934 845.96 432.006C845.096 432.078 844.304 432.114 843.584 432.114C841.952 432.114 840.752 431.712 839.984 430.908C839.216 430.092 838.832 428.826 838.832 427.11V417.876L836.006 417.93C835.85 417.318 835.772 416.64 835.772 415.896C835.772 415.224 835.85 414.57 836.006 413.934L838.832 413.97V411.936ZM864.959 431.934C864.563 432.006 864.119 432.06 863.627 432.096C863.135 432.132 862.649 432.15 862.169 432.15C861.185 432.15 860.279 432.078 859.451 431.934V405.69L859.703 405.438H861.899C863.003 405.438 863.789 405.69 864.257 406.194C864.725 406.698 864.959 407.574 864.959 408.822V420.126H865.517C865.769 420.126 865.967 420.084 866.111 420C866.255 419.916 866.399 419.748 866.543 419.496L868.415 415.878C868.751 415.194 869.165 414.684 869.657 414.348C870.161 414 870.791 413.826 871.547 413.826C872.147 413.826 872.693 413.832 873.185 413.844C873.677 413.856 874.181 413.874 874.697 413.898L874.913 414.186L872.141 419.55C871.685 420.438 871.067 421.14 870.287 421.656C870.983 421.908 871.583 422.292 872.087 422.808C872.603 423.312 872.993 423.966 873.257 424.77L874.139 427.398C874.439 428.334 874.709 429.012 874.949 429.432C875.189 429.852 875.495 430.194 875.867 430.458C875.423 430.962 874.865 431.382 874.193 431.718C873.521 432.054 872.819 432.222 872.087 432.222C871.283 432.222 870.677 432.03 870.269 431.646C869.873 431.262 869.525 430.62 869.225 429.72L868.163 426.606C867.911 425.838 867.623 425.334 867.299 425.094C866.975 424.854 866.567 424.734 866.075 424.734C865.691 424.734 865.319 424.746 864.959 424.77V431.934ZM893.775 427.434C893.775 428.142 893.841 428.802 893.973 429.414C894.105 430.014 894.339 430.548 894.675 431.016C894.255 431.364 893.739 431.652 893.127 431.88C892.515 432.108 891.861 432.222 891.165 432.222C890.037 432.222 889.251 431.922 888.807 431.322C888.363 430.722 888.141 429.858 888.141 428.73V421.08C888.141 420.264 888.033 419.664 887.817 419.28C887.613 418.884 887.211 418.686 886.611 418.686C886.251 418.686 885.831 418.782 885.351 418.974C884.871 419.166 884.397 419.478 883.929 419.91V431.934C883.533 432.006 883.083 432.06 882.579 432.096C882.087 432.132 881.601 432.15 881.121 432.15C880.653 432.15 880.167 432.132 879.663 432.096C879.159 432.06 878.703 432.006 878.295 431.934V413.97L878.547 413.718H880.671C881.439 413.718 882.069 413.91 882.561 414.294C883.065 414.666 883.431 415.188 883.659 415.86C884.367 415.248 885.135 414.726 885.963 414.294C886.791 413.862 887.715 413.646 888.735 413.646C890.379 413.646 891.627 414.246 892.479 415.446C893.343 416.634 893.775 418.17 893.775 420.054V427.434ZM913.552 422.952C913.552 425.832 912.844 428.142 911.428 429.882C910.012 431.61 907.948 432.474 905.236 432.474C902.488 432.474 900.412 431.604 899.008 429.864C897.616 428.124 896.92 425.82 896.92 422.952C896.92 420.06 897.628 417.75 899.044 416.022C900.46 414.294 902.524 413.43 905.236 413.43C907.972 413.43 910.042 414.3 911.446 416.04C912.85 417.78 913.552 420.084 913.552 422.952ZM902.698 422.952C902.698 423.936 902.752 424.83 902.86 425.634C902.98 426.438 903.22 427.08 903.58 427.56C903.94 428.028 904.492 428.262 905.236 428.262C905.968 428.262 906.514 428.028 906.874 427.56C907.246 427.08 907.486 426.438 907.594 425.634C907.714 424.83 907.774 423.936 907.774 422.952C907.774 421.956 907.714 421.056 907.594 420.252C907.486 419.448 907.246 418.812 906.874 418.344C906.514 417.864 905.968 417.624 905.236 417.624C904.492 417.624 903.94 417.864 903.58 418.344C903.22 418.812 902.98 419.448 902.86 420.252C902.752 421.056 902.698 421.956 902.698 422.952ZM914.776 414.312C915.904 413.868 916.948 413.646 917.908 413.646C918.808 413.646 919.438 413.856 919.798 414.276C920.17 414.696 920.434 415.284 920.59 416.04L921.706 421.854C922.198 424.266 922.51 426.144 922.642 427.488C922.678 427.68 922.774 427.776 922.93 427.776L924.91 414.168C925.354 414.06 925.918 413.988 926.602 413.952C927.286 413.904 927.802 413.88 928.15 413.88C928.522 413.88 929.062 413.904 929.77 413.952C930.49 413.988 931.06 414.06 931.48 414.168L933.514 427.488C933.55 427.68 933.646 427.776 933.802 427.776C933.922 426.948 934.06 426.036 934.216 425.04C934.384 424.032 934.576 422.97 934.792 421.854L936.394 413.988C936.706 413.904 937.06 413.844 937.456 413.808C937.852 413.772 938.212 413.754 938.536 413.754C938.92 413.754 939.412 413.784 940.012 413.844C940.624 413.904 941.128 414.03 941.524 414.222L941.686 414.564L937.492 431.934C936.928 432.018 936.262 432.072 935.494 432.096C934.726 432.132 934.012 432.15 933.352 432.15C932.272 432.15 931.45 432 930.886 431.7C930.334 431.4 929.98 430.698 929.824 429.594L929.212 425.724C929.08 424.836 928.924 423.798 928.744 422.61C928.576 421.41 928.426 420.186 928.294 418.938H928.078C927.934 420.162 927.772 421.368 927.592 422.556C927.424 423.732 927.274 424.764 927.142 425.652L926.134 431.934C925.546 432.006 924.856 432.06 924.064 432.096C923.284 432.132 922.558 432.15 921.886 432.15C920.83 432.15 920.026 431.982 919.474 431.646C918.922 431.298 918.52 430.59 918.268 429.522L914.776 414.312ZM963.001 431.448C962.569 433.092 962.023 434.538 961.363 435.786C960.703 437.046 959.803 438.03 958.663 438.738C957.523 439.458 956.023 439.818 954.163 439.818C953.443 439.818 952.657 439.74 951.805 439.584C950.953 439.428 950.281 439.26 949.789 439.08C949.717 438.444 949.795 437.724 950.023 436.92C950.251 436.116 950.551 435.498 950.923 435.066C951.307 435.186 951.793 435.306 952.381 435.426C952.969 435.558 953.563 435.624 954.163 435.624C955.075 435.624 955.819 435.366 956.395 434.85C956.983 434.334 957.415 433.62 957.691 432.708L957.835 432.186C956.863 432.174 956.053 432.006 955.405 431.682C954.757 431.358 954.319 430.77 954.091 429.918L949.897 414.402C950.473 414.15 951.079 413.964 951.715 413.844C952.351 413.712 952.903 413.646 953.371 413.646C954.055 413.646 954.619 413.814 955.063 414.15C955.519 414.486 955.861 415.122 956.089 416.058L957.781 422.988C957.889 423.384 957.991 423.882 958.087 424.482C958.195 425.07 958.291 425.658 958.375 426.246C958.459 426.822 958.525 427.308 958.573 427.704C958.609 427.872 958.711 427.956 958.879 427.956L962.011 413.988C962.323 413.904 962.683 413.844 963.091 413.808C963.499 413.772 963.877 413.754 964.225 413.754C964.705 413.754 965.197 413.784 965.701 413.844C966.217 413.892 966.727 414 967.231 414.168L967.447 414.546L963.001 431.448ZM984.919 422.952C984.919 425.832 984.211 428.142 982.795 429.882C981.379 431.61 979.315 432.474 976.603 432.474C973.855 432.474 971.779 431.604 970.375 429.864C968.983 428.124 968.287 425.82 968.287 422.952C968.287 420.06 968.995 417.75 970.411 416.022C971.827 414.294 973.891 413.43 976.603 413.43C979.339 413.43 981.409 414.3 982.813 416.04C984.217 417.78 984.919 420.084 984.919 422.952ZM974.065 422.952C974.065 423.936 974.119 424.83 974.227 425.634C974.347 426.438 974.587 427.08 974.947 427.56C975.307 428.028 975.859 428.262 976.603 428.262C977.335 428.262 977.881 428.028 978.241 427.56C978.613 427.08 978.853 426.438 978.961 425.634C979.081 424.83 979.141 423.936 979.141 422.952C979.141 421.956 979.081 421.056 978.961 420.252C978.853 419.448 978.613 418.812 978.241 418.344C977.881 417.864 977.335 417.624 976.603 417.624C975.859 417.624 975.307 417.864 974.947 418.344C974.587 418.812 974.347 419.448 974.227 420.252C974.119 421.056 974.065 421.956 974.065 422.952ZM988.086 418.47C988.086 417.762 988.014 417.102 987.87 416.49C987.738 415.878 987.51 415.344 987.186 414.888C987.594 414.54 988.104 414.252 988.716 414.024C989.328 413.796 989.988 413.682 990.696 413.682C991.824 413.682 992.604 413.982 993.036 414.582C993.48 415.182 993.702 416.04 993.702 417.156V424.824C993.702 425.64 993.81 426.24 994.026 426.624C994.242 427.008 994.65 427.2 995.25 427.2C995.61 427.2 996.03 427.11 996.51 426.93C996.99 426.738 997.464 426.426 997.932 425.994V413.97C998.316 413.898 998.76 413.844 999.264 413.808C999.768 413.772 1000.26 413.754 1000.74 413.754C1001.21 413.754 1001.69 413.772 1002.18 413.808C1002.68 413.844 1003.14 413.898 1003.55 413.97V426.804C1003.55 427.38 1003.64 427.902 1003.82 428.37C1004.01 428.838 1004.26 429.18 1004.56 429.396C1004.46 429.9 1004.24 430.428 1003.89 430.98C1003.54 431.532 1003.19 431.946 1002.85 432.222C1001.83 432.198 1000.96 431.958 1000.24 431.502C999.528 431.034 998.982 430.428 998.598 429.684C997.83 430.38 997.002 430.986 996.114 431.502C995.226 432.006 994.23 432.258 993.126 432.258C991.482 432.258 990.228 431.658 989.364 430.458C988.512 429.258 988.086 427.722 988.086 425.85V418.47ZM807.555 467.168C807.555 465.104 807.879 463.364 808.527 461.948C809.187 460.52 810.063 459.44 811.155 458.708C812.247 457.976 813.453 457.61 814.773 457.61C815.397 457.61 815.979 457.682 816.519 457.826C817.071 457.97 817.593 458.156 818.085 458.384V449.69L818.337 449.438H820.533C821.637 449.438 822.417 449.69 822.873 450.194C823.341 450.698 823.575 451.574 823.575 452.822V470.732C823.575 471.308 823.665 471.83 823.845 472.298C824.037 472.766 824.283 473.114 824.583 473.342C824.475 473.834 824.247 474.368 823.899 474.944C823.563 475.52 823.221 475.946 822.873 476.222C821.973 476.198 821.199 476.012 820.551 475.664C819.915 475.304 819.399 474.824 819.003 474.224C818.379 474.884 817.641 475.424 816.789 475.844C815.937 476.264 815.013 476.474 814.017 476.474C812.553 476.474 811.341 476.078 810.381 475.286C809.433 474.494 808.725 473.402 808.257 472.01C807.789 470.606 807.555 468.992 807.555 467.168ZM813.315 467.204C813.315 468.872 813.519 470.084 813.927 470.84C814.335 471.584 814.851 471.956 815.475 471.956C815.835 471.956 816.249 471.86 816.717 471.668C817.185 471.476 817.641 471.104 818.085 470.552V462.632C817.665 462.38 817.257 462.176 816.861 462.02C816.465 461.864 816.093 461.786 815.745 461.786C814.881 461.786 814.257 462.272 813.873 463.244C813.501 464.216 813.315 465.536 813.315 467.204ZM843.486 466.952C843.486 469.832 842.778 472.142 841.362 473.882C839.946 475.61 837.882 476.474 835.17 476.474C832.422 476.474 830.346 475.604 828.942 473.864C827.55 472.124 826.854 469.82 826.854 466.952C826.854 464.06 827.562 461.75 828.978 460.022C830.394 458.294 832.458 457.43 835.17 457.43C837.906 457.43 839.976 458.3 841.38 460.04C842.784 461.78 843.486 464.084 843.486 466.952ZM832.632 466.952C832.632 467.936 832.686 468.83 832.794 469.634C832.914 470.438 833.154 471.08 833.514 471.56C833.874 472.028 834.426 472.262 835.17 472.262C835.902 472.262 836.448 472.028 836.808 471.56C837.18 471.08 837.42 470.438 837.528 469.634C837.648 468.83 837.708 467.936 837.708 466.952C837.708 465.956 837.648 465.056 837.528 464.252C837.42 463.448 837.18 462.812 836.808 462.344C836.448 461.864 835.902 461.624 835.17 461.624C834.426 461.624 833.874 461.864 833.514 462.344C833.154 462.812 832.914 463.448 832.794 464.252C832.686 465.056 832.632 465.956 832.632 466.952ZM870.115 471.434C870.115 472.142 870.181 472.802 870.313 473.414C870.445 474.014 870.679 474.548 871.015 475.016C870.595 475.364 870.079 475.652 869.467 475.88C868.855 476.108 868.201 476.222 867.505 476.222C866.377 476.222 865.591 475.922 865.147 475.322C864.703 474.722 864.481 473.858 864.481 472.73V465.08C864.481 464.264 864.373 463.664 864.157 463.28C863.953 462.884 863.551 462.686 862.951 462.686C862.591 462.686 862.171 462.782 861.691 462.974C861.211 463.166 860.737 463.478 860.269 463.91V475.934C859.873 476.006 859.423 476.06 858.919 476.096C858.427 476.132 857.941 476.15 857.461 476.15C856.993 476.15 856.507 476.132 856.003 476.096C855.499 476.06 855.043 476.006 854.635 475.934V457.97L854.887 457.718H857.011C857.779 457.718 858.409 457.91 858.901 458.294C859.405 458.666 859.771 459.188 859.999 459.86C860.707 459.248 861.475 458.726 862.303 458.294C863.131 457.862 864.055 457.646 865.075 457.646C866.719 457.646 867.967 458.246 868.819 459.446C869.683 460.634 870.115 462.17 870.115 464.054V471.434ZM889.892 466.952C889.892 469.832 889.184 472.142 887.768 473.882C886.352 475.61 884.288 476.474 881.576 476.474C878.828 476.474 876.752 475.604 875.348 473.864C873.956 472.124 873.26 469.82 873.26 466.952C873.26 464.06 873.968 461.75 875.384 460.022C876.8 458.294 878.864 457.43 881.576 457.43C884.312 457.43 886.382 458.3 887.786 460.04C889.19 461.78 889.892 464.084 889.892 466.952ZM879.038 466.952C879.038 467.936 879.092 468.83 879.2 469.634C879.32 470.438 879.56 471.08 879.92 471.56C880.28 472.028 880.832 472.262 881.576 472.262C882.308 472.262 882.854 472.028 883.214 471.56C883.586 471.08 883.826 470.438 883.934 469.634C884.054 468.83 884.114 467.936 884.114 466.952C884.114 465.956 884.054 465.056 883.934 464.252C883.826 463.448 883.586 462.812 883.214 462.344C882.854 461.864 882.308 461.624 881.576 461.624C880.832 461.624 880.28 461.864 879.92 462.344C879.56 462.812 879.32 463.448 879.2 464.252C879.092 465.056 879.038 465.956 879.038 466.952ZM893.851 455.936C893.851 454.676 894.079 453.8 894.535 453.308C895.003 452.804 895.789 452.552 896.893 452.552H899.089L899.341 452.804V457.988L903.607 457.934C903.775 458.57 903.859 459.224 903.859 459.896C903.859 460.64 903.775 461.318 903.607 461.93L899.341 461.858V470.138C899.341 471.266 899.875 471.83 900.943 471.83H902.959C903.259 472.694 903.409 473.582 903.409 474.494C903.409 474.698 903.397 474.914 903.373 475.142C903.349 475.37 903.313 475.574 903.265 475.754C902.605 475.85 901.843 475.934 900.979 476.006C900.115 476.078 899.323 476.114 898.603 476.114C896.971 476.114 895.771 475.712 895.003 474.908C894.235 474.092 893.851 472.826 893.851 471.11V461.876L891.025 461.93C890.869 461.318 890.791 460.64 890.791 459.896C890.791 459.224 890.869 458.57 891.025 457.934L893.851 457.97V455.936ZM919.978 475.934C919.582 476.006 919.138 476.06 918.646 476.096C918.154 476.132 917.668 476.15 917.188 476.15C916.204 476.15 915.298 476.078 914.47 475.934V449.69L914.722 449.438H916.918C918.022 449.438 918.808 449.69 919.276 450.194C919.744 450.698 919.978 451.574 919.978 452.822V464.126H920.536C920.788 464.126 920.986 464.084 921.13 464C921.274 463.916 921.418 463.748 921.562 463.496L923.434 459.878C923.77 459.194 924.184 458.684 924.676 458.348C925.18 458 925.81 457.826 926.566 457.826C927.166 457.826 927.712 457.832 928.204 457.844C928.696 457.856 929.2 457.874 929.716 457.898L929.932 458.186L927.16 463.55C926.704 464.438 926.086 465.14 925.306 465.656C926.002 465.908 926.602 466.292 927.106 466.808C927.622 467.312 928.012 467.966 928.276 468.77L929.158 471.398C929.458 472.334 929.728 473.012 929.968 473.432C930.208 473.852 930.514 474.194 930.886 474.458C930.442 474.962 929.884 475.382 929.212 475.718C928.54 476.054 927.838 476.222 927.106 476.222C926.302 476.222 925.696 476.03 925.288 475.646C924.892 475.262 924.544 474.62 924.244 473.72L923.182 470.606C922.93 469.838 922.642 469.334 922.318 469.094C921.994 468.854 921.586 468.734 921.094 468.734C920.71 468.734 920.338 468.746 919.978 468.77V475.934ZM948.794 471.434C948.794 472.142 948.86 472.802 948.992 473.414C949.124 474.014 949.358 474.548 949.694 475.016C949.274 475.364 948.758 475.652 948.146 475.88C947.534 476.108 946.88 476.222 946.184 476.222C945.056 476.222 944.27 475.922 943.826 475.322C943.382 474.722 943.16 473.858 943.16 472.73V465.08C943.16 464.264 943.052 463.664 942.836 463.28C942.632 462.884 942.23 462.686 941.63 462.686C941.27 462.686 940.85 462.782 940.37 462.974C939.89 463.166 939.416 463.478 938.948 463.91V475.934C938.552 476.006 938.102 476.06 937.598 476.096C937.106 476.132 936.62 476.15 936.14 476.15C935.672 476.15 935.186 476.132 934.682 476.096C934.178 476.06 933.722 476.006 933.314 475.934V457.97L933.566 457.718H935.69C936.458 457.718 937.088 457.91 937.58 458.294C938.084 458.666 938.45 459.188 938.678 459.86C939.386 459.248 940.154 458.726 940.982 458.294C941.81 457.862 942.734 457.646 943.754 457.646C945.398 457.646 946.646 458.246 947.498 459.446C948.362 460.634 948.794 462.17 948.794 464.054V471.434ZM968.572 466.952C968.572 469.832 967.864 472.142 966.448 473.882C965.032 475.61 962.968 476.474 960.256 476.474C957.508 476.474 955.432 475.604 954.028 473.864C952.636 472.124 951.94 469.82 951.94 466.952C951.94 464.06 952.648 461.75 954.064 460.022C955.48 458.294 957.544 457.43 960.256 457.43C962.992 457.43 965.062 458.3 966.466 460.04C967.87 461.78 968.572 464.084 968.572 466.952ZM957.718 466.952C957.718 467.936 957.772 468.83 957.88 469.634C958 470.438 958.24 471.08 958.6 471.56C958.96 472.028 959.512 472.262 960.256 472.262C960.988 472.262 961.534 472.028 961.894 471.56C962.266 471.08 962.506 470.438 962.614 469.634C962.734 468.83 962.794 467.936 962.794 466.952C962.794 465.956 962.734 465.056 962.614 464.252C962.506 463.448 962.266 462.812 961.894 462.344C961.534 461.864 960.988 461.624 960.256 461.624C959.512 461.624 958.96 461.864 958.6 462.344C958.24 462.812 958 463.448 957.88 464.252C957.772 465.056 957.718 465.956 957.718 466.952ZM969.795 458.312C970.923 457.868 971.967 457.646 972.927 457.646C973.827 457.646 974.457 457.856 974.817 458.276C975.189 458.696 975.453 459.284 975.609 460.04L976.725 465.854C977.217 468.266 977.529 470.144 977.661 471.488C977.697 471.68 977.793 471.776 977.949 471.776L979.929 458.168C980.373 458.06 980.937 457.988 981.621 457.952C982.305 457.904 982.821 457.88 983.169 457.88C983.541 457.88 984.081 457.904 984.789 457.952C985.509 457.988 986.079 458.06 986.499 458.168L988.533 471.488C988.569 471.68 988.665 471.776 988.821 471.776C988.941 470.948 989.079 470.036 989.235 469.04C989.403 468.032 989.595 466.97 989.811 465.854L991.413 457.988C991.725 457.904 992.079 457.844 992.475 457.808C992.871 457.772 993.231 457.754 993.555 457.754C993.939 457.754 994.431 457.784 995.031 457.844C995.643 457.904 996.147 458.03 996.543 458.222L996.705 458.564L992.511 475.934C991.947 476.018 991.281 476.072 990.513 476.096C989.745 476.132 989.031 476.15 988.371 476.15C987.291 476.15 986.469 476 985.905 475.7C985.353 475.4 984.999 474.698 984.843 473.594L984.231 469.724C984.099 468.836 983.943 467.798 983.763 466.61C983.595 465.41 983.445 464.186 983.313 462.938H983.097C982.953 464.162 982.791 465.368 982.611 466.556C982.443 467.732 982.293 468.764 982.161 469.652L981.153 475.934C980.565 476.006 979.875 476.06 979.083 476.096C978.303 476.132 977.577 476.15 976.905 476.15C975.849 476.15 975.045 475.982 974.493 475.646C973.941 475.298 973.539 474.59 973.287 473.522L969.795 458.312Z" fill="black"/>
</g>
</g>
<g filter="url(#filter4_i)">
<path d="M1234 475L1293.64 627H1365.22L1418.5 475H1234Z" fill="#C4C4C4" fill-opacity="0.1" stroke="black"/>
<g filter="url(#filter5_i)">
<path d="M1312.27 515.23C1312.27 515.093 1312.27 514.972 1312.28 514.865C1312.28 514.755 1312.28 514.63 1312.28 514.49H1312.27C1312.2 514.49 1312.09 514.492 1311.96 514.495C1311.82 514.498 1311.71 514.5 1311.64 514.5H1310.61C1310.58 514.38 1310.57 514.263 1310.56 514.15C1310.55 514.033 1310.55 513.93 1310.55 513.84C1310.55 513.747 1310.55 513.642 1310.56 513.525C1310.57 513.408 1310.58 513.29 1310.61 513.17H1315.56C1315.58 513.253 1315.6 513.352 1315.61 513.465C1315.63 513.575 1315.64 513.682 1315.64 513.785C1315.64 514.045 1315.57 514.23 1315.43 514.34C1315.3 514.447 1315.09 514.5 1314.8 514.5H1314.51C1314.43 514.5 1314.33 514.498 1314.19 514.495C1314.05 514.492 1313.95 514.49 1313.88 514.49H1313.87C1313.87 514.63 1313.87 514.755 1313.87 514.865C1313.87 514.972 1313.88 515.093 1313.88 515.23V520C1313.74 520.023 1313.6 520.038 1313.46 520.045C1313.31 520.055 1313.19 520.06 1313.08 520.06C1312.96 520.06 1312.83 520.055 1312.69 520.045C1312.55 520.038 1312.41 520.023 1312.27 520V515.23ZM1317.74 520C1317.52 520.04 1317.26 520.06 1316.96 520.06C1316.7 520.06 1316.45 520.04 1316.21 520V512.71L1316.28 512.64H1316.89C1317.2 512.64 1317.41 512.71 1317.54 512.85C1317.67 512.99 1317.74 513.233 1317.74 513.58V515.47C1317.93 515.317 1318.13 515.187 1318.34 515.08C1318.56 514.973 1318.81 514.92 1319.07 514.92C1319.53 514.92 1319.88 515.087 1320.11 515.42C1320.35 515.75 1320.47 516.177 1320.47 516.7V518.75C1320.47 518.947 1320.49 519.13 1320.53 519.3C1320.57 519.467 1320.63 519.615 1320.72 519.745C1320.61 519.842 1320.46 519.922 1320.29 519.985C1320.12 520.048 1319.94 520.08 1319.74 520.08C1319.43 520.08 1319.21 519.997 1319.09 519.83C1318.97 519.663 1318.91 519.423 1318.91 519.11V516.985C1318.91 516.758 1318.88 516.592 1318.82 516.485C1318.76 516.375 1318.65 516.32 1318.48 516.32C1318.38 516.32 1318.26 516.347 1318.13 516.4C1318 516.453 1317.87 516.54 1317.74 516.66V520ZM1323.44 520C1323.33 520.02 1323.2 520.035 1323.06 520.045C1322.93 520.055 1322.79 520.06 1322.66 520.06C1322.53 520.06 1322.39 520.055 1322.25 520.045C1322.12 520.035 1321.99 520.02 1321.87 520V516.69C1321.87 516.523 1321.84 516.385 1321.77 516.275C1321.7 516.165 1321.58 516.11 1321.4 516.11H1321.25C1321.21 515.947 1321.19 515.77 1321.19 515.58C1321.19 515.493 1321.19 515.402 1321.2 515.305C1321.21 515.205 1321.23 515.11 1321.25 515.02C1321.41 515.003 1321.56 514.992 1321.72 514.985C1321.89 514.975 1322.02 514.97 1322.13 514.97H1322.35C1322.68 514.97 1322.95 515.078 1323.14 515.295C1323.34 515.508 1323.44 515.798 1323.44 516.165V520ZM1321.57 513.605C1321.57 513.398 1321.61 513.203 1321.69 513.02C1321.78 512.977 1321.89 512.94 1322.02 512.91C1322.16 512.88 1322.3 512.865 1322.43 512.865C1322.57 512.865 1322.71 512.88 1322.85 512.91C1322.99 512.94 1323.1 512.977 1323.18 513.02C1323.22 513.113 1323.24 513.212 1323.26 513.315C1323.28 513.418 1323.29 513.515 1323.29 513.605C1323.29 513.808 1323.26 514.002 1323.18 514.185C1323.1 514.228 1322.99 514.265 1322.85 514.295C1322.71 514.325 1322.57 514.34 1322.43 514.34C1322.3 514.34 1322.16 514.327 1322.02 514.3C1321.88 514.27 1321.77 514.232 1321.69 514.185C1321.61 514.002 1321.57 513.808 1321.57 513.605ZM1328.92 518.75C1328.92 518.947 1328.94 519.13 1328.97 519.3C1329.01 519.467 1329.07 519.615 1329.17 519.745C1329.05 519.842 1328.91 519.922 1328.74 519.985C1328.57 520.048 1328.39 520.08 1328.19 520.08C1327.88 520.08 1327.66 519.997 1327.54 519.83C1327.41 519.663 1327.35 519.423 1327.35 519.11V516.985C1327.35 516.758 1327.32 516.592 1327.26 516.485C1327.21 516.375 1327.09 516.32 1326.93 516.32C1326.83 516.32 1326.71 516.347 1326.58 516.4C1326.44 516.453 1326.31 516.54 1326.18 516.66V520C1326.07 520.02 1325.95 520.035 1325.81 520.045C1325.67 520.055 1325.54 520.06 1325.4 520.06C1325.27 520.06 1325.14 520.055 1325 520.045C1324.86 520.035 1324.73 520.02 1324.62 520V515.01L1324.69 514.94H1325.28C1325.49 514.94 1325.67 514.993 1325.8 515.1C1325.94 515.203 1326.04 515.348 1326.11 515.535C1326.3 515.365 1326.52 515.22 1326.75 515.1C1326.98 514.98 1327.23 514.92 1327.52 514.92C1327.97 514.92 1328.32 515.087 1328.56 515.42C1328.8 515.75 1328.92 516.177 1328.92 516.7V518.75ZM1329.81 517.515C1329.81 516.942 1329.9 516.458 1330.08 516.065C1330.26 515.668 1330.51 515.368 1330.81 515.165C1331.12 514.962 1331.45 514.86 1331.82 514.86C1332.11 514.86 1332.36 514.905 1332.58 514.995C1332.79 515.085 1332.98 515.195 1333.13 515.325C1333.24 515.205 1333.37 515.11 1333.53 515.04C1333.69 514.97 1333.87 514.933 1334.08 514.93C1334.17 515.007 1334.27 515.125 1334.37 515.285C1334.47 515.442 1334.53 515.59 1334.55 515.73C1334.47 515.79 1334.4 515.887 1334.35 516.02C1334.3 516.15 1334.27 516.293 1334.27 516.45V519.09C1334.27 519.557 1334.25 519.942 1334.21 520.245C1334.17 520.548 1334.11 520.797 1334.03 520.99C1333.95 521.183 1333.86 521.347 1333.76 521.48C1333.56 521.73 1333.3 521.913 1332.97 522.03C1332.64 522.15 1332.28 522.21 1331.88 522.21C1331.57 522.21 1331.24 522.178 1330.9 522.115C1330.56 522.055 1330.26 521.977 1330 521.88C1330 521.697 1330.04 521.495 1330.11 521.275C1330.18 521.055 1330.28 520.88 1330.39 520.75C1330.84 520.95 1331.29 521.05 1331.74 521.05C1332.1 521.05 1332.36 520.957 1332.52 520.77C1332.67 520.587 1332.75 520.342 1332.75 520.035V519.715C1332.59 519.832 1332.41 519.925 1332.21 519.995C1332.02 520.065 1331.82 520.1 1331.61 520.1C1331.2 520.1 1330.87 519.99 1330.6 519.77C1330.33 519.55 1330.14 519.247 1330.01 518.86C1329.88 518.47 1329.81 518.022 1329.81 517.515ZM1331.41 517.525C1331.41 517.988 1331.47 518.325 1331.58 518.535C1331.69 518.742 1331.83 518.845 1332 518.845C1332.27 518.845 1332.52 518.73 1332.75 518.5V516.43C1332.75 516.407 1332.75 516.383 1332.75 516.36C1332.51 516.133 1332.29 516.02 1332.09 516.02C1331.85 516.02 1331.67 516.155 1331.57 516.425C1331.46 516.692 1331.41 517.058 1331.41 517.525ZM1335.05 519.655C1335.05 519.488 1335.1 519.302 1335.18 519.095C1335.27 518.888 1335.37 518.725 1335.48 518.605C1335.7 518.718 1335.93 518.817 1336.16 518.9C1336.4 518.98 1336.63 519.02 1336.87 519.02C1337.06 519.02 1337.21 518.987 1337.3 518.92C1337.4 518.853 1337.45 518.77 1337.45 518.67C1337.45 518.477 1337.3 518.325 1337 518.215L1336.44 518.015C1336.09 517.885 1335.79 517.703 1335.55 517.47C1335.31 517.233 1335.19 516.915 1335.19 516.515C1335.19 516.008 1335.37 515.607 1335.72 515.31C1336.07 515.01 1336.54 514.86 1337.13 514.86C1337.44 514.86 1337.77 514.903 1338.12 514.99C1338.47 515.077 1338.75 515.173 1338.97 515.28C1338.97 515.403 1338.96 515.538 1338.92 515.685C1338.88 515.828 1338.83 515.962 1338.76 516.085C1338.7 516.208 1338.62 516.302 1338.54 516.365C1338.33 516.272 1338.11 516.187 1337.86 516.11C1337.62 516.03 1337.38 515.99 1337.14 515.99C1337.01 515.99 1336.9 516.022 1336.83 516.085C1336.77 516.148 1336.73 516.223 1336.73 516.31C1336.73 516.47 1336.86 516.597 1337.11 516.69L1337.73 516.91C1338.11 517.047 1338.43 517.243 1338.68 517.5C1338.94 517.753 1339.06 518.093 1339.06 518.52C1339.06 519.017 1338.87 519.413 1338.49 519.71C1338.11 520.003 1337.58 520.15 1336.9 520.15C1336.55 520.15 1336.21 520.102 1335.88 520.005C1335.56 519.908 1335.28 519.792 1335.05 519.655ZM1321.9 531.865C1321.78 532.322 1321.63 532.723 1321.45 533.07C1321.26 533.42 1321.01 533.693 1320.7 533.89C1320.38 534.09 1319.96 534.19 1319.45 534.19C1319.25 534.19 1319.03 534.168 1318.79 534.125C1318.56 534.082 1318.37 534.035 1318.23 533.985C1318.21 533.808 1318.23 533.608 1318.3 533.385C1318.36 533.162 1318.44 532.99 1318.55 532.87C1318.65 532.903 1318.79 532.937 1318.95 532.97C1319.12 533.007 1319.28 533.025 1319.45 533.025C1319.7 533.025 1319.91 532.953 1320.07 532.81C1320.23 532.667 1320.35 532.468 1320.43 532.215L1320.47 532.07C1320.2 532.067 1319.97 532.02 1319.79 531.93C1319.61 531.84 1319.49 531.677 1319.43 531.44L1318.26 527.13C1318.42 527.06 1318.59 527.008 1318.77 526.975C1318.94 526.938 1319.1 526.92 1319.23 526.92C1319.42 526.92 1319.57 526.967 1319.7 527.06C1319.82 527.153 1319.92 527.33 1319.98 527.59L1320.45 529.515C1320.48 529.625 1320.51 529.763 1320.54 529.93C1320.57 530.093 1320.59 530.257 1320.62 530.42C1320.64 530.58 1320.66 530.715 1320.67 530.825C1320.68 530.872 1320.71 530.895 1320.76 530.895L1321.63 527.015C1321.71 526.992 1321.81 526.975 1321.93 526.965C1322.04 526.955 1322.15 526.95 1322.24 526.95C1322.38 526.95 1322.51 526.958 1322.65 526.975C1322.8 526.988 1322.94 527.018 1323.08 527.065L1323.14 527.17L1321.9 531.865ZM1327.99 529.505C1327.99 530.305 1327.79 530.947 1327.4 531.43C1327.01 531.91 1326.43 532.15 1325.68 532.15C1324.92 532.15 1324.34 531.908 1323.95 531.425C1323.56 530.942 1323.37 530.302 1323.37 529.505C1323.37 528.702 1323.57 528.06 1323.96 527.58C1324.35 527.1 1324.93 526.86 1325.68 526.86C1326.44 526.86 1327.02 527.102 1327.41 527.585C1327.8 528.068 1327.99 528.708 1327.99 529.505ZM1324.98 529.505C1324.98 529.778 1324.99 530.027 1325.02 530.25C1325.05 530.473 1325.12 530.652 1325.22 530.785C1325.32 530.915 1325.47 530.98 1325.68 530.98C1325.88 530.98 1326.04 530.915 1326.14 530.785C1326.24 530.652 1326.31 530.473 1326.34 530.25C1326.37 530.027 1326.39 529.778 1326.39 529.505C1326.39 529.228 1326.37 528.978 1326.34 528.755C1326.31 528.532 1326.24 528.355 1326.14 528.225C1326.04 528.092 1325.88 528.025 1325.68 528.025C1325.47 528.025 1325.32 528.092 1325.22 528.225C1325.12 528.355 1325.05 528.532 1325.02 528.755C1324.99 528.978 1324.98 529.228 1324.98 529.505ZM1328.87 528.26C1328.87 528.063 1328.85 527.88 1328.81 527.71C1328.77 527.54 1328.71 527.392 1328.62 527.265C1328.73 527.168 1328.87 527.088 1329.04 527.025C1329.21 526.962 1329.4 526.93 1329.59 526.93C1329.91 526.93 1330.12 527.013 1330.24 527.18C1330.37 527.347 1330.43 527.585 1330.43 527.895V530.025C1330.43 530.252 1330.46 530.418 1330.52 530.525C1330.58 530.632 1330.69 530.685 1330.86 530.685C1330.96 530.685 1331.08 530.66 1331.21 530.61C1331.34 530.557 1331.47 530.47 1331.6 530.35V527.01C1331.71 526.99 1331.83 526.975 1331.97 526.965C1332.11 526.955 1332.25 526.95 1332.38 526.95C1332.51 526.95 1332.65 526.955 1332.78 526.965C1332.92 526.975 1333.05 526.99 1333.16 527.01V530.575C1333.16 530.735 1333.19 530.88 1333.24 531.01C1333.29 531.14 1333.36 531.235 1333.44 531.295C1333.42 531.435 1333.36 531.582 1333.26 531.735C1333.16 531.888 1333.07 532.003 1332.97 532.08C1332.69 532.073 1332.44 532.007 1332.24 531.88C1332.05 531.75 1331.9 531.582 1331.79 531.375C1331.58 531.568 1331.35 531.737 1331.1 531.88C1330.85 532.02 1330.58 532.09 1330.27 532.09C1329.81 532.09 1329.46 531.923 1329.22 531.59C1328.99 531.257 1328.87 530.83 1328.87 530.31V528.26ZM1317.49 544C1317.38 544.02 1317.25 544.035 1317.12 544.045C1316.98 544.055 1316.84 544.06 1316.71 544.06C1316.44 544.06 1316.19 544.04 1315.96 544V536.71L1316.03 536.64H1316.64C1316.94 536.64 1317.16 536.71 1317.29 536.85C1317.42 536.99 1317.49 537.233 1317.49 537.58V540.72H1317.64C1317.71 540.72 1317.77 540.708 1317.81 540.685C1317.85 540.662 1317.89 540.615 1317.93 540.545L1318.45 539.54C1318.54 539.35 1318.65 539.208 1318.79 539.115C1318.93 539.018 1319.11 538.97 1319.32 538.97C1319.48 538.97 1319.63 538.972 1319.77 538.975C1319.91 538.978 1320.05 538.983 1320.19 538.99L1320.25 539.07L1319.48 540.56C1319.35 540.807 1319.18 541.002 1318.97 541.145C1319.16 541.215 1319.33 541.322 1319.47 541.465C1319.61 541.605 1319.72 541.787 1319.79 542.01L1320.04 542.74C1320.12 543 1320.19 543.188 1320.26 543.305C1320.33 543.422 1320.41 543.517 1320.52 543.59C1320.39 543.73 1320.24 543.847 1320.05 543.94C1319.86 544.033 1319.67 544.08 1319.47 544.08C1319.24 544.08 1319.07 544.027 1318.96 543.92C1318.85 543.813 1318.75 543.635 1318.67 543.385L1318.38 542.52C1318.31 542.307 1318.23 542.167 1318.14 542.1C1318.05 542.033 1317.93 542 1317.8 542C1317.69 542 1317.59 542.003 1317.49 542.01V544ZM1325.49 542.75C1325.49 542.947 1325.51 543.13 1325.54 543.3C1325.58 543.467 1325.65 543.615 1325.74 543.745C1325.62 543.842 1325.48 543.922 1325.31 543.985C1325.14 544.048 1324.96 544.08 1324.76 544.08C1324.45 544.08 1324.23 543.997 1324.11 543.83C1323.99 543.663 1323.92 543.423 1323.92 543.11V540.985C1323.92 540.758 1323.89 540.592 1323.83 540.485C1323.78 540.375 1323.67 540.32 1323.5 540.32C1323.4 540.32 1323.28 540.347 1323.15 540.4C1323.02 540.453 1322.88 540.54 1322.75 540.66V544C1322.64 544.02 1322.52 544.035 1322.38 544.045C1322.24 544.055 1322.11 544.06 1321.97 544.06C1321.84 544.06 1321.71 544.055 1321.57 544.045C1321.43 544.035 1321.3 544.02 1321.19 544V539.01L1321.26 538.94H1321.85C1322.06 538.94 1322.24 538.993 1322.37 539.1C1322.51 539.203 1322.62 539.348 1322.68 539.535C1322.88 539.365 1323.09 539.22 1323.32 539.1C1323.55 538.98 1323.81 538.92 1324.09 538.92C1324.55 538.92 1324.89 539.087 1325.13 539.42C1325.37 539.75 1325.49 540.177 1325.49 540.7V542.75ZM1330.98 541.505C1330.98 542.305 1330.79 542.947 1330.39 543.43C1330 543.91 1329.43 544.15 1328.67 544.15C1327.91 544.15 1327.33 543.908 1326.94 543.425C1326.56 542.942 1326.36 542.302 1326.36 541.505C1326.36 540.702 1326.56 540.06 1326.95 539.58C1327.35 539.1 1327.92 538.86 1328.67 538.86C1329.43 538.86 1330.01 539.102 1330.4 539.585C1330.79 540.068 1330.98 540.708 1330.98 541.505ZM1327.97 541.505C1327.97 541.778 1327.98 542.027 1328.01 542.25C1328.05 542.473 1328.11 542.652 1328.21 542.785C1328.31 542.915 1328.47 542.98 1328.67 542.98C1328.88 542.98 1329.03 542.915 1329.13 542.785C1329.23 542.652 1329.3 542.473 1329.33 542.25C1329.36 542.027 1329.38 541.778 1329.38 541.505C1329.38 541.228 1329.36 540.978 1329.33 540.755C1329.3 540.532 1329.23 540.355 1329.13 540.225C1329.03 540.092 1328.88 540.025 1328.67 540.025C1328.47 540.025 1328.31 540.092 1328.21 540.225C1328.11 540.355 1328.05 540.532 1328.01 540.755C1327.98 540.978 1327.97 541.228 1327.97 541.505ZM1331.32 539.105C1331.64 538.982 1331.93 538.92 1332.19 538.92C1332.44 538.92 1332.62 538.978 1332.72 539.095C1332.82 539.212 1332.89 539.375 1332.94 539.585L1333.25 541.2C1333.38 541.87 1333.47 542.392 1333.51 542.765C1333.52 542.818 1333.54 542.845 1333.59 542.845L1334.14 539.065C1334.26 539.035 1334.42 539.015 1334.61 539.005C1334.8 538.992 1334.94 538.985 1335.04 538.985C1335.14 538.985 1335.29 538.992 1335.49 539.005C1335.69 539.015 1335.85 539.035 1335.96 539.065L1336.53 542.765C1336.54 542.818 1336.56 542.845 1336.61 542.845C1336.64 542.615 1336.68 542.362 1336.72 542.085C1336.77 541.805 1336.82 541.51 1336.88 541.2L1337.33 539.015C1337.41 538.992 1337.51 538.975 1337.62 538.965C1337.73 538.955 1337.83 538.95 1337.92 538.95C1338.03 538.95 1338.17 538.958 1338.33 538.975C1338.5 538.992 1338.64 539.027 1338.75 539.08L1338.8 539.175L1337.63 544C1337.48 544.023 1337.29 544.038 1337.08 544.045C1336.86 544.055 1336.67 544.06 1336.48 544.06C1336.18 544.06 1335.95 544.018 1335.8 543.935C1335.64 543.852 1335.55 543.657 1335.5 543.35L1335.33 542.275C1335.3 542.028 1335.25 541.74 1335.2 541.41C1335.16 541.077 1335.11 540.737 1335.08 540.39H1335.02C1334.98 540.73 1334.93 541.065 1334.88 541.395C1334.84 541.722 1334.79 542.008 1334.76 542.255L1334.48 544C1334.31 544.02 1334.12 544.035 1333.9 544.045C1333.69 544.055 1333.48 544.06 1333.3 544.06C1333 544.06 1332.78 544.013 1332.63 543.92C1332.47 543.823 1332.36 543.627 1332.29 543.33L1331.32 539.105Z" fill="black"/>
</g>
</g>
<rect width="4" height="424" transform="matrix(-1 0 0 1 1442 230)" fill="#C4C4C4"/>
<defs>
<filter id="filter0_i" x="100.286" y="123.5" width="519.403" height="462" filterUnits="userSpaceOnUse" color-interpolation-filters="sRGB">
<feFlood flood-opacity="0" result="BackgroundImageFix"/>
<feBlend mode="normal" in="SourceGraphic" in2="BackgroundImageFix" result="shape"/>
<feColorMatrix in="SourceAlpha" type="matrix" values="0 0 0 0 0 0 0 0 0 0 0 0 0 0 0 0 0 0 127 0" result="hardAlpha"/>
<feOffset dx="3" dy="4"/>
<feGaussianBlur stdDeviation="5"/>
<feComposite in2="hardAlpha" operator="arithmetic" k2="-1" k3="1"/>
<feColorMatrix type="matrix" values="0 0 0 0 0 0 0 0 0 0 0 0 0 0 0 0 0 0 0.5 0"/>
<feBlend mode="normal" in2="shape" result="effect1_innerShadow"/>
</filter>
<filter id="filter1_i" x="221.472" y="237.504" width="272.76" height="119.036" filterUnits="userSpaceOnUse" color-interpolation-filters="sRGB">
<feFlood flood-opacity="0" result="BackgroundImageFix"/>
<feBlend mode="normal" in="SourceGraphic" in2="BackgroundImageFix" result="shape"/>
<feColorMatrix in="SourceAlpha" type="matrix" values="0 0 0 0 0 0 0 0 0 0 0 0 0 0 0 0 0 0 127 0" result="hardAlpha"/>
<feOffset dy="4"/>
<feGaussianBlur stdDeviation="2"/>
<feComposite in2="hardAlpha" operator="arithmetic" k2="-1" k3="1"/>
<feColorMatrix type="matrix" values="0 0 0 0 0 0 0 0 0 0 0 0 0 0 0 0 0 0 0.25 0"/>
<feBlend mode="normal" in2="shape" result="effect1_innerShadow"/>
</filter>
<filter id="filter2_i" x="676.239" y="275.5" width="453.491" height="341" filterUnits="userSpaceOnUse" color-interpolation-filters="sRGB">
<feFlood flood-opacity="0" result="BackgroundImageFix"/>
<feBlend mode="normal" in="SourceGraphic" in2="BackgroundImageFix" result="shape"/>
<feColorMatrix in="SourceAlpha" type="matrix" values="0 0 0 0 0 0 0 0 0 0 0 0 0 0 0 0 0 0 127 0" result="hardAlpha"/>
<feOffset dx="2" dy="4"/>
<feGaussianBlur stdDeviation="5"/>
<feComposite in2="hardAlpha" operator="arithmetic" k2="-1" k3="1"/>
<feColorMatrix type="matrix" values="0 0 0 0 0 0 0 0 0 0 0 0 0 0 0 0 0 0 0.5 0"/>
<feBlend mode="normal" in2="shape" result="effect1_innerShadow"/>
</filter>
<filter id="filter3_i" x="794.945" y="361.438" width="212.387" height="119.036" filterUnits="userSpaceOnUse" color-interpolation-filters="sRGB">
<feFlood flood-opacity="0" result="BackgroundImageFix"/>
<feBlend mode="normal" in="SourceGraphic" in2="BackgroundImageFix" result="shape"/>
<feColorMatrix in="SourceAlpha" type="matrix" values="0 0 0 0 0 0 0 0 0 0 0 0 0 0 0 0 0 0 127 0" result="hardAlpha"/>
<feOffset dy="4"/>
<feGaussianBlur stdDeviation="2"/>
<feComposite in2="hardAlpha" operator="arithmetic" k2="-1" k3="1"/>
<feColorMatrix type="matrix" values="0 0 0 0 0 0 0 0 0 0 0 0 0 0 0 0 0 0 0.25 0"/>
<feBlend mode="normal" in2="shape" result="effect1_innerShadow"/>
</filter>
<filter id="filter4_i" x="1233.27" y="474.5" width="185.938" height="157" filterUnits="userSpaceOnUse" color-interpolation-filters="sRGB">
<feFlood flood-opacity="0" result="BackgroundImageFix"/>
<feBlend mode="normal" in="SourceGraphic" in2="BackgroundImageFix" result="shape"/>
<feColorMatrix in="SourceAlpha" type="matrix" values="0 0 0 0 0 0 0 0 0 0 0 0 0 0 0 0 0 0 127 0" result="hardAlpha"/>
<feOffset dy="4"/>
<feGaussianBlur stdDeviation="2"/>
<feComposite in2="hardAlpha" operator="arithmetic" k2="-1" k3="1"/>
<feColorMatrix type="matrix" values="0 0 0 0 0 0 0 0 0 0 0 0 0 0 0 0 0 0 0.25 0"/>
<feBlend mode="normal" in2="shape" result="effect1_innerShadow"/>
</filter>
<filter id="filter5_i" x="1310.55" y="512.64" width="28.5109" height="35.51" filterUnits="userSpaceOnUse" color-interpolation-filters="sRGB">
<feFlood flood-opacity="0" result="BackgroundImageFix"/>
<feBlend mode="normal" in="SourceGraphic" in2="BackgroundImageFix" result="shape"/>
<feColorMatrix in="SourceAlpha" type="matrix" values="0 0 0 0 0 0 0 0 0 0 0 0 0 0 0 0 0 0 127 0" result="hardAlpha"/>
<feOffset dy="4"/>
<feGaussianBlur stdDeviation="2"/>
<feComposite in2="hardAlpha" operator="arithmetic" k2="-1" k3="1"/>
<feColorMatrix type="matrix" values="0 0 0 0 0 0 0 0 0 0 0 0 0 0 0 0 0 0 0.25 0"/>
<feBlend mode="normal" in2="shape" result="effect1_innerShadow"/>
</filter>
</defs>
</svg>